%TF.GenerationSoftware,KiCad,Pcbnew,(5.1.10)-1*%
%TF.CreationDate,2022-01-13T15:18:29+01:00*%
%TF.ProjectId,3DESPWrover,33444553-5057-4726-9f76-65722e6b6963,rev?*%
%TF.SameCoordinates,Original*%
%TF.FileFunction,Profile,NP*%
%FSLAX46Y46*%
G04 Gerber Fmt 4.6, Leading zero omitted, Abs format (unit mm)*
G04 Created by KiCad (PCBNEW (5.1.10)-1) date 2022-01-13 15:18:29*
%MOMM*%
%LPD*%
G01*
G04 APERTURE LIST*
%TA.AperFunction,Profile*%
%ADD10C,0.020000*%
%TD*%
G04 APERTURE END LIST*
D10*
X203911200Y-86651800D02*
X203911200Y-83751800D01*
X202006200Y-86651800D02*
X203911200Y-86651800D01*
X202006200Y-83751800D02*
X202006200Y-86651800D01*
X202006200Y-83751800D02*
X203911200Y-83751800D01*
X235204000Y-51765200D02*
X235204000Y-56845200D01*
X237109000Y-56845200D02*
X235204000Y-56845200D01*
X237109000Y-51765200D02*
X237109000Y-56845200D01*
X235204000Y-51765200D02*
X237109000Y-51765200D01*
X225679000Y-88392000D02*
X225679000Y-90017000D01*
X238289714Y-75781290D02*
X238289714Y-64252715D01*
X214150426Y-90017000D02*
X214150426Y-88392000D01*
X239914714Y-90017000D02*
X239914714Y-75781280D01*
X225679000Y-90017000D02*
X239914714Y-90017000D01*
X238289714Y-64252715D02*
X239914714Y-64252715D01*
X239914714Y-50017001D02*
X225679000Y-50017001D01*
X225679000Y-50017001D02*
X225679003Y-51642001D01*
X201539715Y-64252711D02*
X201539715Y-75781286D01*
X239914714Y-64252715D02*
X239914714Y-50017001D01*
X199914715Y-75781286D02*
X199914715Y-90017000D01*
X199914715Y-90017000D02*
X214150426Y-90017000D01*
X214150426Y-88392000D02*
X225679000Y-88392000D01*
X199914715Y-64252715D02*
X201539715Y-64252711D01*
X214150429Y-51642001D02*
X214150426Y-50017001D01*
X214150426Y-50017001D02*
X199914715Y-50017001D01*
X199914715Y-50017001D02*
X199914715Y-64252715D01*
X239914714Y-75781280D02*
X238289714Y-75781290D01*
X201539715Y-75781286D02*
X199914715Y-75781286D01*
X225679003Y-51642001D02*
X214150429Y-51642001D01*
M02*
