%TF.GenerationSoftware,KiCad,Pcbnew,(5.1.10)-1*%
%TF.CreationDate,2022-01-13T15:18:29+01:00*%
%TF.ProjectId,3DESPWrover,33444553-5057-4726-9f76-65722e6b6963,rev?*%
%TF.SameCoordinates,Original*%
%TF.FileFunction,Legend,Top*%
%TF.FilePolarity,Positive*%
%FSLAX46Y46*%
G04 Gerber Fmt 4.6, Leading zero omitted, Abs format (unit mm)*
G04 Created by KiCad (PCBNEW (5.1.10)-1) date 2022-01-13 15:18:29*
%MOMM*%
%LPD*%
G01*
G04 APERTURE LIST*
%ADD10C,0.150000*%
%ADD11C,0.120000*%
G04 APERTURE END LIST*
D10*
X230202309Y-86051380D02*
X230202309Y-85051380D01*
X230583261Y-85051380D01*
X230678500Y-85099000D01*
X230726119Y-85146619D01*
X230773738Y-85241857D01*
X230773738Y-85384714D01*
X230726119Y-85479952D01*
X230678500Y-85527571D01*
X230583261Y-85575190D01*
X230202309Y-85575190D01*
X231202309Y-86051380D02*
X231202309Y-85384714D01*
X231202309Y-85575190D02*
X231249928Y-85479952D01*
X231297547Y-85432333D01*
X231392785Y-85384714D01*
X231488023Y-85384714D01*
X231964214Y-86051380D02*
X231868976Y-86003761D01*
X231821357Y-85956142D01*
X231773738Y-85860904D01*
X231773738Y-85575190D01*
X231821357Y-85479952D01*
X231868976Y-85432333D01*
X231964214Y-85384714D01*
X232107071Y-85384714D01*
X232202309Y-85432333D01*
X232249928Y-85479952D01*
X232297547Y-85575190D01*
X232297547Y-85860904D01*
X232249928Y-85956142D01*
X232202309Y-86003761D01*
X232107071Y-86051380D01*
X231964214Y-86051380D01*
X232726119Y-85384714D02*
X232726119Y-86241857D01*
X232678500Y-86337095D01*
X232583261Y-86384714D01*
X232535642Y-86384714D01*
X232726119Y-85051380D02*
X232678500Y-85099000D01*
X232726119Y-85146619D01*
X232773738Y-85099000D01*
X232726119Y-85051380D01*
X232726119Y-85146619D01*
X233583261Y-86003761D02*
X233488023Y-86051380D01*
X233297547Y-86051380D01*
X233202309Y-86003761D01*
X233154690Y-85908523D01*
X233154690Y-85527571D01*
X233202309Y-85432333D01*
X233297547Y-85384714D01*
X233488023Y-85384714D01*
X233583261Y-85432333D01*
X233630880Y-85527571D01*
X233630880Y-85622809D01*
X233154690Y-85718047D01*
X234488023Y-86003761D02*
X234392785Y-86051380D01*
X234202309Y-86051380D01*
X234107071Y-86003761D01*
X234059452Y-85956142D01*
X234011833Y-85860904D01*
X234011833Y-85575190D01*
X234059452Y-85479952D01*
X234107071Y-85432333D01*
X234202309Y-85384714D01*
X234392785Y-85384714D01*
X234488023Y-85432333D01*
X234773738Y-85384714D02*
X235154690Y-85384714D01*
X234916595Y-85051380D02*
X234916595Y-85908523D01*
X234964214Y-86003761D01*
X235059452Y-86051380D01*
X235154690Y-86051380D01*
X236821357Y-85956142D02*
X236773738Y-86003761D01*
X236630880Y-86051380D01*
X236535642Y-86051380D01*
X236392785Y-86003761D01*
X236297547Y-85908523D01*
X236249928Y-85813285D01*
X236202309Y-85622809D01*
X236202309Y-85479952D01*
X236249928Y-85289476D01*
X236297547Y-85194238D01*
X236392785Y-85099000D01*
X236535642Y-85051380D01*
X236630880Y-85051380D01*
X236773738Y-85099000D01*
X236821357Y-85146619D01*
X237678500Y-85384714D02*
X237678500Y-86051380D01*
X237249928Y-85384714D02*
X237249928Y-85908523D01*
X237297547Y-86003761D01*
X237392785Y-86051380D01*
X237535642Y-86051380D01*
X237630880Y-86003761D01*
X237678500Y-85956142D01*
X238154690Y-86051380D02*
X238154690Y-85051380D01*
X238154690Y-85432333D02*
X238249928Y-85384714D01*
X238440404Y-85384714D01*
X238535642Y-85432333D01*
X238583261Y-85479952D01*
X238630880Y-85575190D01*
X238630880Y-85860904D01*
X238583261Y-85956142D01*
X238535642Y-86003761D01*
X238440404Y-86051380D01*
X238249928Y-86051380D01*
X238154690Y-86003761D01*
X239440404Y-86003761D02*
X239345166Y-86051380D01*
X239154690Y-86051380D01*
X239059452Y-86003761D01*
X239011833Y-85908523D01*
X239011833Y-85527571D01*
X239059452Y-85432333D01*
X239154690Y-85384714D01*
X239345166Y-85384714D01*
X239440404Y-85432333D01*
X239488023Y-85527571D01*
X239488023Y-85622809D01*
X239011833Y-85718047D01*
X231868976Y-87034714D02*
X232107071Y-87701380D01*
X232345166Y-87034714D01*
X233249928Y-87701380D02*
X232678500Y-87701380D01*
X232964214Y-87701380D02*
X232964214Y-86701380D01*
X232868976Y-86844238D01*
X232773738Y-86939476D01*
X232678500Y-86987095D01*
X233678500Y-87606142D02*
X233726119Y-87653761D01*
X233678500Y-87701380D01*
X233630880Y-87653761D01*
X233678500Y-87606142D01*
X233678500Y-87701380D01*
X234678500Y-87701380D02*
X234107071Y-87701380D01*
X234392785Y-87701380D02*
X234392785Y-86701380D01*
X234297547Y-86844238D01*
X234202309Y-86939476D01*
X234107071Y-86987095D01*
X235154690Y-87653761D02*
X235154690Y-87701380D01*
X235107071Y-87796619D01*
X235059452Y-87844238D01*
X236916595Y-87701380D02*
X236583261Y-87225190D01*
X236345166Y-87701380D02*
X236345166Y-86701380D01*
X236726119Y-86701380D01*
X236821357Y-86749000D01*
X236868976Y-86796619D01*
X236916595Y-86891857D01*
X236916595Y-87034714D01*
X236868976Y-87129952D01*
X236821357Y-87177571D01*
X236726119Y-87225190D01*
X236345166Y-87225190D01*
X237345166Y-87177571D02*
X237678500Y-87177571D01*
X237821357Y-87701380D02*
X237345166Y-87701380D01*
X237345166Y-86701380D01*
X237821357Y-86701380D01*
X238202309Y-87415666D02*
X238678500Y-87415666D01*
X238107071Y-87701380D02*
X238440404Y-86701380D01*
X238773738Y-87701380D01*
X239583261Y-87701380D02*
X239107071Y-87701380D01*
X239107071Y-86701380D01*
X233345166Y-89351380D02*
X233345166Y-88351380D01*
X233678500Y-88351380D02*
X234249928Y-88351380D01*
X233964214Y-89351380D02*
X233964214Y-88351380D01*
X234583261Y-88351380D02*
X234583261Y-89160904D01*
X234630880Y-89256142D01*
X234678500Y-89303761D01*
X234773738Y-89351380D01*
X234964214Y-89351380D01*
X235059452Y-89303761D01*
X235107071Y-89256142D01*
X235154690Y-89160904D01*
X235154690Y-88351380D01*
X235678500Y-89303761D02*
X235678500Y-89351380D01*
X235630880Y-89446619D01*
X235583261Y-89494238D01*
X236868976Y-89351380D02*
X236868976Y-88684714D01*
X236868976Y-88875190D02*
X236916595Y-88779952D01*
X236964214Y-88732333D01*
X237059452Y-88684714D01*
X237154690Y-88684714D01*
X237630880Y-89351380D02*
X237535642Y-89303761D01*
X237488023Y-89256142D01*
X237440404Y-89160904D01*
X237440404Y-88875190D01*
X237488023Y-88779952D01*
X237535642Y-88732333D01*
X237630880Y-88684714D01*
X237773738Y-88684714D01*
X237868976Y-88732333D01*
X237916595Y-88779952D01*
X237964214Y-88875190D01*
X237964214Y-89160904D01*
X237916595Y-89256142D01*
X237868976Y-89303761D01*
X237773738Y-89351380D01*
X237630880Y-89351380D01*
X238821357Y-89351380D02*
X238821357Y-88351380D01*
X238821357Y-89303761D02*
X238726119Y-89351380D01*
X238535642Y-89351380D01*
X238440404Y-89303761D01*
X238392785Y-89256142D01*
X238345166Y-89160904D01*
X238345166Y-88875190D01*
X238392785Y-88779952D01*
X238440404Y-88732333D01*
X238535642Y-88684714D01*
X238726119Y-88684714D01*
X238821357Y-88732333D01*
X239297547Y-89351380D02*
X239297547Y-88684714D01*
X239297547Y-88875190D02*
X239345166Y-88779952D01*
X239392785Y-88732333D01*
X239488023Y-88684714D01*
X239583261Y-88684714D01*
D11*
%TO.C,C1*%
X204096252Y-62765000D02*
X203573748Y-62765000D01*
X204096252Y-64235000D02*
X203573748Y-64235000D01*
%TO.C,C2*%
X204096252Y-64797000D02*
X203573748Y-64797000D01*
X204096252Y-66267000D02*
X203573748Y-66267000D01*
%TO.C,C3*%
X204096252Y-62203000D02*
X203573748Y-62203000D01*
X204096252Y-60733000D02*
X203573748Y-60733000D01*
%TO.C,C4*%
X204096252Y-66829000D02*
X203573748Y-66829000D01*
X204096252Y-68299000D02*
X203573748Y-68299000D01*
%TO.C,C6*%
X223420000Y-83827252D02*
X223420000Y-83304748D01*
X224890000Y-83827252D02*
X224890000Y-83304748D01*
%TO.C,C8*%
X210573252Y-72163000D02*
X210050748Y-72163000D01*
X210573252Y-73633000D02*
X210050748Y-73633000D01*
%TO.C,C11*%
X225960000Y-83050748D02*
X225960000Y-83573252D01*
X227430000Y-83050748D02*
X227430000Y-83573252D01*
%TO.C,R1*%
X219863936Y-84482000D02*
X220318064Y-84482000D01*
X219863936Y-85952000D02*
X220318064Y-85952000D01*
%TO.C,R2*%
X219863936Y-87984000D02*
X220318064Y-87984000D01*
X219863936Y-86514000D02*
X220318064Y-86514000D01*
%TO.C,R3*%
X210539064Y-70131000D02*
X210084936Y-70131000D01*
X210539064Y-71601000D02*
X210084936Y-71601000D01*
%TO.C,J1*%
X204918000Y-85030000D02*
X204918000Y-87690000D01*
X215138000Y-85030000D02*
X204918000Y-85030000D01*
X215138000Y-87690000D02*
X204918000Y-87690000D01*
X215138000Y-85030000D02*
X215138000Y-87690000D01*
X216408000Y-85030000D02*
X217738000Y-85030000D01*
X217738000Y-85030000D02*
X217738000Y-86360000D01*
%TO.C,J3*%
X226120000Y-73339000D02*
X224790000Y-73339000D01*
X226120000Y-72009000D02*
X226120000Y-73339000D01*
X223520000Y-73339000D02*
X220920000Y-73339000D01*
X223520000Y-70739000D02*
X223520000Y-73339000D01*
X226120000Y-70739000D02*
X223520000Y-70739000D01*
X220920000Y-73339000D02*
X220920000Y-65599000D01*
X226120000Y-70739000D02*
X226120000Y-65599000D01*
X226120000Y-65599000D02*
X220920000Y-65599000D01*
%TO.C,SW1*%
X207797000Y-64038000D02*
X207797000Y-61438000D01*
X214097000Y-59288000D02*
X214097000Y-59538000D01*
X207797000Y-59288000D02*
X214097000Y-59288000D01*
X207797000Y-59538000D02*
X207797000Y-59288000D01*
X214097000Y-61438000D02*
X214097000Y-64038000D01*
X207797000Y-66188000D02*
X207797000Y-65938000D01*
X214097000Y-66188000D02*
X207797000Y-66188000D01*
X214097000Y-65938000D02*
X214097000Y-66188000D01*
%TO.C,SW2*%
X208255000Y-82321000D02*
X208255000Y-82571000D01*
X208255000Y-82571000D02*
X201955000Y-82571000D01*
X201955000Y-82571000D02*
X201955000Y-82321000D01*
X208255000Y-77821000D02*
X208255000Y-80421000D01*
X201955000Y-75921000D02*
X201955000Y-75671000D01*
X201955000Y-75671000D02*
X208255000Y-75671000D01*
X208255000Y-75671000D02*
X208255000Y-75921000D01*
X201955000Y-80421000D02*
X201955000Y-77821000D01*
%TO.C,R4*%
X212190000Y-81433936D02*
X212190000Y-81888064D01*
X210720000Y-81433936D02*
X210720000Y-81888064D01*
%TO.C,C1*%
D10*
X200874333Y-63603142D02*
X200826714Y-63650761D01*
X200683857Y-63698380D01*
X200588619Y-63698380D01*
X200445761Y-63650761D01*
X200350523Y-63555523D01*
X200302904Y-63460285D01*
X200255285Y-63269809D01*
X200255285Y-63126952D01*
X200302904Y-62936476D01*
X200350523Y-62841238D01*
X200445761Y-62746000D01*
X200588619Y-62698380D01*
X200683857Y-62698380D01*
X200826714Y-62746000D01*
X200874333Y-62793619D01*
X201826714Y-63698380D02*
X201255285Y-63698380D01*
X201541000Y-63698380D02*
X201541000Y-62698380D01*
X201445761Y-62841238D01*
X201350523Y-62936476D01*
X201255285Y-62984095D01*
%TO.C,C2*%
X206589333Y-67159142D02*
X206541714Y-67206761D01*
X206398857Y-67254380D01*
X206303619Y-67254380D01*
X206160761Y-67206761D01*
X206065523Y-67111523D01*
X206017904Y-67016285D01*
X205970285Y-66825809D01*
X205970285Y-66682952D01*
X206017904Y-66492476D01*
X206065523Y-66397238D01*
X206160761Y-66302000D01*
X206303619Y-66254380D01*
X206398857Y-66254380D01*
X206541714Y-66302000D01*
X206589333Y-66349619D01*
X206970285Y-66349619D02*
X207017904Y-66302000D01*
X207113142Y-66254380D01*
X207351238Y-66254380D01*
X207446476Y-66302000D01*
X207494095Y-66349619D01*
X207541714Y-66444857D01*
X207541714Y-66540095D01*
X207494095Y-66682952D01*
X206922666Y-67254380D01*
X207541714Y-67254380D01*
%TO.C,C3*%
X200747333Y-61825142D02*
X200699714Y-61872761D01*
X200556857Y-61920380D01*
X200461619Y-61920380D01*
X200318761Y-61872761D01*
X200223523Y-61777523D01*
X200175904Y-61682285D01*
X200128285Y-61491809D01*
X200128285Y-61348952D01*
X200175904Y-61158476D01*
X200223523Y-61063238D01*
X200318761Y-60968000D01*
X200461619Y-60920380D01*
X200556857Y-60920380D01*
X200699714Y-60968000D01*
X200747333Y-61015619D01*
X201080666Y-60920380D02*
X201699714Y-60920380D01*
X201366380Y-61301333D01*
X201509238Y-61301333D01*
X201604476Y-61348952D01*
X201652095Y-61396571D01*
X201699714Y-61491809D01*
X201699714Y-61729904D01*
X201652095Y-61825142D01*
X201604476Y-61872761D01*
X201509238Y-61920380D01*
X201223523Y-61920380D01*
X201128285Y-61872761D01*
X201080666Y-61825142D01*
%TO.C,C4*%
X203795333Y-69699142D02*
X203747714Y-69746761D01*
X203604857Y-69794380D01*
X203509619Y-69794380D01*
X203366761Y-69746761D01*
X203271523Y-69651523D01*
X203223904Y-69556285D01*
X203176285Y-69365809D01*
X203176285Y-69222952D01*
X203223904Y-69032476D01*
X203271523Y-68937238D01*
X203366761Y-68842000D01*
X203509619Y-68794380D01*
X203604857Y-68794380D01*
X203747714Y-68842000D01*
X203795333Y-68889619D01*
X204652476Y-69127714D02*
X204652476Y-69794380D01*
X204414380Y-68746761D02*
X204176285Y-69461047D01*
X204795333Y-69461047D01*
%TO.C,C6*%
X223988333Y-81002142D02*
X223940714Y-81049761D01*
X223797857Y-81097380D01*
X223702619Y-81097380D01*
X223559761Y-81049761D01*
X223464523Y-80954523D01*
X223416904Y-80859285D01*
X223369285Y-80668809D01*
X223369285Y-80525952D01*
X223416904Y-80335476D01*
X223464523Y-80240238D01*
X223559761Y-80145000D01*
X223702619Y-80097380D01*
X223797857Y-80097380D01*
X223940714Y-80145000D01*
X223988333Y-80192619D01*
X224845476Y-80097380D02*
X224655000Y-80097380D01*
X224559761Y-80145000D01*
X224512142Y-80192619D01*
X224416904Y-80335476D01*
X224369285Y-80525952D01*
X224369285Y-80906904D01*
X224416904Y-81002142D01*
X224464523Y-81049761D01*
X224559761Y-81097380D01*
X224750238Y-81097380D01*
X224845476Y-81049761D01*
X224893095Y-81002142D01*
X224940714Y-80906904D01*
X224940714Y-80668809D01*
X224893095Y-80573571D01*
X224845476Y-80525952D01*
X224750238Y-80478333D01*
X224559761Y-80478333D01*
X224464523Y-80525952D01*
X224416904Y-80573571D01*
X224369285Y-80668809D01*
%TO.C,C8*%
X207224333Y-73128142D02*
X207176714Y-73175761D01*
X207033857Y-73223380D01*
X206938619Y-73223380D01*
X206795761Y-73175761D01*
X206700523Y-73080523D01*
X206652904Y-72985285D01*
X206605285Y-72794809D01*
X206605285Y-72651952D01*
X206652904Y-72461476D01*
X206700523Y-72366238D01*
X206795761Y-72271000D01*
X206938619Y-72223380D01*
X207033857Y-72223380D01*
X207176714Y-72271000D01*
X207224333Y-72318619D01*
X207795761Y-72651952D02*
X207700523Y-72604333D01*
X207652904Y-72556714D01*
X207605285Y-72461476D01*
X207605285Y-72413857D01*
X207652904Y-72318619D01*
X207700523Y-72271000D01*
X207795761Y-72223380D01*
X207986238Y-72223380D01*
X208081476Y-72271000D01*
X208129095Y-72318619D01*
X208176714Y-72413857D01*
X208176714Y-72461476D01*
X208129095Y-72556714D01*
X208081476Y-72604333D01*
X207986238Y-72651952D01*
X207795761Y-72651952D01*
X207700523Y-72699571D01*
X207652904Y-72747190D01*
X207605285Y-72842428D01*
X207605285Y-73032904D01*
X207652904Y-73128142D01*
X207700523Y-73175761D01*
X207795761Y-73223380D01*
X207986238Y-73223380D01*
X208081476Y-73175761D01*
X208129095Y-73128142D01*
X208176714Y-73032904D01*
X208176714Y-72842428D01*
X208129095Y-72747190D01*
X208081476Y-72699571D01*
X207986238Y-72651952D01*
%TO.C,C11*%
X228732142Y-83954857D02*
X228779761Y-84002476D01*
X228827380Y-84145333D01*
X228827380Y-84240571D01*
X228779761Y-84383428D01*
X228684523Y-84478666D01*
X228589285Y-84526285D01*
X228398809Y-84573904D01*
X228255952Y-84573904D01*
X228065476Y-84526285D01*
X227970238Y-84478666D01*
X227875000Y-84383428D01*
X227827380Y-84240571D01*
X227827380Y-84145333D01*
X227875000Y-84002476D01*
X227922619Y-83954857D01*
X228827380Y-83002476D02*
X228827380Y-83573904D01*
X228827380Y-83288190D02*
X227827380Y-83288190D01*
X227970238Y-83383428D01*
X228065476Y-83478666D01*
X228113095Y-83573904D01*
X228827380Y-82050095D02*
X228827380Y-82621523D01*
X228827380Y-82335809D02*
X227827380Y-82335809D01*
X227970238Y-82431047D01*
X228065476Y-82526285D01*
X228113095Y-82621523D01*
%TO.C,R1*%
X220051333Y-84145380D02*
X219718000Y-83669190D01*
X219479904Y-84145380D02*
X219479904Y-83145380D01*
X219860857Y-83145380D01*
X219956095Y-83193000D01*
X220003714Y-83240619D01*
X220051333Y-83335857D01*
X220051333Y-83478714D01*
X220003714Y-83573952D01*
X219956095Y-83621571D01*
X219860857Y-83669190D01*
X219479904Y-83669190D01*
X221003714Y-84145380D02*
X220432285Y-84145380D01*
X220718000Y-84145380D02*
X220718000Y-83145380D01*
X220622761Y-83288238D01*
X220527523Y-83383476D01*
X220432285Y-83431095D01*
%TO.C,R2*%
X222845333Y-87701380D02*
X222512000Y-87225190D01*
X222273904Y-87701380D02*
X222273904Y-86701380D01*
X222654857Y-86701380D01*
X222750095Y-86749000D01*
X222797714Y-86796619D01*
X222845333Y-86891857D01*
X222845333Y-87034714D01*
X222797714Y-87129952D01*
X222750095Y-87177571D01*
X222654857Y-87225190D01*
X222273904Y-87225190D01*
X223226285Y-86796619D02*
X223273904Y-86749000D01*
X223369142Y-86701380D01*
X223607238Y-86701380D01*
X223702476Y-86749000D01*
X223750095Y-86796619D01*
X223797714Y-86891857D01*
X223797714Y-86987095D01*
X223750095Y-87129952D01*
X223178666Y-87701380D01*
X223797714Y-87701380D01*
%TO.C,R3*%
X213066333Y-71318380D02*
X212733000Y-70842190D01*
X212494904Y-71318380D02*
X212494904Y-70318380D01*
X212875857Y-70318380D01*
X212971095Y-70366000D01*
X213018714Y-70413619D01*
X213066333Y-70508857D01*
X213066333Y-70651714D01*
X213018714Y-70746952D01*
X212971095Y-70794571D01*
X212875857Y-70842190D01*
X212494904Y-70842190D01*
X213399666Y-70318380D02*
X214018714Y-70318380D01*
X213685380Y-70699333D01*
X213828238Y-70699333D01*
X213923476Y-70746952D01*
X213971095Y-70794571D01*
X214018714Y-70889809D01*
X214018714Y-71127904D01*
X213971095Y-71223142D01*
X213923476Y-71270761D01*
X213828238Y-71318380D01*
X213542523Y-71318380D01*
X213447285Y-71270761D01*
X213399666Y-71223142D01*
%TO.C,J1*%
X210359666Y-87971380D02*
X210359666Y-88685666D01*
X210312047Y-88828523D01*
X210216809Y-88923761D01*
X210073952Y-88971380D01*
X209978714Y-88971380D01*
X211359666Y-88971380D02*
X210788238Y-88971380D01*
X211073952Y-88971380D02*
X211073952Y-87971380D01*
X210978714Y-88114238D01*
X210883476Y-88209476D01*
X210788238Y-88257095D01*
%TO.C,J3*%
X223059666Y-73791380D02*
X223059666Y-74505666D01*
X223012047Y-74648523D01*
X222916809Y-74743761D01*
X222773952Y-74791380D01*
X222678714Y-74791380D01*
X223440619Y-73791380D02*
X224059666Y-73791380D01*
X223726333Y-74172333D01*
X223869190Y-74172333D01*
X223964428Y-74219952D01*
X224012047Y-74267571D01*
X224059666Y-74362809D01*
X224059666Y-74600904D01*
X224012047Y-74696142D01*
X223964428Y-74743761D01*
X223869190Y-74791380D01*
X223583476Y-74791380D01*
X223488238Y-74743761D01*
X223440619Y-74696142D01*
%TO.C,SW1*%
X209613666Y-67642761D02*
X209756523Y-67690380D01*
X209994619Y-67690380D01*
X210089857Y-67642761D01*
X210137476Y-67595142D01*
X210185095Y-67499904D01*
X210185095Y-67404666D01*
X210137476Y-67309428D01*
X210089857Y-67261809D01*
X209994619Y-67214190D01*
X209804142Y-67166571D01*
X209708904Y-67118952D01*
X209661285Y-67071333D01*
X209613666Y-66976095D01*
X209613666Y-66880857D01*
X209661285Y-66785619D01*
X209708904Y-66738000D01*
X209804142Y-66690380D01*
X210042238Y-66690380D01*
X210185095Y-66738000D01*
X210518428Y-66690380D02*
X210756523Y-67690380D01*
X210947000Y-66976095D01*
X211137476Y-67690380D01*
X211375571Y-66690380D01*
X212280333Y-67690380D02*
X211708904Y-67690380D01*
X211994619Y-67690380D02*
X211994619Y-66690380D01*
X211899380Y-66833238D01*
X211804142Y-66928476D01*
X211708904Y-66976095D01*
%TO.C,SW2*%
X204533666Y-83843761D02*
X204676523Y-83891380D01*
X204914619Y-83891380D01*
X205009857Y-83843761D01*
X205057476Y-83796142D01*
X205105095Y-83700904D01*
X205105095Y-83605666D01*
X205057476Y-83510428D01*
X205009857Y-83462809D01*
X204914619Y-83415190D01*
X204724142Y-83367571D01*
X204628904Y-83319952D01*
X204581285Y-83272333D01*
X204533666Y-83177095D01*
X204533666Y-83081857D01*
X204581285Y-82986619D01*
X204628904Y-82939000D01*
X204724142Y-82891380D01*
X204962238Y-82891380D01*
X205105095Y-82939000D01*
X205438428Y-82891380D02*
X205676523Y-83891380D01*
X205867000Y-83177095D01*
X206057476Y-83891380D01*
X206295571Y-82891380D01*
X206628904Y-82986619D02*
X206676523Y-82939000D01*
X206771761Y-82891380D01*
X207009857Y-82891380D01*
X207105095Y-82939000D01*
X207152714Y-82986619D01*
X207200333Y-83081857D01*
X207200333Y-83177095D01*
X207152714Y-83319952D01*
X206581285Y-83891380D01*
X207200333Y-83891380D01*
%TO.C,R4*%
X213557380Y-81827666D02*
X213081190Y-82161000D01*
X213557380Y-82399095D02*
X212557380Y-82399095D01*
X212557380Y-82018142D01*
X212605000Y-81922904D01*
X212652619Y-81875285D01*
X212747857Y-81827666D01*
X212890714Y-81827666D01*
X212985952Y-81875285D01*
X213033571Y-81922904D01*
X213081190Y-82018142D01*
X213081190Y-82399095D01*
X212890714Y-80970523D02*
X213557380Y-80970523D01*
X212509761Y-81208619D02*
X213224047Y-81446714D01*
X213224047Y-80827666D01*
%TD*%
M02*
