%TF.GenerationSoftware,KiCad,Pcbnew,(5.1.10)-1*%
%TF.CreationDate,2022-01-13T15:18:29+01:00*%
%TF.ProjectId,3DESPWrover,33444553-5057-4726-9f76-65722e6b6963,rev?*%
%TF.SameCoordinates,Original*%
%TF.FileFunction,Soldermask,Bot*%
%TF.FilePolarity,Negative*%
%FSLAX46Y46*%
G04 Gerber Fmt 4.6, Leading zero omitted, Abs format (unit mm)*
G04 Created by KiCad (PCBNEW (5.1.10)-1) date 2022-01-13 15:18:29*
%MOMM*%
%LPD*%
G01*
G04 APERTURE LIST*
%ADD10R,4.100000X4.100000*%
%ADD11R,1.500000X0.900000*%
%ADD12R,0.900000X1.500000*%
%ADD13R,1.500000X1.000000*%
%ADD14R,1.700000X1.700000*%
%ADD15O,1.700000X1.700000*%
%ADD16R,4.500000X1.750000*%
%ADD17C,1.381000*%
G04 APERTURE END LIST*
D10*
%TO.C,U1*%
X212772000Y-67512000D03*
D11*
X202957000Y-59572000D03*
X202957000Y-60972000D03*
X202957000Y-62472000D03*
X202957000Y-64072000D03*
D12*
X206332000Y-82722000D03*
X204832000Y-82722000D03*
D11*
X202957000Y-82072000D03*
X202957000Y-80572000D03*
X202957000Y-79072000D03*
X202957000Y-77572000D03*
X202957000Y-76072000D03*
X202957000Y-74572000D03*
X202957000Y-73072000D03*
X202957000Y-71572000D03*
X202957000Y-70072000D03*
X202957000Y-68572000D03*
X202957000Y-67072000D03*
X202957000Y-65572000D03*
X220207000Y-78972000D03*
X220207000Y-77472000D03*
X220207000Y-75972000D03*
X220207000Y-74472000D03*
X220207000Y-72972000D03*
X220207000Y-71472000D03*
X220207000Y-69972000D03*
X220207000Y-68472000D03*
X220207000Y-66972000D03*
X220207000Y-65472000D03*
X220207000Y-63972000D03*
X220207000Y-62472000D03*
X220207000Y-60972000D03*
D12*
X207832000Y-82722000D03*
X209332000Y-82722000D03*
X210832000Y-82722000D03*
X212332000Y-82722000D03*
X213832000Y-82722000D03*
X215332000Y-82722000D03*
X216832000Y-82722000D03*
X218332000Y-82722000D03*
D11*
X220207000Y-81972000D03*
X220207000Y-80472000D03*
X220207000Y-59472000D03*
%TD*%
D13*
%TO.C,D1*%
X222594000Y-78562000D03*
X222594000Y-75362000D03*
X227494000Y-78562000D03*
X227494000Y-75362000D03*
%TD*%
%TO.C,C9*%
G36*
G01*
X236543000Y-85565000D02*
X236543000Y-84615000D01*
G75*
G02*
X236793000Y-84365000I250000J0D01*
G01*
X237468000Y-84365000D01*
G75*
G02*
X237718000Y-84615000I0J-250000D01*
G01*
X237718000Y-85565000D01*
G75*
G02*
X237468000Y-85815000I-250000J0D01*
G01*
X236793000Y-85815000D01*
G75*
G02*
X236543000Y-85565000I0J250000D01*
G01*
G37*
G36*
G01*
X234468000Y-85565000D02*
X234468000Y-84615000D01*
G75*
G02*
X234718000Y-84365000I250000J0D01*
G01*
X235393000Y-84365000D01*
G75*
G02*
X235643000Y-84615000I0J-250000D01*
G01*
X235643000Y-85565000D01*
G75*
G02*
X235393000Y-85815000I-250000J0D01*
G01*
X234718000Y-85815000D01*
G75*
G02*
X234468000Y-85565000I0J250000D01*
G01*
G37*
%TD*%
%TO.C,C10*%
G36*
G01*
X236543000Y-87851000D02*
X236543000Y-86901000D01*
G75*
G02*
X236793000Y-86651000I250000J0D01*
G01*
X237468000Y-86651000D01*
G75*
G02*
X237718000Y-86901000I0J-250000D01*
G01*
X237718000Y-87851000D01*
G75*
G02*
X237468000Y-88101000I-250000J0D01*
G01*
X236793000Y-88101000D01*
G75*
G02*
X236543000Y-87851000I0J250000D01*
G01*
G37*
G36*
G01*
X234468000Y-87851000D02*
X234468000Y-86901000D01*
G75*
G02*
X234718000Y-86651000I250000J0D01*
G01*
X235393000Y-86651000D01*
G75*
G02*
X235643000Y-86901000I0J-250000D01*
G01*
X235643000Y-87851000D01*
G75*
G02*
X235393000Y-88101000I-250000J0D01*
G01*
X234718000Y-88101000D01*
G75*
G02*
X234468000Y-87851000I0J250000D01*
G01*
G37*
%TD*%
D14*
%TO.C,J2*%
X229743000Y-81254600D03*
D15*
X232283000Y-81254600D03*
X234823000Y-81254600D03*
%TD*%
D14*
%TO.C,J1*%
X216408000Y-86360000D03*
D15*
X213868000Y-86360000D03*
X211328000Y-86360000D03*
X208788000Y-86360000D03*
X206248000Y-86360000D03*
%TD*%
D16*
%TO.C,L1*%
X230912000Y-83846000D03*
X230912000Y-87096000D03*
%TD*%
D14*
%TO.C,J3*%
X224790000Y-72009000D03*
D15*
X222250000Y-72009000D03*
X224790000Y-69469000D03*
X222250000Y-69469000D03*
X224790000Y-66929000D03*
X222250000Y-66929000D03*
%TD*%
D17*
%TO.C,J4*%
X232918000Y-76454000D03*
X235458000Y-75184000D03*
X232918000Y-73914000D03*
X235458000Y-72644000D03*
X232918000Y-71374000D03*
X235458000Y-70104000D03*
X232918000Y-68834000D03*
X235458000Y-67564000D03*
X232918000Y-66294000D03*
X235458000Y-65024000D03*
X232918000Y-63754000D03*
X235458000Y-62484000D03*
X232918000Y-61214000D03*
X235458000Y-59944000D03*
%TD*%
M02*
