%TF.GenerationSoftware,KiCad,Pcbnew,(5.1.10)-1*%
%TF.CreationDate,2022-01-13T15:18:29+01:00*%
%TF.ProjectId,3DESPWrover,33444553-5057-4726-9f76-65722e6b6963,rev?*%
%TF.SameCoordinates,Original*%
%TF.FileFunction,Copper,L2,Bot*%
%TF.FilePolarity,Positive*%
%FSLAX46Y46*%
G04 Gerber Fmt 4.6, Leading zero omitted, Abs format (unit mm)*
G04 Created by KiCad (PCBNEW (5.1.10)-1) date 2022-01-13 15:18:29*
%MOMM*%
%LPD*%
G01*
G04 APERTURE LIST*
%TA.AperFunction,EtchedComponent*%
%ADD10C,0.100000*%
%TD*%
%TA.AperFunction,SMDPad,CuDef*%
%ADD11R,4.100000X4.100000*%
%TD*%
%TA.AperFunction,SMDPad,CuDef*%
%ADD12R,1.500000X0.900000*%
%TD*%
%TA.AperFunction,SMDPad,CuDef*%
%ADD13R,0.900000X1.500000*%
%TD*%
%TA.AperFunction,SMDPad,CuDef*%
%ADD14R,1.500000X1.000000*%
%TD*%
%TA.AperFunction,ComponentPad*%
%ADD15R,1.700000X1.700000*%
%TD*%
%TA.AperFunction,ComponentPad*%
%ADD16O,1.700000X1.700000*%
%TD*%
%TA.AperFunction,SMDPad,CuDef*%
%ADD17R,4.500000X1.750000*%
%TD*%
%TA.AperFunction,ComponentPad*%
%ADD18C,1.381000*%
%TD*%
%TA.AperFunction,SMDPad,CuDef*%
%ADD19C,0.500000*%
%TD*%
%TA.AperFunction,ViaPad*%
%ADD20C,1.000000*%
%TD*%
%TA.AperFunction,ViaPad*%
%ADD21C,0.800000*%
%TD*%
%TA.AperFunction,Conductor*%
%ADD22C,0.625000*%
%TD*%
%TA.AperFunction,Conductor*%
%ADD23C,0.312500*%
%TD*%
%TA.AperFunction,Conductor*%
%ADD24C,0.254000*%
%TD*%
%TA.AperFunction,Conductor*%
%ADD25C,0.100000*%
%TD*%
G04 APERTURE END LIST*
D10*
%TO.C,NT1*%
G36*
X230890000Y-84971000D02*
G01*
X230890000Y-85971000D01*
X231390000Y-85971000D01*
X231390000Y-84971000D01*
X230890000Y-84971000D01*
G37*
%TD*%
D11*
%TO.P,U1,43*%
%TO.N,GND*%
X212772000Y-67512000D03*
D12*
%TO.P,U1,42*%
X202957000Y-59572000D03*
%TO.P,U1,41*%
%TO.N,/RESET*%
X202957000Y-60972000D03*
%TO.P,U1,40*%
%TO.N,Net-(U1-Pad40)*%
X202957000Y-62472000D03*
%TO.P,U1,39*%
%TO.N,/NEOPIX*%
X202957000Y-64072000D03*
D13*
%TO.P,U1,25*%
%TO.N,/PSRAMCS*%
X206332000Y-82722000D03*
%TO.P,U1,26*%
%TO.N,GND*%
X204832000Y-82722000D03*
D12*
%TO.P,U1,27*%
%TO.N,/SDA*%
X202957000Y-82072000D03*
%TO.P,U1,28*%
%TO.N,/SCL*%
X202957000Y-80572000D03*
%TO.P,U1,29*%
%TO.N,/MOSI*%
X202957000Y-79072000D03*
%TO.P,U1,30*%
%TO.N,/SCK*%
X202957000Y-77572000D03*
%TO.P,U1,31*%
%TO.N,/MISO*%
X202957000Y-76072000D03*
%TO.P,U1,32*%
%TO.N,/IO38_DBLTAP*%
X202957000Y-74572000D03*
%TO.P,U1,33*%
%TO.N,/TCK*%
X202957000Y-73072000D03*
%TO.P,U1,34*%
%TO.N,/TDO*%
X202957000Y-71572000D03*
%TO.P,U1,35*%
%TO.N,/TDI*%
X202957000Y-70072000D03*
%TO.P,U1,36*%
%TO.N,/TMS_D42*%
X202957000Y-68572000D03*
%TO.P,U1,37*%
%TO.N,/TXD0*%
X202957000Y-67072000D03*
%TO.P,U1,38*%
%TO.N,/RXD0*%
X202957000Y-65572000D03*
%TO.P,U1,14*%
%TO.N,/D11*%
X220207000Y-78972000D03*
%TO.P,U1,13*%
%TO.N,/D10*%
X220207000Y-77472000D03*
%TO.P,U1,12*%
%TO.N,/D9*%
X220207000Y-75972000D03*
%TO.P,U1,11*%
%TO.N,/D8*%
X220207000Y-74472000D03*
%TO.P,U1,10*%
%TO.N,/D7*%
X220207000Y-72972000D03*
%TO.P,U1,9*%
%TO.N,/D6*%
X220207000Y-71472000D03*
%TO.P,U1,8*%
%TO.N,/D5*%
X220207000Y-69972000D03*
%TO.P,U1,7*%
%TO.N,/AD5*%
X220207000Y-68472000D03*
%TO.P,U1,6*%
%TO.N,/AD4*%
X220207000Y-66972000D03*
%TO.P,U1,5*%
%TO.N,/AD3*%
X220207000Y-65472000D03*
%TO.P,U1,4*%
%TO.N,/AD2*%
X220207000Y-63972000D03*
%TO.P,U1,3*%
%TO.N,/BOOT0*%
X220207000Y-62472000D03*
%TO.P,U1,2*%
%TO.N,+3V3*%
X220207000Y-60972000D03*
D13*
%TO.P,U1,24*%
%TO.N,/D21*%
X207832000Y-82722000D03*
%TO.P,U1,23*%
%TO.N,/D+*%
X209332000Y-82722000D03*
%TO.P,U1,22*%
%TO.N,/D-*%
X210832000Y-82722000D03*
%TO.P,U1,21*%
%TO.N,/AD1*%
X212332000Y-82722000D03*
%TO.P,U1,20*%
%TO.N,/AD0*%
X213832000Y-82722000D03*
%TO.P,U1,19*%
%TO.N,/D16*%
X215332000Y-82722000D03*
%TO.P,U1,18*%
%TO.N,/D15*%
X216832000Y-82722000D03*
%TO.P,U1,17*%
%TO.N,/D14*%
X218332000Y-82722000D03*
D12*
%TO.P,U1,16*%
%TO.N,/D13*%
X220207000Y-81972000D03*
%TO.P,U1,15*%
%TO.N,/D12*%
X220207000Y-80472000D03*
%TO.P,U1,1*%
%TO.N,GND*%
X220207000Y-59472000D03*
%TD*%
D14*
%TO.P,D1,3*%
%TO.N,GND*%
X222594000Y-78562000D03*
%TO.P,D1,4*%
%TO.N,/NEOPIX*%
X222594000Y-75362000D03*
%TO.P,D1,2*%
%TO.N,Net-(D1-Pad2)*%
X227494000Y-78562000D03*
%TO.P,D1,1*%
%TO.N,+3V3*%
X227494000Y-75362000D03*
%TD*%
%TO.P,C9,2*%
%TO.N,GND*%
%TA.AperFunction,SMDPad,CuDef*%
G36*
G01*
X236543000Y-85565000D02*
X236543000Y-84615000D01*
G75*
G02*
X236793000Y-84365000I250000J0D01*
G01*
X237468000Y-84365000D01*
G75*
G02*
X237718000Y-84615000I0J-250000D01*
G01*
X237718000Y-85565000D01*
G75*
G02*
X237468000Y-85815000I-250000J0D01*
G01*
X236793000Y-85815000D01*
G75*
G02*
X236543000Y-85565000I0J250000D01*
G01*
G37*
%TD.AperFunction*%
%TO.P,C9,1*%
%TO.N,/Vout*%
%TA.AperFunction,SMDPad,CuDef*%
G36*
G01*
X234468000Y-85565000D02*
X234468000Y-84615000D01*
G75*
G02*
X234718000Y-84365000I250000J0D01*
G01*
X235393000Y-84365000D01*
G75*
G02*
X235643000Y-84615000I0J-250000D01*
G01*
X235643000Y-85565000D01*
G75*
G02*
X235393000Y-85815000I-250000J0D01*
G01*
X234718000Y-85815000D01*
G75*
G02*
X234468000Y-85565000I0J250000D01*
G01*
G37*
%TD.AperFunction*%
%TD*%
%TO.P,C10,2*%
%TO.N,GND*%
%TA.AperFunction,SMDPad,CuDef*%
G36*
G01*
X236543000Y-87851000D02*
X236543000Y-86901000D01*
G75*
G02*
X236793000Y-86651000I250000J0D01*
G01*
X237468000Y-86651000D01*
G75*
G02*
X237718000Y-86901000I0J-250000D01*
G01*
X237718000Y-87851000D01*
G75*
G02*
X237468000Y-88101000I-250000J0D01*
G01*
X236793000Y-88101000D01*
G75*
G02*
X236543000Y-87851000I0J250000D01*
G01*
G37*
%TD.AperFunction*%
%TO.P,C10,1*%
%TO.N,+3V3*%
%TA.AperFunction,SMDPad,CuDef*%
G36*
G01*
X234468000Y-87851000D02*
X234468000Y-86901000D01*
G75*
G02*
X234718000Y-86651000I250000J0D01*
G01*
X235393000Y-86651000D01*
G75*
G02*
X235643000Y-86901000I0J-250000D01*
G01*
X235643000Y-87851000D01*
G75*
G02*
X235393000Y-88101000I-250000J0D01*
G01*
X234718000Y-88101000D01*
G75*
G02*
X234468000Y-87851000I0J250000D01*
G01*
G37*
%TD.AperFunction*%
%TD*%
D15*
%TO.P,J2,1*%
%TO.N,/Vin*%
X229743000Y-81254600D03*
D16*
%TO.P,J2,2*%
%TO.N,/Vout*%
X232283000Y-81254600D03*
%TO.P,J2,3*%
%TO.N,GND*%
X234823000Y-81254600D03*
%TD*%
D15*
%TO.P,J1,1*%
%TO.N,Net-(J1-Pad1)*%
X216408000Y-86360000D03*
D16*
%TO.P,J1,2*%
%TO.N,Net-(J1-Pad2)*%
X213868000Y-86360000D03*
%TO.P,J1,3*%
%TO.N,/D-*%
X211328000Y-86360000D03*
%TO.P,J1,4*%
%TO.N,/D+*%
X208788000Y-86360000D03*
%TO.P,J1,5*%
%TO.N,GND*%
X206248000Y-86360000D03*
%TD*%
D17*
%TO.P,L1,1*%
%TO.N,/Vout*%
X230912000Y-83846000D03*
%TO.P,L1,2*%
%TO.N,+3V3*%
X230912000Y-87096000D03*
%TD*%
D15*
%TO.P,J3,1*%
%TO.N,/Vin*%
X224790000Y-72009000D03*
D16*
%TO.P,J3,2*%
%TO.N,GND*%
X222250000Y-72009000D03*
%TO.P,J3,3*%
%TO.N,/D6*%
X224790000Y-69469000D03*
%TO.P,J3,4*%
%TO.N,/D5*%
X222250000Y-69469000D03*
%TO.P,J3,5*%
%TO.N,/Vin*%
X224790000Y-66929000D03*
%TO.P,J3,6*%
%TO.N,GND*%
X222250000Y-66929000D03*
%TD*%
D18*
%TO.P,J4,14*%
%TO.N,/Vin*%
X232918000Y-76454000D03*
%TO.P,J4,13*%
X235458000Y-75184000D03*
%TO.P,J4,12*%
%TO.N,/D16*%
X232918000Y-73914000D03*
%TO.P,J4,11*%
%TO.N,/D15*%
X235458000Y-72644000D03*
%TO.P,J4,10*%
%TO.N,/D14*%
X232918000Y-71374000D03*
%TO.P,J4,9*%
%TO.N,/D13*%
X235458000Y-70104000D03*
%TO.P,J4,8*%
%TO.N,/D12*%
X232918000Y-68834000D03*
%TO.P,J4,7*%
%TO.N,/D11*%
X235458000Y-67564000D03*
%TO.P,J4,6*%
%TO.N,/D10*%
X232918000Y-66294000D03*
%TO.P,J4,5*%
%TO.N,/D9*%
X235458000Y-65024000D03*
%TO.P,J4,4*%
%TO.N,/D8*%
X232918000Y-63754000D03*
%TO.P,J4,3*%
%TO.N,/D7*%
X235458000Y-62484000D03*
%TO.P,J4,2*%
%TO.N,GND*%
X232918000Y-61214000D03*
%TO.P,J4,1*%
X235458000Y-59944000D03*
%TD*%
D19*
%TO.P,NT1,1*%
%TO.N,/Vout*%
X231140000Y-84971000D03*
%TO.P,NT1,2*%
%TO.N,+3V3*%
X231140000Y-85971000D03*
%TD*%
D20*
%TO.N,+3V3*%
X226441000Y-85979000D03*
X207010000Y-62738000D03*
D21*
%TO.N,GND*%
X222631000Y-77216000D03*
%TO.N,/RESET*%
X209677000Y-68961000D03*
%TO.N,/NEOPIX*%
X211709000Y-84201000D03*
X205359000Y-74676000D03*
%TO.N,/D7*%
X215900000Y-70612000D03*
%TO.N,/D8*%
X216027000Y-71628000D03*
%TO.N,/D9*%
X216154000Y-72644000D03*
%TO.N,/D10*%
X216281000Y-73660000D03*
%TO.N,/D11*%
X216408000Y-74676000D03*
%TO.N,/D12*%
X216408000Y-75692000D03*
%TO.N,/BOOT0*%
X216535000Y-61849000D03*
%TO.N,/AD1*%
X211812500Y-79248000D03*
%TO.N,/D16*%
X215900000Y-79756000D03*
%TO.N,/D15*%
X216027000Y-78740000D03*
%TO.N,/D14*%
X216154000Y-77724000D03*
%TO.N,/D13*%
X216154000Y-76708000D03*
%TD*%
D22*
%TO.N,+3V3*%
X231192000Y-87376000D02*
X230912000Y-87096000D01*
X235055500Y-87376000D02*
X231192000Y-87376000D01*
X220092000Y-60960000D02*
X220207000Y-60845000D01*
X230912000Y-87096000D02*
X230912000Y-86640000D01*
X226387749Y-85925749D02*
X226441000Y-85979000D01*
X227494000Y-75362000D02*
X226387749Y-76468251D01*
X225941001Y-76914999D02*
X226387749Y-76468251D01*
X225941001Y-85479001D02*
X225941001Y-76914999D01*
X226441000Y-85979000D02*
X225941001Y-85479001D01*
X231140000Y-86868000D02*
X230912000Y-87096000D01*
X231140000Y-85971000D02*
X231140000Y-86868000D01*
X227558000Y-87096000D02*
X226441000Y-85979000D01*
X230912000Y-87096000D02*
X227558000Y-87096000D01*
X208811501Y-60936499D02*
X207010000Y-62738000D01*
X220171499Y-60936499D02*
X208811501Y-60936499D01*
X220207000Y-60972000D02*
X220171499Y-60936499D01*
D23*
%TO.N,GND*%
X222631000Y-78525000D02*
X222594000Y-78562000D01*
X222631000Y-77216000D02*
X222631000Y-78525000D01*
X206629500Y-86360000D02*
X206375000Y-86360000D01*
%TO.N,/RESET*%
X209677000Y-68961000D02*
X209039050Y-68961000D01*
X209039050Y-68961000D02*
X205486000Y-65407950D01*
X203298252Y-60845000D02*
X202957000Y-60845000D01*
X205486000Y-65407950D02*
X205486000Y-63032748D01*
X203425252Y-60972000D02*
X205486000Y-63032748D01*
X202957000Y-60972000D02*
X203425252Y-60972000D01*
D22*
%TO.N,/Vout*%
X230912000Y-83846000D02*
X230912000Y-83667000D01*
X231140000Y-84074000D02*
X230912000Y-83846000D01*
X231140000Y-84971000D02*
X231140000Y-84074000D01*
X235055500Y-85090000D02*
X234315000Y-85090000D01*
X233071000Y-83846000D02*
X230912000Y-83846000D01*
X234315000Y-85090000D02*
X233071000Y-83846000D01*
X231114000Y-83846000D02*
X230912000Y-83846000D01*
X232283000Y-82475000D02*
X230912000Y-83846000D01*
X232283000Y-81254600D02*
X232283000Y-82475000D01*
D23*
%TO.N,/NEOPIX*%
X204978000Y-74676000D02*
X205359000Y-74676000D01*
X204470000Y-74168000D02*
X204978000Y-74676000D01*
X204470000Y-64395500D02*
X204470000Y-74168000D01*
X204146500Y-64072000D02*
X204470000Y-64395500D01*
X202957000Y-64072000D02*
X204146500Y-64072000D01*
X211836000Y-84074000D02*
X211709000Y-84201000D01*
X222377000Y-82169000D02*
X220472000Y-84074000D01*
X220472000Y-84074000D02*
X211836000Y-84074000D01*
X222377000Y-81280000D02*
X222377000Y-82169000D01*
X223700251Y-79956749D02*
X222377000Y-81280000D01*
X223700251Y-76634251D02*
X223700251Y-79956749D01*
X222594000Y-75528000D02*
X223700251Y-76634251D01*
X222594000Y-75362000D02*
X222594000Y-75528000D01*
%TO.N,/D+*%
X209332000Y-85816000D02*
X208788000Y-86360000D01*
X209332000Y-82722000D02*
X209332000Y-85816000D01*
%TO.N,/D-*%
X210832000Y-85864000D02*
X211328000Y-86360000D01*
X210832000Y-82722000D02*
X210832000Y-85864000D01*
%TO.N,/D5*%
X221874000Y-69845000D02*
X222250000Y-69469000D01*
X220207000Y-69845000D02*
X221874000Y-69845000D01*
%TO.N,/D6*%
X223583749Y-70675251D02*
X224790000Y-69469000D01*
X221805749Y-70675251D02*
X223583749Y-70675251D01*
X221136000Y-71345000D02*
X221805749Y-70675251D01*
X220207000Y-71345000D02*
X221136000Y-71345000D01*
%TO.N,/D7*%
X216911500Y-70612000D02*
X215900000Y-70612000D01*
X219271500Y-72972000D02*
X216911500Y-70612000D01*
X220207000Y-72972000D02*
X219271500Y-72972000D01*
%TO.N,/D8*%
X220207000Y-74345000D02*
X219887000Y-74345000D01*
X219907000Y-74472000D02*
X217170000Y-71735000D01*
X220207000Y-74472000D02*
X219907000Y-74472000D01*
X216134000Y-71735000D02*
X216027000Y-71628000D01*
X217170000Y-71735000D02*
X216134000Y-71735000D01*
%TO.N,/D9*%
X218948000Y-75648500D02*
X218948000Y-74295000D01*
X217297000Y-72644000D02*
X216154000Y-72644000D01*
X218948000Y-74295000D02*
X217297000Y-72644000D01*
X219271500Y-75972000D02*
X218948000Y-75648500D01*
X220207000Y-75972000D02*
X219271500Y-75972000D01*
%TO.N,/D10*%
X218313000Y-76513500D02*
X218313000Y-74422000D01*
X217551000Y-73660000D02*
X216281000Y-73660000D01*
X218313000Y-74422000D02*
X217551000Y-73660000D01*
X219271500Y-77472000D02*
X218313000Y-76513500D01*
X220207000Y-77472000D02*
X219271500Y-77472000D01*
%TO.N,/D11*%
X217800490Y-76830490D02*
X217800490Y-75052490D01*
X217424000Y-74676000D02*
X216408000Y-74676000D01*
X217800490Y-75052490D02*
X217424000Y-74676000D01*
X219942000Y-78972000D02*
X217800490Y-76830490D01*
X220207000Y-78972000D02*
X219942000Y-78972000D01*
%TO.N,/D12*%
X218948000Y-78702798D02*
X217170000Y-76924798D01*
X218948000Y-80148500D02*
X218948000Y-78702798D01*
X217170000Y-76454000D02*
X216408000Y-75692000D01*
X217170000Y-76924798D02*
X217170000Y-76454000D01*
X219271500Y-80472000D02*
X218948000Y-80148500D01*
X220207000Y-80472000D02*
X219271500Y-80472000D01*
%TO.N,/BOOT0*%
X217158000Y-62472000D02*
X216535000Y-61849000D01*
X220207000Y-62472000D02*
X217158000Y-62472000D01*
%TO.N,/AD1*%
X211812500Y-79248000D02*
X212332000Y-79767500D01*
X212332000Y-82722000D02*
X212332000Y-79767500D01*
%TO.N,/D16*%
X215332000Y-80324000D02*
X215900000Y-79756000D01*
X215332000Y-82722000D02*
X215332000Y-80324000D01*
%TO.N,/D15*%
X217043000Y-80762980D02*
X217043000Y-79502000D01*
X216832000Y-80973980D02*
X217043000Y-80762980D01*
X216535000Y-79248000D02*
X216027000Y-78740000D01*
X216789000Y-79248000D02*
X216535000Y-79248000D01*
X217043000Y-79502000D02*
X216789000Y-79248000D01*
X216832000Y-82722000D02*
X216832000Y-80973980D01*
%TO.N,/D14*%
X217800490Y-79370490D02*
X216154000Y-77724000D01*
X217800490Y-80640490D02*
X217800490Y-79370490D01*
X218332000Y-81172000D02*
X217800490Y-80640490D01*
X218332000Y-82722000D02*
X218332000Y-81172000D01*
%TO.N,/D13*%
X218313000Y-78867000D02*
X216154000Y-76708000D01*
X219907000Y-81972000D02*
X218313000Y-80378000D01*
X218313000Y-80378000D02*
X218313000Y-78867000D01*
X220207000Y-81972000D02*
X219907000Y-81972000D01*
%TD*%
D24*
%TO.N,GND*%
X239269714Y-63607715D02*
X238321393Y-63607715D01*
X238289714Y-63604595D01*
X238258035Y-63607715D01*
X238163272Y-63617048D01*
X238041689Y-63653930D01*
X237929638Y-63713823D01*
X237831424Y-63794425D01*
X237750822Y-63892639D01*
X237690929Y-64004690D01*
X237654047Y-64126273D01*
X237641594Y-64252715D01*
X237644715Y-64284404D01*
X237644714Y-75749622D01*
X237641595Y-75781293D01*
X237644714Y-75812962D01*
X237644714Y-75812968D01*
X237654047Y-75907731D01*
X237690929Y-76029314D01*
X237750822Y-76141365D01*
X237750823Y-76141366D01*
X237750825Y-76141369D01*
X237764706Y-76158284D01*
X237831424Y-76239580D01*
X237929638Y-76320182D01*
X238041689Y-76380075D01*
X238163272Y-76416957D01*
X238289714Y-76429410D01*
X238321397Y-76426290D01*
X239269715Y-76426283D01*
X239269714Y-89372000D01*
X226324000Y-89372000D01*
X226324000Y-88423679D01*
X226327120Y-88392000D01*
X226314667Y-88265558D01*
X226277785Y-88143975D01*
X226217892Y-88031924D01*
X226137290Y-87933710D01*
X226039076Y-87853108D01*
X225927025Y-87793215D01*
X225805442Y-87756333D01*
X225710679Y-87747000D01*
X225679000Y-87743880D01*
X225647321Y-87747000D01*
X217600403Y-87747000D01*
X217612494Y-87740537D01*
X217709185Y-87661185D01*
X217788537Y-87564494D01*
X217847502Y-87454180D01*
X217883812Y-87334482D01*
X217896072Y-87210000D01*
X217896072Y-85510000D01*
X217883812Y-85385518D01*
X217847502Y-85265820D01*
X217788537Y-85155506D01*
X217709185Y-85058815D01*
X217612494Y-84979463D01*
X217502180Y-84920498D01*
X217382482Y-84884188D01*
X217258000Y-84871928D01*
X215558000Y-84871928D01*
X215433518Y-84884188D01*
X215313820Y-84920498D01*
X215203506Y-84979463D01*
X215106815Y-85058815D01*
X215027463Y-85155506D01*
X214968498Y-85265820D01*
X214946487Y-85338380D01*
X214814632Y-85206525D01*
X214571411Y-85044010D01*
X214301158Y-84932068D01*
X214014260Y-84875000D01*
X213721740Y-84875000D01*
X213434842Y-84932068D01*
X213164589Y-85044010D01*
X212921368Y-85206525D01*
X212714525Y-85413368D01*
X212598000Y-85587760D01*
X212481475Y-85413368D01*
X212274632Y-85206525D01*
X212164190Y-85132730D01*
X212199256Y-85118205D01*
X212368774Y-85004937D01*
X212508461Y-84865250D01*
X220433144Y-84865250D01*
X220472000Y-84869077D01*
X220510856Y-84865250D01*
X220510867Y-84865250D01*
X220627112Y-84853801D01*
X220776263Y-84808556D01*
X220913722Y-84735083D01*
X221034205Y-84636205D01*
X221058983Y-84606013D01*
X222909019Y-82755978D01*
X222939205Y-82731205D01*
X223008736Y-82646482D01*
X223038083Y-82610722D01*
X223111556Y-82473263D01*
X223156801Y-82324112D01*
X223172078Y-82169000D01*
X223168250Y-82130133D01*
X223168250Y-81607746D01*
X224232264Y-80543732D01*
X224262456Y-80518954D01*
X224361334Y-80398471D01*
X224434807Y-80261012D01*
X224480052Y-80111861D01*
X224491501Y-79995616D01*
X224495329Y-79956749D01*
X224491501Y-79917882D01*
X224491501Y-76914999D01*
X224988918Y-76914999D01*
X224993502Y-76961544D01*
X224993501Y-85432466D01*
X224988918Y-85479001D01*
X224993501Y-85525535D01*
X224993501Y-85525542D01*
X225001490Y-85606653D01*
X225007211Y-85664743D01*
X225037085Y-85763225D01*
X225061390Y-85843347D01*
X225149372Y-86007951D01*
X225267776Y-86152226D01*
X225303935Y-86181901D01*
X225329136Y-86207102D01*
X225349617Y-86310067D01*
X225435176Y-86516624D01*
X225559388Y-86702520D01*
X225717480Y-86860612D01*
X225903376Y-86984824D01*
X226109933Y-87070383D01*
X226212897Y-87090864D01*
X226855108Y-87733076D01*
X226884775Y-87769225D01*
X226920923Y-87798891D01*
X226920926Y-87798894D01*
X226956912Y-87828426D01*
X227029050Y-87887629D01*
X227193653Y-87975611D01*
X227372258Y-88029790D01*
X227558000Y-88048084D01*
X227604542Y-88043500D01*
X228031068Y-88043500D01*
X228036188Y-88095482D01*
X228072498Y-88215180D01*
X228131463Y-88325494D01*
X228210815Y-88422185D01*
X228307506Y-88501537D01*
X228417820Y-88560502D01*
X228537518Y-88596812D01*
X228662000Y-88609072D01*
X233162000Y-88609072D01*
X233286482Y-88596812D01*
X233406180Y-88560502D01*
X233516494Y-88501537D01*
X233613185Y-88422185D01*
X233692537Y-88325494D01*
X233693603Y-88323500D01*
X233968431Y-88323500D01*
X233979595Y-88344386D01*
X234090038Y-88478962D01*
X234224614Y-88589405D01*
X234378150Y-88671472D01*
X234544746Y-88722008D01*
X234718000Y-88739072D01*
X235393000Y-88739072D01*
X235566254Y-88722008D01*
X235732850Y-88671472D01*
X235886386Y-88589405D01*
X236020962Y-88478962D01*
X236026342Y-88472406D01*
X236091815Y-88552185D01*
X236188506Y-88631537D01*
X236298820Y-88690502D01*
X236418518Y-88726812D01*
X236543000Y-88739072D01*
X236844750Y-88736000D01*
X237003500Y-88577250D01*
X237003500Y-87503000D01*
X237257500Y-87503000D01*
X237257500Y-88577250D01*
X237416250Y-88736000D01*
X237718000Y-88739072D01*
X237842482Y-88726812D01*
X237962180Y-88690502D01*
X238072494Y-88631537D01*
X238169185Y-88552185D01*
X238248537Y-88455494D01*
X238307502Y-88345180D01*
X238343812Y-88225482D01*
X238356072Y-88101000D01*
X238353000Y-87661750D01*
X238194250Y-87503000D01*
X237257500Y-87503000D01*
X237003500Y-87503000D01*
X236983500Y-87503000D01*
X236983500Y-87249000D01*
X237003500Y-87249000D01*
X237003500Y-85217000D01*
X237257500Y-85217000D01*
X237257500Y-87249000D01*
X238194250Y-87249000D01*
X238353000Y-87090250D01*
X238356072Y-86651000D01*
X238343812Y-86526518D01*
X238307502Y-86406820D01*
X238248537Y-86296506D01*
X238196419Y-86233000D01*
X238248537Y-86169494D01*
X238307502Y-86059180D01*
X238343812Y-85939482D01*
X238356072Y-85815000D01*
X238353000Y-85375750D01*
X238194250Y-85217000D01*
X237257500Y-85217000D01*
X237003500Y-85217000D01*
X236983500Y-85217000D01*
X236983500Y-84963000D01*
X237003500Y-84963000D01*
X237003500Y-83888750D01*
X237257500Y-83888750D01*
X237257500Y-84963000D01*
X238194250Y-84963000D01*
X238353000Y-84804250D01*
X238356072Y-84365000D01*
X238343812Y-84240518D01*
X238307502Y-84120820D01*
X238248537Y-84010506D01*
X238169185Y-83913815D01*
X238072494Y-83834463D01*
X237962180Y-83775498D01*
X237842482Y-83739188D01*
X237718000Y-83726928D01*
X237416250Y-83730000D01*
X237257500Y-83888750D01*
X237003500Y-83888750D01*
X236844750Y-83730000D01*
X236543000Y-83726928D01*
X236418518Y-83739188D01*
X236298820Y-83775498D01*
X236188506Y-83834463D01*
X236091815Y-83913815D01*
X236026342Y-83993594D01*
X236020962Y-83987038D01*
X235886386Y-83876595D01*
X235732850Y-83794528D01*
X235566254Y-83743992D01*
X235393000Y-83726928D01*
X234718000Y-83726928D01*
X234544746Y-83743992D01*
X234378150Y-83794528D01*
X234365993Y-83801026D01*
X233800072Y-83235106D01*
X233800072Y-82971000D01*
X233787812Y-82846518D01*
X233751502Y-82726820D01*
X233692537Y-82616506D01*
X233613185Y-82519815D01*
X233516494Y-82440463D01*
X233406180Y-82381498D01*
X233291114Y-82346593D01*
X233436475Y-82201232D01*
X233558195Y-82019066D01*
X233627822Y-82135955D01*
X233822731Y-82352188D01*
X234056080Y-82526241D01*
X234318901Y-82651425D01*
X234466110Y-82696076D01*
X234696000Y-82574755D01*
X234696000Y-81381600D01*
X234950000Y-81381600D01*
X234950000Y-82574755D01*
X235179890Y-82696076D01*
X235327099Y-82651425D01*
X235589920Y-82526241D01*
X235823269Y-82352188D01*
X236018178Y-82135955D01*
X236167157Y-81885852D01*
X236264481Y-81611491D01*
X236143814Y-81381600D01*
X234950000Y-81381600D01*
X234696000Y-81381600D01*
X234676000Y-81381600D01*
X234676000Y-81127600D01*
X234696000Y-81127600D01*
X234696000Y-79934445D01*
X234950000Y-79934445D01*
X234950000Y-81127600D01*
X236143814Y-81127600D01*
X236264481Y-80897709D01*
X236167157Y-80623348D01*
X236018178Y-80373245D01*
X235823269Y-80157012D01*
X235589920Y-79982959D01*
X235327099Y-79857775D01*
X235179890Y-79813124D01*
X234950000Y-79934445D01*
X234696000Y-79934445D01*
X234466110Y-79813124D01*
X234318901Y-79857775D01*
X234056080Y-79982959D01*
X233822731Y-80157012D01*
X233627822Y-80373245D01*
X233558195Y-80490134D01*
X233436475Y-80307968D01*
X233229632Y-80101125D01*
X232986411Y-79938610D01*
X232716158Y-79826668D01*
X232429260Y-79769600D01*
X232136740Y-79769600D01*
X231849842Y-79826668D01*
X231579589Y-79938610D01*
X231336368Y-80101125D01*
X231204513Y-80232980D01*
X231182502Y-80160420D01*
X231123537Y-80050106D01*
X231044185Y-79953415D01*
X230947494Y-79874063D01*
X230837180Y-79815098D01*
X230717482Y-79778788D01*
X230593000Y-79766528D01*
X228893000Y-79766528D01*
X228768518Y-79778788D01*
X228648820Y-79815098D01*
X228538506Y-79874063D01*
X228441815Y-79953415D01*
X228362463Y-80050106D01*
X228303498Y-80160420D01*
X228267188Y-80280118D01*
X228254928Y-80404600D01*
X228254928Y-82104600D01*
X228267188Y-82229082D01*
X228303498Y-82348780D01*
X228342505Y-82421755D01*
X228307506Y-82440463D01*
X228210815Y-82519815D01*
X228131463Y-82616506D01*
X228072498Y-82726820D01*
X228036188Y-82846518D01*
X228023928Y-82971000D01*
X228023928Y-84721000D01*
X228036188Y-84845482D01*
X228072498Y-84965180D01*
X228131463Y-85075494D01*
X228210815Y-85172185D01*
X228307506Y-85251537D01*
X228417820Y-85310502D01*
X228537518Y-85346812D01*
X228662000Y-85359072D01*
X230255000Y-85359072D01*
X230255000Y-85582928D01*
X228662000Y-85582928D01*
X228537518Y-85595188D01*
X228417820Y-85631498D01*
X228307506Y-85690463D01*
X228210815Y-85769815D01*
X228131463Y-85866506D01*
X228072498Y-85976820D01*
X228036188Y-86096518D01*
X228031068Y-86148500D01*
X227950467Y-86148500D01*
X227552864Y-85750897D01*
X227532383Y-85647933D01*
X227446824Y-85441376D01*
X227322612Y-85255480D01*
X227164520Y-85097388D01*
X226978624Y-84973176D01*
X226888501Y-84935846D01*
X226888501Y-79700072D01*
X228244000Y-79700072D01*
X228368482Y-79687812D01*
X228488180Y-79651502D01*
X228598494Y-79592537D01*
X228695185Y-79513185D01*
X228774537Y-79416494D01*
X228833502Y-79306180D01*
X228869812Y-79186482D01*
X228882072Y-79062000D01*
X228882072Y-78062000D01*
X228869812Y-77937518D01*
X228833502Y-77817820D01*
X228774537Y-77707506D01*
X228695185Y-77610815D01*
X228598494Y-77531463D01*
X228488180Y-77472498D01*
X228368482Y-77436188D01*
X228244000Y-77423928D01*
X226888501Y-77423928D01*
X226888501Y-77307465D01*
X227090642Y-77105324D01*
X227695895Y-76500072D01*
X228244000Y-76500072D01*
X228368482Y-76487812D01*
X228488180Y-76451502D01*
X228598494Y-76392537D01*
X228695185Y-76313185D01*
X228774537Y-76216494D01*
X228833502Y-76106180D01*
X228869812Y-75986482D01*
X228882072Y-75862000D01*
X228882072Y-74862000D01*
X228869812Y-74737518D01*
X228833502Y-74617820D01*
X228774537Y-74507506D01*
X228695185Y-74410815D01*
X228598494Y-74331463D01*
X228488180Y-74272498D01*
X228368482Y-74236188D01*
X228244000Y-74223928D01*
X226744000Y-74223928D01*
X226619518Y-74236188D01*
X226499820Y-74272498D01*
X226389506Y-74331463D01*
X226292815Y-74410815D01*
X226213463Y-74507506D01*
X226154498Y-74617820D01*
X226118188Y-74737518D01*
X226105928Y-74862000D01*
X226105928Y-75410106D01*
X225303931Y-76212103D01*
X225267777Y-76241774D01*
X225149373Y-76386049D01*
X225110614Y-76458562D01*
X225061390Y-76550653D01*
X225007211Y-76729257D01*
X224988918Y-76914999D01*
X224491501Y-76914999D01*
X224491501Y-76673107D01*
X224495328Y-76634250D01*
X224491501Y-76595394D01*
X224491501Y-76595384D01*
X224480052Y-76479139D01*
X224434807Y-76329988D01*
X224361334Y-76192529D01*
X224342358Y-76169407D01*
X224287232Y-76102235D01*
X224287229Y-76102232D01*
X224262456Y-76072046D01*
X224232271Y-76047274D01*
X223982072Y-75797075D01*
X223982072Y-74862000D01*
X223969812Y-74737518D01*
X223933502Y-74617820D01*
X223874537Y-74507506D01*
X223795185Y-74410815D01*
X223698494Y-74331463D01*
X223588180Y-74272498D01*
X223468482Y-74236188D01*
X223344000Y-74223928D01*
X221844000Y-74223928D01*
X221719518Y-74236188D01*
X221599820Y-74272498D01*
X221595072Y-74275036D01*
X221595072Y-74022000D01*
X221582812Y-73897518D01*
X221546502Y-73777820D01*
X221516665Y-73722000D01*
X221546502Y-73666180D01*
X221582812Y-73546482D01*
X221595072Y-73422000D01*
X221595072Y-73339054D01*
X221618748Y-73353157D01*
X221893109Y-73450481D01*
X222123000Y-73329814D01*
X222123000Y-72136000D01*
X222103000Y-72136000D01*
X222103000Y-71882000D01*
X222123000Y-71882000D01*
X222123000Y-71862000D01*
X222377000Y-71862000D01*
X222377000Y-71882000D01*
X222397000Y-71882000D01*
X222397000Y-72136000D01*
X222377000Y-72136000D01*
X222377000Y-73329814D01*
X222606891Y-73450481D01*
X222881252Y-73353157D01*
X223131355Y-73204178D01*
X223327502Y-73027374D01*
X223350498Y-73103180D01*
X223409463Y-73213494D01*
X223488815Y-73310185D01*
X223585506Y-73389537D01*
X223695820Y-73448502D01*
X223815518Y-73484812D01*
X223940000Y-73497072D01*
X225640000Y-73497072D01*
X225764482Y-73484812D01*
X225884180Y-73448502D01*
X225994494Y-73389537D01*
X226091185Y-73310185D01*
X226170537Y-73213494D01*
X226229502Y-73103180D01*
X226265812Y-72983482D01*
X226278072Y-72859000D01*
X226278072Y-71159000D01*
X226265812Y-71034518D01*
X226229502Y-70914820D01*
X226170537Y-70804506D01*
X226091185Y-70707815D01*
X225994494Y-70628463D01*
X225884180Y-70569498D01*
X225811620Y-70547487D01*
X225943475Y-70415632D01*
X226105990Y-70172411D01*
X226217932Y-69902158D01*
X226275000Y-69615260D01*
X226275000Y-69322740D01*
X226217932Y-69035842D01*
X226105990Y-68765589D01*
X225943475Y-68522368D01*
X225736632Y-68315525D01*
X225562240Y-68199000D01*
X225736632Y-68082475D01*
X225943475Y-67875632D01*
X226105990Y-67632411D01*
X226217932Y-67362158D01*
X226275000Y-67075260D01*
X226275000Y-66782740D01*
X226217932Y-66495842D01*
X226105990Y-66225589D01*
X225943475Y-65982368D01*
X225736632Y-65775525D01*
X225493411Y-65613010D01*
X225223158Y-65501068D01*
X224936260Y-65444000D01*
X224643740Y-65444000D01*
X224356842Y-65501068D01*
X224086589Y-65613010D01*
X223843368Y-65775525D01*
X223636525Y-65982368D01*
X223518900Y-66158406D01*
X223347588Y-65928731D01*
X223131355Y-65733822D01*
X222881252Y-65584843D01*
X222606891Y-65487519D01*
X222377000Y-65608186D01*
X222377000Y-66802000D01*
X222397000Y-66802000D01*
X222397000Y-67056000D01*
X222377000Y-67056000D01*
X222377000Y-67076000D01*
X222123000Y-67076000D01*
X222123000Y-67056000D01*
X222103000Y-67056000D01*
X222103000Y-66802000D01*
X222123000Y-66802000D01*
X222123000Y-65608186D01*
X221893109Y-65487519D01*
X221618748Y-65584843D01*
X221595072Y-65598946D01*
X221595072Y-65022000D01*
X221582812Y-64897518D01*
X221546502Y-64777820D01*
X221516665Y-64722000D01*
X221546502Y-64666180D01*
X221582812Y-64546482D01*
X221595072Y-64422000D01*
X221595072Y-63623450D01*
X231592500Y-63623450D01*
X231592500Y-63884550D01*
X231643438Y-64140634D01*
X231743357Y-64381860D01*
X231888417Y-64598957D01*
X232073043Y-64783583D01*
X232290140Y-64928643D01*
X232520352Y-65024000D01*
X232290140Y-65119357D01*
X232073043Y-65264417D01*
X231888417Y-65449043D01*
X231743357Y-65666140D01*
X231643438Y-65907366D01*
X231592500Y-66163450D01*
X231592500Y-66424550D01*
X231643438Y-66680634D01*
X231743357Y-66921860D01*
X231888417Y-67138957D01*
X232073043Y-67323583D01*
X232290140Y-67468643D01*
X232520352Y-67564000D01*
X232290140Y-67659357D01*
X232073043Y-67804417D01*
X231888417Y-67989043D01*
X231743357Y-68206140D01*
X231643438Y-68447366D01*
X231592500Y-68703450D01*
X231592500Y-68964550D01*
X231643438Y-69220634D01*
X231743357Y-69461860D01*
X231888417Y-69678957D01*
X232073043Y-69863583D01*
X232290140Y-70008643D01*
X232520352Y-70104000D01*
X232290140Y-70199357D01*
X232073043Y-70344417D01*
X231888417Y-70529043D01*
X231743357Y-70746140D01*
X231643438Y-70987366D01*
X231592500Y-71243450D01*
X231592500Y-71504550D01*
X231643438Y-71760634D01*
X231743357Y-72001860D01*
X231888417Y-72218957D01*
X232073043Y-72403583D01*
X232290140Y-72548643D01*
X232520352Y-72644000D01*
X232290140Y-72739357D01*
X232073043Y-72884417D01*
X231888417Y-73069043D01*
X231743357Y-73286140D01*
X231643438Y-73527366D01*
X231592500Y-73783450D01*
X231592500Y-74044550D01*
X231643438Y-74300634D01*
X231743357Y-74541860D01*
X231888417Y-74758957D01*
X232073043Y-74943583D01*
X232290140Y-75088643D01*
X232520352Y-75184000D01*
X232290140Y-75279357D01*
X232073043Y-75424417D01*
X231888417Y-75609043D01*
X231743357Y-75826140D01*
X231643438Y-76067366D01*
X231592500Y-76323450D01*
X231592500Y-76584550D01*
X231643438Y-76840634D01*
X231743357Y-77081860D01*
X231888417Y-77298957D01*
X232073043Y-77483583D01*
X232290140Y-77628643D01*
X232531366Y-77728562D01*
X232787450Y-77779500D01*
X233048550Y-77779500D01*
X233304634Y-77728562D01*
X233308000Y-77727168D01*
X233308000Y-77992873D01*
X233362186Y-78265282D01*
X233468475Y-78521885D01*
X233622782Y-78752822D01*
X233819178Y-78949218D01*
X234050115Y-79103525D01*
X234306718Y-79209814D01*
X234579127Y-79264000D01*
X234856873Y-79264000D01*
X235129282Y-79209814D01*
X235385885Y-79103525D01*
X235616822Y-78949218D01*
X235813218Y-78752822D01*
X235967525Y-78521885D01*
X236073814Y-78265282D01*
X236128000Y-77992873D01*
X236128000Y-77715127D01*
X236073814Y-77442718D01*
X235967525Y-77186115D01*
X235813218Y-76955178D01*
X235616822Y-76758782D01*
X235385885Y-76604475D01*
X235129282Y-76498186D01*
X234856873Y-76444000D01*
X234579127Y-76444000D01*
X234306718Y-76498186D01*
X234243500Y-76524372D01*
X234243500Y-76323450D01*
X234192562Y-76067366D01*
X234092643Y-75826140D01*
X233947583Y-75609043D01*
X233762957Y-75424417D01*
X233545860Y-75279357D01*
X233315648Y-75184000D01*
X233545860Y-75088643D01*
X233762957Y-74943583D01*
X233947583Y-74758957D01*
X234092643Y-74541860D01*
X234192562Y-74300634D01*
X234243500Y-74044550D01*
X234243500Y-73783450D01*
X234192562Y-73527366D01*
X234092643Y-73286140D01*
X233947583Y-73069043D01*
X233762957Y-72884417D01*
X233545860Y-72739357D01*
X233315648Y-72644000D01*
X233545860Y-72548643D01*
X233762957Y-72403583D01*
X233947583Y-72218957D01*
X234092643Y-72001860D01*
X234192562Y-71760634D01*
X234243500Y-71504550D01*
X234243500Y-71243450D01*
X234192562Y-70987366D01*
X234092643Y-70746140D01*
X233947583Y-70529043D01*
X233762957Y-70344417D01*
X233545860Y-70199357D01*
X233315648Y-70104000D01*
X233545860Y-70008643D01*
X233762957Y-69863583D01*
X233947583Y-69678957D01*
X234092643Y-69461860D01*
X234192562Y-69220634D01*
X234243500Y-68964550D01*
X234243500Y-68703450D01*
X234192562Y-68447366D01*
X234092643Y-68206140D01*
X233947583Y-67989043D01*
X233762957Y-67804417D01*
X233545860Y-67659357D01*
X233315648Y-67564000D01*
X233545860Y-67468643D01*
X233762957Y-67323583D01*
X233947583Y-67138957D01*
X234092643Y-66921860D01*
X234192562Y-66680634D01*
X234243500Y-66424550D01*
X234243500Y-66163450D01*
X234192562Y-65907366D01*
X234092643Y-65666140D01*
X233947583Y-65449043D01*
X233762957Y-65264417D01*
X233545860Y-65119357D01*
X233315648Y-65024000D01*
X233545860Y-64928643D01*
X233762957Y-64783583D01*
X233947583Y-64598957D01*
X234092643Y-64381860D01*
X234192562Y-64140634D01*
X234243500Y-63884550D01*
X234243500Y-63623450D01*
X234192562Y-63367366D01*
X234092643Y-63126140D01*
X233947583Y-62909043D01*
X233762957Y-62724417D01*
X233545860Y-62579357D01*
X233310448Y-62481846D01*
X233496047Y-62413939D01*
X233594567Y-62361279D01*
X233596527Y-62353450D01*
X234132500Y-62353450D01*
X234132500Y-62614550D01*
X234183438Y-62870634D01*
X234283357Y-63111860D01*
X234428417Y-63328957D01*
X234613043Y-63513583D01*
X234830140Y-63658643D01*
X235060352Y-63754000D01*
X234830140Y-63849357D01*
X234613043Y-63994417D01*
X234428417Y-64179043D01*
X234283357Y-64396140D01*
X234183438Y-64637366D01*
X234132500Y-64893450D01*
X234132500Y-65154550D01*
X234183438Y-65410634D01*
X234283357Y-65651860D01*
X234428417Y-65868957D01*
X234613043Y-66053583D01*
X234830140Y-66198643D01*
X235060352Y-66294000D01*
X234830140Y-66389357D01*
X234613043Y-66534417D01*
X234428417Y-66719043D01*
X234283357Y-66936140D01*
X234183438Y-67177366D01*
X234132500Y-67433450D01*
X234132500Y-67694550D01*
X234183438Y-67950634D01*
X234283357Y-68191860D01*
X234428417Y-68408957D01*
X234613043Y-68593583D01*
X234830140Y-68738643D01*
X235060352Y-68834000D01*
X234830140Y-68929357D01*
X234613043Y-69074417D01*
X234428417Y-69259043D01*
X234283357Y-69476140D01*
X234183438Y-69717366D01*
X234132500Y-69973450D01*
X234132500Y-70234550D01*
X234183438Y-70490634D01*
X234283357Y-70731860D01*
X234428417Y-70948957D01*
X234613043Y-71133583D01*
X234830140Y-71278643D01*
X235060352Y-71374000D01*
X234830140Y-71469357D01*
X234613043Y-71614417D01*
X234428417Y-71799043D01*
X234283357Y-72016140D01*
X234183438Y-72257366D01*
X234132500Y-72513450D01*
X234132500Y-72774550D01*
X234183438Y-73030634D01*
X234283357Y-73271860D01*
X234428417Y-73488957D01*
X234613043Y-73673583D01*
X234830140Y-73818643D01*
X235060352Y-73914000D01*
X234830140Y-74009357D01*
X234613043Y-74154417D01*
X234428417Y-74339043D01*
X234283357Y-74556140D01*
X234183438Y-74797366D01*
X234132500Y-75053450D01*
X234132500Y-75314550D01*
X234183438Y-75570634D01*
X234283357Y-75811860D01*
X234428417Y-76028957D01*
X234613043Y-76213583D01*
X234830140Y-76358643D01*
X235071366Y-76458562D01*
X235327450Y-76509500D01*
X235588550Y-76509500D01*
X235844634Y-76458562D01*
X236085860Y-76358643D01*
X236302957Y-76213583D01*
X236487583Y-76028957D01*
X236632643Y-75811860D01*
X236732562Y-75570634D01*
X236783500Y-75314550D01*
X236783500Y-75053450D01*
X236732562Y-74797366D01*
X236632643Y-74556140D01*
X236487583Y-74339043D01*
X236302957Y-74154417D01*
X236085860Y-74009357D01*
X235855648Y-73914000D01*
X236085860Y-73818643D01*
X236302957Y-73673583D01*
X236487583Y-73488957D01*
X236632643Y-73271860D01*
X236732562Y-73030634D01*
X236783500Y-72774550D01*
X236783500Y-72513450D01*
X236732562Y-72257366D01*
X236632643Y-72016140D01*
X236487583Y-71799043D01*
X236302957Y-71614417D01*
X236085860Y-71469357D01*
X235855648Y-71374000D01*
X236085860Y-71278643D01*
X236302957Y-71133583D01*
X236487583Y-70948957D01*
X236632643Y-70731860D01*
X236732562Y-70490634D01*
X236783500Y-70234550D01*
X236783500Y-69973450D01*
X236732562Y-69717366D01*
X236632643Y-69476140D01*
X236487583Y-69259043D01*
X236302957Y-69074417D01*
X236085860Y-68929357D01*
X235855648Y-68834000D01*
X236085860Y-68738643D01*
X236302957Y-68593583D01*
X236487583Y-68408957D01*
X236632643Y-68191860D01*
X236732562Y-67950634D01*
X236783500Y-67694550D01*
X236783500Y-67433450D01*
X236732562Y-67177366D01*
X236632643Y-66936140D01*
X236487583Y-66719043D01*
X236302957Y-66534417D01*
X236085860Y-66389357D01*
X235855648Y-66294000D01*
X236085860Y-66198643D01*
X236302957Y-66053583D01*
X236487583Y-65868957D01*
X236632643Y-65651860D01*
X236732562Y-65410634D01*
X236783500Y-65154550D01*
X236783500Y-64893450D01*
X236732562Y-64637366D01*
X236632643Y-64396140D01*
X236487583Y-64179043D01*
X236302957Y-63994417D01*
X236085860Y-63849357D01*
X235855648Y-63754000D01*
X236085860Y-63658643D01*
X236302957Y-63513583D01*
X236487583Y-63328957D01*
X236632643Y-63111860D01*
X236732562Y-62870634D01*
X236783500Y-62614550D01*
X236783500Y-62353450D01*
X236732562Y-62097366D01*
X236632643Y-61856140D01*
X236487583Y-61639043D01*
X236302957Y-61454417D01*
X236085860Y-61309357D01*
X235850448Y-61211846D01*
X236036047Y-61143939D01*
X236134567Y-61091279D01*
X236192875Y-60858480D01*
X235458000Y-60123605D01*
X234723125Y-60858480D01*
X234781433Y-61091279D01*
X235018257Y-61201227D01*
X235064229Y-61212394D01*
X234830140Y-61309357D01*
X234613043Y-61454417D01*
X234428417Y-61639043D01*
X234283357Y-61856140D01*
X234183438Y-62097366D01*
X234132500Y-62353450D01*
X233596527Y-62353450D01*
X233652875Y-62128480D01*
X232918000Y-61393605D01*
X232183125Y-62128480D01*
X232241433Y-62361279D01*
X232478257Y-62471227D01*
X232524229Y-62482394D01*
X232290140Y-62579357D01*
X232073043Y-62724417D01*
X231888417Y-62909043D01*
X231743357Y-63126140D01*
X231643438Y-63367366D01*
X231592500Y-63623450D01*
X221595072Y-63623450D01*
X221595072Y-63522000D01*
X221582812Y-63397518D01*
X221546502Y-63277820D01*
X221516665Y-63222000D01*
X221546502Y-63166180D01*
X221582812Y-63046482D01*
X221595072Y-62922000D01*
X221595072Y-62022000D01*
X221582812Y-61897518D01*
X221546502Y-61777820D01*
X221516665Y-61722000D01*
X221546502Y-61666180D01*
X221582812Y-61546482D01*
X221595072Y-61422000D01*
X221595072Y-61288849D01*
X231588192Y-61288849D01*
X231628346Y-61546844D01*
X231718061Y-61792047D01*
X231770721Y-61890567D01*
X232003520Y-61948875D01*
X232738395Y-61214000D01*
X233097605Y-61214000D01*
X233832480Y-61948875D01*
X234065279Y-61890567D01*
X234175227Y-61653743D01*
X234236859Y-61400021D01*
X234247808Y-61139151D01*
X234207654Y-60881156D01*
X234117939Y-60635953D01*
X234065279Y-60537433D01*
X233832480Y-60479125D01*
X233097605Y-61214000D01*
X232738395Y-61214000D01*
X232003520Y-60479125D01*
X231770721Y-60537433D01*
X231660773Y-60774257D01*
X231599141Y-61027979D01*
X231588192Y-61288849D01*
X221595072Y-61288849D01*
X221595072Y-60522000D01*
X221582812Y-60397518D01*
X221553085Y-60299520D01*
X232183125Y-60299520D01*
X232918000Y-61034395D01*
X233652875Y-60299520D01*
X233594567Y-60066721D01*
X233491453Y-60018849D01*
X234128192Y-60018849D01*
X234168346Y-60276844D01*
X234258061Y-60522047D01*
X234310721Y-60620567D01*
X234543520Y-60678875D01*
X235278395Y-59944000D01*
X235637605Y-59944000D01*
X236372480Y-60678875D01*
X236605279Y-60620567D01*
X236715227Y-60383743D01*
X236776859Y-60130021D01*
X236787808Y-59869151D01*
X236747654Y-59611156D01*
X236657939Y-59365953D01*
X236605279Y-59267433D01*
X236372480Y-59209125D01*
X235637605Y-59944000D01*
X235278395Y-59944000D01*
X234543520Y-59209125D01*
X234310721Y-59267433D01*
X234200773Y-59504257D01*
X234139141Y-59757979D01*
X234128192Y-60018849D01*
X233491453Y-60018849D01*
X233357743Y-59956773D01*
X233104021Y-59895141D01*
X232843151Y-59884192D01*
X232585156Y-59924346D01*
X232339953Y-60014061D01*
X232241433Y-60066721D01*
X232183125Y-60299520D01*
X221553085Y-60299520D01*
X221546502Y-60277820D01*
X221516665Y-60222000D01*
X221546502Y-60166180D01*
X221582812Y-60046482D01*
X221595072Y-59922000D01*
X221592000Y-59757750D01*
X221433250Y-59599000D01*
X220334000Y-59599000D01*
X220334000Y-59619000D01*
X220080000Y-59619000D01*
X220080000Y-59599000D01*
X218980750Y-59599000D01*
X218822000Y-59757750D01*
X218818928Y-59922000D01*
X218825527Y-59988999D01*
X208858034Y-59988999D01*
X208811500Y-59984416D01*
X208764966Y-59988999D01*
X208764959Y-59988999D01*
X208644316Y-60000881D01*
X208625758Y-60002709D01*
X208481458Y-60046482D01*
X208447154Y-60056888D01*
X208282551Y-60144870D01*
X208138276Y-60263274D01*
X208108605Y-60299428D01*
X206781898Y-61626136D01*
X206678933Y-61646617D01*
X206472376Y-61732176D01*
X206286480Y-61856388D01*
X206128388Y-62014480D01*
X206004176Y-62200376D01*
X205936356Y-62364108D01*
X204345072Y-60772824D01*
X204345072Y-60522000D01*
X204332812Y-60397518D01*
X204296502Y-60277820D01*
X204293391Y-60272000D01*
X204296502Y-60266180D01*
X204332812Y-60146482D01*
X204345072Y-60022000D01*
X204342000Y-59857750D01*
X204183250Y-59699000D01*
X203084000Y-59699000D01*
X203084000Y-59719000D01*
X202830000Y-59719000D01*
X202830000Y-59699000D01*
X201730750Y-59699000D01*
X201572000Y-59857750D01*
X201568928Y-60022000D01*
X201581188Y-60146482D01*
X201617498Y-60266180D01*
X201620609Y-60272000D01*
X201617498Y-60277820D01*
X201581188Y-60397518D01*
X201568928Y-60522000D01*
X201568928Y-61422000D01*
X201581188Y-61546482D01*
X201617498Y-61666180D01*
X201647335Y-61722000D01*
X201617498Y-61777820D01*
X201581188Y-61897518D01*
X201568928Y-62022000D01*
X201568928Y-62922000D01*
X201581188Y-63046482D01*
X201617498Y-63166180D01*
X201674061Y-63272000D01*
X201617498Y-63377820D01*
X201581188Y-63497518D01*
X201570345Y-63607608D01*
X201539715Y-63604591D01*
X201508034Y-63607711D01*
X200559715Y-63607714D01*
X200559715Y-59122000D01*
X201568928Y-59122000D01*
X201572000Y-59286250D01*
X201730750Y-59445000D01*
X202830000Y-59445000D01*
X202830000Y-58645750D01*
X203084000Y-58645750D01*
X203084000Y-59445000D01*
X204183250Y-59445000D01*
X204342000Y-59286250D01*
X204345072Y-59122000D01*
X204332812Y-58997518D01*
X204296502Y-58877820D01*
X204237537Y-58767506D01*
X204158185Y-58670815D01*
X204061494Y-58591463D01*
X203951180Y-58532498D01*
X203831482Y-58496188D01*
X203707000Y-58483928D01*
X203242750Y-58487000D01*
X203084000Y-58645750D01*
X202830000Y-58645750D01*
X202671250Y-58487000D01*
X202207000Y-58483928D01*
X202082518Y-58496188D01*
X201962820Y-58532498D01*
X201852506Y-58591463D01*
X201755815Y-58670815D01*
X201676463Y-58767506D01*
X201617498Y-58877820D01*
X201581188Y-58997518D01*
X201568928Y-59122000D01*
X200559715Y-59122000D01*
X200559715Y-58419810D01*
X219276605Y-58413149D01*
X219212820Y-58432498D01*
X219102506Y-58491463D01*
X219005815Y-58570815D01*
X218926463Y-58667506D01*
X218867498Y-58777820D01*
X218831188Y-58897518D01*
X218818928Y-59022000D01*
X218822000Y-59186250D01*
X218980750Y-59345000D01*
X220080000Y-59345000D01*
X220080000Y-59325000D01*
X220334000Y-59325000D01*
X220334000Y-59345000D01*
X221433250Y-59345000D01*
X221592000Y-59186250D01*
X221594931Y-59029520D01*
X234723125Y-59029520D01*
X235458000Y-59764395D01*
X236192875Y-59029520D01*
X236134567Y-58796721D01*
X235897743Y-58686773D01*
X235644021Y-58625141D01*
X235383151Y-58614192D01*
X235125156Y-58654346D01*
X234879953Y-58744061D01*
X234781433Y-58796721D01*
X234723125Y-59029520D01*
X221594931Y-59029520D01*
X221595072Y-59022000D01*
X221582812Y-58897518D01*
X221546502Y-58777820D01*
X221487537Y-58667506D01*
X221408185Y-58570815D01*
X221311494Y-58491463D01*
X221201180Y-58432498D01*
X221135214Y-58412488D01*
X235712045Y-58407300D01*
X235736821Y-58404851D01*
X235760643Y-58397615D01*
X235782595Y-58385872D01*
X235801835Y-58370071D01*
X235817622Y-58350820D01*
X235829350Y-58328859D01*
X235836569Y-58305032D01*
X235839000Y-58280300D01*
X235839000Y-57490200D01*
X237077321Y-57490200D01*
X237109000Y-57493320D01*
X237140679Y-57490200D01*
X237235442Y-57480867D01*
X237357025Y-57443985D01*
X237469076Y-57384092D01*
X237567290Y-57303490D01*
X237647892Y-57205276D01*
X237707785Y-57093225D01*
X237744667Y-56971642D01*
X237757120Y-56845200D01*
X237754000Y-56813521D01*
X237754000Y-51796879D01*
X237757120Y-51765200D01*
X237744667Y-51638758D01*
X237707785Y-51517175D01*
X237647892Y-51405124D01*
X237567290Y-51306910D01*
X237469076Y-51226308D01*
X237357025Y-51166415D01*
X237235442Y-51129533D01*
X237140679Y-51120200D01*
X237109000Y-51117080D01*
X237077321Y-51120200D01*
X235839000Y-51120200D01*
X235839000Y-50662001D01*
X239269715Y-50662001D01*
X239269714Y-63607715D01*
%TA.AperFunction,Conductor*%
D25*
G36*
X239269714Y-63607715D02*
G01*
X238321393Y-63607715D01*
X238289714Y-63604595D01*
X238258035Y-63607715D01*
X238163272Y-63617048D01*
X238041689Y-63653930D01*
X237929638Y-63713823D01*
X237831424Y-63794425D01*
X237750822Y-63892639D01*
X237690929Y-64004690D01*
X237654047Y-64126273D01*
X237641594Y-64252715D01*
X237644715Y-64284404D01*
X237644714Y-75749622D01*
X237641595Y-75781293D01*
X237644714Y-75812962D01*
X237644714Y-75812968D01*
X237654047Y-75907731D01*
X237690929Y-76029314D01*
X237750822Y-76141365D01*
X237750823Y-76141366D01*
X237750825Y-76141369D01*
X237764706Y-76158284D01*
X237831424Y-76239580D01*
X237929638Y-76320182D01*
X238041689Y-76380075D01*
X238163272Y-76416957D01*
X238289714Y-76429410D01*
X238321397Y-76426290D01*
X239269715Y-76426283D01*
X239269714Y-89372000D01*
X226324000Y-89372000D01*
X226324000Y-88423679D01*
X226327120Y-88392000D01*
X226314667Y-88265558D01*
X226277785Y-88143975D01*
X226217892Y-88031924D01*
X226137290Y-87933710D01*
X226039076Y-87853108D01*
X225927025Y-87793215D01*
X225805442Y-87756333D01*
X225710679Y-87747000D01*
X225679000Y-87743880D01*
X225647321Y-87747000D01*
X217600403Y-87747000D01*
X217612494Y-87740537D01*
X217709185Y-87661185D01*
X217788537Y-87564494D01*
X217847502Y-87454180D01*
X217883812Y-87334482D01*
X217896072Y-87210000D01*
X217896072Y-85510000D01*
X217883812Y-85385518D01*
X217847502Y-85265820D01*
X217788537Y-85155506D01*
X217709185Y-85058815D01*
X217612494Y-84979463D01*
X217502180Y-84920498D01*
X217382482Y-84884188D01*
X217258000Y-84871928D01*
X215558000Y-84871928D01*
X215433518Y-84884188D01*
X215313820Y-84920498D01*
X215203506Y-84979463D01*
X215106815Y-85058815D01*
X215027463Y-85155506D01*
X214968498Y-85265820D01*
X214946487Y-85338380D01*
X214814632Y-85206525D01*
X214571411Y-85044010D01*
X214301158Y-84932068D01*
X214014260Y-84875000D01*
X213721740Y-84875000D01*
X213434842Y-84932068D01*
X213164589Y-85044010D01*
X212921368Y-85206525D01*
X212714525Y-85413368D01*
X212598000Y-85587760D01*
X212481475Y-85413368D01*
X212274632Y-85206525D01*
X212164190Y-85132730D01*
X212199256Y-85118205D01*
X212368774Y-85004937D01*
X212508461Y-84865250D01*
X220433144Y-84865250D01*
X220472000Y-84869077D01*
X220510856Y-84865250D01*
X220510867Y-84865250D01*
X220627112Y-84853801D01*
X220776263Y-84808556D01*
X220913722Y-84735083D01*
X221034205Y-84636205D01*
X221058983Y-84606013D01*
X222909019Y-82755978D01*
X222939205Y-82731205D01*
X223008736Y-82646482D01*
X223038083Y-82610722D01*
X223111556Y-82473263D01*
X223156801Y-82324112D01*
X223172078Y-82169000D01*
X223168250Y-82130133D01*
X223168250Y-81607746D01*
X224232264Y-80543732D01*
X224262456Y-80518954D01*
X224361334Y-80398471D01*
X224434807Y-80261012D01*
X224480052Y-80111861D01*
X224491501Y-79995616D01*
X224495329Y-79956749D01*
X224491501Y-79917882D01*
X224491501Y-76914999D01*
X224988918Y-76914999D01*
X224993502Y-76961544D01*
X224993501Y-85432466D01*
X224988918Y-85479001D01*
X224993501Y-85525535D01*
X224993501Y-85525542D01*
X225001490Y-85606653D01*
X225007211Y-85664743D01*
X225037085Y-85763225D01*
X225061390Y-85843347D01*
X225149372Y-86007951D01*
X225267776Y-86152226D01*
X225303935Y-86181901D01*
X225329136Y-86207102D01*
X225349617Y-86310067D01*
X225435176Y-86516624D01*
X225559388Y-86702520D01*
X225717480Y-86860612D01*
X225903376Y-86984824D01*
X226109933Y-87070383D01*
X226212897Y-87090864D01*
X226855108Y-87733076D01*
X226884775Y-87769225D01*
X226920923Y-87798891D01*
X226920926Y-87798894D01*
X226956912Y-87828426D01*
X227029050Y-87887629D01*
X227193653Y-87975611D01*
X227372258Y-88029790D01*
X227558000Y-88048084D01*
X227604542Y-88043500D01*
X228031068Y-88043500D01*
X228036188Y-88095482D01*
X228072498Y-88215180D01*
X228131463Y-88325494D01*
X228210815Y-88422185D01*
X228307506Y-88501537D01*
X228417820Y-88560502D01*
X228537518Y-88596812D01*
X228662000Y-88609072D01*
X233162000Y-88609072D01*
X233286482Y-88596812D01*
X233406180Y-88560502D01*
X233516494Y-88501537D01*
X233613185Y-88422185D01*
X233692537Y-88325494D01*
X233693603Y-88323500D01*
X233968431Y-88323500D01*
X233979595Y-88344386D01*
X234090038Y-88478962D01*
X234224614Y-88589405D01*
X234378150Y-88671472D01*
X234544746Y-88722008D01*
X234718000Y-88739072D01*
X235393000Y-88739072D01*
X235566254Y-88722008D01*
X235732850Y-88671472D01*
X235886386Y-88589405D01*
X236020962Y-88478962D01*
X236026342Y-88472406D01*
X236091815Y-88552185D01*
X236188506Y-88631537D01*
X236298820Y-88690502D01*
X236418518Y-88726812D01*
X236543000Y-88739072D01*
X236844750Y-88736000D01*
X237003500Y-88577250D01*
X237003500Y-87503000D01*
X237257500Y-87503000D01*
X237257500Y-88577250D01*
X237416250Y-88736000D01*
X237718000Y-88739072D01*
X237842482Y-88726812D01*
X237962180Y-88690502D01*
X238072494Y-88631537D01*
X238169185Y-88552185D01*
X238248537Y-88455494D01*
X238307502Y-88345180D01*
X238343812Y-88225482D01*
X238356072Y-88101000D01*
X238353000Y-87661750D01*
X238194250Y-87503000D01*
X237257500Y-87503000D01*
X237003500Y-87503000D01*
X236983500Y-87503000D01*
X236983500Y-87249000D01*
X237003500Y-87249000D01*
X237003500Y-85217000D01*
X237257500Y-85217000D01*
X237257500Y-87249000D01*
X238194250Y-87249000D01*
X238353000Y-87090250D01*
X238356072Y-86651000D01*
X238343812Y-86526518D01*
X238307502Y-86406820D01*
X238248537Y-86296506D01*
X238196419Y-86233000D01*
X238248537Y-86169494D01*
X238307502Y-86059180D01*
X238343812Y-85939482D01*
X238356072Y-85815000D01*
X238353000Y-85375750D01*
X238194250Y-85217000D01*
X237257500Y-85217000D01*
X237003500Y-85217000D01*
X236983500Y-85217000D01*
X236983500Y-84963000D01*
X237003500Y-84963000D01*
X237003500Y-83888750D01*
X237257500Y-83888750D01*
X237257500Y-84963000D01*
X238194250Y-84963000D01*
X238353000Y-84804250D01*
X238356072Y-84365000D01*
X238343812Y-84240518D01*
X238307502Y-84120820D01*
X238248537Y-84010506D01*
X238169185Y-83913815D01*
X238072494Y-83834463D01*
X237962180Y-83775498D01*
X237842482Y-83739188D01*
X237718000Y-83726928D01*
X237416250Y-83730000D01*
X237257500Y-83888750D01*
X237003500Y-83888750D01*
X236844750Y-83730000D01*
X236543000Y-83726928D01*
X236418518Y-83739188D01*
X236298820Y-83775498D01*
X236188506Y-83834463D01*
X236091815Y-83913815D01*
X236026342Y-83993594D01*
X236020962Y-83987038D01*
X235886386Y-83876595D01*
X235732850Y-83794528D01*
X235566254Y-83743992D01*
X235393000Y-83726928D01*
X234718000Y-83726928D01*
X234544746Y-83743992D01*
X234378150Y-83794528D01*
X234365993Y-83801026D01*
X233800072Y-83235106D01*
X233800072Y-82971000D01*
X233787812Y-82846518D01*
X233751502Y-82726820D01*
X233692537Y-82616506D01*
X233613185Y-82519815D01*
X233516494Y-82440463D01*
X233406180Y-82381498D01*
X233291114Y-82346593D01*
X233436475Y-82201232D01*
X233558195Y-82019066D01*
X233627822Y-82135955D01*
X233822731Y-82352188D01*
X234056080Y-82526241D01*
X234318901Y-82651425D01*
X234466110Y-82696076D01*
X234696000Y-82574755D01*
X234696000Y-81381600D01*
X234950000Y-81381600D01*
X234950000Y-82574755D01*
X235179890Y-82696076D01*
X235327099Y-82651425D01*
X235589920Y-82526241D01*
X235823269Y-82352188D01*
X236018178Y-82135955D01*
X236167157Y-81885852D01*
X236264481Y-81611491D01*
X236143814Y-81381600D01*
X234950000Y-81381600D01*
X234696000Y-81381600D01*
X234676000Y-81381600D01*
X234676000Y-81127600D01*
X234696000Y-81127600D01*
X234696000Y-79934445D01*
X234950000Y-79934445D01*
X234950000Y-81127600D01*
X236143814Y-81127600D01*
X236264481Y-80897709D01*
X236167157Y-80623348D01*
X236018178Y-80373245D01*
X235823269Y-80157012D01*
X235589920Y-79982959D01*
X235327099Y-79857775D01*
X235179890Y-79813124D01*
X234950000Y-79934445D01*
X234696000Y-79934445D01*
X234466110Y-79813124D01*
X234318901Y-79857775D01*
X234056080Y-79982959D01*
X233822731Y-80157012D01*
X233627822Y-80373245D01*
X233558195Y-80490134D01*
X233436475Y-80307968D01*
X233229632Y-80101125D01*
X232986411Y-79938610D01*
X232716158Y-79826668D01*
X232429260Y-79769600D01*
X232136740Y-79769600D01*
X231849842Y-79826668D01*
X231579589Y-79938610D01*
X231336368Y-80101125D01*
X231204513Y-80232980D01*
X231182502Y-80160420D01*
X231123537Y-80050106D01*
X231044185Y-79953415D01*
X230947494Y-79874063D01*
X230837180Y-79815098D01*
X230717482Y-79778788D01*
X230593000Y-79766528D01*
X228893000Y-79766528D01*
X228768518Y-79778788D01*
X228648820Y-79815098D01*
X228538506Y-79874063D01*
X228441815Y-79953415D01*
X228362463Y-80050106D01*
X228303498Y-80160420D01*
X228267188Y-80280118D01*
X228254928Y-80404600D01*
X228254928Y-82104600D01*
X228267188Y-82229082D01*
X228303498Y-82348780D01*
X228342505Y-82421755D01*
X228307506Y-82440463D01*
X228210815Y-82519815D01*
X228131463Y-82616506D01*
X228072498Y-82726820D01*
X228036188Y-82846518D01*
X228023928Y-82971000D01*
X228023928Y-84721000D01*
X228036188Y-84845482D01*
X228072498Y-84965180D01*
X228131463Y-85075494D01*
X228210815Y-85172185D01*
X228307506Y-85251537D01*
X228417820Y-85310502D01*
X228537518Y-85346812D01*
X228662000Y-85359072D01*
X230255000Y-85359072D01*
X230255000Y-85582928D01*
X228662000Y-85582928D01*
X228537518Y-85595188D01*
X228417820Y-85631498D01*
X228307506Y-85690463D01*
X228210815Y-85769815D01*
X228131463Y-85866506D01*
X228072498Y-85976820D01*
X228036188Y-86096518D01*
X228031068Y-86148500D01*
X227950467Y-86148500D01*
X227552864Y-85750897D01*
X227532383Y-85647933D01*
X227446824Y-85441376D01*
X227322612Y-85255480D01*
X227164520Y-85097388D01*
X226978624Y-84973176D01*
X226888501Y-84935846D01*
X226888501Y-79700072D01*
X228244000Y-79700072D01*
X228368482Y-79687812D01*
X228488180Y-79651502D01*
X228598494Y-79592537D01*
X228695185Y-79513185D01*
X228774537Y-79416494D01*
X228833502Y-79306180D01*
X228869812Y-79186482D01*
X228882072Y-79062000D01*
X228882072Y-78062000D01*
X228869812Y-77937518D01*
X228833502Y-77817820D01*
X228774537Y-77707506D01*
X228695185Y-77610815D01*
X228598494Y-77531463D01*
X228488180Y-77472498D01*
X228368482Y-77436188D01*
X228244000Y-77423928D01*
X226888501Y-77423928D01*
X226888501Y-77307465D01*
X227090642Y-77105324D01*
X227695895Y-76500072D01*
X228244000Y-76500072D01*
X228368482Y-76487812D01*
X228488180Y-76451502D01*
X228598494Y-76392537D01*
X228695185Y-76313185D01*
X228774537Y-76216494D01*
X228833502Y-76106180D01*
X228869812Y-75986482D01*
X228882072Y-75862000D01*
X228882072Y-74862000D01*
X228869812Y-74737518D01*
X228833502Y-74617820D01*
X228774537Y-74507506D01*
X228695185Y-74410815D01*
X228598494Y-74331463D01*
X228488180Y-74272498D01*
X228368482Y-74236188D01*
X228244000Y-74223928D01*
X226744000Y-74223928D01*
X226619518Y-74236188D01*
X226499820Y-74272498D01*
X226389506Y-74331463D01*
X226292815Y-74410815D01*
X226213463Y-74507506D01*
X226154498Y-74617820D01*
X226118188Y-74737518D01*
X226105928Y-74862000D01*
X226105928Y-75410106D01*
X225303931Y-76212103D01*
X225267777Y-76241774D01*
X225149373Y-76386049D01*
X225110614Y-76458562D01*
X225061390Y-76550653D01*
X225007211Y-76729257D01*
X224988918Y-76914999D01*
X224491501Y-76914999D01*
X224491501Y-76673107D01*
X224495328Y-76634250D01*
X224491501Y-76595394D01*
X224491501Y-76595384D01*
X224480052Y-76479139D01*
X224434807Y-76329988D01*
X224361334Y-76192529D01*
X224342358Y-76169407D01*
X224287232Y-76102235D01*
X224287229Y-76102232D01*
X224262456Y-76072046D01*
X224232271Y-76047274D01*
X223982072Y-75797075D01*
X223982072Y-74862000D01*
X223969812Y-74737518D01*
X223933502Y-74617820D01*
X223874537Y-74507506D01*
X223795185Y-74410815D01*
X223698494Y-74331463D01*
X223588180Y-74272498D01*
X223468482Y-74236188D01*
X223344000Y-74223928D01*
X221844000Y-74223928D01*
X221719518Y-74236188D01*
X221599820Y-74272498D01*
X221595072Y-74275036D01*
X221595072Y-74022000D01*
X221582812Y-73897518D01*
X221546502Y-73777820D01*
X221516665Y-73722000D01*
X221546502Y-73666180D01*
X221582812Y-73546482D01*
X221595072Y-73422000D01*
X221595072Y-73339054D01*
X221618748Y-73353157D01*
X221893109Y-73450481D01*
X222123000Y-73329814D01*
X222123000Y-72136000D01*
X222103000Y-72136000D01*
X222103000Y-71882000D01*
X222123000Y-71882000D01*
X222123000Y-71862000D01*
X222377000Y-71862000D01*
X222377000Y-71882000D01*
X222397000Y-71882000D01*
X222397000Y-72136000D01*
X222377000Y-72136000D01*
X222377000Y-73329814D01*
X222606891Y-73450481D01*
X222881252Y-73353157D01*
X223131355Y-73204178D01*
X223327502Y-73027374D01*
X223350498Y-73103180D01*
X223409463Y-73213494D01*
X223488815Y-73310185D01*
X223585506Y-73389537D01*
X223695820Y-73448502D01*
X223815518Y-73484812D01*
X223940000Y-73497072D01*
X225640000Y-73497072D01*
X225764482Y-73484812D01*
X225884180Y-73448502D01*
X225994494Y-73389537D01*
X226091185Y-73310185D01*
X226170537Y-73213494D01*
X226229502Y-73103180D01*
X226265812Y-72983482D01*
X226278072Y-72859000D01*
X226278072Y-71159000D01*
X226265812Y-71034518D01*
X226229502Y-70914820D01*
X226170537Y-70804506D01*
X226091185Y-70707815D01*
X225994494Y-70628463D01*
X225884180Y-70569498D01*
X225811620Y-70547487D01*
X225943475Y-70415632D01*
X226105990Y-70172411D01*
X226217932Y-69902158D01*
X226275000Y-69615260D01*
X226275000Y-69322740D01*
X226217932Y-69035842D01*
X226105990Y-68765589D01*
X225943475Y-68522368D01*
X225736632Y-68315525D01*
X225562240Y-68199000D01*
X225736632Y-68082475D01*
X225943475Y-67875632D01*
X226105990Y-67632411D01*
X226217932Y-67362158D01*
X226275000Y-67075260D01*
X226275000Y-66782740D01*
X226217932Y-66495842D01*
X226105990Y-66225589D01*
X225943475Y-65982368D01*
X225736632Y-65775525D01*
X225493411Y-65613010D01*
X225223158Y-65501068D01*
X224936260Y-65444000D01*
X224643740Y-65444000D01*
X224356842Y-65501068D01*
X224086589Y-65613010D01*
X223843368Y-65775525D01*
X223636525Y-65982368D01*
X223518900Y-66158406D01*
X223347588Y-65928731D01*
X223131355Y-65733822D01*
X222881252Y-65584843D01*
X222606891Y-65487519D01*
X222377000Y-65608186D01*
X222377000Y-66802000D01*
X222397000Y-66802000D01*
X222397000Y-67056000D01*
X222377000Y-67056000D01*
X222377000Y-67076000D01*
X222123000Y-67076000D01*
X222123000Y-67056000D01*
X222103000Y-67056000D01*
X222103000Y-66802000D01*
X222123000Y-66802000D01*
X222123000Y-65608186D01*
X221893109Y-65487519D01*
X221618748Y-65584843D01*
X221595072Y-65598946D01*
X221595072Y-65022000D01*
X221582812Y-64897518D01*
X221546502Y-64777820D01*
X221516665Y-64722000D01*
X221546502Y-64666180D01*
X221582812Y-64546482D01*
X221595072Y-64422000D01*
X221595072Y-63623450D01*
X231592500Y-63623450D01*
X231592500Y-63884550D01*
X231643438Y-64140634D01*
X231743357Y-64381860D01*
X231888417Y-64598957D01*
X232073043Y-64783583D01*
X232290140Y-64928643D01*
X232520352Y-65024000D01*
X232290140Y-65119357D01*
X232073043Y-65264417D01*
X231888417Y-65449043D01*
X231743357Y-65666140D01*
X231643438Y-65907366D01*
X231592500Y-66163450D01*
X231592500Y-66424550D01*
X231643438Y-66680634D01*
X231743357Y-66921860D01*
X231888417Y-67138957D01*
X232073043Y-67323583D01*
X232290140Y-67468643D01*
X232520352Y-67564000D01*
X232290140Y-67659357D01*
X232073043Y-67804417D01*
X231888417Y-67989043D01*
X231743357Y-68206140D01*
X231643438Y-68447366D01*
X231592500Y-68703450D01*
X231592500Y-68964550D01*
X231643438Y-69220634D01*
X231743357Y-69461860D01*
X231888417Y-69678957D01*
X232073043Y-69863583D01*
X232290140Y-70008643D01*
X232520352Y-70104000D01*
X232290140Y-70199357D01*
X232073043Y-70344417D01*
X231888417Y-70529043D01*
X231743357Y-70746140D01*
X231643438Y-70987366D01*
X231592500Y-71243450D01*
X231592500Y-71504550D01*
X231643438Y-71760634D01*
X231743357Y-72001860D01*
X231888417Y-72218957D01*
X232073043Y-72403583D01*
X232290140Y-72548643D01*
X232520352Y-72644000D01*
X232290140Y-72739357D01*
X232073043Y-72884417D01*
X231888417Y-73069043D01*
X231743357Y-73286140D01*
X231643438Y-73527366D01*
X231592500Y-73783450D01*
X231592500Y-74044550D01*
X231643438Y-74300634D01*
X231743357Y-74541860D01*
X231888417Y-74758957D01*
X232073043Y-74943583D01*
X232290140Y-75088643D01*
X232520352Y-75184000D01*
X232290140Y-75279357D01*
X232073043Y-75424417D01*
X231888417Y-75609043D01*
X231743357Y-75826140D01*
X231643438Y-76067366D01*
X231592500Y-76323450D01*
X231592500Y-76584550D01*
X231643438Y-76840634D01*
X231743357Y-77081860D01*
X231888417Y-77298957D01*
X232073043Y-77483583D01*
X232290140Y-77628643D01*
X232531366Y-77728562D01*
X232787450Y-77779500D01*
X233048550Y-77779500D01*
X233304634Y-77728562D01*
X233308000Y-77727168D01*
X233308000Y-77992873D01*
X233362186Y-78265282D01*
X233468475Y-78521885D01*
X233622782Y-78752822D01*
X233819178Y-78949218D01*
X234050115Y-79103525D01*
X234306718Y-79209814D01*
X234579127Y-79264000D01*
X234856873Y-79264000D01*
X235129282Y-79209814D01*
X235385885Y-79103525D01*
X235616822Y-78949218D01*
X235813218Y-78752822D01*
X235967525Y-78521885D01*
X236073814Y-78265282D01*
X236128000Y-77992873D01*
X236128000Y-77715127D01*
X236073814Y-77442718D01*
X235967525Y-77186115D01*
X235813218Y-76955178D01*
X235616822Y-76758782D01*
X235385885Y-76604475D01*
X235129282Y-76498186D01*
X234856873Y-76444000D01*
X234579127Y-76444000D01*
X234306718Y-76498186D01*
X234243500Y-76524372D01*
X234243500Y-76323450D01*
X234192562Y-76067366D01*
X234092643Y-75826140D01*
X233947583Y-75609043D01*
X233762957Y-75424417D01*
X233545860Y-75279357D01*
X233315648Y-75184000D01*
X233545860Y-75088643D01*
X233762957Y-74943583D01*
X233947583Y-74758957D01*
X234092643Y-74541860D01*
X234192562Y-74300634D01*
X234243500Y-74044550D01*
X234243500Y-73783450D01*
X234192562Y-73527366D01*
X234092643Y-73286140D01*
X233947583Y-73069043D01*
X233762957Y-72884417D01*
X233545860Y-72739357D01*
X233315648Y-72644000D01*
X233545860Y-72548643D01*
X233762957Y-72403583D01*
X233947583Y-72218957D01*
X234092643Y-72001860D01*
X234192562Y-71760634D01*
X234243500Y-71504550D01*
X234243500Y-71243450D01*
X234192562Y-70987366D01*
X234092643Y-70746140D01*
X233947583Y-70529043D01*
X233762957Y-70344417D01*
X233545860Y-70199357D01*
X233315648Y-70104000D01*
X233545860Y-70008643D01*
X233762957Y-69863583D01*
X233947583Y-69678957D01*
X234092643Y-69461860D01*
X234192562Y-69220634D01*
X234243500Y-68964550D01*
X234243500Y-68703450D01*
X234192562Y-68447366D01*
X234092643Y-68206140D01*
X233947583Y-67989043D01*
X233762957Y-67804417D01*
X233545860Y-67659357D01*
X233315648Y-67564000D01*
X233545860Y-67468643D01*
X233762957Y-67323583D01*
X233947583Y-67138957D01*
X234092643Y-66921860D01*
X234192562Y-66680634D01*
X234243500Y-66424550D01*
X234243500Y-66163450D01*
X234192562Y-65907366D01*
X234092643Y-65666140D01*
X233947583Y-65449043D01*
X233762957Y-65264417D01*
X233545860Y-65119357D01*
X233315648Y-65024000D01*
X233545860Y-64928643D01*
X233762957Y-64783583D01*
X233947583Y-64598957D01*
X234092643Y-64381860D01*
X234192562Y-64140634D01*
X234243500Y-63884550D01*
X234243500Y-63623450D01*
X234192562Y-63367366D01*
X234092643Y-63126140D01*
X233947583Y-62909043D01*
X233762957Y-62724417D01*
X233545860Y-62579357D01*
X233310448Y-62481846D01*
X233496047Y-62413939D01*
X233594567Y-62361279D01*
X233596527Y-62353450D01*
X234132500Y-62353450D01*
X234132500Y-62614550D01*
X234183438Y-62870634D01*
X234283357Y-63111860D01*
X234428417Y-63328957D01*
X234613043Y-63513583D01*
X234830140Y-63658643D01*
X235060352Y-63754000D01*
X234830140Y-63849357D01*
X234613043Y-63994417D01*
X234428417Y-64179043D01*
X234283357Y-64396140D01*
X234183438Y-64637366D01*
X234132500Y-64893450D01*
X234132500Y-65154550D01*
X234183438Y-65410634D01*
X234283357Y-65651860D01*
X234428417Y-65868957D01*
X234613043Y-66053583D01*
X234830140Y-66198643D01*
X235060352Y-66294000D01*
X234830140Y-66389357D01*
X234613043Y-66534417D01*
X234428417Y-66719043D01*
X234283357Y-66936140D01*
X234183438Y-67177366D01*
X234132500Y-67433450D01*
X234132500Y-67694550D01*
X234183438Y-67950634D01*
X234283357Y-68191860D01*
X234428417Y-68408957D01*
X234613043Y-68593583D01*
X234830140Y-68738643D01*
X235060352Y-68834000D01*
X234830140Y-68929357D01*
X234613043Y-69074417D01*
X234428417Y-69259043D01*
X234283357Y-69476140D01*
X234183438Y-69717366D01*
X234132500Y-69973450D01*
X234132500Y-70234550D01*
X234183438Y-70490634D01*
X234283357Y-70731860D01*
X234428417Y-70948957D01*
X234613043Y-71133583D01*
X234830140Y-71278643D01*
X235060352Y-71374000D01*
X234830140Y-71469357D01*
X234613043Y-71614417D01*
X234428417Y-71799043D01*
X234283357Y-72016140D01*
X234183438Y-72257366D01*
X234132500Y-72513450D01*
X234132500Y-72774550D01*
X234183438Y-73030634D01*
X234283357Y-73271860D01*
X234428417Y-73488957D01*
X234613043Y-73673583D01*
X234830140Y-73818643D01*
X235060352Y-73914000D01*
X234830140Y-74009357D01*
X234613043Y-74154417D01*
X234428417Y-74339043D01*
X234283357Y-74556140D01*
X234183438Y-74797366D01*
X234132500Y-75053450D01*
X234132500Y-75314550D01*
X234183438Y-75570634D01*
X234283357Y-75811860D01*
X234428417Y-76028957D01*
X234613043Y-76213583D01*
X234830140Y-76358643D01*
X235071366Y-76458562D01*
X235327450Y-76509500D01*
X235588550Y-76509500D01*
X235844634Y-76458562D01*
X236085860Y-76358643D01*
X236302957Y-76213583D01*
X236487583Y-76028957D01*
X236632643Y-75811860D01*
X236732562Y-75570634D01*
X236783500Y-75314550D01*
X236783500Y-75053450D01*
X236732562Y-74797366D01*
X236632643Y-74556140D01*
X236487583Y-74339043D01*
X236302957Y-74154417D01*
X236085860Y-74009357D01*
X235855648Y-73914000D01*
X236085860Y-73818643D01*
X236302957Y-73673583D01*
X236487583Y-73488957D01*
X236632643Y-73271860D01*
X236732562Y-73030634D01*
X236783500Y-72774550D01*
X236783500Y-72513450D01*
X236732562Y-72257366D01*
X236632643Y-72016140D01*
X236487583Y-71799043D01*
X236302957Y-71614417D01*
X236085860Y-71469357D01*
X235855648Y-71374000D01*
X236085860Y-71278643D01*
X236302957Y-71133583D01*
X236487583Y-70948957D01*
X236632643Y-70731860D01*
X236732562Y-70490634D01*
X236783500Y-70234550D01*
X236783500Y-69973450D01*
X236732562Y-69717366D01*
X236632643Y-69476140D01*
X236487583Y-69259043D01*
X236302957Y-69074417D01*
X236085860Y-68929357D01*
X235855648Y-68834000D01*
X236085860Y-68738643D01*
X236302957Y-68593583D01*
X236487583Y-68408957D01*
X236632643Y-68191860D01*
X236732562Y-67950634D01*
X236783500Y-67694550D01*
X236783500Y-67433450D01*
X236732562Y-67177366D01*
X236632643Y-66936140D01*
X236487583Y-66719043D01*
X236302957Y-66534417D01*
X236085860Y-66389357D01*
X235855648Y-66294000D01*
X236085860Y-66198643D01*
X236302957Y-66053583D01*
X236487583Y-65868957D01*
X236632643Y-65651860D01*
X236732562Y-65410634D01*
X236783500Y-65154550D01*
X236783500Y-64893450D01*
X236732562Y-64637366D01*
X236632643Y-64396140D01*
X236487583Y-64179043D01*
X236302957Y-63994417D01*
X236085860Y-63849357D01*
X235855648Y-63754000D01*
X236085860Y-63658643D01*
X236302957Y-63513583D01*
X236487583Y-63328957D01*
X236632643Y-63111860D01*
X236732562Y-62870634D01*
X236783500Y-62614550D01*
X236783500Y-62353450D01*
X236732562Y-62097366D01*
X236632643Y-61856140D01*
X236487583Y-61639043D01*
X236302957Y-61454417D01*
X236085860Y-61309357D01*
X235850448Y-61211846D01*
X236036047Y-61143939D01*
X236134567Y-61091279D01*
X236192875Y-60858480D01*
X235458000Y-60123605D01*
X234723125Y-60858480D01*
X234781433Y-61091279D01*
X235018257Y-61201227D01*
X235064229Y-61212394D01*
X234830140Y-61309357D01*
X234613043Y-61454417D01*
X234428417Y-61639043D01*
X234283357Y-61856140D01*
X234183438Y-62097366D01*
X234132500Y-62353450D01*
X233596527Y-62353450D01*
X233652875Y-62128480D01*
X232918000Y-61393605D01*
X232183125Y-62128480D01*
X232241433Y-62361279D01*
X232478257Y-62471227D01*
X232524229Y-62482394D01*
X232290140Y-62579357D01*
X232073043Y-62724417D01*
X231888417Y-62909043D01*
X231743357Y-63126140D01*
X231643438Y-63367366D01*
X231592500Y-63623450D01*
X221595072Y-63623450D01*
X221595072Y-63522000D01*
X221582812Y-63397518D01*
X221546502Y-63277820D01*
X221516665Y-63222000D01*
X221546502Y-63166180D01*
X221582812Y-63046482D01*
X221595072Y-62922000D01*
X221595072Y-62022000D01*
X221582812Y-61897518D01*
X221546502Y-61777820D01*
X221516665Y-61722000D01*
X221546502Y-61666180D01*
X221582812Y-61546482D01*
X221595072Y-61422000D01*
X221595072Y-61288849D01*
X231588192Y-61288849D01*
X231628346Y-61546844D01*
X231718061Y-61792047D01*
X231770721Y-61890567D01*
X232003520Y-61948875D01*
X232738395Y-61214000D01*
X233097605Y-61214000D01*
X233832480Y-61948875D01*
X234065279Y-61890567D01*
X234175227Y-61653743D01*
X234236859Y-61400021D01*
X234247808Y-61139151D01*
X234207654Y-60881156D01*
X234117939Y-60635953D01*
X234065279Y-60537433D01*
X233832480Y-60479125D01*
X233097605Y-61214000D01*
X232738395Y-61214000D01*
X232003520Y-60479125D01*
X231770721Y-60537433D01*
X231660773Y-60774257D01*
X231599141Y-61027979D01*
X231588192Y-61288849D01*
X221595072Y-61288849D01*
X221595072Y-60522000D01*
X221582812Y-60397518D01*
X221553085Y-60299520D01*
X232183125Y-60299520D01*
X232918000Y-61034395D01*
X233652875Y-60299520D01*
X233594567Y-60066721D01*
X233491453Y-60018849D01*
X234128192Y-60018849D01*
X234168346Y-60276844D01*
X234258061Y-60522047D01*
X234310721Y-60620567D01*
X234543520Y-60678875D01*
X235278395Y-59944000D01*
X235637605Y-59944000D01*
X236372480Y-60678875D01*
X236605279Y-60620567D01*
X236715227Y-60383743D01*
X236776859Y-60130021D01*
X236787808Y-59869151D01*
X236747654Y-59611156D01*
X236657939Y-59365953D01*
X236605279Y-59267433D01*
X236372480Y-59209125D01*
X235637605Y-59944000D01*
X235278395Y-59944000D01*
X234543520Y-59209125D01*
X234310721Y-59267433D01*
X234200773Y-59504257D01*
X234139141Y-59757979D01*
X234128192Y-60018849D01*
X233491453Y-60018849D01*
X233357743Y-59956773D01*
X233104021Y-59895141D01*
X232843151Y-59884192D01*
X232585156Y-59924346D01*
X232339953Y-60014061D01*
X232241433Y-60066721D01*
X232183125Y-60299520D01*
X221553085Y-60299520D01*
X221546502Y-60277820D01*
X221516665Y-60222000D01*
X221546502Y-60166180D01*
X221582812Y-60046482D01*
X221595072Y-59922000D01*
X221592000Y-59757750D01*
X221433250Y-59599000D01*
X220334000Y-59599000D01*
X220334000Y-59619000D01*
X220080000Y-59619000D01*
X220080000Y-59599000D01*
X218980750Y-59599000D01*
X218822000Y-59757750D01*
X218818928Y-59922000D01*
X218825527Y-59988999D01*
X208858034Y-59988999D01*
X208811500Y-59984416D01*
X208764966Y-59988999D01*
X208764959Y-59988999D01*
X208644316Y-60000881D01*
X208625758Y-60002709D01*
X208481458Y-60046482D01*
X208447154Y-60056888D01*
X208282551Y-60144870D01*
X208138276Y-60263274D01*
X208108605Y-60299428D01*
X206781898Y-61626136D01*
X206678933Y-61646617D01*
X206472376Y-61732176D01*
X206286480Y-61856388D01*
X206128388Y-62014480D01*
X206004176Y-62200376D01*
X205936356Y-62364108D01*
X204345072Y-60772824D01*
X204345072Y-60522000D01*
X204332812Y-60397518D01*
X204296502Y-60277820D01*
X204293391Y-60272000D01*
X204296502Y-60266180D01*
X204332812Y-60146482D01*
X204345072Y-60022000D01*
X204342000Y-59857750D01*
X204183250Y-59699000D01*
X203084000Y-59699000D01*
X203084000Y-59719000D01*
X202830000Y-59719000D01*
X202830000Y-59699000D01*
X201730750Y-59699000D01*
X201572000Y-59857750D01*
X201568928Y-60022000D01*
X201581188Y-60146482D01*
X201617498Y-60266180D01*
X201620609Y-60272000D01*
X201617498Y-60277820D01*
X201581188Y-60397518D01*
X201568928Y-60522000D01*
X201568928Y-61422000D01*
X201581188Y-61546482D01*
X201617498Y-61666180D01*
X201647335Y-61722000D01*
X201617498Y-61777820D01*
X201581188Y-61897518D01*
X201568928Y-62022000D01*
X201568928Y-62922000D01*
X201581188Y-63046482D01*
X201617498Y-63166180D01*
X201674061Y-63272000D01*
X201617498Y-63377820D01*
X201581188Y-63497518D01*
X201570345Y-63607608D01*
X201539715Y-63604591D01*
X201508034Y-63607711D01*
X200559715Y-63607714D01*
X200559715Y-59122000D01*
X201568928Y-59122000D01*
X201572000Y-59286250D01*
X201730750Y-59445000D01*
X202830000Y-59445000D01*
X202830000Y-58645750D01*
X203084000Y-58645750D01*
X203084000Y-59445000D01*
X204183250Y-59445000D01*
X204342000Y-59286250D01*
X204345072Y-59122000D01*
X204332812Y-58997518D01*
X204296502Y-58877820D01*
X204237537Y-58767506D01*
X204158185Y-58670815D01*
X204061494Y-58591463D01*
X203951180Y-58532498D01*
X203831482Y-58496188D01*
X203707000Y-58483928D01*
X203242750Y-58487000D01*
X203084000Y-58645750D01*
X202830000Y-58645750D01*
X202671250Y-58487000D01*
X202207000Y-58483928D01*
X202082518Y-58496188D01*
X201962820Y-58532498D01*
X201852506Y-58591463D01*
X201755815Y-58670815D01*
X201676463Y-58767506D01*
X201617498Y-58877820D01*
X201581188Y-58997518D01*
X201568928Y-59122000D01*
X200559715Y-59122000D01*
X200559715Y-58419810D01*
X219276605Y-58413149D01*
X219212820Y-58432498D01*
X219102506Y-58491463D01*
X219005815Y-58570815D01*
X218926463Y-58667506D01*
X218867498Y-58777820D01*
X218831188Y-58897518D01*
X218818928Y-59022000D01*
X218822000Y-59186250D01*
X218980750Y-59345000D01*
X220080000Y-59345000D01*
X220080000Y-59325000D01*
X220334000Y-59325000D01*
X220334000Y-59345000D01*
X221433250Y-59345000D01*
X221592000Y-59186250D01*
X221594931Y-59029520D01*
X234723125Y-59029520D01*
X235458000Y-59764395D01*
X236192875Y-59029520D01*
X236134567Y-58796721D01*
X235897743Y-58686773D01*
X235644021Y-58625141D01*
X235383151Y-58614192D01*
X235125156Y-58654346D01*
X234879953Y-58744061D01*
X234781433Y-58796721D01*
X234723125Y-59029520D01*
X221594931Y-59029520D01*
X221595072Y-59022000D01*
X221582812Y-58897518D01*
X221546502Y-58777820D01*
X221487537Y-58667506D01*
X221408185Y-58570815D01*
X221311494Y-58491463D01*
X221201180Y-58432498D01*
X221135214Y-58412488D01*
X235712045Y-58407300D01*
X235736821Y-58404851D01*
X235760643Y-58397615D01*
X235782595Y-58385872D01*
X235801835Y-58370071D01*
X235817622Y-58350820D01*
X235829350Y-58328859D01*
X235836569Y-58305032D01*
X235839000Y-58280300D01*
X235839000Y-57490200D01*
X237077321Y-57490200D01*
X237109000Y-57493320D01*
X237140679Y-57490200D01*
X237235442Y-57480867D01*
X237357025Y-57443985D01*
X237469076Y-57384092D01*
X237567290Y-57303490D01*
X237647892Y-57205276D01*
X237707785Y-57093225D01*
X237744667Y-56971642D01*
X237757120Y-56845200D01*
X237754000Y-56813521D01*
X237754000Y-51796879D01*
X237757120Y-51765200D01*
X237744667Y-51638758D01*
X237707785Y-51517175D01*
X237647892Y-51405124D01*
X237567290Y-51306910D01*
X237469076Y-51226308D01*
X237357025Y-51166415D01*
X237235442Y-51129533D01*
X237140679Y-51120200D01*
X237109000Y-51117080D01*
X237077321Y-51120200D01*
X235839000Y-51120200D01*
X235839000Y-50662001D01*
X239269715Y-50662001D01*
X239269714Y-63607715D01*
G37*
%TD.AperFunction*%
D24*
X215500000Y-61950939D02*
X215539774Y-62150898D01*
X215617795Y-62339256D01*
X215731063Y-62508774D01*
X215875226Y-62652937D01*
X216044744Y-62766205D01*
X216233102Y-62844226D01*
X216433061Y-62884000D01*
X216451003Y-62884000D01*
X216571021Y-63004018D01*
X216595795Y-63034205D01*
X216625981Y-63058978D01*
X216625984Y-63058981D01*
X216638274Y-63069067D01*
X216716278Y-63133083D01*
X216853737Y-63206556D01*
X217002888Y-63251801D01*
X217119133Y-63263250D01*
X217119143Y-63263250D01*
X217157999Y-63267077D01*
X217196856Y-63263250D01*
X218875286Y-63263250D01*
X218867498Y-63277820D01*
X218831188Y-63397518D01*
X218818928Y-63522000D01*
X218818928Y-64422000D01*
X218831188Y-64546482D01*
X218867498Y-64666180D01*
X218897335Y-64722000D01*
X218867498Y-64777820D01*
X218831188Y-64897518D01*
X218818928Y-65022000D01*
X218818928Y-65922000D01*
X218831188Y-66046482D01*
X218867498Y-66166180D01*
X218897335Y-66222000D01*
X218867498Y-66277820D01*
X218831188Y-66397518D01*
X218818928Y-66522000D01*
X218818928Y-67422000D01*
X218831188Y-67546482D01*
X218867498Y-67666180D01*
X218897335Y-67722000D01*
X218867498Y-67777820D01*
X218831188Y-67897518D01*
X218818928Y-68022000D01*
X218818928Y-68922000D01*
X218831188Y-69046482D01*
X218867498Y-69166180D01*
X218897335Y-69222000D01*
X218867498Y-69277820D01*
X218831188Y-69397518D01*
X218818928Y-69522000D01*
X218818928Y-70422000D01*
X218831188Y-70546482D01*
X218867498Y-70666180D01*
X218897335Y-70722000D01*
X218867498Y-70777820D01*
X218831188Y-70897518D01*
X218818928Y-71022000D01*
X218818928Y-71400431D01*
X217498483Y-70079987D01*
X217473705Y-70049795D01*
X217353222Y-69950917D01*
X217215763Y-69877444D01*
X217066612Y-69832199D01*
X216950367Y-69820750D01*
X216950356Y-69820750D01*
X216911500Y-69816923D01*
X216872644Y-69820750D01*
X216572461Y-69820750D01*
X216559774Y-69808063D01*
X216390256Y-69694795D01*
X216201898Y-69616774D01*
X216001939Y-69577000D01*
X215798061Y-69577000D01*
X215598102Y-69616774D01*
X215448577Y-69678710D01*
X215460072Y-69562000D01*
X215457000Y-67797750D01*
X215298250Y-67639000D01*
X212899000Y-67639000D01*
X212899000Y-70038250D01*
X213057750Y-70197000D01*
X214822000Y-70200072D01*
X214946482Y-70187812D01*
X214956714Y-70184708D01*
X214904774Y-70310102D01*
X214865000Y-70510061D01*
X214865000Y-70713939D01*
X214904774Y-70913898D01*
X214982795Y-71102256D01*
X215070268Y-71233169D01*
X215031774Y-71326102D01*
X214992000Y-71526061D01*
X214992000Y-71729939D01*
X215031774Y-71929898D01*
X215109795Y-72118256D01*
X215197268Y-72249169D01*
X215158774Y-72342102D01*
X215119000Y-72542061D01*
X215119000Y-72745939D01*
X215158774Y-72945898D01*
X215236795Y-73134256D01*
X215324268Y-73265169D01*
X215285774Y-73358102D01*
X215246000Y-73558061D01*
X215246000Y-73761939D01*
X215285774Y-73961898D01*
X215363795Y-74150256D01*
X215451268Y-74281169D01*
X215412774Y-74374102D01*
X215373000Y-74574061D01*
X215373000Y-74777939D01*
X215412774Y-74977898D01*
X215490795Y-75166256D01*
X215502651Y-75184000D01*
X215490795Y-75201744D01*
X215412774Y-75390102D01*
X215373000Y-75590061D01*
X215373000Y-75793939D01*
X215411383Y-75986906D01*
X215350063Y-76048226D01*
X215236795Y-76217744D01*
X215158774Y-76406102D01*
X215119000Y-76606061D01*
X215119000Y-76809939D01*
X215158774Y-77009898D01*
X215236795Y-77198256D01*
X215248651Y-77216000D01*
X215236795Y-77233744D01*
X215158774Y-77422102D01*
X215119000Y-77622061D01*
X215119000Y-77825939D01*
X215158774Y-78025898D01*
X215197268Y-78118831D01*
X215109795Y-78249744D01*
X215031774Y-78438102D01*
X214992000Y-78638061D01*
X214992000Y-78841939D01*
X215031774Y-79041898D01*
X215070268Y-79134831D01*
X214982795Y-79265744D01*
X214904774Y-79454102D01*
X214865000Y-79654061D01*
X214865000Y-79672004D01*
X214799982Y-79737022D01*
X214769796Y-79761795D01*
X214745023Y-79791981D01*
X214745019Y-79791985D01*
X214670917Y-79882279D01*
X214617103Y-79982959D01*
X214597445Y-80019737D01*
X214552200Y-80168888D01*
X214545253Y-80239424D01*
X214536923Y-80324000D01*
X214540751Y-80362866D01*
X214540751Y-81390286D01*
X214526180Y-81382498D01*
X214406482Y-81346188D01*
X214282000Y-81333928D01*
X213382000Y-81333928D01*
X213257518Y-81346188D01*
X213137820Y-81382498D01*
X213123250Y-81390286D01*
X213123250Y-79806356D01*
X213127077Y-79767500D01*
X213123250Y-79728643D01*
X213123250Y-79728633D01*
X213111801Y-79612388D01*
X213066556Y-79463237D01*
X212993083Y-79325778D01*
X212894205Y-79205295D01*
X212864013Y-79180517D01*
X212847500Y-79164004D01*
X212847500Y-79146061D01*
X212807726Y-78946102D01*
X212729705Y-78757744D01*
X212616437Y-78588226D01*
X212472274Y-78444063D01*
X212302756Y-78330795D01*
X212114398Y-78252774D01*
X211914439Y-78213000D01*
X211710561Y-78213000D01*
X211510602Y-78252774D01*
X211322244Y-78330795D01*
X211152726Y-78444063D01*
X211008563Y-78588226D01*
X210895295Y-78757744D01*
X210817274Y-78946102D01*
X210777500Y-79146061D01*
X210777500Y-79349939D01*
X210817274Y-79549898D01*
X210895295Y-79738256D01*
X211008563Y-79907774D01*
X211152726Y-80051937D01*
X211322244Y-80165205D01*
X211510602Y-80243226D01*
X211540751Y-80249223D01*
X211540750Y-81390286D01*
X211526180Y-81382498D01*
X211406482Y-81346188D01*
X211282000Y-81333928D01*
X210382000Y-81333928D01*
X210257518Y-81346188D01*
X210137820Y-81382498D01*
X210082000Y-81412335D01*
X210026180Y-81382498D01*
X209906482Y-81346188D01*
X209782000Y-81333928D01*
X208882000Y-81333928D01*
X208757518Y-81346188D01*
X208637820Y-81382498D01*
X208582000Y-81412335D01*
X208526180Y-81382498D01*
X208406482Y-81346188D01*
X208282000Y-81333928D01*
X207382000Y-81333928D01*
X207257518Y-81346188D01*
X207137820Y-81382498D01*
X207082000Y-81412335D01*
X207026180Y-81382498D01*
X206906482Y-81346188D01*
X206782000Y-81333928D01*
X205882000Y-81333928D01*
X205757518Y-81346188D01*
X205637820Y-81382498D01*
X205582000Y-81412335D01*
X205526180Y-81382498D01*
X205406482Y-81346188D01*
X205282000Y-81333928D01*
X205117750Y-81337000D01*
X204959000Y-81495750D01*
X204959000Y-82595000D01*
X204979000Y-82595000D01*
X204979000Y-82849000D01*
X204959000Y-82849000D01*
X204959000Y-83948250D01*
X205117750Y-84107000D01*
X205282000Y-84110072D01*
X205406482Y-84097812D01*
X205526180Y-84061502D01*
X205582000Y-84031665D01*
X205637820Y-84061502D01*
X205757518Y-84097812D01*
X205882000Y-84110072D01*
X206782000Y-84110072D01*
X206906482Y-84097812D01*
X207026180Y-84061502D01*
X207082000Y-84031665D01*
X207137820Y-84061502D01*
X207257518Y-84097812D01*
X207382000Y-84110072D01*
X208282000Y-84110072D01*
X208406482Y-84097812D01*
X208526180Y-84061502D01*
X208540750Y-84053714D01*
X208540751Y-84895088D01*
X208354842Y-84932068D01*
X208084589Y-85044010D01*
X207841368Y-85206525D01*
X207634525Y-85413368D01*
X207512805Y-85595534D01*
X207443178Y-85478645D01*
X207248269Y-85262412D01*
X207014920Y-85088359D01*
X206752099Y-84963175D01*
X206604890Y-84918524D01*
X206375000Y-85039845D01*
X206375000Y-86233000D01*
X206395000Y-86233000D01*
X206395000Y-86487000D01*
X206375000Y-86487000D01*
X206375000Y-87680155D01*
X206604890Y-87801476D01*
X206752099Y-87756825D01*
X207014920Y-87631641D01*
X207248269Y-87457588D01*
X207443178Y-87241355D01*
X207512805Y-87124466D01*
X207634525Y-87306632D01*
X207841368Y-87513475D01*
X208084589Y-87675990D01*
X208354842Y-87787932D01*
X208641740Y-87845000D01*
X208934260Y-87845000D01*
X209221158Y-87787932D01*
X209491411Y-87675990D01*
X209734632Y-87513475D01*
X209941475Y-87306632D01*
X210058000Y-87132240D01*
X210174525Y-87306632D01*
X210381368Y-87513475D01*
X210624589Y-87675990D01*
X210894842Y-87787932D01*
X211181740Y-87845000D01*
X211474260Y-87845000D01*
X211761158Y-87787932D01*
X212031411Y-87675990D01*
X212274632Y-87513475D01*
X212481475Y-87306632D01*
X212598000Y-87132240D01*
X212714525Y-87306632D01*
X212921368Y-87513475D01*
X213164589Y-87675990D01*
X213434842Y-87787932D01*
X213721740Y-87845000D01*
X213805519Y-87845000D01*
X213790350Y-87853108D01*
X213692136Y-87933710D01*
X213611534Y-88031924D01*
X213551641Y-88143975D01*
X213514759Y-88265558D01*
X213502306Y-88392000D01*
X213505427Y-88423689D01*
X213505426Y-89372000D01*
X200559715Y-89372000D01*
X200559715Y-76426286D01*
X201508036Y-76426286D01*
X201539715Y-76429406D01*
X201568928Y-76426529D01*
X201568928Y-76522000D01*
X201581188Y-76646482D01*
X201617498Y-76766180D01*
X201647335Y-76822000D01*
X201617498Y-76877820D01*
X201581188Y-76997518D01*
X201568928Y-77122000D01*
X201568928Y-78022000D01*
X201581188Y-78146482D01*
X201617498Y-78266180D01*
X201647335Y-78322000D01*
X201617498Y-78377820D01*
X201581188Y-78497518D01*
X201568928Y-78622000D01*
X201568928Y-79522000D01*
X201581188Y-79646482D01*
X201617498Y-79766180D01*
X201647335Y-79822000D01*
X201617498Y-79877820D01*
X201581188Y-79997518D01*
X201568928Y-80122000D01*
X201568928Y-81022000D01*
X201581188Y-81146482D01*
X201617498Y-81266180D01*
X201647335Y-81322000D01*
X201617498Y-81377820D01*
X201581188Y-81497518D01*
X201568928Y-81622000D01*
X201568928Y-82522000D01*
X201581188Y-82646482D01*
X201617498Y-82766180D01*
X201676463Y-82876494D01*
X201755815Y-82973185D01*
X201852506Y-83052537D01*
X201957212Y-83108505D01*
X201879758Y-83116133D01*
X201758175Y-83153015D01*
X201646124Y-83212908D01*
X201547910Y-83293510D01*
X201467308Y-83391724D01*
X201407415Y-83503775D01*
X201370533Y-83625358D01*
X201358080Y-83751800D01*
X201361200Y-83783479D01*
X201361201Y-86620111D01*
X201358080Y-86651800D01*
X201370533Y-86778242D01*
X201407415Y-86899825D01*
X201467308Y-87011876D01*
X201547910Y-87110090D01*
X201646124Y-87190692D01*
X201758175Y-87250585D01*
X201879758Y-87287467D01*
X201974521Y-87296800D01*
X202006200Y-87299920D01*
X202037879Y-87296800D01*
X203879521Y-87296800D01*
X203911200Y-87299920D01*
X203942879Y-87296800D01*
X204037642Y-87287467D01*
X204159225Y-87250585D01*
X204271276Y-87190692D01*
X204369490Y-87110090D01*
X204450092Y-87011876D01*
X204509985Y-86899825D01*
X204546867Y-86778242D01*
X204552909Y-86716891D01*
X204806519Y-86716891D01*
X204903843Y-86991252D01*
X205052822Y-87241355D01*
X205247731Y-87457588D01*
X205481080Y-87631641D01*
X205743901Y-87756825D01*
X205891110Y-87801476D01*
X206121000Y-87680155D01*
X206121000Y-86487000D01*
X204927186Y-86487000D01*
X204806519Y-86716891D01*
X204552909Y-86716891D01*
X204559320Y-86651800D01*
X204556200Y-86620121D01*
X204556200Y-86003109D01*
X204806519Y-86003109D01*
X204927186Y-86233000D01*
X206121000Y-86233000D01*
X206121000Y-85039845D01*
X205891110Y-84918524D01*
X205743901Y-84963175D01*
X205481080Y-85088359D01*
X205247731Y-85262412D01*
X205052822Y-85478645D01*
X204903843Y-85728748D01*
X204806519Y-86003109D01*
X204556200Y-86003109D01*
X204556200Y-84097050D01*
X204705000Y-83948250D01*
X204705000Y-82849000D01*
X204685000Y-82849000D01*
X204685000Y-82595000D01*
X204705000Y-82595000D01*
X204705000Y-81495750D01*
X204546250Y-81337000D01*
X204382000Y-81333928D01*
X204278490Y-81344123D01*
X204266665Y-81322000D01*
X204296502Y-81266180D01*
X204332812Y-81146482D01*
X204345072Y-81022000D01*
X204345072Y-80122000D01*
X204332812Y-79997518D01*
X204296502Y-79877820D01*
X204266665Y-79822000D01*
X204296502Y-79766180D01*
X204332812Y-79646482D01*
X204345072Y-79522000D01*
X204345072Y-78622000D01*
X204332812Y-78497518D01*
X204296502Y-78377820D01*
X204266665Y-78322000D01*
X204296502Y-78266180D01*
X204332812Y-78146482D01*
X204345072Y-78022000D01*
X204345072Y-77122000D01*
X204332812Y-76997518D01*
X204296502Y-76877820D01*
X204266665Y-76822000D01*
X204296502Y-76766180D01*
X204332812Y-76646482D01*
X204345072Y-76522000D01*
X204345072Y-75622000D01*
X204332812Y-75497518D01*
X204296502Y-75377820D01*
X204266665Y-75322000D01*
X204296502Y-75266180D01*
X204332038Y-75149034D01*
X204391017Y-75208013D01*
X204415795Y-75238205D01*
X204536278Y-75337083D01*
X204579445Y-75360156D01*
X204699226Y-75479937D01*
X204868744Y-75593205D01*
X205057102Y-75671226D01*
X205257061Y-75711000D01*
X205460939Y-75711000D01*
X205660898Y-75671226D01*
X205849256Y-75593205D01*
X206018774Y-75479937D01*
X206162937Y-75335774D01*
X206276205Y-75166256D01*
X206354226Y-74977898D01*
X206394000Y-74777939D01*
X206394000Y-74574061D01*
X206354226Y-74374102D01*
X206276205Y-74185744D01*
X206162937Y-74016226D01*
X206018774Y-73872063D01*
X205849256Y-73758795D01*
X205660898Y-73680774D01*
X205460939Y-73641000D01*
X205261250Y-73641000D01*
X205261250Y-66302196D01*
X208452072Y-69493019D01*
X208476845Y-69523205D01*
X208507031Y-69547978D01*
X208507034Y-69547981D01*
X208542394Y-69577000D01*
X208597328Y-69622083D01*
X208734787Y-69695556D01*
X208883938Y-69740801D01*
X209000183Y-69752250D01*
X209000192Y-69752250D01*
X209005014Y-69752725D01*
X209017226Y-69764937D01*
X209186744Y-69878205D01*
X209375102Y-69956226D01*
X209575061Y-69996000D01*
X209778939Y-69996000D01*
X209978898Y-69956226D01*
X210167256Y-69878205D01*
X210170012Y-69876363D01*
X210191463Y-69916494D01*
X210270815Y-70013185D01*
X210367506Y-70092537D01*
X210477820Y-70151502D01*
X210597518Y-70187812D01*
X210722000Y-70200072D01*
X212486250Y-70197000D01*
X212645000Y-70038250D01*
X212645000Y-67639000D01*
X210245750Y-67639000D01*
X210087000Y-67797750D01*
X210086630Y-68010398D01*
X209978898Y-67965774D01*
X209778939Y-67926000D01*
X209575061Y-67926000D01*
X209375102Y-67965774D01*
X209224997Y-68027950D01*
X206659047Y-65462000D01*
X210083928Y-65462000D01*
X210087000Y-67226250D01*
X210245750Y-67385000D01*
X212645000Y-67385000D01*
X212645000Y-64985750D01*
X212899000Y-64985750D01*
X212899000Y-67385000D01*
X215298250Y-67385000D01*
X215457000Y-67226250D01*
X215460072Y-65462000D01*
X215447812Y-65337518D01*
X215411502Y-65217820D01*
X215352537Y-65107506D01*
X215273185Y-65010815D01*
X215176494Y-64931463D01*
X215066180Y-64872498D01*
X214946482Y-64836188D01*
X214822000Y-64823928D01*
X213057750Y-64827000D01*
X212899000Y-64985750D01*
X212645000Y-64985750D01*
X212486250Y-64827000D01*
X210722000Y-64823928D01*
X210597518Y-64836188D01*
X210477820Y-64872498D01*
X210367506Y-64931463D01*
X210270815Y-65010815D01*
X210191463Y-65107506D01*
X210132498Y-65217820D01*
X210096188Y-65337518D01*
X210083928Y-65462000D01*
X206659047Y-65462000D01*
X206277250Y-65080204D01*
X206277250Y-63610382D01*
X206286480Y-63619612D01*
X206472376Y-63743824D01*
X206678933Y-63829383D01*
X206898212Y-63873000D01*
X207121788Y-63873000D01*
X207341067Y-63829383D01*
X207547624Y-63743824D01*
X207733520Y-63619612D01*
X207891612Y-63461520D01*
X208015824Y-63275624D01*
X208101383Y-63069067D01*
X208121864Y-62966102D01*
X209203968Y-61883999D01*
X215500000Y-61883999D01*
X215500000Y-61950939D01*
%TA.AperFunction,Conductor*%
D25*
G36*
X215500000Y-61950939D02*
G01*
X215539774Y-62150898D01*
X215617795Y-62339256D01*
X215731063Y-62508774D01*
X215875226Y-62652937D01*
X216044744Y-62766205D01*
X216233102Y-62844226D01*
X216433061Y-62884000D01*
X216451003Y-62884000D01*
X216571021Y-63004018D01*
X216595795Y-63034205D01*
X216625981Y-63058978D01*
X216625984Y-63058981D01*
X216638274Y-63069067D01*
X216716278Y-63133083D01*
X216853737Y-63206556D01*
X217002888Y-63251801D01*
X217119133Y-63263250D01*
X217119143Y-63263250D01*
X217157999Y-63267077D01*
X217196856Y-63263250D01*
X218875286Y-63263250D01*
X218867498Y-63277820D01*
X218831188Y-63397518D01*
X218818928Y-63522000D01*
X218818928Y-64422000D01*
X218831188Y-64546482D01*
X218867498Y-64666180D01*
X218897335Y-64722000D01*
X218867498Y-64777820D01*
X218831188Y-64897518D01*
X218818928Y-65022000D01*
X218818928Y-65922000D01*
X218831188Y-66046482D01*
X218867498Y-66166180D01*
X218897335Y-66222000D01*
X218867498Y-66277820D01*
X218831188Y-66397518D01*
X218818928Y-66522000D01*
X218818928Y-67422000D01*
X218831188Y-67546482D01*
X218867498Y-67666180D01*
X218897335Y-67722000D01*
X218867498Y-67777820D01*
X218831188Y-67897518D01*
X218818928Y-68022000D01*
X218818928Y-68922000D01*
X218831188Y-69046482D01*
X218867498Y-69166180D01*
X218897335Y-69222000D01*
X218867498Y-69277820D01*
X218831188Y-69397518D01*
X218818928Y-69522000D01*
X218818928Y-70422000D01*
X218831188Y-70546482D01*
X218867498Y-70666180D01*
X218897335Y-70722000D01*
X218867498Y-70777820D01*
X218831188Y-70897518D01*
X218818928Y-71022000D01*
X218818928Y-71400431D01*
X217498483Y-70079987D01*
X217473705Y-70049795D01*
X217353222Y-69950917D01*
X217215763Y-69877444D01*
X217066612Y-69832199D01*
X216950367Y-69820750D01*
X216950356Y-69820750D01*
X216911500Y-69816923D01*
X216872644Y-69820750D01*
X216572461Y-69820750D01*
X216559774Y-69808063D01*
X216390256Y-69694795D01*
X216201898Y-69616774D01*
X216001939Y-69577000D01*
X215798061Y-69577000D01*
X215598102Y-69616774D01*
X215448577Y-69678710D01*
X215460072Y-69562000D01*
X215457000Y-67797750D01*
X215298250Y-67639000D01*
X212899000Y-67639000D01*
X212899000Y-70038250D01*
X213057750Y-70197000D01*
X214822000Y-70200072D01*
X214946482Y-70187812D01*
X214956714Y-70184708D01*
X214904774Y-70310102D01*
X214865000Y-70510061D01*
X214865000Y-70713939D01*
X214904774Y-70913898D01*
X214982795Y-71102256D01*
X215070268Y-71233169D01*
X215031774Y-71326102D01*
X214992000Y-71526061D01*
X214992000Y-71729939D01*
X215031774Y-71929898D01*
X215109795Y-72118256D01*
X215197268Y-72249169D01*
X215158774Y-72342102D01*
X215119000Y-72542061D01*
X215119000Y-72745939D01*
X215158774Y-72945898D01*
X215236795Y-73134256D01*
X215324268Y-73265169D01*
X215285774Y-73358102D01*
X215246000Y-73558061D01*
X215246000Y-73761939D01*
X215285774Y-73961898D01*
X215363795Y-74150256D01*
X215451268Y-74281169D01*
X215412774Y-74374102D01*
X215373000Y-74574061D01*
X215373000Y-74777939D01*
X215412774Y-74977898D01*
X215490795Y-75166256D01*
X215502651Y-75184000D01*
X215490795Y-75201744D01*
X215412774Y-75390102D01*
X215373000Y-75590061D01*
X215373000Y-75793939D01*
X215411383Y-75986906D01*
X215350063Y-76048226D01*
X215236795Y-76217744D01*
X215158774Y-76406102D01*
X215119000Y-76606061D01*
X215119000Y-76809939D01*
X215158774Y-77009898D01*
X215236795Y-77198256D01*
X215248651Y-77216000D01*
X215236795Y-77233744D01*
X215158774Y-77422102D01*
X215119000Y-77622061D01*
X215119000Y-77825939D01*
X215158774Y-78025898D01*
X215197268Y-78118831D01*
X215109795Y-78249744D01*
X215031774Y-78438102D01*
X214992000Y-78638061D01*
X214992000Y-78841939D01*
X215031774Y-79041898D01*
X215070268Y-79134831D01*
X214982795Y-79265744D01*
X214904774Y-79454102D01*
X214865000Y-79654061D01*
X214865000Y-79672004D01*
X214799982Y-79737022D01*
X214769796Y-79761795D01*
X214745023Y-79791981D01*
X214745019Y-79791985D01*
X214670917Y-79882279D01*
X214617103Y-79982959D01*
X214597445Y-80019737D01*
X214552200Y-80168888D01*
X214545253Y-80239424D01*
X214536923Y-80324000D01*
X214540751Y-80362866D01*
X214540751Y-81390286D01*
X214526180Y-81382498D01*
X214406482Y-81346188D01*
X214282000Y-81333928D01*
X213382000Y-81333928D01*
X213257518Y-81346188D01*
X213137820Y-81382498D01*
X213123250Y-81390286D01*
X213123250Y-79806356D01*
X213127077Y-79767500D01*
X213123250Y-79728643D01*
X213123250Y-79728633D01*
X213111801Y-79612388D01*
X213066556Y-79463237D01*
X212993083Y-79325778D01*
X212894205Y-79205295D01*
X212864013Y-79180517D01*
X212847500Y-79164004D01*
X212847500Y-79146061D01*
X212807726Y-78946102D01*
X212729705Y-78757744D01*
X212616437Y-78588226D01*
X212472274Y-78444063D01*
X212302756Y-78330795D01*
X212114398Y-78252774D01*
X211914439Y-78213000D01*
X211710561Y-78213000D01*
X211510602Y-78252774D01*
X211322244Y-78330795D01*
X211152726Y-78444063D01*
X211008563Y-78588226D01*
X210895295Y-78757744D01*
X210817274Y-78946102D01*
X210777500Y-79146061D01*
X210777500Y-79349939D01*
X210817274Y-79549898D01*
X210895295Y-79738256D01*
X211008563Y-79907774D01*
X211152726Y-80051937D01*
X211322244Y-80165205D01*
X211510602Y-80243226D01*
X211540751Y-80249223D01*
X211540750Y-81390286D01*
X211526180Y-81382498D01*
X211406482Y-81346188D01*
X211282000Y-81333928D01*
X210382000Y-81333928D01*
X210257518Y-81346188D01*
X210137820Y-81382498D01*
X210082000Y-81412335D01*
X210026180Y-81382498D01*
X209906482Y-81346188D01*
X209782000Y-81333928D01*
X208882000Y-81333928D01*
X208757518Y-81346188D01*
X208637820Y-81382498D01*
X208582000Y-81412335D01*
X208526180Y-81382498D01*
X208406482Y-81346188D01*
X208282000Y-81333928D01*
X207382000Y-81333928D01*
X207257518Y-81346188D01*
X207137820Y-81382498D01*
X207082000Y-81412335D01*
X207026180Y-81382498D01*
X206906482Y-81346188D01*
X206782000Y-81333928D01*
X205882000Y-81333928D01*
X205757518Y-81346188D01*
X205637820Y-81382498D01*
X205582000Y-81412335D01*
X205526180Y-81382498D01*
X205406482Y-81346188D01*
X205282000Y-81333928D01*
X205117750Y-81337000D01*
X204959000Y-81495750D01*
X204959000Y-82595000D01*
X204979000Y-82595000D01*
X204979000Y-82849000D01*
X204959000Y-82849000D01*
X204959000Y-83948250D01*
X205117750Y-84107000D01*
X205282000Y-84110072D01*
X205406482Y-84097812D01*
X205526180Y-84061502D01*
X205582000Y-84031665D01*
X205637820Y-84061502D01*
X205757518Y-84097812D01*
X205882000Y-84110072D01*
X206782000Y-84110072D01*
X206906482Y-84097812D01*
X207026180Y-84061502D01*
X207082000Y-84031665D01*
X207137820Y-84061502D01*
X207257518Y-84097812D01*
X207382000Y-84110072D01*
X208282000Y-84110072D01*
X208406482Y-84097812D01*
X208526180Y-84061502D01*
X208540750Y-84053714D01*
X208540751Y-84895088D01*
X208354842Y-84932068D01*
X208084589Y-85044010D01*
X207841368Y-85206525D01*
X207634525Y-85413368D01*
X207512805Y-85595534D01*
X207443178Y-85478645D01*
X207248269Y-85262412D01*
X207014920Y-85088359D01*
X206752099Y-84963175D01*
X206604890Y-84918524D01*
X206375000Y-85039845D01*
X206375000Y-86233000D01*
X206395000Y-86233000D01*
X206395000Y-86487000D01*
X206375000Y-86487000D01*
X206375000Y-87680155D01*
X206604890Y-87801476D01*
X206752099Y-87756825D01*
X207014920Y-87631641D01*
X207248269Y-87457588D01*
X207443178Y-87241355D01*
X207512805Y-87124466D01*
X207634525Y-87306632D01*
X207841368Y-87513475D01*
X208084589Y-87675990D01*
X208354842Y-87787932D01*
X208641740Y-87845000D01*
X208934260Y-87845000D01*
X209221158Y-87787932D01*
X209491411Y-87675990D01*
X209734632Y-87513475D01*
X209941475Y-87306632D01*
X210058000Y-87132240D01*
X210174525Y-87306632D01*
X210381368Y-87513475D01*
X210624589Y-87675990D01*
X210894842Y-87787932D01*
X211181740Y-87845000D01*
X211474260Y-87845000D01*
X211761158Y-87787932D01*
X212031411Y-87675990D01*
X212274632Y-87513475D01*
X212481475Y-87306632D01*
X212598000Y-87132240D01*
X212714525Y-87306632D01*
X212921368Y-87513475D01*
X213164589Y-87675990D01*
X213434842Y-87787932D01*
X213721740Y-87845000D01*
X213805519Y-87845000D01*
X213790350Y-87853108D01*
X213692136Y-87933710D01*
X213611534Y-88031924D01*
X213551641Y-88143975D01*
X213514759Y-88265558D01*
X213502306Y-88392000D01*
X213505427Y-88423689D01*
X213505426Y-89372000D01*
X200559715Y-89372000D01*
X200559715Y-76426286D01*
X201508036Y-76426286D01*
X201539715Y-76429406D01*
X201568928Y-76426529D01*
X201568928Y-76522000D01*
X201581188Y-76646482D01*
X201617498Y-76766180D01*
X201647335Y-76822000D01*
X201617498Y-76877820D01*
X201581188Y-76997518D01*
X201568928Y-77122000D01*
X201568928Y-78022000D01*
X201581188Y-78146482D01*
X201617498Y-78266180D01*
X201647335Y-78322000D01*
X201617498Y-78377820D01*
X201581188Y-78497518D01*
X201568928Y-78622000D01*
X201568928Y-79522000D01*
X201581188Y-79646482D01*
X201617498Y-79766180D01*
X201647335Y-79822000D01*
X201617498Y-79877820D01*
X201581188Y-79997518D01*
X201568928Y-80122000D01*
X201568928Y-81022000D01*
X201581188Y-81146482D01*
X201617498Y-81266180D01*
X201647335Y-81322000D01*
X201617498Y-81377820D01*
X201581188Y-81497518D01*
X201568928Y-81622000D01*
X201568928Y-82522000D01*
X201581188Y-82646482D01*
X201617498Y-82766180D01*
X201676463Y-82876494D01*
X201755815Y-82973185D01*
X201852506Y-83052537D01*
X201957212Y-83108505D01*
X201879758Y-83116133D01*
X201758175Y-83153015D01*
X201646124Y-83212908D01*
X201547910Y-83293510D01*
X201467308Y-83391724D01*
X201407415Y-83503775D01*
X201370533Y-83625358D01*
X201358080Y-83751800D01*
X201361200Y-83783479D01*
X201361201Y-86620111D01*
X201358080Y-86651800D01*
X201370533Y-86778242D01*
X201407415Y-86899825D01*
X201467308Y-87011876D01*
X201547910Y-87110090D01*
X201646124Y-87190692D01*
X201758175Y-87250585D01*
X201879758Y-87287467D01*
X201974521Y-87296800D01*
X202006200Y-87299920D01*
X202037879Y-87296800D01*
X203879521Y-87296800D01*
X203911200Y-87299920D01*
X203942879Y-87296800D01*
X204037642Y-87287467D01*
X204159225Y-87250585D01*
X204271276Y-87190692D01*
X204369490Y-87110090D01*
X204450092Y-87011876D01*
X204509985Y-86899825D01*
X204546867Y-86778242D01*
X204552909Y-86716891D01*
X204806519Y-86716891D01*
X204903843Y-86991252D01*
X205052822Y-87241355D01*
X205247731Y-87457588D01*
X205481080Y-87631641D01*
X205743901Y-87756825D01*
X205891110Y-87801476D01*
X206121000Y-87680155D01*
X206121000Y-86487000D01*
X204927186Y-86487000D01*
X204806519Y-86716891D01*
X204552909Y-86716891D01*
X204559320Y-86651800D01*
X204556200Y-86620121D01*
X204556200Y-86003109D01*
X204806519Y-86003109D01*
X204927186Y-86233000D01*
X206121000Y-86233000D01*
X206121000Y-85039845D01*
X205891110Y-84918524D01*
X205743901Y-84963175D01*
X205481080Y-85088359D01*
X205247731Y-85262412D01*
X205052822Y-85478645D01*
X204903843Y-85728748D01*
X204806519Y-86003109D01*
X204556200Y-86003109D01*
X204556200Y-84097050D01*
X204705000Y-83948250D01*
X204705000Y-82849000D01*
X204685000Y-82849000D01*
X204685000Y-82595000D01*
X204705000Y-82595000D01*
X204705000Y-81495750D01*
X204546250Y-81337000D01*
X204382000Y-81333928D01*
X204278490Y-81344123D01*
X204266665Y-81322000D01*
X204296502Y-81266180D01*
X204332812Y-81146482D01*
X204345072Y-81022000D01*
X204345072Y-80122000D01*
X204332812Y-79997518D01*
X204296502Y-79877820D01*
X204266665Y-79822000D01*
X204296502Y-79766180D01*
X204332812Y-79646482D01*
X204345072Y-79522000D01*
X204345072Y-78622000D01*
X204332812Y-78497518D01*
X204296502Y-78377820D01*
X204266665Y-78322000D01*
X204296502Y-78266180D01*
X204332812Y-78146482D01*
X204345072Y-78022000D01*
X204345072Y-77122000D01*
X204332812Y-76997518D01*
X204296502Y-76877820D01*
X204266665Y-76822000D01*
X204296502Y-76766180D01*
X204332812Y-76646482D01*
X204345072Y-76522000D01*
X204345072Y-75622000D01*
X204332812Y-75497518D01*
X204296502Y-75377820D01*
X204266665Y-75322000D01*
X204296502Y-75266180D01*
X204332038Y-75149034D01*
X204391017Y-75208013D01*
X204415795Y-75238205D01*
X204536278Y-75337083D01*
X204579445Y-75360156D01*
X204699226Y-75479937D01*
X204868744Y-75593205D01*
X205057102Y-75671226D01*
X205257061Y-75711000D01*
X205460939Y-75711000D01*
X205660898Y-75671226D01*
X205849256Y-75593205D01*
X206018774Y-75479937D01*
X206162937Y-75335774D01*
X206276205Y-75166256D01*
X206354226Y-74977898D01*
X206394000Y-74777939D01*
X206394000Y-74574061D01*
X206354226Y-74374102D01*
X206276205Y-74185744D01*
X206162937Y-74016226D01*
X206018774Y-73872063D01*
X205849256Y-73758795D01*
X205660898Y-73680774D01*
X205460939Y-73641000D01*
X205261250Y-73641000D01*
X205261250Y-66302196D01*
X208452072Y-69493019D01*
X208476845Y-69523205D01*
X208507031Y-69547978D01*
X208507034Y-69547981D01*
X208542394Y-69577000D01*
X208597328Y-69622083D01*
X208734787Y-69695556D01*
X208883938Y-69740801D01*
X209000183Y-69752250D01*
X209000192Y-69752250D01*
X209005014Y-69752725D01*
X209017226Y-69764937D01*
X209186744Y-69878205D01*
X209375102Y-69956226D01*
X209575061Y-69996000D01*
X209778939Y-69996000D01*
X209978898Y-69956226D01*
X210167256Y-69878205D01*
X210170012Y-69876363D01*
X210191463Y-69916494D01*
X210270815Y-70013185D01*
X210367506Y-70092537D01*
X210477820Y-70151502D01*
X210597518Y-70187812D01*
X210722000Y-70200072D01*
X212486250Y-70197000D01*
X212645000Y-70038250D01*
X212645000Y-67639000D01*
X210245750Y-67639000D01*
X210087000Y-67797750D01*
X210086630Y-68010398D01*
X209978898Y-67965774D01*
X209778939Y-67926000D01*
X209575061Y-67926000D01*
X209375102Y-67965774D01*
X209224997Y-68027950D01*
X206659047Y-65462000D01*
X210083928Y-65462000D01*
X210087000Y-67226250D01*
X210245750Y-67385000D01*
X212645000Y-67385000D01*
X212645000Y-64985750D01*
X212899000Y-64985750D01*
X212899000Y-67385000D01*
X215298250Y-67385000D01*
X215457000Y-67226250D01*
X215460072Y-65462000D01*
X215447812Y-65337518D01*
X215411502Y-65217820D01*
X215352537Y-65107506D01*
X215273185Y-65010815D01*
X215176494Y-64931463D01*
X215066180Y-64872498D01*
X214946482Y-64836188D01*
X214822000Y-64823928D01*
X213057750Y-64827000D01*
X212899000Y-64985750D01*
X212645000Y-64985750D01*
X212486250Y-64827000D01*
X210722000Y-64823928D01*
X210597518Y-64836188D01*
X210477820Y-64872498D01*
X210367506Y-64931463D01*
X210270815Y-65010815D01*
X210191463Y-65107506D01*
X210132498Y-65217820D01*
X210096188Y-65337518D01*
X210083928Y-65462000D01*
X206659047Y-65462000D01*
X206277250Y-65080204D01*
X206277250Y-63610382D01*
X206286480Y-63619612D01*
X206472376Y-63743824D01*
X206678933Y-63829383D01*
X206898212Y-63873000D01*
X207121788Y-63873000D01*
X207341067Y-63829383D01*
X207547624Y-63743824D01*
X207733520Y-63619612D01*
X207891612Y-63461520D01*
X208015824Y-63275624D01*
X208101383Y-63069067D01*
X208121864Y-62966102D01*
X209203968Y-61883999D01*
X215500000Y-61883999D01*
X215500000Y-61950939D01*
G37*
%TD.AperFunction*%
D24*
X221599820Y-76451502D02*
X221719518Y-76487812D01*
X221844000Y-76500072D01*
X222447076Y-76500072D01*
X222909001Y-76961998D01*
X222909001Y-77426806D01*
X222879750Y-77427000D01*
X222721000Y-77585750D01*
X222721000Y-78435000D01*
X222741000Y-78435000D01*
X222741000Y-78689000D01*
X222721000Y-78689000D01*
X222721000Y-79538250D01*
X222860377Y-79677627D01*
X221844987Y-80693017D01*
X221814795Y-80717795D01*
X221715917Y-80838279D01*
X221642444Y-80975738D01*
X221597199Y-81124889D01*
X221585750Y-81241134D01*
X221585750Y-81241144D01*
X221581923Y-81280000D01*
X221585750Y-81318856D01*
X221585750Y-81427349D01*
X221582812Y-81397518D01*
X221546502Y-81277820D01*
X221516665Y-81222000D01*
X221546502Y-81166180D01*
X221582812Y-81046482D01*
X221595072Y-80922000D01*
X221595072Y-80022000D01*
X221582812Y-79897518D01*
X221546502Y-79777820D01*
X221516665Y-79722000D01*
X221546502Y-79666180D01*
X221557772Y-79629027D01*
X221599820Y-79651502D01*
X221719518Y-79687812D01*
X221844000Y-79700072D01*
X222308250Y-79697000D01*
X222467000Y-79538250D01*
X222467000Y-78689000D01*
X222447000Y-78689000D01*
X222447000Y-78435000D01*
X222467000Y-78435000D01*
X222467000Y-77585750D01*
X222308250Y-77427000D01*
X221844000Y-77423928D01*
X221719518Y-77436188D01*
X221599820Y-77472498D01*
X221595072Y-77475036D01*
X221595072Y-77022000D01*
X221582812Y-76897518D01*
X221546502Y-76777820D01*
X221516665Y-76722000D01*
X221546502Y-76666180D01*
X221582812Y-76546482D01*
X221592549Y-76447616D01*
X221599820Y-76451502D01*
%TA.AperFunction,Conductor*%
D25*
G36*
X221599820Y-76451502D02*
G01*
X221719518Y-76487812D01*
X221844000Y-76500072D01*
X222447076Y-76500072D01*
X222909001Y-76961998D01*
X222909001Y-77426806D01*
X222879750Y-77427000D01*
X222721000Y-77585750D01*
X222721000Y-78435000D01*
X222741000Y-78435000D01*
X222741000Y-78689000D01*
X222721000Y-78689000D01*
X222721000Y-79538250D01*
X222860377Y-79677627D01*
X221844987Y-80693017D01*
X221814795Y-80717795D01*
X221715917Y-80838279D01*
X221642444Y-80975738D01*
X221597199Y-81124889D01*
X221585750Y-81241134D01*
X221585750Y-81241144D01*
X221581923Y-81280000D01*
X221585750Y-81318856D01*
X221585750Y-81427349D01*
X221582812Y-81397518D01*
X221546502Y-81277820D01*
X221516665Y-81222000D01*
X221546502Y-81166180D01*
X221582812Y-81046482D01*
X221595072Y-80922000D01*
X221595072Y-80022000D01*
X221582812Y-79897518D01*
X221546502Y-79777820D01*
X221516665Y-79722000D01*
X221546502Y-79666180D01*
X221557772Y-79629027D01*
X221599820Y-79651502D01*
X221719518Y-79687812D01*
X221844000Y-79700072D01*
X222308250Y-79697000D01*
X222467000Y-79538250D01*
X222467000Y-78689000D01*
X222447000Y-78689000D01*
X222447000Y-78435000D01*
X222467000Y-78435000D01*
X222467000Y-77585750D01*
X222308250Y-77427000D01*
X221844000Y-77423928D01*
X221719518Y-77436188D01*
X221599820Y-77472498D01*
X221595072Y-77475036D01*
X221595072Y-77022000D01*
X221582812Y-76897518D01*
X221546502Y-76777820D01*
X221516665Y-76722000D01*
X221546502Y-76666180D01*
X221582812Y-76546482D01*
X221592549Y-76447616D01*
X221599820Y-76451502D01*
G37*
%TD.AperFunction*%
%TD*%
M02*
