M48
; DRILL file {KiCad (5.1.10)-1} date 01/13/22 15:18:31
; FORMAT={-:-/ absolute / metric / decimal}
; #@! TF.CreationDate,2022-01-13T15:18:31+01:00
; #@! TF.GenerationSoftware,Kicad,Pcbnew,(5.1.10)-1
; #@! TF.FileFunction,Plated,1,2,PTH
FMAT,2
METRIC
T1C0.400
T2C0.850
T3C1.000
%
G90
G05
T1
X205.359Y-74.676
X207.01Y-62.738
X209.677Y-68.961
X211.709Y-84.201
X211.812Y-79.248
X215.9Y-70.612
X215.9Y-79.756
X216.027Y-71.628
X216.027Y-78.74
X216.154Y-72.644
X216.154Y-76.708
X216.154Y-77.724
X216.281Y-73.66
X216.408Y-74.676
X216.408Y-75.692
X216.535Y-61.849
X222.631Y-77.216
X226.441Y-85.979
T2
X232.918Y-61.214
X232.918Y-63.754
X232.918Y-66.294
X232.918Y-68.834
X232.918Y-71.374
X232.918Y-73.914
X232.918Y-76.454
X235.458Y-59.944
X235.458Y-62.484
X235.458Y-65.024
X235.458Y-67.564
X235.458Y-70.104
X235.458Y-72.644
X235.458Y-75.184
T3
X206.248Y-86.36
X208.788Y-86.36
X211.328Y-86.36
X213.868Y-86.36
X216.408Y-86.36
X222.25Y-66.929
X222.25Y-69.469
X222.25Y-72.009
X224.79Y-66.929
X224.79Y-69.469
X224.79Y-72.009
X229.743Y-81.255
X232.283Y-81.255
X234.823Y-81.255
T0
M30
