%TF.GenerationSoftware,KiCad,Pcbnew,(5.1.10)-1*%
%TF.CreationDate,2022-01-13T15:18:29+01:00*%
%TF.ProjectId,3DESPWrover,33444553-5057-4726-9f76-65722e6b6963,rev?*%
%TF.SameCoordinates,Original*%
%TF.FileFunction,Soldermask,Top*%
%TF.FilePolarity,Negative*%
%FSLAX46Y46*%
G04 Gerber Fmt 4.6, Leading zero omitted, Abs format (unit mm)*
G04 Created by KiCad (PCBNEW (5.1.10)-1) date 2022-01-13 15:18:29*
%MOMM*%
%LPD*%
G01*
G04 APERTURE LIST*
%ADD10R,1.700000X1.700000*%
%ADD11O,1.700000X1.700000*%
%ADD12C,1.381000*%
%ADD13R,1.550000X1.300000*%
G04 APERTURE END LIST*
%TO.C,C1*%
G36*
G01*
X205460000Y-63025000D02*
X205460000Y-63975000D01*
G75*
G02*
X205210000Y-64225000I-250000J0D01*
G01*
X204535000Y-64225000D01*
G75*
G02*
X204285000Y-63975000I0J250000D01*
G01*
X204285000Y-63025000D01*
G75*
G02*
X204535000Y-62775000I250000J0D01*
G01*
X205210000Y-62775000D01*
G75*
G02*
X205460000Y-63025000I0J-250000D01*
G01*
G37*
G36*
G01*
X203385000Y-63025000D02*
X203385000Y-63975000D01*
G75*
G02*
X203135000Y-64225000I-250000J0D01*
G01*
X202460000Y-64225000D01*
G75*
G02*
X202210000Y-63975000I0J250000D01*
G01*
X202210000Y-63025000D01*
G75*
G02*
X202460000Y-62775000I250000J0D01*
G01*
X203135000Y-62775000D01*
G75*
G02*
X203385000Y-63025000I0J-250000D01*
G01*
G37*
%TD*%
%TO.C,C2*%
G36*
G01*
X205460000Y-65057000D02*
X205460000Y-66007000D01*
G75*
G02*
X205210000Y-66257000I-250000J0D01*
G01*
X204535000Y-66257000D01*
G75*
G02*
X204285000Y-66007000I0J250000D01*
G01*
X204285000Y-65057000D01*
G75*
G02*
X204535000Y-64807000I250000J0D01*
G01*
X205210000Y-64807000D01*
G75*
G02*
X205460000Y-65057000I0J-250000D01*
G01*
G37*
G36*
G01*
X203385000Y-65057000D02*
X203385000Y-66007000D01*
G75*
G02*
X203135000Y-66257000I-250000J0D01*
G01*
X202460000Y-66257000D01*
G75*
G02*
X202210000Y-66007000I0J250000D01*
G01*
X202210000Y-65057000D01*
G75*
G02*
X202460000Y-64807000I250000J0D01*
G01*
X203135000Y-64807000D01*
G75*
G02*
X203385000Y-65057000I0J-250000D01*
G01*
G37*
%TD*%
%TO.C,C3*%
G36*
G01*
X203385000Y-60993000D02*
X203385000Y-61943000D01*
G75*
G02*
X203135000Y-62193000I-250000J0D01*
G01*
X202460000Y-62193000D01*
G75*
G02*
X202210000Y-61943000I0J250000D01*
G01*
X202210000Y-60993000D01*
G75*
G02*
X202460000Y-60743000I250000J0D01*
G01*
X203135000Y-60743000D01*
G75*
G02*
X203385000Y-60993000I0J-250000D01*
G01*
G37*
G36*
G01*
X205460000Y-60993000D02*
X205460000Y-61943000D01*
G75*
G02*
X205210000Y-62193000I-250000J0D01*
G01*
X204535000Y-62193000D01*
G75*
G02*
X204285000Y-61943000I0J250000D01*
G01*
X204285000Y-60993000D01*
G75*
G02*
X204535000Y-60743000I250000J0D01*
G01*
X205210000Y-60743000D01*
G75*
G02*
X205460000Y-60993000I0J-250000D01*
G01*
G37*
%TD*%
%TO.C,C4*%
G36*
G01*
X205460000Y-67089000D02*
X205460000Y-68039000D01*
G75*
G02*
X205210000Y-68289000I-250000J0D01*
G01*
X204535000Y-68289000D01*
G75*
G02*
X204285000Y-68039000I0J250000D01*
G01*
X204285000Y-67089000D01*
G75*
G02*
X204535000Y-66839000I250000J0D01*
G01*
X205210000Y-66839000D01*
G75*
G02*
X205460000Y-67089000I0J-250000D01*
G01*
G37*
G36*
G01*
X203385000Y-67089000D02*
X203385000Y-68039000D01*
G75*
G02*
X203135000Y-68289000I-250000J0D01*
G01*
X202460000Y-68289000D01*
G75*
G02*
X202210000Y-68039000I0J250000D01*
G01*
X202210000Y-67089000D01*
G75*
G02*
X202460000Y-66839000I250000J0D01*
G01*
X203135000Y-66839000D01*
G75*
G02*
X203385000Y-67089000I0J-250000D01*
G01*
G37*
%TD*%
%TO.C,C6*%
G36*
G01*
X224630000Y-83116000D02*
X223680000Y-83116000D01*
G75*
G02*
X223430000Y-82866000I0J250000D01*
G01*
X223430000Y-82191000D01*
G75*
G02*
X223680000Y-81941000I250000J0D01*
G01*
X224630000Y-81941000D01*
G75*
G02*
X224880000Y-82191000I0J-250000D01*
G01*
X224880000Y-82866000D01*
G75*
G02*
X224630000Y-83116000I-250000J0D01*
G01*
G37*
G36*
G01*
X224630000Y-85191000D02*
X223680000Y-85191000D01*
G75*
G02*
X223430000Y-84941000I0J250000D01*
G01*
X223430000Y-84266000D01*
G75*
G02*
X223680000Y-84016000I250000J0D01*
G01*
X224630000Y-84016000D01*
G75*
G02*
X224880000Y-84266000I0J-250000D01*
G01*
X224880000Y-84941000D01*
G75*
G02*
X224630000Y-85191000I-250000J0D01*
G01*
G37*
%TD*%
%TO.C,C8*%
G36*
G01*
X211937000Y-72423000D02*
X211937000Y-73373000D01*
G75*
G02*
X211687000Y-73623000I-250000J0D01*
G01*
X211012000Y-73623000D01*
G75*
G02*
X210762000Y-73373000I0J250000D01*
G01*
X210762000Y-72423000D01*
G75*
G02*
X211012000Y-72173000I250000J0D01*
G01*
X211687000Y-72173000D01*
G75*
G02*
X211937000Y-72423000I0J-250000D01*
G01*
G37*
G36*
G01*
X209862000Y-72423000D02*
X209862000Y-73373000D01*
G75*
G02*
X209612000Y-73623000I-250000J0D01*
G01*
X208937000Y-73623000D01*
G75*
G02*
X208687000Y-73373000I0J250000D01*
G01*
X208687000Y-72423000D01*
G75*
G02*
X208937000Y-72173000I250000J0D01*
G01*
X209612000Y-72173000D01*
G75*
G02*
X209862000Y-72423000I0J-250000D01*
G01*
G37*
%TD*%
%TO.C,C11*%
G36*
G01*
X226220000Y-81687000D02*
X227170000Y-81687000D01*
G75*
G02*
X227420000Y-81937000I0J-250000D01*
G01*
X227420000Y-82612000D01*
G75*
G02*
X227170000Y-82862000I-250000J0D01*
G01*
X226220000Y-82862000D01*
G75*
G02*
X225970000Y-82612000I0J250000D01*
G01*
X225970000Y-81937000D01*
G75*
G02*
X226220000Y-81687000I250000J0D01*
G01*
G37*
G36*
G01*
X226220000Y-83762000D02*
X227170000Y-83762000D01*
G75*
G02*
X227420000Y-84012000I0J-250000D01*
G01*
X227420000Y-84687000D01*
G75*
G02*
X227170000Y-84937000I-250000J0D01*
G01*
X226220000Y-84937000D01*
G75*
G02*
X225970000Y-84687000I0J250000D01*
G01*
X225970000Y-84012000D01*
G75*
G02*
X226220000Y-83762000I250000J0D01*
G01*
G37*
%TD*%
D10*
%TO.C,J2*%
X229743000Y-81254600D03*
D11*
X232283000Y-81254600D03*
X234823000Y-81254600D03*
%TD*%
%TO.C,R1*%
G36*
G01*
X220491000Y-85667001D02*
X220491000Y-84766999D01*
G75*
G02*
X220740999Y-84517000I249999J0D01*
G01*
X221441001Y-84517000D01*
G75*
G02*
X221691000Y-84766999I0J-249999D01*
G01*
X221691000Y-85667001D01*
G75*
G02*
X221441001Y-85917000I-249999J0D01*
G01*
X220740999Y-85917000D01*
G75*
G02*
X220491000Y-85667001I0J249999D01*
G01*
G37*
G36*
G01*
X218491000Y-85667001D02*
X218491000Y-84766999D01*
G75*
G02*
X218740999Y-84517000I249999J0D01*
G01*
X219441001Y-84517000D01*
G75*
G02*
X219691000Y-84766999I0J-249999D01*
G01*
X219691000Y-85667001D01*
G75*
G02*
X219441001Y-85917000I-249999J0D01*
G01*
X218740999Y-85917000D01*
G75*
G02*
X218491000Y-85667001I0J249999D01*
G01*
G37*
%TD*%
%TO.C,R2*%
G36*
G01*
X218491000Y-87699001D02*
X218491000Y-86798999D01*
G75*
G02*
X218740999Y-86549000I249999J0D01*
G01*
X219441001Y-86549000D01*
G75*
G02*
X219691000Y-86798999I0J-249999D01*
G01*
X219691000Y-87699001D01*
G75*
G02*
X219441001Y-87949000I-249999J0D01*
G01*
X218740999Y-87949000D01*
G75*
G02*
X218491000Y-87699001I0J249999D01*
G01*
G37*
G36*
G01*
X220491000Y-87699001D02*
X220491000Y-86798999D01*
G75*
G02*
X220740999Y-86549000I249999J0D01*
G01*
X221441001Y-86549000D01*
G75*
G02*
X221691000Y-86798999I0J-249999D01*
G01*
X221691000Y-87699001D01*
G75*
G02*
X221441001Y-87949000I-249999J0D01*
G01*
X220740999Y-87949000D01*
G75*
G02*
X220491000Y-87699001I0J249999D01*
G01*
G37*
%TD*%
%TO.C,R3*%
G36*
G01*
X211912000Y-70415999D02*
X211912000Y-71316001D01*
G75*
G02*
X211662001Y-71566000I-249999J0D01*
G01*
X210961999Y-71566000D01*
G75*
G02*
X210712000Y-71316001I0J249999D01*
G01*
X210712000Y-70415999D01*
G75*
G02*
X210961999Y-70166000I249999J0D01*
G01*
X211662001Y-70166000D01*
G75*
G02*
X211912000Y-70415999I0J-249999D01*
G01*
G37*
G36*
G01*
X209912000Y-70415999D02*
X209912000Y-71316001D01*
G75*
G02*
X209662001Y-71566000I-249999J0D01*
G01*
X208961999Y-71566000D01*
G75*
G02*
X208712000Y-71316001I0J249999D01*
G01*
X208712000Y-70415999D01*
G75*
G02*
X208961999Y-70166000I249999J0D01*
G01*
X209662001Y-70166000D01*
G75*
G02*
X209912000Y-70415999I0J-249999D01*
G01*
G37*
%TD*%
D10*
%TO.C,J1*%
X216408000Y-86360000D03*
D11*
X213868000Y-86360000D03*
X211328000Y-86360000D03*
X208788000Y-86360000D03*
X206248000Y-86360000D03*
%TD*%
D10*
%TO.C,J3*%
X224790000Y-72009000D03*
D11*
X222250000Y-72009000D03*
X224790000Y-69469000D03*
X222250000Y-69469000D03*
X224790000Y-66929000D03*
X222250000Y-66929000D03*
%TD*%
D12*
%TO.C,J4*%
X232918000Y-76454000D03*
X235458000Y-75184000D03*
X232918000Y-73914000D03*
X235458000Y-72644000D03*
X232918000Y-71374000D03*
X235458000Y-70104000D03*
X232918000Y-68834000D03*
X235458000Y-67564000D03*
X232918000Y-66294000D03*
X235458000Y-65024000D03*
X232918000Y-63754000D03*
X235458000Y-62484000D03*
X232918000Y-61214000D03*
X235458000Y-59944000D03*
%TD*%
D13*
%TO.C,SW1*%
X214922000Y-64988000D03*
X206972000Y-64988000D03*
X214922000Y-60488000D03*
X206972000Y-60488000D03*
%TD*%
%TO.C,SW2*%
X201130000Y-76871000D03*
X209080000Y-76871000D03*
X201130000Y-81371000D03*
X209080000Y-81371000D03*
%TD*%
%TO.C,R4*%
G36*
G01*
X211004999Y-80061000D02*
X211905001Y-80061000D01*
G75*
G02*
X212155000Y-80310999I0J-249999D01*
G01*
X212155000Y-81011001D01*
G75*
G02*
X211905001Y-81261000I-249999J0D01*
G01*
X211004999Y-81261000D01*
G75*
G02*
X210755000Y-81011001I0J249999D01*
G01*
X210755000Y-80310999D01*
G75*
G02*
X211004999Y-80061000I249999J0D01*
G01*
G37*
G36*
G01*
X211004999Y-82061000D02*
X211905001Y-82061000D01*
G75*
G02*
X212155000Y-82310999I0J-249999D01*
G01*
X212155000Y-83011001D01*
G75*
G02*
X211905001Y-83261000I-249999J0D01*
G01*
X211004999Y-83261000D01*
G75*
G02*
X210755000Y-83011001I0J249999D01*
G01*
X210755000Y-82310999D01*
G75*
G02*
X211004999Y-82061000I249999J0D01*
G01*
G37*
%TD*%
M02*
