%TF.GenerationSoftware,KiCad,Pcbnew,(5.1.10)-1*%
%TF.CreationDate,2022-01-02T17:40:11+01:00*%
%TF.ProjectId,3DESPWroverS,33444553-5057-4726-9f76-6572532e6b69,rev?*%
%TF.SameCoordinates,Original*%
%TF.FileFunction,Legend,Bot*%
%TF.FilePolarity,Positive*%
%FSLAX46Y46*%
G04 Gerber Fmt 4.6, Leading zero omitted, Abs format (unit mm)*
G04 Created by KiCad (PCBNEW (5.1.10)-1) date 2022-01-02 17:40:11*
%MOMM*%
%LPD*%
G01*
G04 APERTURE LIST*
%ADD10C,0.150000*%
%ADD11C,0.120000*%
G04 APERTURE END LIST*
D10*
X116570642Y-41093380D02*
X116570642Y-40093380D01*
X116189690Y-40093380D01*
X116094452Y-40141000D01*
X116046833Y-40188619D01*
X115999214Y-40283857D01*
X115999214Y-40426714D01*
X116046833Y-40521952D01*
X116094452Y-40569571D01*
X116189690Y-40617190D01*
X116570642Y-40617190D01*
X115570642Y-41093380D02*
X115570642Y-40426714D01*
X115570642Y-40617190D02*
X115523023Y-40521952D01*
X115475404Y-40474333D01*
X115380166Y-40426714D01*
X115284928Y-40426714D01*
X114808738Y-41093380D02*
X114903976Y-41045761D01*
X114951595Y-40998142D01*
X114999214Y-40902904D01*
X114999214Y-40617190D01*
X114951595Y-40521952D01*
X114903976Y-40474333D01*
X114808738Y-40426714D01*
X114665880Y-40426714D01*
X114570642Y-40474333D01*
X114523023Y-40521952D01*
X114475404Y-40617190D01*
X114475404Y-40902904D01*
X114523023Y-40998142D01*
X114570642Y-41045761D01*
X114665880Y-41093380D01*
X114808738Y-41093380D01*
X114046833Y-40426714D02*
X114046833Y-41283857D01*
X114094452Y-41379095D01*
X114189690Y-41426714D01*
X114237309Y-41426714D01*
X114046833Y-40093380D02*
X114094452Y-40141000D01*
X114046833Y-40188619D01*
X113999214Y-40141000D01*
X114046833Y-40093380D01*
X114046833Y-40188619D01*
X113189690Y-41045761D02*
X113284928Y-41093380D01*
X113475404Y-41093380D01*
X113570642Y-41045761D01*
X113618261Y-40950523D01*
X113618261Y-40569571D01*
X113570642Y-40474333D01*
X113475404Y-40426714D01*
X113284928Y-40426714D01*
X113189690Y-40474333D01*
X113142071Y-40569571D01*
X113142071Y-40664809D01*
X113618261Y-40760047D01*
X112284928Y-41045761D02*
X112380166Y-41093380D01*
X112570642Y-41093380D01*
X112665880Y-41045761D01*
X112713500Y-40998142D01*
X112761119Y-40902904D01*
X112761119Y-40617190D01*
X112713500Y-40521952D01*
X112665880Y-40474333D01*
X112570642Y-40426714D01*
X112380166Y-40426714D01*
X112284928Y-40474333D01*
X111999214Y-40426714D02*
X111618261Y-40426714D01*
X111856357Y-40093380D02*
X111856357Y-40950523D01*
X111808738Y-41045761D01*
X111713500Y-41093380D01*
X111618261Y-41093380D01*
X109951595Y-40998142D02*
X109999214Y-41045761D01*
X110142071Y-41093380D01*
X110237309Y-41093380D01*
X110380166Y-41045761D01*
X110475404Y-40950523D01*
X110523023Y-40855285D01*
X110570642Y-40664809D01*
X110570642Y-40521952D01*
X110523023Y-40331476D01*
X110475404Y-40236238D01*
X110380166Y-40141000D01*
X110237309Y-40093380D01*
X110142071Y-40093380D01*
X109999214Y-40141000D01*
X109951595Y-40188619D01*
X109094452Y-40426714D02*
X109094452Y-41093380D01*
X109523023Y-40426714D02*
X109523023Y-40950523D01*
X109475404Y-41045761D01*
X109380166Y-41093380D01*
X109237309Y-41093380D01*
X109142071Y-41045761D01*
X109094452Y-40998142D01*
X108618261Y-41093380D02*
X108618261Y-40093380D01*
X108618261Y-40474333D02*
X108523023Y-40426714D01*
X108332547Y-40426714D01*
X108237309Y-40474333D01*
X108189690Y-40521952D01*
X108142071Y-40617190D01*
X108142071Y-40902904D01*
X108189690Y-40998142D01*
X108237309Y-41045761D01*
X108332547Y-41093380D01*
X108523023Y-41093380D01*
X108618261Y-41045761D01*
X107332547Y-41045761D02*
X107427785Y-41093380D01*
X107618261Y-41093380D01*
X107713500Y-41045761D01*
X107761119Y-40950523D01*
X107761119Y-40569571D01*
X107713500Y-40474333D01*
X107618261Y-40426714D01*
X107427785Y-40426714D01*
X107332547Y-40474333D01*
X107284928Y-40569571D01*
X107284928Y-40664809D01*
X107761119Y-40760047D01*
X106808738Y-41045761D02*
X106808738Y-41093380D01*
X106856357Y-41188619D01*
X106903976Y-41236238D01*
X105713500Y-40426714D02*
X105475404Y-41093380D01*
X105237309Y-40426714D01*
X104332547Y-41093380D02*
X104903976Y-41093380D01*
X104618261Y-41093380D02*
X104618261Y-40093380D01*
X104713500Y-40236238D01*
X104808738Y-40331476D01*
X104903976Y-40379095D01*
X103903976Y-40998142D02*
X103856357Y-41045761D01*
X103903976Y-41093380D01*
X103951595Y-41045761D01*
X103903976Y-40998142D01*
X103903976Y-41093380D01*
X102903976Y-41093380D02*
X103475404Y-41093380D01*
X103189690Y-41093380D02*
X103189690Y-40093380D01*
X103284928Y-40236238D01*
X103380166Y-40331476D01*
X103475404Y-40379095D01*
X108999214Y-42743380D02*
X109332547Y-42267190D01*
X109570642Y-42743380D02*
X109570642Y-41743380D01*
X109189690Y-41743380D01*
X109094452Y-41791000D01*
X109046833Y-41838619D01*
X108999214Y-41933857D01*
X108999214Y-42076714D01*
X109046833Y-42171952D01*
X109094452Y-42219571D01*
X109189690Y-42267190D01*
X109570642Y-42267190D01*
X108570642Y-42219571D02*
X108237309Y-42219571D01*
X108094452Y-42743380D02*
X108570642Y-42743380D01*
X108570642Y-41743380D01*
X108094452Y-41743380D01*
X107713500Y-42457666D02*
X107237309Y-42457666D01*
X107808738Y-42743380D02*
X107475404Y-41743380D01*
X107142071Y-42743380D01*
X106332547Y-42743380D02*
X106808738Y-42743380D01*
X106808738Y-41743380D01*
X105951595Y-42695761D02*
X105951595Y-42743380D01*
X105999214Y-42838619D01*
X106046833Y-42886238D01*
X104761119Y-42743380D02*
X104761119Y-41743380D01*
X104427785Y-41743380D02*
X103856357Y-41743380D01*
X104142071Y-42743380D02*
X104142071Y-41743380D01*
X103523023Y-41743380D02*
X103523023Y-42552904D01*
X103475404Y-42648142D01*
X103427785Y-42695761D01*
X103332547Y-42743380D01*
X103142071Y-42743380D01*
X103046833Y-42695761D01*
X102999214Y-42648142D01*
X102951595Y-42552904D01*
X102951595Y-41743380D01*
X105523023Y-44393380D02*
X105523023Y-43726714D01*
X105523023Y-43917190D02*
X105475404Y-43821952D01*
X105427785Y-43774333D01*
X105332547Y-43726714D01*
X105237309Y-43726714D01*
X104761119Y-44393380D02*
X104856357Y-44345761D01*
X104903976Y-44298142D01*
X104951595Y-44202904D01*
X104951595Y-43917190D01*
X104903976Y-43821952D01*
X104856357Y-43774333D01*
X104761119Y-43726714D01*
X104618261Y-43726714D01*
X104523023Y-43774333D01*
X104475404Y-43821952D01*
X104427785Y-43917190D01*
X104427785Y-44202904D01*
X104475404Y-44298142D01*
X104523023Y-44345761D01*
X104618261Y-44393380D01*
X104761119Y-44393380D01*
X103570642Y-44393380D02*
X103570642Y-43393380D01*
X103570642Y-44345761D02*
X103665880Y-44393380D01*
X103856357Y-44393380D01*
X103951595Y-44345761D01*
X103999214Y-44298142D01*
X104046833Y-44202904D01*
X104046833Y-43917190D01*
X103999214Y-43821952D01*
X103951595Y-43774333D01*
X103856357Y-43726714D01*
X103665880Y-43726714D01*
X103570642Y-43774333D01*
X103094452Y-44393380D02*
X103094452Y-43726714D01*
X103094452Y-43917190D02*
X103046833Y-43821952D01*
X102999214Y-43774333D01*
X102903976Y-43726714D01*
X102808738Y-43726714D01*
D11*
%TO.C,J1*%
X116653000Y-55312000D02*
X116653000Y-56642000D01*
X117983000Y-55312000D02*
X116653000Y-55312000D01*
X116653000Y-57912000D02*
X116653000Y-60512000D01*
X119253000Y-57912000D02*
X116653000Y-57912000D01*
X119253000Y-55312000D02*
X119253000Y-57912000D01*
X116653000Y-60512000D02*
X124393000Y-60512000D01*
X119253000Y-55312000D02*
X124393000Y-55312000D01*
X124393000Y-55312000D02*
X124393000Y-60512000D01*
D10*
X115105380Y-57578666D02*
X115819666Y-57578666D01*
X115962523Y-57531047D01*
X116057761Y-57435809D01*
X116105380Y-57292952D01*
X116105380Y-57197714D01*
X116105380Y-58578666D02*
X116105380Y-58007238D01*
X116105380Y-58292952D02*
X115105380Y-58292952D01*
X115248238Y-58197714D01*
X115343476Y-58102476D01*
X115391095Y-58007238D01*
%TD*%
M02*
