%TF.GenerationSoftware,KiCad,Pcbnew,(5.1.10)-1*%
%TF.CreationDate,2022-01-02T17:40:11+01:00*%
%TF.ProjectId,3DESPWroverS,33444553-5057-4726-9f76-6572532e6b69,rev?*%
%TF.SameCoordinates,Original*%
%TF.FileFunction,Copper,L1,Top*%
%TF.FilePolarity,Positive*%
%FSLAX46Y46*%
G04 Gerber Fmt 4.6, Leading zero omitted, Abs format (unit mm)*
G04 Created by KiCad (PCBNEW (5.1.10)-1) date 2022-01-02 17:40:11*
%MOMM*%
%LPD*%
G01*
G04 APERTURE LIST*
%TA.AperFunction,ComponentPad*%
%ADD10R,1.700000X1.700000*%
%TD*%
%TA.AperFunction,ComponentPad*%
%ADD11O,1.700000X1.700000*%
%TD*%
%TA.AperFunction,SMDPad,CuDef*%
%ADD12R,2.000000X3.000000*%
%TD*%
%TA.AperFunction,SMDPad,CuDef*%
%ADD13R,3.000000X4.000000*%
%TD*%
%TA.AperFunction,SMDPad,CuDef*%
%ADD14R,4.000000X3.000000*%
%TD*%
%TA.AperFunction,ViaPad*%
%ADD15C,1.200000*%
%TD*%
%TA.AperFunction,Conductor*%
%ADD16C,1.250000*%
%TD*%
%TA.AperFunction,Conductor*%
%ADD17C,0.312500*%
%TD*%
%TA.AperFunction,Conductor*%
%ADD18C,0.254000*%
%TD*%
%TA.AperFunction,Conductor*%
%ADD19C,0.100000*%
%TD*%
G04 APERTURE END LIST*
D10*
%TO.P,J1,1*%
%TO.N,VCC*%
X117983000Y-56642000D03*
D11*
%TO.P,J1,2*%
%TO.N,GND*%
X117983000Y-59182000D03*
%TO.P,J1,3*%
%TO.N,/D1*%
X120523000Y-56642000D03*
%TO.P,J1,4*%
%TO.N,/D2*%
X120523000Y-59182000D03*
%TO.P,J1,5*%
%TO.N,VCC*%
X123063000Y-56642000D03*
%TO.P,J1,6*%
%TO.N,GND*%
X123063000Y-59182000D03*
%TD*%
D12*
%TO.P,J2,1*%
%TO.N,/D1*%
X123444000Y-74803000D03*
%TD*%
%TO.P,J3,1*%
%TO.N,/D2*%
X117475000Y-74803000D03*
%TD*%
D13*
%TO.P,J4,1*%
%TO.N,VCC*%
X103632000Y-69850000D03*
%TD*%
%TO.P,J5,1*%
%TO.N,VCC*%
X137414000Y-69850000D03*
%TD*%
D14*
%TO.P,J6,1*%
%TO.N,VCC*%
X108458000Y-74803000D03*
%TD*%
D13*
%TO.P,J7,1*%
%TO.N,GND*%
X137414000Y-45847000D03*
%TD*%
D14*
%TO.P,J8,1*%
%TO.N,GND*%
X132461000Y-74803000D03*
%TD*%
D13*
%TO.P,J9,1*%
%TO.N,GND*%
X103632000Y-45847000D03*
%TD*%
D15*
%TO.N,VCC*%
X137414000Y-66802000D03*
X137414000Y-72898000D03*
X134747000Y-69850000D03*
X104140000Y-76454000D03*
X104140000Y-74930000D03*
X108712000Y-71755000D03*
X106807000Y-69850000D03*
X104140000Y-73406000D03*
X107061000Y-71501000D03*
%TD*%
D16*
%TO.N,VCC*%
X137414000Y-69850000D02*
X137414000Y-66802000D01*
X137414000Y-69850000D02*
X137414000Y-72898000D01*
X137414000Y-69850000D02*
X134747000Y-69850000D01*
%TO.N,GND*%
X123063000Y-59182000D02*
X124079000Y-59182000D01*
X124079000Y-59182000D02*
X125349000Y-57912000D01*
X117983000Y-59182000D02*
X116967000Y-59182000D01*
X116967000Y-59182000D02*
X115697000Y-57912000D01*
D17*
%TO.N,/D1*%
X123444000Y-74375778D02*
X123444000Y-74803000D01*
X121035510Y-71967288D02*
X123444000Y-74375778D01*
X121035510Y-60447490D02*
X121035510Y-71967288D01*
X121404748Y-60078252D02*
X121035510Y-60447490D01*
X121412000Y-60078252D02*
X121404748Y-60078252D01*
X121729251Y-59761001D02*
X121412000Y-60078252D01*
X121729251Y-57848251D02*
X121729251Y-59761001D01*
X120523000Y-56642000D02*
X121729251Y-57848251D01*
%TO.N,/D2*%
X117475000Y-74803000D02*
X120523000Y-71755000D01*
X120523000Y-71755000D02*
X120523000Y-59182000D01*
%TD*%
D18*
%TO.N,VCC*%
X106538947Y-67025161D02*
X106896371Y-68066300D01*
X107420285Y-69034409D01*
X108096400Y-69903082D01*
X108906272Y-70648621D01*
X109827811Y-71250693D01*
X110835878Y-71692872D01*
X111902977Y-71963098D01*
X112014000Y-71972298D01*
X112014000Y-77244000D01*
X102745000Y-77244000D01*
X102745000Y-76303000D01*
X105819928Y-76303000D01*
X105832188Y-76427482D01*
X105868498Y-76547180D01*
X105927463Y-76657494D01*
X106006815Y-76754185D01*
X106103506Y-76833537D01*
X106213820Y-76892502D01*
X106333518Y-76928812D01*
X106458000Y-76941072D01*
X108172250Y-76938000D01*
X108331000Y-76779250D01*
X108331000Y-74930000D01*
X108585000Y-74930000D01*
X108585000Y-76779250D01*
X108743750Y-76938000D01*
X110458000Y-76941072D01*
X110582482Y-76928812D01*
X110702180Y-76892502D01*
X110812494Y-76833537D01*
X110909185Y-76754185D01*
X110988537Y-76657494D01*
X111047502Y-76547180D01*
X111083812Y-76427482D01*
X111096072Y-76303000D01*
X111093000Y-75088750D01*
X110934250Y-74930000D01*
X108585000Y-74930000D01*
X108331000Y-74930000D01*
X105981750Y-74930000D01*
X105823000Y-75088750D01*
X105819928Y-76303000D01*
X102745000Y-76303000D01*
X102745000Y-73303000D01*
X105819928Y-73303000D01*
X105823000Y-74517250D01*
X105981750Y-74676000D01*
X108331000Y-74676000D01*
X108331000Y-72826750D01*
X108585000Y-72826750D01*
X108585000Y-74676000D01*
X110934250Y-74676000D01*
X111093000Y-74517250D01*
X111096072Y-73303000D01*
X111083812Y-73178518D01*
X111047502Y-73058820D01*
X110988537Y-72948506D01*
X110909185Y-72851815D01*
X110812494Y-72772463D01*
X110702180Y-72713498D01*
X110582482Y-72677188D01*
X110458000Y-72664928D01*
X108743750Y-72668000D01*
X108585000Y-72826750D01*
X108331000Y-72826750D01*
X108172250Y-72668000D01*
X106458000Y-72664928D01*
X106333518Y-72677188D01*
X106213820Y-72713498D01*
X106103506Y-72772463D01*
X106006815Y-72851815D01*
X105927463Y-72948506D01*
X105868498Y-73058820D01*
X105832188Y-73178518D01*
X105819928Y-73303000D01*
X102745000Y-73303000D01*
X102745000Y-72486521D01*
X103346250Y-72485000D01*
X103505000Y-72326250D01*
X103505000Y-69977000D01*
X103759000Y-69977000D01*
X103759000Y-72326250D01*
X103917750Y-72485000D01*
X105132000Y-72488072D01*
X105256482Y-72475812D01*
X105376180Y-72439502D01*
X105486494Y-72380537D01*
X105583185Y-72301185D01*
X105662537Y-72204494D01*
X105721502Y-72094180D01*
X105757812Y-71974482D01*
X105770072Y-71850000D01*
X105767000Y-70135750D01*
X105608250Y-69977000D01*
X103759000Y-69977000D01*
X103505000Y-69977000D01*
X103485000Y-69977000D01*
X103485000Y-69723000D01*
X103505000Y-69723000D01*
X103505000Y-67373750D01*
X103759000Y-67373750D01*
X103759000Y-69723000D01*
X105608250Y-69723000D01*
X105767000Y-69564250D01*
X105770072Y-67850000D01*
X105757812Y-67725518D01*
X105721502Y-67605820D01*
X105662537Y-67495506D01*
X105583185Y-67398815D01*
X105486494Y-67319463D01*
X105376180Y-67260498D01*
X105256482Y-67224188D01*
X105132000Y-67211928D01*
X103917750Y-67215000D01*
X103759000Y-67373750D01*
X103505000Y-67373750D01*
X103346250Y-67215000D01*
X102745000Y-67213479D01*
X102745000Y-66929000D01*
X106522901Y-66929000D01*
X106538947Y-67025161D01*
%TA.AperFunction,Conductor*%
D19*
G36*
X106538947Y-67025161D02*
G01*
X106896371Y-68066300D01*
X107420285Y-69034409D01*
X108096400Y-69903082D01*
X108906272Y-70648621D01*
X109827811Y-71250693D01*
X110835878Y-71692872D01*
X111902977Y-71963098D01*
X112014000Y-71972298D01*
X112014000Y-77244000D01*
X102745000Y-77244000D01*
X102745000Y-76303000D01*
X105819928Y-76303000D01*
X105832188Y-76427482D01*
X105868498Y-76547180D01*
X105927463Y-76657494D01*
X106006815Y-76754185D01*
X106103506Y-76833537D01*
X106213820Y-76892502D01*
X106333518Y-76928812D01*
X106458000Y-76941072D01*
X108172250Y-76938000D01*
X108331000Y-76779250D01*
X108331000Y-74930000D01*
X108585000Y-74930000D01*
X108585000Y-76779250D01*
X108743750Y-76938000D01*
X110458000Y-76941072D01*
X110582482Y-76928812D01*
X110702180Y-76892502D01*
X110812494Y-76833537D01*
X110909185Y-76754185D01*
X110988537Y-76657494D01*
X111047502Y-76547180D01*
X111083812Y-76427482D01*
X111096072Y-76303000D01*
X111093000Y-75088750D01*
X110934250Y-74930000D01*
X108585000Y-74930000D01*
X108331000Y-74930000D01*
X105981750Y-74930000D01*
X105823000Y-75088750D01*
X105819928Y-76303000D01*
X102745000Y-76303000D01*
X102745000Y-73303000D01*
X105819928Y-73303000D01*
X105823000Y-74517250D01*
X105981750Y-74676000D01*
X108331000Y-74676000D01*
X108331000Y-72826750D01*
X108585000Y-72826750D01*
X108585000Y-74676000D01*
X110934250Y-74676000D01*
X111093000Y-74517250D01*
X111096072Y-73303000D01*
X111083812Y-73178518D01*
X111047502Y-73058820D01*
X110988537Y-72948506D01*
X110909185Y-72851815D01*
X110812494Y-72772463D01*
X110702180Y-72713498D01*
X110582482Y-72677188D01*
X110458000Y-72664928D01*
X108743750Y-72668000D01*
X108585000Y-72826750D01*
X108331000Y-72826750D01*
X108172250Y-72668000D01*
X106458000Y-72664928D01*
X106333518Y-72677188D01*
X106213820Y-72713498D01*
X106103506Y-72772463D01*
X106006815Y-72851815D01*
X105927463Y-72948506D01*
X105868498Y-73058820D01*
X105832188Y-73178518D01*
X105819928Y-73303000D01*
X102745000Y-73303000D01*
X102745000Y-72486521D01*
X103346250Y-72485000D01*
X103505000Y-72326250D01*
X103505000Y-69977000D01*
X103759000Y-69977000D01*
X103759000Y-72326250D01*
X103917750Y-72485000D01*
X105132000Y-72488072D01*
X105256482Y-72475812D01*
X105376180Y-72439502D01*
X105486494Y-72380537D01*
X105583185Y-72301185D01*
X105662537Y-72204494D01*
X105721502Y-72094180D01*
X105757812Y-71974482D01*
X105770072Y-71850000D01*
X105767000Y-70135750D01*
X105608250Y-69977000D01*
X103759000Y-69977000D01*
X103505000Y-69977000D01*
X103485000Y-69977000D01*
X103485000Y-69723000D01*
X103505000Y-69723000D01*
X103505000Y-67373750D01*
X103759000Y-67373750D01*
X103759000Y-69723000D01*
X105608250Y-69723000D01*
X105767000Y-69564250D01*
X105770072Y-67850000D01*
X105757812Y-67725518D01*
X105721502Y-67605820D01*
X105662537Y-67495506D01*
X105583185Y-67398815D01*
X105486494Y-67319463D01*
X105376180Y-67260498D01*
X105256482Y-67224188D01*
X105132000Y-67211928D01*
X103917750Y-67215000D01*
X103759000Y-67373750D01*
X103505000Y-67373750D01*
X103346250Y-67215000D01*
X102745000Y-67213479D01*
X102745000Y-66929000D01*
X106522901Y-66929000D01*
X106538947Y-67025161D01*
G37*
%TD.AperFunction*%
%TD*%
D18*
%TO.N,GND*%
X125569286Y-39457321D02*
X125566166Y-39489000D01*
X125578618Y-39615441D01*
X125615500Y-39737024D01*
X125675393Y-39849075D01*
X125675394Y-39849076D01*
X125755996Y-39947290D01*
X125854210Y-40027892D01*
X125966261Y-40087785D01*
X126087844Y-40124667D01*
X126214285Y-40137120D01*
X126245974Y-40133999D01*
X139855000Y-40134001D01*
X139855001Y-51479715D01*
X138931679Y-51479715D01*
X138900000Y-51476595D01*
X138868321Y-51479715D01*
X138773558Y-51489048D01*
X138651975Y-51525930D01*
X138539924Y-51585823D01*
X138441710Y-51666425D01*
X138361108Y-51764639D01*
X138301215Y-51876690D01*
X138264333Y-51998273D01*
X138251880Y-52124715D01*
X138255000Y-52156394D01*
X138255001Y-63621596D01*
X138251880Y-63653285D01*
X138264333Y-63779727D01*
X138301215Y-63901310D01*
X138361108Y-64013361D01*
X138441710Y-64111575D01*
X138539924Y-64192177D01*
X138651975Y-64252070D01*
X138773558Y-64288952D01*
X138868321Y-64298285D01*
X138900000Y-64301405D01*
X138931679Y-64298285D01*
X139855000Y-64298285D01*
X139855001Y-77244000D01*
X126909285Y-77244000D01*
X126909285Y-76320669D01*
X126911025Y-76303000D01*
X129822928Y-76303000D01*
X129835188Y-76427482D01*
X129871498Y-76547180D01*
X129930463Y-76657494D01*
X130009815Y-76754185D01*
X130106506Y-76833537D01*
X130216820Y-76892502D01*
X130336518Y-76928812D01*
X130461000Y-76941072D01*
X132175250Y-76938000D01*
X132334000Y-76779250D01*
X132334000Y-74930000D01*
X132588000Y-74930000D01*
X132588000Y-76779250D01*
X132746750Y-76938000D01*
X134461000Y-76941072D01*
X134585482Y-76928812D01*
X134705180Y-76892502D01*
X134815494Y-76833537D01*
X134912185Y-76754185D01*
X134991537Y-76657494D01*
X135050502Y-76547180D01*
X135086812Y-76427482D01*
X135099072Y-76303000D01*
X135096000Y-75088750D01*
X134937250Y-74930000D01*
X132588000Y-74930000D01*
X132334000Y-74930000D01*
X129984750Y-74930000D01*
X129826000Y-75088750D01*
X129822928Y-76303000D01*
X126911025Y-76303000D01*
X126912404Y-76289000D01*
X126909285Y-76257329D01*
X126909285Y-76257321D01*
X126899952Y-76162558D01*
X126863070Y-76040975D01*
X126803177Y-75928924D01*
X126722575Y-75830710D01*
X126624361Y-75750108D01*
X126512310Y-75690215D01*
X126390727Y-75653333D01*
X126264285Y-75640880D01*
X126232597Y-75644001D01*
X125082072Y-75644000D01*
X125082072Y-73303000D01*
X129822928Y-73303000D01*
X129826000Y-74517250D01*
X129984750Y-74676000D01*
X132334000Y-74676000D01*
X132334000Y-72826750D01*
X132588000Y-72826750D01*
X132588000Y-74676000D01*
X134937250Y-74676000D01*
X135096000Y-74517250D01*
X135099072Y-73303000D01*
X135086812Y-73178518D01*
X135050502Y-73058820D01*
X134991537Y-72948506D01*
X134912185Y-72851815D01*
X134815494Y-72772463D01*
X134705180Y-72713498D01*
X134585482Y-72677188D01*
X134461000Y-72664928D01*
X132746750Y-72668000D01*
X132588000Y-72826750D01*
X132334000Y-72826750D01*
X132175250Y-72668000D01*
X130461000Y-72664928D01*
X130336518Y-72677188D01*
X130216820Y-72713498D01*
X130106506Y-72772463D01*
X130009815Y-72851815D01*
X129930463Y-72948506D01*
X129871498Y-73058820D01*
X129835188Y-73178518D01*
X129822928Y-73303000D01*
X125082072Y-73303000D01*
X125069812Y-73178518D01*
X125033502Y-73058820D01*
X124974537Y-72948506D01*
X124895185Y-72851815D01*
X124798494Y-72772463D01*
X124688180Y-72713498D01*
X124568482Y-72677188D01*
X124444000Y-72664928D01*
X122852147Y-72664928D01*
X121826760Y-71639542D01*
X121826760Y-67863533D01*
X121896370Y-68066300D01*
X122420284Y-69034409D01*
X123096399Y-69903082D01*
X123906271Y-70648621D01*
X124827810Y-71250693D01*
X125835877Y-71692872D01*
X126902976Y-71963098D01*
X127999999Y-72054000D01*
X129097022Y-71963098D01*
X130164121Y-71692872D01*
X131172188Y-71250693D01*
X132093727Y-70648621D01*
X132903599Y-69903082D01*
X132944914Y-69850000D01*
X133480904Y-69850000D01*
X133505232Y-70097003D01*
X133577280Y-70334514D01*
X133694280Y-70553405D01*
X133851735Y-70745265D01*
X134043595Y-70902720D01*
X134262486Y-71019720D01*
X134499997Y-71091768D01*
X134685107Y-71110000D01*
X135275928Y-71110000D01*
X135275928Y-71850000D01*
X135288188Y-71974482D01*
X135324498Y-72094180D01*
X135383463Y-72204494D01*
X135462815Y-72301185D01*
X135559506Y-72380537D01*
X135669820Y-72439502D01*
X135789518Y-72475812D01*
X135914000Y-72488072D01*
X136154001Y-72488072D01*
X136154001Y-72959893D01*
X136172233Y-73145003D01*
X136244281Y-73382514D01*
X136361281Y-73601405D01*
X136518736Y-73793265D01*
X136710596Y-73950720D01*
X136929487Y-74067720D01*
X137166998Y-74139768D01*
X137414000Y-74164096D01*
X137661003Y-74139768D01*
X137898514Y-74067720D01*
X138117405Y-73950720D01*
X138309265Y-73793265D01*
X138466720Y-73601405D01*
X138583720Y-73382514D01*
X138655768Y-73145003D01*
X138674000Y-72959893D01*
X138674000Y-72488072D01*
X138914000Y-72488072D01*
X139038482Y-72475812D01*
X139158180Y-72439502D01*
X139268494Y-72380537D01*
X139365185Y-72301185D01*
X139444537Y-72204494D01*
X139503502Y-72094180D01*
X139539812Y-71974482D01*
X139552072Y-71850000D01*
X139552072Y-67850000D01*
X139539812Y-67725518D01*
X139503502Y-67605820D01*
X139444537Y-67495506D01*
X139365185Y-67398815D01*
X139268494Y-67319463D01*
X139158180Y-67260498D01*
X139038482Y-67224188D01*
X138914000Y-67211928D01*
X138674000Y-67211928D01*
X138674000Y-66740107D01*
X138655768Y-66554997D01*
X138583720Y-66317486D01*
X138466720Y-66098595D01*
X138309265Y-65906735D01*
X138117405Y-65749280D01*
X137898514Y-65632280D01*
X137661003Y-65560232D01*
X137414000Y-65535904D01*
X137166998Y-65560232D01*
X136929487Y-65632280D01*
X136710596Y-65749280D01*
X136518736Y-65906735D01*
X136361281Y-66098595D01*
X136244281Y-66317486D01*
X136172233Y-66554997D01*
X136154001Y-66740107D01*
X136154001Y-67211928D01*
X135914000Y-67211928D01*
X135789518Y-67224188D01*
X135669820Y-67260498D01*
X135559506Y-67319463D01*
X135462815Y-67398815D01*
X135383463Y-67495506D01*
X135324498Y-67605820D01*
X135288188Y-67725518D01*
X135275928Y-67850000D01*
X135275928Y-68590000D01*
X134685107Y-68590000D01*
X134499997Y-68608232D01*
X134262486Y-68680280D01*
X134043595Y-68797280D01*
X133851735Y-68954735D01*
X133694280Y-69146595D01*
X133577280Y-69365486D01*
X133505232Y-69602997D01*
X133480904Y-69850000D01*
X132944914Y-69850000D01*
X133579714Y-69034409D01*
X134103628Y-68066300D01*
X134461052Y-67025161D01*
X134642235Y-65939391D01*
X134642235Y-64838609D01*
X134461052Y-63752839D01*
X134103628Y-62711700D01*
X133579714Y-61743591D01*
X132903599Y-60874918D01*
X132093727Y-60129379D01*
X131172188Y-59527307D01*
X130164121Y-59085128D01*
X129097022Y-58814902D01*
X127999999Y-58724000D01*
X126902976Y-58814902D01*
X125835877Y-59085128D01*
X124827810Y-59527307D01*
X124412291Y-59798779D01*
X124504481Y-59538891D01*
X124383814Y-59309000D01*
X123190000Y-59309000D01*
X123190000Y-60502155D01*
X123387885Y-60606586D01*
X123096399Y-60874918D01*
X122420284Y-61743591D01*
X121896370Y-62711700D01*
X121826760Y-62914467D01*
X121826760Y-60775236D01*
X121903571Y-60698425D01*
X121974205Y-60640457D01*
X121998984Y-60610264D01*
X122215620Y-60393627D01*
X122296080Y-60453641D01*
X122558901Y-60578825D01*
X122706110Y-60623476D01*
X122936000Y-60502155D01*
X122936000Y-59309000D01*
X122916000Y-59309000D01*
X122916000Y-59055000D01*
X122936000Y-59055000D01*
X122936000Y-59035000D01*
X123190000Y-59035000D01*
X123190000Y-59055000D01*
X124383814Y-59055000D01*
X124504481Y-58825109D01*
X124407157Y-58550748D01*
X124258178Y-58300645D01*
X124063269Y-58084412D01*
X123833594Y-57913100D01*
X124009632Y-57795475D01*
X124216475Y-57588632D01*
X124378990Y-57345411D01*
X124490932Y-57075158D01*
X124548000Y-56788260D01*
X124548000Y-56495740D01*
X124490932Y-56208842D01*
X124389710Y-55964468D01*
X124827810Y-56250694D01*
X125835877Y-56692873D01*
X126902976Y-56963099D01*
X127999999Y-57054001D01*
X129097022Y-56963099D01*
X130164121Y-56692873D01*
X131172188Y-56250694D01*
X132093727Y-55648622D01*
X132903599Y-54903083D01*
X133579714Y-54034410D01*
X134103628Y-53066301D01*
X134461052Y-52025162D01*
X134642235Y-50939392D01*
X134642235Y-49838610D01*
X134461052Y-48752840D01*
X134150077Y-47847000D01*
X135275928Y-47847000D01*
X135288188Y-47971482D01*
X135324498Y-48091180D01*
X135383463Y-48201494D01*
X135462815Y-48298185D01*
X135559506Y-48377537D01*
X135669820Y-48436502D01*
X135789518Y-48472812D01*
X135914000Y-48485072D01*
X137128250Y-48482000D01*
X137287000Y-48323250D01*
X137287000Y-45974000D01*
X137541000Y-45974000D01*
X137541000Y-48323250D01*
X137699750Y-48482000D01*
X138914000Y-48485072D01*
X139038482Y-48472812D01*
X139158180Y-48436502D01*
X139268494Y-48377537D01*
X139365185Y-48298185D01*
X139444537Y-48201494D01*
X139503502Y-48091180D01*
X139539812Y-47971482D01*
X139552072Y-47847000D01*
X139549000Y-46132750D01*
X139390250Y-45974000D01*
X137541000Y-45974000D01*
X137287000Y-45974000D01*
X135437750Y-45974000D01*
X135279000Y-46132750D01*
X135275928Y-47847000D01*
X134150077Y-47847000D01*
X134103628Y-47711701D01*
X133579714Y-46743592D01*
X132903599Y-45874919D01*
X132093727Y-45129380D01*
X131172188Y-44527308D01*
X130164121Y-44085129D01*
X129223771Y-43847000D01*
X135275928Y-43847000D01*
X135279000Y-45561250D01*
X135437750Y-45720000D01*
X137287000Y-45720000D01*
X137287000Y-43370750D01*
X137541000Y-43370750D01*
X137541000Y-45720000D01*
X139390250Y-45720000D01*
X139549000Y-45561250D01*
X139552072Y-43847000D01*
X139539812Y-43722518D01*
X139503502Y-43602820D01*
X139444537Y-43492506D01*
X139365185Y-43395815D01*
X139268494Y-43316463D01*
X139158180Y-43257498D01*
X139038482Y-43221188D01*
X138914000Y-43208928D01*
X137699750Y-43212000D01*
X137541000Y-43370750D01*
X137287000Y-43370750D01*
X137128250Y-43212000D01*
X135914000Y-43208928D01*
X135789518Y-43221188D01*
X135669820Y-43257498D01*
X135559506Y-43316463D01*
X135462815Y-43395815D01*
X135383463Y-43492506D01*
X135324498Y-43602820D01*
X135288188Y-43722518D01*
X135275928Y-43847000D01*
X129223771Y-43847000D01*
X129097022Y-43814903D01*
X127999999Y-43724001D01*
X126902976Y-43814903D01*
X125835877Y-44085129D01*
X124827810Y-44527308D01*
X123906271Y-45129380D01*
X123096399Y-45874919D01*
X122420284Y-46743592D01*
X121896370Y-47711701D01*
X121538946Y-48752840D01*
X121357763Y-49838610D01*
X121357763Y-50939392D01*
X121538946Y-52025162D01*
X121896370Y-53066301D01*
X122420284Y-54034410D01*
X123096399Y-54903083D01*
X123417146Y-55198351D01*
X123209260Y-55157000D01*
X122916740Y-55157000D01*
X122629842Y-55214068D01*
X122359589Y-55326010D01*
X122116368Y-55488525D01*
X121909525Y-55695368D01*
X121793000Y-55869760D01*
X121676475Y-55695368D01*
X121469632Y-55488525D01*
X121226411Y-55326010D01*
X120956158Y-55214068D01*
X120669260Y-55157000D01*
X120376740Y-55157000D01*
X120089842Y-55214068D01*
X119819589Y-55326010D01*
X119576368Y-55488525D01*
X119444513Y-55620380D01*
X119422502Y-55547820D01*
X119363537Y-55437506D01*
X119284185Y-55340815D01*
X119187494Y-55261463D01*
X119077180Y-55202498D01*
X118957482Y-55166188D01*
X118833000Y-55153928D01*
X117631109Y-55153928D01*
X117903600Y-54903083D01*
X118579715Y-54034410D01*
X119103629Y-53066301D01*
X119461053Y-52025162D01*
X119642236Y-50939392D01*
X119642236Y-49838610D01*
X119461053Y-48752840D01*
X119103629Y-47711701D01*
X118579715Y-46743592D01*
X117903600Y-45874919D01*
X117093728Y-45129380D01*
X116172189Y-44527308D01*
X115164122Y-44085129D01*
X114097023Y-43814903D01*
X113000000Y-43724001D01*
X111902977Y-43814903D01*
X110835878Y-44085129D01*
X109827811Y-44527308D01*
X108906272Y-45129380D01*
X108096400Y-45874919D01*
X107420285Y-46743592D01*
X106896371Y-47711701D01*
X106538947Y-48752840D01*
X106357764Y-49838610D01*
X106357764Y-50939392D01*
X106538947Y-52025162D01*
X106896371Y-53066301D01*
X107420285Y-54034410D01*
X108096400Y-54903083D01*
X108906272Y-55648622D01*
X109827811Y-56250694D01*
X110835878Y-56692873D01*
X111902977Y-56963099D01*
X113000000Y-57054001D01*
X114097023Y-56963099D01*
X115164122Y-56692873D01*
X116172189Y-56250694D01*
X116494928Y-56039838D01*
X116494928Y-57492000D01*
X116507188Y-57616482D01*
X116543498Y-57736180D01*
X116602463Y-57846494D01*
X116681815Y-57943185D01*
X116778506Y-58022537D01*
X116888820Y-58081502D01*
X116964626Y-58104498D01*
X116787822Y-58300645D01*
X116638843Y-58550748D01*
X116541519Y-58825109D01*
X116662186Y-59055000D01*
X117856000Y-59055000D01*
X117856000Y-59035000D01*
X118110000Y-59035000D01*
X118110000Y-59055000D01*
X118130000Y-59055000D01*
X118130000Y-59309000D01*
X118110000Y-59309000D01*
X118110000Y-60502155D01*
X118339890Y-60623476D01*
X118487099Y-60578825D01*
X118749920Y-60453641D01*
X118983269Y-60279588D01*
X119178178Y-60063355D01*
X119247805Y-59946466D01*
X119369525Y-60128632D01*
X119576368Y-60335475D01*
X119731751Y-60439298D01*
X119731750Y-71427253D01*
X118492365Y-72666638D01*
X118475000Y-72664928D01*
X116475000Y-72664928D01*
X116350518Y-72677188D01*
X116230820Y-72713498D01*
X116120506Y-72772463D01*
X116023815Y-72851815D01*
X115944463Y-72948506D01*
X115885498Y-73058820D01*
X115849188Y-73178518D01*
X115836928Y-73303000D01*
X115836928Y-75643999D01*
X114767394Y-75643999D01*
X114735715Y-75640879D01*
X114704036Y-75643999D01*
X114609273Y-75653332D01*
X114487690Y-75690214D01*
X114375639Y-75750107D01*
X114277425Y-75830709D01*
X114196823Y-75928923D01*
X114136930Y-76040974D01*
X114100048Y-76162557D01*
X114087595Y-76288999D01*
X114090715Y-76320678D01*
X114090716Y-77244000D01*
X112522000Y-77244000D01*
X112522000Y-72014392D01*
X113000000Y-72054000D01*
X114097023Y-71963098D01*
X115164122Y-71692872D01*
X116172189Y-71250693D01*
X117093728Y-70648621D01*
X117903600Y-69903082D01*
X118579715Y-69034409D01*
X119103629Y-68066300D01*
X119461053Y-67025161D01*
X119642236Y-65939391D01*
X119642236Y-64838609D01*
X119461053Y-63752839D01*
X119103629Y-62711700D01*
X118579715Y-61743591D01*
X117903600Y-60874918D01*
X117628876Y-60622017D01*
X117856000Y-60502155D01*
X117856000Y-59309000D01*
X116662186Y-59309000D01*
X116541519Y-59538891D01*
X116638843Y-59813252D01*
X116657309Y-59844252D01*
X116172189Y-59527307D01*
X115164122Y-59085128D01*
X114097023Y-58814902D01*
X113000000Y-58724000D01*
X111902977Y-58814902D01*
X110835878Y-59085128D01*
X109827811Y-59527307D01*
X108906272Y-60129379D01*
X108096400Y-60874918D01*
X107420285Y-61743591D01*
X106896371Y-62711700D01*
X106538947Y-63752839D01*
X106357764Y-64838609D01*
X106357764Y-65939391D01*
X106438130Y-66421000D01*
X102745000Y-66421000D01*
X102745000Y-63634963D01*
X102748120Y-63603285D01*
X102735667Y-63476843D01*
X102698785Y-63355260D01*
X102638892Y-63243209D01*
X102558290Y-63144995D01*
X102460076Y-63064393D01*
X102348025Y-63004500D01*
X102226442Y-62967618D01*
X102131679Y-62958285D01*
X102100000Y-62955165D01*
X102068321Y-62958285D01*
X101145000Y-62958285D01*
X101145000Y-52819715D01*
X102068321Y-52819715D01*
X102100000Y-52822835D01*
X102131679Y-52819715D01*
X102226442Y-52810382D01*
X102348025Y-52773500D01*
X102460076Y-52713607D01*
X102558290Y-52633005D01*
X102638892Y-52534791D01*
X102698785Y-52422740D01*
X102735667Y-52301157D01*
X102748120Y-52174715D01*
X102745000Y-52143036D01*
X102745000Y-48483521D01*
X103346250Y-48482000D01*
X103505000Y-48323250D01*
X103505000Y-45974000D01*
X103759000Y-45974000D01*
X103759000Y-48323250D01*
X103917750Y-48482000D01*
X105132000Y-48485072D01*
X105256482Y-48472812D01*
X105376180Y-48436502D01*
X105486494Y-48377537D01*
X105583185Y-48298185D01*
X105662537Y-48201494D01*
X105721502Y-48091180D01*
X105757812Y-47971482D01*
X105770072Y-47847000D01*
X105767000Y-46132750D01*
X105608250Y-45974000D01*
X103759000Y-45974000D01*
X103505000Y-45974000D01*
X103485000Y-45974000D01*
X103485000Y-45720000D01*
X103505000Y-45720000D01*
X103505000Y-43370750D01*
X103759000Y-43370750D01*
X103759000Y-45720000D01*
X105608250Y-45720000D01*
X105767000Y-45561250D01*
X105770072Y-43847000D01*
X105757812Y-43722518D01*
X105721502Y-43602820D01*
X105662537Y-43492506D01*
X105583185Y-43395815D01*
X105486494Y-43316463D01*
X105376180Y-43257498D01*
X105256482Y-43221188D01*
X105132000Y-43208928D01*
X103917750Y-43212000D01*
X103759000Y-43370750D01*
X103505000Y-43370750D01*
X103346250Y-43212000D01*
X102745000Y-43210479D01*
X102745000Y-40134000D01*
X114754036Y-40134000D01*
X114785715Y-40137120D01*
X114817394Y-40134000D01*
X114912157Y-40124667D01*
X115033740Y-40087785D01*
X115145791Y-40027892D01*
X115244005Y-39947290D01*
X115324607Y-39849076D01*
X115384500Y-39737025D01*
X115421382Y-39615442D01*
X115433835Y-39489000D01*
X115430715Y-39457321D01*
X115430715Y-38534000D01*
X125569285Y-38534000D01*
X125569286Y-39457321D01*
%TA.AperFunction,Conductor*%
D19*
G36*
X125569286Y-39457321D02*
G01*
X125566166Y-39489000D01*
X125578618Y-39615441D01*
X125615500Y-39737024D01*
X125675393Y-39849075D01*
X125675394Y-39849076D01*
X125755996Y-39947290D01*
X125854210Y-40027892D01*
X125966261Y-40087785D01*
X126087844Y-40124667D01*
X126214285Y-40137120D01*
X126245974Y-40133999D01*
X139855000Y-40134001D01*
X139855001Y-51479715D01*
X138931679Y-51479715D01*
X138900000Y-51476595D01*
X138868321Y-51479715D01*
X138773558Y-51489048D01*
X138651975Y-51525930D01*
X138539924Y-51585823D01*
X138441710Y-51666425D01*
X138361108Y-51764639D01*
X138301215Y-51876690D01*
X138264333Y-51998273D01*
X138251880Y-52124715D01*
X138255000Y-52156394D01*
X138255001Y-63621596D01*
X138251880Y-63653285D01*
X138264333Y-63779727D01*
X138301215Y-63901310D01*
X138361108Y-64013361D01*
X138441710Y-64111575D01*
X138539924Y-64192177D01*
X138651975Y-64252070D01*
X138773558Y-64288952D01*
X138868321Y-64298285D01*
X138900000Y-64301405D01*
X138931679Y-64298285D01*
X139855000Y-64298285D01*
X139855001Y-77244000D01*
X126909285Y-77244000D01*
X126909285Y-76320669D01*
X126911025Y-76303000D01*
X129822928Y-76303000D01*
X129835188Y-76427482D01*
X129871498Y-76547180D01*
X129930463Y-76657494D01*
X130009815Y-76754185D01*
X130106506Y-76833537D01*
X130216820Y-76892502D01*
X130336518Y-76928812D01*
X130461000Y-76941072D01*
X132175250Y-76938000D01*
X132334000Y-76779250D01*
X132334000Y-74930000D01*
X132588000Y-74930000D01*
X132588000Y-76779250D01*
X132746750Y-76938000D01*
X134461000Y-76941072D01*
X134585482Y-76928812D01*
X134705180Y-76892502D01*
X134815494Y-76833537D01*
X134912185Y-76754185D01*
X134991537Y-76657494D01*
X135050502Y-76547180D01*
X135086812Y-76427482D01*
X135099072Y-76303000D01*
X135096000Y-75088750D01*
X134937250Y-74930000D01*
X132588000Y-74930000D01*
X132334000Y-74930000D01*
X129984750Y-74930000D01*
X129826000Y-75088750D01*
X129822928Y-76303000D01*
X126911025Y-76303000D01*
X126912404Y-76289000D01*
X126909285Y-76257329D01*
X126909285Y-76257321D01*
X126899952Y-76162558D01*
X126863070Y-76040975D01*
X126803177Y-75928924D01*
X126722575Y-75830710D01*
X126624361Y-75750108D01*
X126512310Y-75690215D01*
X126390727Y-75653333D01*
X126264285Y-75640880D01*
X126232597Y-75644001D01*
X125082072Y-75644000D01*
X125082072Y-73303000D01*
X129822928Y-73303000D01*
X129826000Y-74517250D01*
X129984750Y-74676000D01*
X132334000Y-74676000D01*
X132334000Y-72826750D01*
X132588000Y-72826750D01*
X132588000Y-74676000D01*
X134937250Y-74676000D01*
X135096000Y-74517250D01*
X135099072Y-73303000D01*
X135086812Y-73178518D01*
X135050502Y-73058820D01*
X134991537Y-72948506D01*
X134912185Y-72851815D01*
X134815494Y-72772463D01*
X134705180Y-72713498D01*
X134585482Y-72677188D01*
X134461000Y-72664928D01*
X132746750Y-72668000D01*
X132588000Y-72826750D01*
X132334000Y-72826750D01*
X132175250Y-72668000D01*
X130461000Y-72664928D01*
X130336518Y-72677188D01*
X130216820Y-72713498D01*
X130106506Y-72772463D01*
X130009815Y-72851815D01*
X129930463Y-72948506D01*
X129871498Y-73058820D01*
X129835188Y-73178518D01*
X129822928Y-73303000D01*
X125082072Y-73303000D01*
X125069812Y-73178518D01*
X125033502Y-73058820D01*
X124974537Y-72948506D01*
X124895185Y-72851815D01*
X124798494Y-72772463D01*
X124688180Y-72713498D01*
X124568482Y-72677188D01*
X124444000Y-72664928D01*
X122852147Y-72664928D01*
X121826760Y-71639542D01*
X121826760Y-67863533D01*
X121896370Y-68066300D01*
X122420284Y-69034409D01*
X123096399Y-69903082D01*
X123906271Y-70648621D01*
X124827810Y-71250693D01*
X125835877Y-71692872D01*
X126902976Y-71963098D01*
X127999999Y-72054000D01*
X129097022Y-71963098D01*
X130164121Y-71692872D01*
X131172188Y-71250693D01*
X132093727Y-70648621D01*
X132903599Y-69903082D01*
X132944914Y-69850000D01*
X133480904Y-69850000D01*
X133505232Y-70097003D01*
X133577280Y-70334514D01*
X133694280Y-70553405D01*
X133851735Y-70745265D01*
X134043595Y-70902720D01*
X134262486Y-71019720D01*
X134499997Y-71091768D01*
X134685107Y-71110000D01*
X135275928Y-71110000D01*
X135275928Y-71850000D01*
X135288188Y-71974482D01*
X135324498Y-72094180D01*
X135383463Y-72204494D01*
X135462815Y-72301185D01*
X135559506Y-72380537D01*
X135669820Y-72439502D01*
X135789518Y-72475812D01*
X135914000Y-72488072D01*
X136154001Y-72488072D01*
X136154001Y-72959893D01*
X136172233Y-73145003D01*
X136244281Y-73382514D01*
X136361281Y-73601405D01*
X136518736Y-73793265D01*
X136710596Y-73950720D01*
X136929487Y-74067720D01*
X137166998Y-74139768D01*
X137414000Y-74164096D01*
X137661003Y-74139768D01*
X137898514Y-74067720D01*
X138117405Y-73950720D01*
X138309265Y-73793265D01*
X138466720Y-73601405D01*
X138583720Y-73382514D01*
X138655768Y-73145003D01*
X138674000Y-72959893D01*
X138674000Y-72488072D01*
X138914000Y-72488072D01*
X139038482Y-72475812D01*
X139158180Y-72439502D01*
X139268494Y-72380537D01*
X139365185Y-72301185D01*
X139444537Y-72204494D01*
X139503502Y-72094180D01*
X139539812Y-71974482D01*
X139552072Y-71850000D01*
X139552072Y-67850000D01*
X139539812Y-67725518D01*
X139503502Y-67605820D01*
X139444537Y-67495506D01*
X139365185Y-67398815D01*
X139268494Y-67319463D01*
X139158180Y-67260498D01*
X139038482Y-67224188D01*
X138914000Y-67211928D01*
X138674000Y-67211928D01*
X138674000Y-66740107D01*
X138655768Y-66554997D01*
X138583720Y-66317486D01*
X138466720Y-66098595D01*
X138309265Y-65906735D01*
X138117405Y-65749280D01*
X137898514Y-65632280D01*
X137661003Y-65560232D01*
X137414000Y-65535904D01*
X137166998Y-65560232D01*
X136929487Y-65632280D01*
X136710596Y-65749280D01*
X136518736Y-65906735D01*
X136361281Y-66098595D01*
X136244281Y-66317486D01*
X136172233Y-66554997D01*
X136154001Y-66740107D01*
X136154001Y-67211928D01*
X135914000Y-67211928D01*
X135789518Y-67224188D01*
X135669820Y-67260498D01*
X135559506Y-67319463D01*
X135462815Y-67398815D01*
X135383463Y-67495506D01*
X135324498Y-67605820D01*
X135288188Y-67725518D01*
X135275928Y-67850000D01*
X135275928Y-68590000D01*
X134685107Y-68590000D01*
X134499997Y-68608232D01*
X134262486Y-68680280D01*
X134043595Y-68797280D01*
X133851735Y-68954735D01*
X133694280Y-69146595D01*
X133577280Y-69365486D01*
X133505232Y-69602997D01*
X133480904Y-69850000D01*
X132944914Y-69850000D01*
X133579714Y-69034409D01*
X134103628Y-68066300D01*
X134461052Y-67025161D01*
X134642235Y-65939391D01*
X134642235Y-64838609D01*
X134461052Y-63752839D01*
X134103628Y-62711700D01*
X133579714Y-61743591D01*
X132903599Y-60874918D01*
X132093727Y-60129379D01*
X131172188Y-59527307D01*
X130164121Y-59085128D01*
X129097022Y-58814902D01*
X127999999Y-58724000D01*
X126902976Y-58814902D01*
X125835877Y-59085128D01*
X124827810Y-59527307D01*
X124412291Y-59798779D01*
X124504481Y-59538891D01*
X124383814Y-59309000D01*
X123190000Y-59309000D01*
X123190000Y-60502155D01*
X123387885Y-60606586D01*
X123096399Y-60874918D01*
X122420284Y-61743591D01*
X121896370Y-62711700D01*
X121826760Y-62914467D01*
X121826760Y-60775236D01*
X121903571Y-60698425D01*
X121974205Y-60640457D01*
X121998984Y-60610264D01*
X122215620Y-60393627D01*
X122296080Y-60453641D01*
X122558901Y-60578825D01*
X122706110Y-60623476D01*
X122936000Y-60502155D01*
X122936000Y-59309000D01*
X122916000Y-59309000D01*
X122916000Y-59055000D01*
X122936000Y-59055000D01*
X122936000Y-59035000D01*
X123190000Y-59035000D01*
X123190000Y-59055000D01*
X124383814Y-59055000D01*
X124504481Y-58825109D01*
X124407157Y-58550748D01*
X124258178Y-58300645D01*
X124063269Y-58084412D01*
X123833594Y-57913100D01*
X124009632Y-57795475D01*
X124216475Y-57588632D01*
X124378990Y-57345411D01*
X124490932Y-57075158D01*
X124548000Y-56788260D01*
X124548000Y-56495740D01*
X124490932Y-56208842D01*
X124389710Y-55964468D01*
X124827810Y-56250694D01*
X125835877Y-56692873D01*
X126902976Y-56963099D01*
X127999999Y-57054001D01*
X129097022Y-56963099D01*
X130164121Y-56692873D01*
X131172188Y-56250694D01*
X132093727Y-55648622D01*
X132903599Y-54903083D01*
X133579714Y-54034410D01*
X134103628Y-53066301D01*
X134461052Y-52025162D01*
X134642235Y-50939392D01*
X134642235Y-49838610D01*
X134461052Y-48752840D01*
X134150077Y-47847000D01*
X135275928Y-47847000D01*
X135288188Y-47971482D01*
X135324498Y-48091180D01*
X135383463Y-48201494D01*
X135462815Y-48298185D01*
X135559506Y-48377537D01*
X135669820Y-48436502D01*
X135789518Y-48472812D01*
X135914000Y-48485072D01*
X137128250Y-48482000D01*
X137287000Y-48323250D01*
X137287000Y-45974000D01*
X137541000Y-45974000D01*
X137541000Y-48323250D01*
X137699750Y-48482000D01*
X138914000Y-48485072D01*
X139038482Y-48472812D01*
X139158180Y-48436502D01*
X139268494Y-48377537D01*
X139365185Y-48298185D01*
X139444537Y-48201494D01*
X139503502Y-48091180D01*
X139539812Y-47971482D01*
X139552072Y-47847000D01*
X139549000Y-46132750D01*
X139390250Y-45974000D01*
X137541000Y-45974000D01*
X137287000Y-45974000D01*
X135437750Y-45974000D01*
X135279000Y-46132750D01*
X135275928Y-47847000D01*
X134150077Y-47847000D01*
X134103628Y-47711701D01*
X133579714Y-46743592D01*
X132903599Y-45874919D01*
X132093727Y-45129380D01*
X131172188Y-44527308D01*
X130164121Y-44085129D01*
X129223771Y-43847000D01*
X135275928Y-43847000D01*
X135279000Y-45561250D01*
X135437750Y-45720000D01*
X137287000Y-45720000D01*
X137287000Y-43370750D01*
X137541000Y-43370750D01*
X137541000Y-45720000D01*
X139390250Y-45720000D01*
X139549000Y-45561250D01*
X139552072Y-43847000D01*
X139539812Y-43722518D01*
X139503502Y-43602820D01*
X139444537Y-43492506D01*
X139365185Y-43395815D01*
X139268494Y-43316463D01*
X139158180Y-43257498D01*
X139038482Y-43221188D01*
X138914000Y-43208928D01*
X137699750Y-43212000D01*
X137541000Y-43370750D01*
X137287000Y-43370750D01*
X137128250Y-43212000D01*
X135914000Y-43208928D01*
X135789518Y-43221188D01*
X135669820Y-43257498D01*
X135559506Y-43316463D01*
X135462815Y-43395815D01*
X135383463Y-43492506D01*
X135324498Y-43602820D01*
X135288188Y-43722518D01*
X135275928Y-43847000D01*
X129223771Y-43847000D01*
X129097022Y-43814903D01*
X127999999Y-43724001D01*
X126902976Y-43814903D01*
X125835877Y-44085129D01*
X124827810Y-44527308D01*
X123906271Y-45129380D01*
X123096399Y-45874919D01*
X122420284Y-46743592D01*
X121896370Y-47711701D01*
X121538946Y-48752840D01*
X121357763Y-49838610D01*
X121357763Y-50939392D01*
X121538946Y-52025162D01*
X121896370Y-53066301D01*
X122420284Y-54034410D01*
X123096399Y-54903083D01*
X123417146Y-55198351D01*
X123209260Y-55157000D01*
X122916740Y-55157000D01*
X122629842Y-55214068D01*
X122359589Y-55326010D01*
X122116368Y-55488525D01*
X121909525Y-55695368D01*
X121793000Y-55869760D01*
X121676475Y-55695368D01*
X121469632Y-55488525D01*
X121226411Y-55326010D01*
X120956158Y-55214068D01*
X120669260Y-55157000D01*
X120376740Y-55157000D01*
X120089842Y-55214068D01*
X119819589Y-55326010D01*
X119576368Y-55488525D01*
X119444513Y-55620380D01*
X119422502Y-55547820D01*
X119363537Y-55437506D01*
X119284185Y-55340815D01*
X119187494Y-55261463D01*
X119077180Y-55202498D01*
X118957482Y-55166188D01*
X118833000Y-55153928D01*
X117631109Y-55153928D01*
X117903600Y-54903083D01*
X118579715Y-54034410D01*
X119103629Y-53066301D01*
X119461053Y-52025162D01*
X119642236Y-50939392D01*
X119642236Y-49838610D01*
X119461053Y-48752840D01*
X119103629Y-47711701D01*
X118579715Y-46743592D01*
X117903600Y-45874919D01*
X117093728Y-45129380D01*
X116172189Y-44527308D01*
X115164122Y-44085129D01*
X114097023Y-43814903D01*
X113000000Y-43724001D01*
X111902977Y-43814903D01*
X110835878Y-44085129D01*
X109827811Y-44527308D01*
X108906272Y-45129380D01*
X108096400Y-45874919D01*
X107420285Y-46743592D01*
X106896371Y-47711701D01*
X106538947Y-48752840D01*
X106357764Y-49838610D01*
X106357764Y-50939392D01*
X106538947Y-52025162D01*
X106896371Y-53066301D01*
X107420285Y-54034410D01*
X108096400Y-54903083D01*
X108906272Y-55648622D01*
X109827811Y-56250694D01*
X110835878Y-56692873D01*
X111902977Y-56963099D01*
X113000000Y-57054001D01*
X114097023Y-56963099D01*
X115164122Y-56692873D01*
X116172189Y-56250694D01*
X116494928Y-56039838D01*
X116494928Y-57492000D01*
X116507188Y-57616482D01*
X116543498Y-57736180D01*
X116602463Y-57846494D01*
X116681815Y-57943185D01*
X116778506Y-58022537D01*
X116888820Y-58081502D01*
X116964626Y-58104498D01*
X116787822Y-58300645D01*
X116638843Y-58550748D01*
X116541519Y-58825109D01*
X116662186Y-59055000D01*
X117856000Y-59055000D01*
X117856000Y-59035000D01*
X118110000Y-59035000D01*
X118110000Y-59055000D01*
X118130000Y-59055000D01*
X118130000Y-59309000D01*
X118110000Y-59309000D01*
X118110000Y-60502155D01*
X118339890Y-60623476D01*
X118487099Y-60578825D01*
X118749920Y-60453641D01*
X118983269Y-60279588D01*
X119178178Y-60063355D01*
X119247805Y-59946466D01*
X119369525Y-60128632D01*
X119576368Y-60335475D01*
X119731751Y-60439298D01*
X119731750Y-71427253D01*
X118492365Y-72666638D01*
X118475000Y-72664928D01*
X116475000Y-72664928D01*
X116350518Y-72677188D01*
X116230820Y-72713498D01*
X116120506Y-72772463D01*
X116023815Y-72851815D01*
X115944463Y-72948506D01*
X115885498Y-73058820D01*
X115849188Y-73178518D01*
X115836928Y-73303000D01*
X115836928Y-75643999D01*
X114767394Y-75643999D01*
X114735715Y-75640879D01*
X114704036Y-75643999D01*
X114609273Y-75653332D01*
X114487690Y-75690214D01*
X114375639Y-75750107D01*
X114277425Y-75830709D01*
X114196823Y-75928923D01*
X114136930Y-76040974D01*
X114100048Y-76162557D01*
X114087595Y-76288999D01*
X114090715Y-76320678D01*
X114090716Y-77244000D01*
X112522000Y-77244000D01*
X112522000Y-72014392D01*
X113000000Y-72054000D01*
X114097023Y-71963098D01*
X115164122Y-71692872D01*
X116172189Y-71250693D01*
X117093728Y-70648621D01*
X117903600Y-69903082D01*
X118579715Y-69034409D01*
X119103629Y-68066300D01*
X119461053Y-67025161D01*
X119642236Y-65939391D01*
X119642236Y-64838609D01*
X119461053Y-63752839D01*
X119103629Y-62711700D01*
X118579715Y-61743591D01*
X117903600Y-60874918D01*
X117628876Y-60622017D01*
X117856000Y-60502155D01*
X117856000Y-59309000D01*
X116662186Y-59309000D01*
X116541519Y-59538891D01*
X116638843Y-59813252D01*
X116657309Y-59844252D01*
X116172189Y-59527307D01*
X115164122Y-59085128D01*
X114097023Y-58814902D01*
X113000000Y-58724000D01*
X111902977Y-58814902D01*
X110835878Y-59085128D01*
X109827811Y-59527307D01*
X108906272Y-60129379D01*
X108096400Y-60874918D01*
X107420285Y-61743591D01*
X106896371Y-62711700D01*
X106538947Y-63752839D01*
X106357764Y-64838609D01*
X106357764Y-65939391D01*
X106438130Y-66421000D01*
X102745000Y-66421000D01*
X102745000Y-63634963D01*
X102748120Y-63603285D01*
X102735667Y-63476843D01*
X102698785Y-63355260D01*
X102638892Y-63243209D01*
X102558290Y-63144995D01*
X102460076Y-63064393D01*
X102348025Y-63004500D01*
X102226442Y-62967618D01*
X102131679Y-62958285D01*
X102100000Y-62955165D01*
X102068321Y-62958285D01*
X101145000Y-62958285D01*
X101145000Y-52819715D01*
X102068321Y-52819715D01*
X102100000Y-52822835D01*
X102131679Y-52819715D01*
X102226442Y-52810382D01*
X102348025Y-52773500D01*
X102460076Y-52713607D01*
X102558290Y-52633005D01*
X102638892Y-52534791D01*
X102698785Y-52422740D01*
X102735667Y-52301157D01*
X102748120Y-52174715D01*
X102745000Y-52143036D01*
X102745000Y-48483521D01*
X103346250Y-48482000D01*
X103505000Y-48323250D01*
X103505000Y-45974000D01*
X103759000Y-45974000D01*
X103759000Y-48323250D01*
X103917750Y-48482000D01*
X105132000Y-48485072D01*
X105256482Y-48472812D01*
X105376180Y-48436502D01*
X105486494Y-48377537D01*
X105583185Y-48298185D01*
X105662537Y-48201494D01*
X105721502Y-48091180D01*
X105757812Y-47971482D01*
X105770072Y-47847000D01*
X105767000Y-46132750D01*
X105608250Y-45974000D01*
X103759000Y-45974000D01*
X103505000Y-45974000D01*
X103485000Y-45974000D01*
X103485000Y-45720000D01*
X103505000Y-45720000D01*
X103505000Y-43370750D01*
X103759000Y-43370750D01*
X103759000Y-45720000D01*
X105608250Y-45720000D01*
X105767000Y-45561250D01*
X105770072Y-43847000D01*
X105757812Y-43722518D01*
X105721502Y-43602820D01*
X105662537Y-43492506D01*
X105583185Y-43395815D01*
X105486494Y-43316463D01*
X105376180Y-43257498D01*
X105256482Y-43221188D01*
X105132000Y-43208928D01*
X103917750Y-43212000D01*
X103759000Y-43370750D01*
X103505000Y-43370750D01*
X103346250Y-43212000D01*
X102745000Y-43210479D01*
X102745000Y-40134000D01*
X114754036Y-40134000D01*
X114785715Y-40137120D01*
X114817394Y-40134000D01*
X114912157Y-40124667D01*
X115033740Y-40087785D01*
X115145791Y-40027892D01*
X115244005Y-39947290D01*
X115324607Y-39849076D01*
X115384500Y-39737025D01*
X115421382Y-39615442D01*
X115433835Y-39489000D01*
X115430715Y-39457321D01*
X115430715Y-38534000D01*
X125569285Y-38534000D01*
X125569286Y-39457321D01*
G37*
%TD.AperFunction*%
%TD*%
M02*
