%TF.GenerationSoftware,KiCad,Pcbnew,(5.1.10)-1*%
%TF.CreationDate,2022-01-02T17:40:11+01:00*%
%TF.ProjectId,3DESPWroverS,33444553-5057-4726-9f76-6572532e6b69,rev?*%
%TF.SameCoordinates,Original*%
%TF.FileFunction,Legend,Top*%
%TF.FilePolarity,Positive*%
%FSLAX46Y46*%
G04 Gerber Fmt 4.6, Leading zero omitted, Abs format (unit mm)*
G04 Created by KiCad (PCBNEW (5.1.10)-1) date 2022-01-02 17:40:11*
%MOMM*%
%LPD*%
G01*
G04 APERTURE LIST*
%ADD10C,0.150000*%
G04 APERTURE END LIST*
%TO.C,J2*%
D10*
X123110666Y-71715380D02*
X123110666Y-72429666D01*
X123063047Y-72572523D01*
X122967809Y-72667761D01*
X122824952Y-72715380D01*
X122729714Y-72715380D01*
X123539238Y-71810619D02*
X123586857Y-71763000D01*
X123682095Y-71715380D01*
X123920190Y-71715380D01*
X124015428Y-71763000D01*
X124063047Y-71810619D01*
X124110666Y-71905857D01*
X124110666Y-72001095D01*
X124063047Y-72143952D01*
X123491619Y-72715380D01*
X124110666Y-72715380D01*
%TO.C,J3*%
X117141666Y-71715380D02*
X117141666Y-72429666D01*
X117094047Y-72572523D01*
X116998809Y-72667761D01*
X116855952Y-72715380D01*
X116760714Y-72715380D01*
X117522619Y-71715380D02*
X118141666Y-71715380D01*
X117808333Y-72096333D01*
X117951190Y-72096333D01*
X118046428Y-72143952D01*
X118094047Y-72191571D01*
X118141666Y-72286809D01*
X118141666Y-72524904D01*
X118094047Y-72620142D01*
X118046428Y-72667761D01*
X117951190Y-72715380D01*
X117665476Y-72715380D01*
X117570238Y-72667761D01*
X117522619Y-72620142D01*
%TO.C,J4*%
X103211380Y-67008333D02*
X103925666Y-67008333D01*
X104068523Y-67055952D01*
X104163761Y-67151190D01*
X104211380Y-67294047D01*
X104211380Y-67389285D01*
X103544714Y-66103571D02*
X104211380Y-66103571D01*
X103163761Y-66341666D02*
X103878047Y-66579761D01*
X103878047Y-65960714D01*
%TO.C,J5*%
X134326380Y-68659333D02*
X135040666Y-68659333D01*
X135183523Y-68706952D01*
X135278761Y-68802190D01*
X135326380Y-68945047D01*
X135326380Y-69040285D01*
X134326380Y-67706952D02*
X134326380Y-68183142D01*
X134802571Y-68230761D01*
X134754952Y-68183142D01*
X134707333Y-68087904D01*
X134707333Y-67849809D01*
X134754952Y-67754571D01*
X134802571Y-67706952D01*
X134897809Y-67659333D01*
X135135904Y-67659333D01*
X135231142Y-67706952D01*
X135278761Y-67754571D01*
X135326380Y-67849809D01*
X135326380Y-68087904D01*
X135278761Y-68183142D01*
X135231142Y-68230761D01*
%TO.C,J6*%
X110029666Y-71969380D02*
X110029666Y-72683666D01*
X109982047Y-72826523D01*
X109886809Y-72921761D01*
X109743952Y-72969380D01*
X109648714Y-72969380D01*
X110934428Y-71969380D02*
X110743952Y-71969380D01*
X110648714Y-72017000D01*
X110601095Y-72064619D01*
X110505857Y-72207476D01*
X110458238Y-72397952D01*
X110458238Y-72778904D01*
X110505857Y-72874142D01*
X110553476Y-72921761D01*
X110648714Y-72969380D01*
X110839190Y-72969380D01*
X110934428Y-72921761D01*
X110982047Y-72874142D01*
X111029666Y-72778904D01*
X111029666Y-72540809D01*
X110982047Y-72445571D01*
X110934428Y-72397952D01*
X110839190Y-72350333D01*
X110648714Y-72350333D01*
X110553476Y-72397952D01*
X110505857Y-72445571D01*
X110458238Y-72540809D01*
%TO.C,J7*%
X134326380Y-46180333D02*
X135040666Y-46180333D01*
X135183523Y-46227952D01*
X135278761Y-46323190D01*
X135326380Y-46466047D01*
X135326380Y-46561285D01*
X134326380Y-45799380D02*
X134326380Y-45132714D01*
X135326380Y-45561285D01*
%TO.C,J8*%
X132127666Y-71715380D02*
X132127666Y-72429666D01*
X132080047Y-72572523D01*
X131984809Y-72667761D01*
X131841952Y-72715380D01*
X131746714Y-72715380D01*
X132746714Y-72143952D02*
X132651476Y-72096333D01*
X132603857Y-72048714D01*
X132556238Y-71953476D01*
X132556238Y-71905857D01*
X132603857Y-71810619D01*
X132651476Y-71763000D01*
X132746714Y-71715380D01*
X132937190Y-71715380D01*
X133032428Y-71763000D01*
X133080047Y-71810619D01*
X133127666Y-71905857D01*
X133127666Y-71953476D01*
X133080047Y-72048714D01*
X133032428Y-72096333D01*
X132937190Y-72143952D01*
X132746714Y-72143952D01*
X132651476Y-72191571D01*
X132603857Y-72239190D01*
X132556238Y-72334428D01*
X132556238Y-72524904D01*
X132603857Y-72620142D01*
X132651476Y-72667761D01*
X132746714Y-72715380D01*
X132937190Y-72715380D01*
X133032428Y-72667761D01*
X133080047Y-72620142D01*
X133127666Y-72524904D01*
X133127666Y-72334428D01*
X133080047Y-72239190D01*
X133032428Y-72191571D01*
X132937190Y-72143952D01*
%TO.C,J9*%
X105624380Y-46180333D02*
X106338666Y-46180333D01*
X106481523Y-46227952D01*
X106576761Y-46323190D01*
X106624380Y-46466047D01*
X106624380Y-46561285D01*
X106624380Y-45656523D02*
X106624380Y-45466047D01*
X106576761Y-45370809D01*
X106529142Y-45323190D01*
X106386285Y-45227952D01*
X106195809Y-45180333D01*
X105814857Y-45180333D01*
X105719619Y-45227952D01*
X105672000Y-45275571D01*
X105624380Y-45370809D01*
X105624380Y-45561285D01*
X105672000Y-45656523D01*
X105719619Y-45704142D01*
X105814857Y-45751761D01*
X106052952Y-45751761D01*
X106148190Y-45704142D01*
X106195809Y-45656523D01*
X106243428Y-45561285D01*
X106243428Y-45370809D01*
X106195809Y-45275571D01*
X106148190Y-45227952D01*
X106052952Y-45180333D01*
%TD*%
M02*
