%TF.GenerationSoftware,KiCad,Pcbnew,(5.1.10)-1*%
%TF.CreationDate,2022-01-02T17:40:11+01:00*%
%TF.ProjectId,3DESPWroverS,33444553-5057-4726-9f76-6572532e6b69,rev?*%
%TF.SameCoordinates,Original*%
%TF.FileFunction,Profile,NP*%
%FSLAX46Y46*%
G04 Gerber Fmt 4.6, Leading zero omitted, Abs format (unit mm)*
G04 Created by KiCad (PCBNEW (5.1.10)-1) date 2022-01-02 17:40:11*
%MOMM*%
%LPD*%
G01*
G04 APERTURE LIST*
%TA.AperFunction,Profile*%
%ADD10C,0.020000*%
%TD*%
G04 APERTURE END LIST*
D10*
X102100000Y-47889000D02*
X102100000Y-43889000D01*
X102100000Y-71889000D02*
X102100000Y-67889000D01*
X118500000Y-76288999D02*
X116500000Y-76288999D01*
X124500000Y-76288999D02*
X122500000Y-76289000D01*
X119000000Y-50389001D02*
G75*
G03*
X119000000Y-50389001I-6000000J0D01*
G01*
X119000000Y-65389000D02*
G75*
G03*
X119000000Y-65389000I-6000000J0D01*
G01*
X133999999Y-50389001D02*
G75*
G03*
X133999999Y-50389001I-6000000J0D01*
G01*
X133999999Y-65389000D02*
G75*
G03*
X133999999Y-65389000I-6000000J0D01*
G01*
X126264285Y-76289000D02*
X124500000Y-76288999D01*
X126264285Y-77889000D02*
X126264285Y-76289000D01*
X140500000Y-77889000D02*
X126264285Y-77889000D01*
X140500000Y-63653285D02*
X140500000Y-77889000D01*
X138900000Y-63653285D02*
X140500000Y-63653285D01*
X138900000Y-52124715D02*
X138900000Y-63653285D01*
X140500000Y-52124715D02*
X138900000Y-52124715D01*
X140500000Y-39489001D02*
X140500000Y-52124715D01*
X126214285Y-39489000D02*
X140500000Y-39489001D01*
X126214285Y-37889000D02*
X126214285Y-39489000D01*
X114785715Y-37889000D02*
X126214285Y-37889000D01*
X114785715Y-39489000D02*
X114785715Y-37889000D01*
X102100000Y-39489000D02*
X114785715Y-39489000D01*
X102100000Y-43889000D02*
X102100000Y-39489000D01*
X102100000Y-52174715D02*
X102100000Y-47889000D01*
X100500000Y-52174715D02*
X102100000Y-52174715D01*
X100500000Y-63603285D02*
X100500000Y-52174715D01*
X102100000Y-63603285D02*
X100500000Y-63603285D01*
X102100000Y-67889000D02*
X102100000Y-63603285D01*
X102100000Y-77889000D02*
X102100000Y-71889000D01*
X114735715Y-77889000D02*
X102100000Y-77889000D01*
X114735715Y-76288999D02*
X114735715Y-77889000D01*
X116500000Y-76288999D02*
X114735715Y-76288999D01*
X122500000Y-76289000D02*
X118500000Y-76288999D01*
M02*
