%TF.GenerationSoftware,KiCad,Pcbnew,(5.1.10)-1*%
%TF.CreationDate,2022-01-02T17:40:11+01:00*%
%TF.ProjectId,3DESPWroverS,33444553-5057-4726-9f76-6572532e6b69,rev?*%
%TF.SameCoordinates,Original*%
%TF.FileFunction,Copper,L2,Bot*%
%TF.FilePolarity,Positive*%
%FSLAX46Y46*%
G04 Gerber Fmt 4.6, Leading zero omitted, Abs format (unit mm)*
G04 Created by KiCad (PCBNEW (5.1.10)-1) date 2022-01-02 17:40:11*
%MOMM*%
%LPD*%
G01*
G04 APERTURE LIST*
%TA.AperFunction,ComponentPad*%
%ADD10R,1.700000X1.700000*%
%TD*%
%TA.AperFunction,ComponentPad*%
%ADD11O,1.700000X1.700000*%
%TD*%
%TA.AperFunction,ViaPad*%
%ADD12C,1.200000*%
%TD*%
%TA.AperFunction,Conductor*%
%ADD13C,1.250000*%
%TD*%
%TA.AperFunction,Conductor*%
%ADD14C,0.254000*%
%TD*%
%TA.AperFunction,Conductor*%
%ADD15C,0.100000*%
%TD*%
G04 APERTURE END LIST*
D10*
%TO.P,J1,1*%
%TO.N,VCC*%
X117983000Y-56642000D03*
D11*
%TO.P,J1,2*%
%TO.N,GND*%
X117983000Y-59182000D03*
%TO.P,J1,3*%
%TO.N,/D1*%
X120523000Y-56642000D03*
%TO.P,J1,4*%
%TO.N,/D2*%
X120523000Y-59182000D03*
%TO.P,J1,5*%
%TO.N,VCC*%
X123063000Y-56642000D03*
%TO.P,J1,6*%
%TO.N,GND*%
X123063000Y-59182000D03*
%TD*%
D12*
%TO.N,VCC*%
X137414000Y-66802000D03*
X137414000Y-72898000D03*
X134747000Y-69850000D03*
X104140000Y-76454000D03*
X104140000Y-74930000D03*
X108712000Y-71755000D03*
X106807000Y-69850000D03*
X104140000Y-73406000D03*
X107061000Y-71501000D03*
%TD*%
D13*
%TO.N,VCC*%
X117983000Y-56642000D02*
X116967000Y-56642000D01*
X116967000Y-56642000D02*
X115697000Y-57912000D01*
X123063000Y-56642000D02*
X124079000Y-56642000D01*
X124079000Y-56642000D02*
X125349000Y-57912000D01*
X125349000Y-57912000D02*
X128905000Y-57912000D01*
%TD*%
D14*
%TO.N,VCC*%
X125569286Y-39457321D02*
X125566166Y-39489000D01*
X125578618Y-39615441D01*
X125615500Y-39737024D01*
X125675393Y-39849075D01*
X125675394Y-39849076D01*
X125755996Y-39947290D01*
X125854210Y-40027892D01*
X125966261Y-40087785D01*
X126087844Y-40124667D01*
X126214285Y-40137120D01*
X126245974Y-40133999D01*
X139855000Y-40134001D01*
X139855001Y-51479715D01*
X138931679Y-51479715D01*
X138900000Y-51476595D01*
X138868321Y-51479715D01*
X138773558Y-51489048D01*
X138651975Y-51525930D01*
X138539924Y-51585823D01*
X138441710Y-51666425D01*
X138361108Y-51764639D01*
X138301215Y-51876690D01*
X138264333Y-51998273D01*
X138251880Y-52124715D01*
X138255000Y-52156394D01*
X138255001Y-63621596D01*
X138251880Y-63653285D01*
X138264333Y-63779727D01*
X138301215Y-63901310D01*
X138361108Y-64013361D01*
X138441710Y-64111575D01*
X138539924Y-64192177D01*
X138651975Y-64252070D01*
X138773558Y-64288952D01*
X138868321Y-64298285D01*
X138900000Y-64301405D01*
X138931679Y-64298285D01*
X139855000Y-64298285D01*
X139855001Y-77244000D01*
X126909285Y-77244000D01*
X126909285Y-76320669D01*
X126912404Y-76289000D01*
X126909285Y-76257329D01*
X126909285Y-76257321D01*
X126899952Y-76162558D01*
X126863070Y-76040975D01*
X126803177Y-75928924D01*
X126722575Y-75830710D01*
X126624361Y-75750108D01*
X126512310Y-75690215D01*
X126390727Y-75653333D01*
X126264285Y-75640880D01*
X126232597Y-75644001D01*
X124531679Y-75643999D01*
X124468321Y-75643999D01*
X122489659Y-75644001D01*
X118531679Y-75643999D01*
X114767394Y-75643999D01*
X114735715Y-75640879D01*
X114704036Y-75643999D01*
X114609273Y-75653332D01*
X114487690Y-75690214D01*
X114375639Y-75750107D01*
X114277425Y-75830709D01*
X114196823Y-75928923D01*
X114136930Y-76040974D01*
X114100048Y-76162557D01*
X114087595Y-76288999D01*
X114090715Y-76320678D01*
X114090716Y-77244000D01*
X102745000Y-77244000D01*
X102745000Y-64838609D01*
X106357764Y-64838609D01*
X106357764Y-65939391D01*
X106538947Y-67025161D01*
X106896371Y-68066300D01*
X107420285Y-69034409D01*
X108096400Y-69903082D01*
X108906272Y-70648621D01*
X109827811Y-71250693D01*
X110835878Y-71692872D01*
X111902977Y-71963098D01*
X113000000Y-72054000D01*
X114097023Y-71963098D01*
X115164122Y-71692872D01*
X116172189Y-71250693D01*
X117093728Y-70648621D01*
X117903600Y-69903082D01*
X118579715Y-69034409D01*
X119103629Y-68066300D01*
X119461053Y-67025161D01*
X119642236Y-65939391D01*
X119642236Y-64838609D01*
X119461053Y-63752839D01*
X119103629Y-62711700D01*
X118579715Y-61743591D01*
X117903600Y-60874918D01*
X117633914Y-60626655D01*
X117836740Y-60667000D01*
X118129260Y-60667000D01*
X118416158Y-60609932D01*
X118686411Y-60497990D01*
X118929632Y-60335475D01*
X119136475Y-60128632D01*
X119253000Y-59954240D01*
X119369525Y-60128632D01*
X119576368Y-60335475D01*
X119819589Y-60497990D01*
X120089842Y-60609932D01*
X120376740Y-60667000D01*
X120669260Y-60667000D01*
X120956158Y-60609932D01*
X121226411Y-60497990D01*
X121469632Y-60335475D01*
X121676475Y-60128632D01*
X121793000Y-59954240D01*
X121909525Y-60128632D01*
X122116368Y-60335475D01*
X122359589Y-60497990D01*
X122629842Y-60609932D01*
X122916740Y-60667000D01*
X123209260Y-60667000D01*
X123353405Y-60638328D01*
X123096399Y-60874918D01*
X122420284Y-61743591D01*
X121896370Y-62711700D01*
X121538946Y-63752839D01*
X121357763Y-64838609D01*
X121357763Y-65939391D01*
X121538946Y-67025161D01*
X121896370Y-68066300D01*
X122420284Y-69034409D01*
X123096399Y-69903082D01*
X123906271Y-70648621D01*
X124827810Y-71250693D01*
X125835877Y-71692872D01*
X126902976Y-71963098D01*
X127999999Y-72054000D01*
X129097022Y-71963098D01*
X130164121Y-71692872D01*
X131172188Y-71250693D01*
X132093727Y-70648621D01*
X132903599Y-69903082D01*
X133579714Y-69034409D01*
X134103628Y-68066300D01*
X134461052Y-67025161D01*
X134642235Y-65939391D01*
X134642235Y-64838609D01*
X134461052Y-63752839D01*
X134103628Y-62711700D01*
X133579714Y-61743591D01*
X132903599Y-60874918D01*
X132093727Y-60129379D01*
X131172188Y-59527307D01*
X130164121Y-59085128D01*
X129097022Y-58814902D01*
X127999999Y-58724000D01*
X126902976Y-58814902D01*
X125835877Y-59085128D01*
X124827810Y-59527307D01*
X124415832Y-59796466D01*
X124490932Y-59615158D01*
X124548000Y-59328260D01*
X124548000Y-59035740D01*
X124490932Y-58748842D01*
X124378990Y-58478589D01*
X124216475Y-58235368D01*
X124009632Y-58028525D01*
X123833594Y-57910900D01*
X124063269Y-57739588D01*
X124258178Y-57523355D01*
X124407157Y-57273252D01*
X124504481Y-56998891D01*
X124383814Y-56769000D01*
X123190000Y-56769000D01*
X123190000Y-56789000D01*
X122936000Y-56789000D01*
X122936000Y-56769000D01*
X122916000Y-56769000D01*
X122916000Y-56515000D01*
X122936000Y-56515000D01*
X122936000Y-55321845D01*
X122706110Y-55200524D01*
X122558901Y-55245175D01*
X122296080Y-55370359D01*
X122062731Y-55544412D01*
X121867822Y-55760645D01*
X121798195Y-55877534D01*
X121676475Y-55695368D01*
X121469632Y-55488525D01*
X121226411Y-55326010D01*
X120956158Y-55214068D01*
X120669260Y-55157000D01*
X120376740Y-55157000D01*
X120089842Y-55214068D01*
X119819589Y-55326010D01*
X119576368Y-55488525D01*
X119444513Y-55620380D01*
X119422502Y-55547820D01*
X119363537Y-55437506D01*
X119284185Y-55340815D01*
X119187494Y-55261463D01*
X119077180Y-55202498D01*
X118957482Y-55166188D01*
X118833000Y-55153928D01*
X118268750Y-55157000D01*
X118110000Y-55315750D01*
X118110000Y-56515000D01*
X118130000Y-56515000D01*
X118130000Y-56769000D01*
X118110000Y-56769000D01*
X118110000Y-56789000D01*
X117856000Y-56789000D01*
X117856000Y-56769000D01*
X116656750Y-56769000D01*
X116498000Y-56927750D01*
X116494928Y-57492000D01*
X116507188Y-57616482D01*
X116543498Y-57736180D01*
X116602463Y-57846494D01*
X116681815Y-57943185D01*
X116778506Y-58022537D01*
X116888820Y-58081502D01*
X116961380Y-58103513D01*
X116829525Y-58235368D01*
X116667010Y-58478589D01*
X116555068Y-58748842D01*
X116498000Y-59035740D01*
X116498000Y-59328260D01*
X116555068Y-59615158D01*
X116647235Y-59837671D01*
X116172189Y-59527307D01*
X115164122Y-59085128D01*
X114097023Y-58814902D01*
X113000000Y-58724000D01*
X111902977Y-58814902D01*
X110835878Y-59085128D01*
X109827811Y-59527307D01*
X108906272Y-60129379D01*
X108096400Y-60874918D01*
X107420285Y-61743591D01*
X106896371Y-62711700D01*
X106538947Y-63752839D01*
X106357764Y-64838609D01*
X102745000Y-64838609D01*
X102745000Y-63634963D01*
X102748120Y-63603285D01*
X102735667Y-63476843D01*
X102698785Y-63355260D01*
X102638892Y-63243209D01*
X102558290Y-63144995D01*
X102460076Y-63064393D01*
X102348025Y-63004500D01*
X102226442Y-62967618D01*
X102131679Y-62958285D01*
X102100000Y-62955165D01*
X102068321Y-62958285D01*
X101145000Y-62958285D01*
X101145000Y-52819715D01*
X102068321Y-52819715D01*
X102100000Y-52822835D01*
X102131679Y-52819715D01*
X102226442Y-52810382D01*
X102348025Y-52773500D01*
X102460076Y-52713607D01*
X102558290Y-52633005D01*
X102638892Y-52534791D01*
X102698785Y-52422740D01*
X102735667Y-52301157D01*
X102748120Y-52174715D01*
X102745000Y-52143036D01*
X102745000Y-49838610D01*
X106357764Y-49838610D01*
X106357764Y-50939392D01*
X106538947Y-52025162D01*
X106896371Y-53066301D01*
X107420285Y-54034410D01*
X108096400Y-54903083D01*
X108906272Y-55648622D01*
X109827811Y-56250694D01*
X110835878Y-56692873D01*
X111902977Y-56963099D01*
X113000000Y-57054001D01*
X114097023Y-56963099D01*
X115164122Y-56692873D01*
X116172189Y-56250694D01*
X116496273Y-56038959D01*
X116498000Y-56356250D01*
X116656750Y-56515000D01*
X117856000Y-56515000D01*
X117856000Y-55315750D01*
X117697250Y-55157000D01*
X117628181Y-55156624D01*
X117903600Y-54903083D01*
X118579715Y-54034410D01*
X119103629Y-53066301D01*
X119461053Y-52025162D01*
X119642236Y-50939392D01*
X119642236Y-49838610D01*
X121357763Y-49838610D01*
X121357763Y-50939392D01*
X121538946Y-52025162D01*
X121896370Y-53066301D01*
X122420284Y-54034410D01*
X123096399Y-54903083D01*
X123419646Y-55200653D01*
X123190000Y-55321845D01*
X123190000Y-56515000D01*
X124383814Y-56515000D01*
X124504481Y-56285109D01*
X124407157Y-56010748D01*
X124373142Y-55953644D01*
X124827810Y-56250694D01*
X125835877Y-56692873D01*
X126902976Y-56963099D01*
X127999999Y-57054001D01*
X129097022Y-56963099D01*
X130164121Y-56692873D01*
X131172188Y-56250694D01*
X132093727Y-55648622D01*
X132903599Y-54903083D01*
X133579714Y-54034410D01*
X134103628Y-53066301D01*
X134461052Y-52025162D01*
X134642235Y-50939392D01*
X134642235Y-49838610D01*
X134461052Y-48752840D01*
X134103628Y-47711701D01*
X133579714Y-46743592D01*
X132903599Y-45874919D01*
X132093727Y-45129380D01*
X131172188Y-44527308D01*
X130164121Y-44085129D01*
X129097022Y-43814903D01*
X127999999Y-43724001D01*
X126902976Y-43814903D01*
X125835877Y-44085129D01*
X124827810Y-44527308D01*
X123906271Y-45129380D01*
X123096399Y-45874919D01*
X122420284Y-46743592D01*
X121896370Y-47711701D01*
X121538946Y-48752840D01*
X121357763Y-49838610D01*
X119642236Y-49838610D01*
X119461053Y-48752840D01*
X119103629Y-47711701D01*
X118579715Y-46743592D01*
X117903600Y-45874919D01*
X117093728Y-45129380D01*
X116172189Y-44527308D01*
X115164122Y-44085129D01*
X114097023Y-43814903D01*
X113000000Y-43724001D01*
X111902977Y-43814903D01*
X110835878Y-44085129D01*
X109827811Y-44527308D01*
X108906272Y-45129380D01*
X108096400Y-45874919D01*
X107420285Y-46743592D01*
X106896371Y-47711701D01*
X106538947Y-48752840D01*
X106357764Y-49838610D01*
X102745000Y-49838610D01*
X102745000Y-40134000D01*
X114754036Y-40134000D01*
X114785715Y-40137120D01*
X114817394Y-40134000D01*
X114912157Y-40124667D01*
X115033740Y-40087785D01*
X115145791Y-40027892D01*
X115244005Y-39947290D01*
X115324607Y-39849076D01*
X115384500Y-39737025D01*
X115421382Y-39615442D01*
X115433835Y-39489000D01*
X115430715Y-39457321D01*
X115430715Y-38534000D01*
X125569285Y-38534000D01*
X125569286Y-39457321D01*
%TA.AperFunction,Conductor*%
D15*
G36*
X125569286Y-39457321D02*
G01*
X125566166Y-39489000D01*
X125578618Y-39615441D01*
X125615500Y-39737024D01*
X125675393Y-39849075D01*
X125675394Y-39849076D01*
X125755996Y-39947290D01*
X125854210Y-40027892D01*
X125966261Y-40087785D01*
X126087844Y-40124667D01*
X126214285Y-40137120D01*
X126245974Y-40133999D01*
X139855000Y-40134001D01*
X139855001Y-51479715D01*
X138931679Y-51479715D01*
X138900000Y-51476595D01*
X138868321Y-51479715D01*
X138773558Y-51489048D01*
X138651975Y-51525930D01*
X138539924Y-51585823D01*
X138441710Y-51666425D01*
X138361108Y-51764639D01*
X138301215Y-51876690D01*
X138264333Y-51998273D01*
X138251880Y-52124715D01*
X138255000Y-52156394D01*
X138255001Y-63621596D01*
X138251880Y-63653285D01*
X138264333Y-63779727D01*
X138301215Y-63901310D01*
X138361108Y-64013361D01*
X138441710Y-64111575D01*
X138539924Y-64192177D01*
X138651975Y-64252070D01*
X138773558Y-64288952D01*
X138868321Y-64298285D01*
X138900000Y-64301405D01*
X138931679Y-64298285D01*
X139855000Y-64298285D01*
X139855001Y-77244000D01*
X126909285Y-77244000D01*
X126909285Y-76320669D01*
X126912404Y-76289000D01*
X126909285Y-76257329D01*
X126909285Y-76257321D01*
X126899952Y-76162558D01*
X126863070Y-76040975D01*
X126803177Y-75928924D01*
X126722575Y-75830710D01*
X126624361Y-75750108D01*
X126512310Y-75690215D01*
X126390727Y-75653333D01*
X126264285Y-75640880D01*
X126232597Y-75644001D01*
X124531679Y-75643999D01*
X124468321Y-75643999D01*
X122489659Y-75644001D01*
X118531679Y-75643999D01*
X114767394Y-75643999D01*
X114735715Y-75640879D01*
X114704036Y-75643999D01*
X114609273Y-75653332D01*
X114487690Y-75690214D01*
X114375639Y-75750107D01*
X114277425Y-75830709D01*
X114196823Y-75928923D01*
X114136930Y-76040974D01*
X114100048Y-76162557D01*
X114087595Y-76288999D01*
X114090715Y-76320678D01*
X114090716Y-77244000D01*
X102745000Y-77244000D01*
X102745000Y-64838609D01*
X106357764Y-64838609D01*
X106357764Y-65939391D01*
X106538947Y-67025161D01*
X106896371Y-68066300D01*
X107420285Y-69034409D01*
X108096400Y-69903082D01*
X108906272Y-70648621D01*
X109827811Y-71250693D01*
X110835878Y-71692872D01*
X111902977Y-71963098D01*
X113000000Y-72054000D01*
X114097023Y-71963098D01*
X115164122Y-71692872D01*
X116172189Y-71250693D01*
X117093728Y-70648621D01*
X117903600Y-69903082D01*
X118579715Y-69034409D01*
X119103629Y-68066300D01*
X119461053Y-67025161D01*
X119642236Y-65939391D01*
X119642236Y-64838609D01*
X119461053Y-63752839D01*
X119103629Y-62711700D01*
X118579715Y-61743591D01*
X117903600Y-60874918D01*
X117633914Y-60626655D01*
X117836740Y-60667000D01*
X118129260Y-60667000D01*
X118416158Y-60609932D01*
X118686411Y-60497990D01*
X118929632Y-60335475D01*
X119136475Y-60128632D01*
X119253000Y-59954240D01*
X119369525Y-60128632D01*
X119576368Y-60335475D01*
X119819589Y-60497990D01*
X120089842Y-60609932D01*
X120376740Y-60667000D01*
X120669260Y-60667000D01*
X120956158Y-60609932D01*
X121226411Y-60497990D01*
X121469632Y-60335475D01*
X121676475Y-60128632D01*
X121793000Y-59954240D01*
X121909525Y-60128632D01*
X122116368Y-60335475D01*
X122359589Y-60497990D01*
X122629842Y-60609932D01*
X122916740Y-60667000D01*
X123209260Y-60667000D01*
X123353405Y-60638328D01*
X123096399Y-60874918D01*
X122420284Y-61743591D01*
X121896370Y-62711700D01*
X121538946Y-63752839D01*
X121357763Y-64838609D01*
X121357763Y-65939391D01*
X121538946Y-67025161D01*
X121896370Y-68066300D01*
X122420284Y-69034409D01*
X123096399Y-69903082D01*
X123906271Y-70648621D01*
X124827810Y-71250693D01*
X125835877Y-71692872D01*
X126902976Y-71963098D01*
X127999999Y-72054000D01*
X129097022Y-71963098D01*
X130164121Y-71692872D01*
X131172188Y-71250693D01*
X132093727Y-70648621D01*
X132903599Y-69903082D01*
X133579714Y-69034409D01*
X134103628Y-68066300D01*
X134461052Y-67025161D01*
X134642235Y-65939391D01*
X134642235Y-64838609D01*
X134461052Y-63752839D01*
X134103628Y-62711700D01*
X133579714Y-61743591D01*
X132903599Y-60874918D01*
X132093727Y-60129379D01*
X131172188Y-59527307D01*
X130164121Y-59085128D01*
X129097022Y-58814902D01*
X127999999Y-58724000D01*
X126902976Y-58814902D01*
X125835877Y-59085128D01*
X124827810Y-59527307D01*
X124415832Y-59796466D01*
X124490932Y-59615158D01*
X124548000Y-59328260D01*
X124548000Y-59035740D01*
X124490932Y-58748842D01*
X124378990Y-58478589D01*
X124216475Y-58235368D01*
X124009632Y-58028525D01*
X123833594Y-57910900D01*
X124063269Y-57739588D01*
X124258178Y-57523355D01*
X124407157Y-57273252D01*
X124504481Y-56998891D01*
X124383814Y-56769000D01*
X123190000Y-56769000D01*
X123190000Y-56789000D01*
X122936000Y-56789000D01*
X122936000Y-56769000D01*
X122916000Y-56769000D01*
X122916000Y-56515000D01*
X122936000Y-56515000D01*
X122936000Y-55321845D01*
X122706110Y-55200524D01*
X122558901Y-55245175D01*
X122296080Y-55370359D01*
X122062731Y-55544412D01*
X121867822Y-55760645D01*
X121798195Y-55877534D01*
X121676475Y-55695368D01*
X121469632Y-55488525D01*
X121226411Y-55326010D01*
X120956158Y-55214068D01*
X120669260Y-55157000D01*
X120376740Y-55157000D01*
X120089842Y-55214068D01*
X119819589Y-55326010D01*
X119576368Y-55488525D01*
X119444513Y-55620380D01*
X119422502Y-55547820D01*
X119363537Y-55437506D01*
X119284185Y-55340815D01*
X119187494Y-55261463D01*
X119077180Y-55202498D01*
X118957482Y-55166188D01*
X118833000Y-55153928D01*
X118268750Y-55157000D01*
X118110000Y-55315750D01*
X118110000Y-56515000D01*
X118130000Y-56515000D01*
X118130000Y-56769000D01*
X118110000Y-56769000D01*
X118110000Y-56789000D01*
X117856000Y-56789000D01*
X117856000Y-56769000D01*
X116656750Y-56769000D01*
X116498000Y-56927750D01*
X116494928Y-57492000D01*
X116507188Y-57616482D01*
X116543498Y-57736180D01*
X116602463Y-57846494D01*
X116681815Y-57943185D01*
X116778506Y-58022537D01*
X116888820Y-58081502D01*
X116961380Y-58103513D01*
X116829525Y-58235368D01*
X116667010Y-58478589D01*
X116555068Y-58748842D01*
X116498000Y-59035740D01*
X116498000Y-59328260D01*
X116555068Y-59615158D01*
X116647235Y-59837671D01*
X116172189Y-59527307D01*
X115164122Y-59085128D01*
X114097023Y-58814902D01*
X113000000Y-58724000D01*
X111902977Y-58814902D01*
X110835878Y-59085128D01*
X109827811Y-59527307D01*
X108906272Y-60129379D01*
X108096400Y-60874918D01*
X107420285Y-61743591D01*
X106896371Y-62711700D01*
X106538947Y-63752839D01*
X106357764Y-64838609D01*
X102745000Y-64838609D01*
X102745000Y-63634963D01*
X102748120Y-63603285D01*
X102735667Y-63476843D01*
X102698785Y-63355260D01*
X102638892Y-63243209D01*
X102558290Y-63144995D01*
X102460076Y-63064393D01*
X102348025Y-63004500D01*
X102226442Y-62967618D01*
X102131679Y-62958285D01*
X102100000Y-62955165D01*
X102068321Y-62958285D01*
X101145000Y-62958285D01*
X101145000Y-52819715D01*
X102068321Y-52819715D01*
X102100000Y-52822835D01*
X102131679Y-52819715D01*
X102226442Y-52810382D01*
X102348025Y-52773500D01*
X102460076Y-52713607D01*
X102558290Y-52633005D01*
X102638892Y-52534791D01*
X102698785Y-52422740D01*
X102735667Y-52301157D01*
X102748120Y-52174715D01*
X102745000Y-52143036D01*
X102745000Y-49838610D01*
X106357764Y-49838610D01*
X106357764Y-50939392D01*
X106538947Y-52025162D01*
X106896371Y-53066301D01*
X107420285Y-54034410D01*
X108096400Y-54903083D01*
X108906272Y-55648622D01*
X109827811Y-56250694D01*
X110835878Y-56692873D01*
X111902977Y-56963099D01*
X113000000Y-57054001D01*
X114097023Y-56963099D01*
X115164122Y-56692873D01*
X116172189Y-56250694D01*
X116496273Y-56038959D01*
X116498000Y-56356250D01*
X116656750Y-56515000D01*
X117856000Y-56515000D01*
X117856000Y-55315750D01*
X117697250Y-55157000D01*
X117628181Y-55156624D01*
X117903600Y-54903083D01*
X118579715Y-54034410D01*
X119103629Y-53066301D01*
X119461053Y-52025162D01*
X119642236Y-50939392D01*
X119642236Y-49838610D01*
X121357763Y-49838610D01*
X121357763Y-50939392D01*
X121538946Y-52025162D01*
X121896370Y-53066301D01*
X122420284Y-54034410D01*
X123096399Y-54903083D01*
X123419646Y-55200653D01*
X123190000Y-55321845D01*
X123190000Y-56515000D01*
X124383814Y-56515000D01*
X124504481Y-56285109D01*
X124407157Y-56010748D01*
X124373142Y-55953644D01*
X124827810Y-56250694D01*
X125835877Y-56692873D01*
X126902976Y-56963099D01*
X127999999Y-57054001D01*
X129097022Y-56963099D01*
X130164121Y-56692873D01*
X131172188Y-56250694D01*
X132093727Y-55648622D01*
X132903599Y-54903083D01*
X133579714Y-54034410D01*
X134103628Y-53066301D01*
X134461052Y-52025162D01*
X134642235Y-50939392D01*
X134642235Y-49838610D01*
X134461052Y-48752840D01*
X134103628Y-47711701D01*
X133579714Y-46743592D01*
X132903599Y-45874919D01*
X132093727Y-45129380D01*
X131172188Y-44527308D01*
X130164121Y-44085129D01*
X129097022Y-43814903D01*
X127999999Y-43724001D01*
X126902976Y-43814903D01*
X125835877Y-44085129D01*
X124827810Y-44527308D01*
X123906271Y-45129380D01*
X123096399Y-45874919D01*
X122420284Y-46743592D01*
X121896370Y-47711701D01*
X121538946Y-48752840D01*
X121357763Y-49838610D01*
X119642236Y-49838610D01*
X119461053Y-48752840D01*
X119103629Y-47711701D01*
X118579715Y-46743592D01*
X117903600Y-45874919D01*
X117093728Y-45129380D01*
X116172189Y-44527308D01*
X115164122Y-44085129D01*
X114097023Y-43814903D01*
X113000000Y-43724001D01*
X111902977Y-43814903D01*
X110835878Y-44085129D01*
X109827811Y-44527308D01*
X108906272Y-45129380D01*
X108096400Y-45874919D01*
X107420285Y-46743592D01*
X106896371Y-47711701D01*
X106538947Y-48752840D01*
X106357764Y-49838610D01*
X102745000Y-49838610D01*
X102745000Y-40134000D01*
X114754036Y-40134000D01*
X114785715Y-40137120D01*
X114817394Y-40134000D01*
X114912157Y-40124667D01*
X115033740Y-40087785D01*
X115145791Y-40027892D01*
X115244005Y-39947290D01*
X115324607Y-39849076D01*
X115384500Y-39737025D01*
X115421382Y-39615442D01*
X115433835Y-39489000D01*
X115430715Y-39457321D01*
X115430715Y-38534000D01*
X125569285Y-38534000D01*
X125569286Y-39457321D01*
G37*
%TD.AperFunction*%
%TD*%
M02*
