%TF.GenerationSoftware,KiCad,Pcbnew,(5.1.10)-1*%
%TF.CreationDate,2022-01-02T17:44:00+01:00*%
%TF.ProjectId,3DESPWroverB,33444553-5057-4726-9f76-6572422e6b69,rev?*%
%TF.SameCoordinates,Original*%
%TF.FileFunction,Legend,Bot*%
%TF.FilePolarity,Positive*%
%FSLAX46Y46*%
G04 Gerber Fmt 4.6, Leading zero omitted, Abs format (unit mm)*
G04 Created by KiCad (PCBNEW (5.1.10)-1) date 2022-01-02 17:44:00*
%MOMM*%
%LPD*%
G01*
G04 APERTURE LIST*
%ADD10C,0.150000*%
%ADD11C,0.120000*%
G04 APERTURE END LIST*
D10*
X152664990Y-41067980D02*
X152998323Y-40591790D01*
X153236419Y-41067980D02*
X153236419Y-40067980D01*
X152855466Y-40067980D01*
X152760228Y-40115600D01*
X152712609Y-40163219D01*
X152664990Y-40258457D01*
X152664990Y-40401314D01*
X152712609Y-40496552D01*
X152760228Y-40544171D01*
X152855466Y-40591790D01*
X153236419Y-40591790D01*
X152236419Y-40544171D02*
X151903085Y-40544171D01*
X151760228Y-41067980D02*
X152236419Y-41067980D01*
X152236419Y-40067980D01*
X151760228Y-40067980D01*
X151379276Y-40782266D02*
X150903085Y-40782266D01*
X151474514Y-41067980D02*
X151141180Y-40067980D01*
X150807847Y-41067980D01*
X149998323Y-41067980D02*
X150474514Y-41067980D01*
X150474514Y-40067980D01*
X152593561Y-42717980D02*
X152593561Y-41717980D01*
X152260228Y-41717980D02*
X151688800Y-41717980D01*
X151974514Y-42717980D02*
X151974514Y-41717980D01*
X151355466Y-41717980D02*
X151355466Y-42527504D01*
X151307847Y-42622742D01*
X151260228Y-42670361D01*
X151164990Y-42717980D01*
X150974514Y-42717980D01*
X150879276Y-42670361D01*
X150831657Y-42622742D01*
X150784038Y-42527504D01*
X150784038Y-41717980D01*
X152974514Y-44367980D02*
X152974514Y-43701314D01*
X152974514Y-43891790D02*
X152926895Y-43796552D01*
X152879276Y-43748933D01*
X152784038Y-43701314D01*
X152688800Y-43701314D01*
X152212609Y-44367980D02*
X152307847Y-44320361D01*
X152355466Y-44272742D01*
X152403085Y-44177504D01*
X152403085Y-43891790D01*
X152355466Y-43796552D01*
X152307847Y-43748933D01*
X152212609Y-43701314D01*
X152069752Y-43701314D01*
X151974514Y-43748933D01*
X151926895Y-43796552D01*
X151879276Y-43891790D01*
X151879276Y-44177504D01*
X151926895Y-44272742D01*
X151974514Y-44320361D01*
X152069752Y-44367980D01*
X152212609Y-44367980D01*
X151022133Y-44367980D02*
X151022133Y-43367980D01*
X151022133Y-44320361D02*
X151117371Y-44367980D01*
X151307847Y-44367980D01*
X151403085Y-44320361D01*
X151450704Y-44272742D01*
X151498323Y-44177504D01*
X151498323Y-43891790D01*
X151450704Y-43796552D01*
X151403085Y-43748933D01*
X151307847Y-43701314D01*
X151117371Y-43701314D01*
X151022133Y-43748933D01*
X150545942Y-44367980D02*
X150545942Y-43701314D01*
X150545942Y-43891790D02*
X150498323Y-43796552D01*
X150450704Y-43748933D01*
X150355466Y-43701314D01*
X150260228Y-43701314D01*
X151386323Y-57932580D02*
X151386323Y-56932580D01*
X151005371Y-56932580D01*
X150910133Y-56980200D01*
X150862514Y-57027819D01*
X150814895Y-57123057D01*
X150814895Y-57265914D01*
X150862514Y-57361152D01*
X150910133Y-57408771D01*
X151005371Y-57456390D01*
X151386323Y-57456390D01*
X150386323Y-57932580D02*
X150386323Y-57265914D01*
X150386323Y-57456390D02*
X150338704Y-57361152D01*
X150291085Y-57313533D01*
X150195847Y-57265914D01*
X150100609Y-57265914D01*
X149624419Y-57932580D02*
X149719657Y-57884961D01*
X149767276Y-57837342D01*
X149814895Y-57742104D01*
X149814895Y-57456390D01*
X149767276Y-57361152D01*
X149719657Y-57313533D01*
X149624419Y-57265914D01*
X149481561Y-57265914D01*
X149386323Y-57313533D01*
X149338704Y-57361152D01*
X149291085Y-57456390D01*
X149291085Y-57742104D01*
X149338704Y-57837342D01*
X149386323Y-57884961D01*
X149481561Y-57932580D01*
X149624419Y-57932580D01*
X148862514Y-57265914D02*
X148862514Y-58123057D01*
X148910133Y-58218295D01*
X149005371Y-58265914D01*
X149052990Y-58265914D01*
X148862514Y-56932580D02*
X148910133Y-56980200D01*
X148862514Y-57027819D01*
X148814895Y-56980200D01*
X148862514Y-56932580D01*
X148862514Y-57027819D01*
X148005371Y-57884961D02*
X148100609Y-57932580D01*
X148291085Y-57932580D01*
X148386323Y-57884961D01*
X148433942Y-57789723D01*
X148433942Y-57408771D01*
X148386323Y-57313533D01*
X148291085Y-57265914D01*
X148100609Y-57265914D01*
X148005371Y-57313533D01*
X147957752Y-57408771D01*
X147957752Y-57504009D01*
X148433942Y-57599247D01*
X147100609Y-57884961D02*
X147195847Y-57932580D01*
X147386323Y-57932580D01*
X147481561Y-57884961D01*
X147529180Y-57837342D01*
X147576800Y-57742104D01*
X147576800Y-57456390D01*
X147529180Y-57361152D01*
X147481561Y-57313533D01*
X147386323Y-57265914D01*
X147195847Y-57265914D01*
X147100609Y-57313533D01*
X146814895Y-57265914D02*
X146433942Y-57265914D01*
X146672038Y-56932580D02*
X146672038Y-57789723D01*
X146624419Y-57884961D01*
X146529180Y-57932580D01*
X146433942Y-57932580D01*
X144767276Y-57837342D02*
X144814895Y-57884961D01*
X144957752Y-57932580D01*
X145052990Y-57932580D01*
X145195847Y-57884961D01*
X145291085Y-57789723D01*
X145338704Y-57694485D01*
X145386323Y-57504009D01*
X145386323Y-57361152D01*
X145338704Y-57170676D01*
X145291085Y-57075438D01*
X145195847Y-56980200D01*
X145052990Y-56932580D01*
X144957752Y-56932580D01*
X144814895Y-56980200D01*
X144767276Y-57027819D01*
X143910133Y-57265914D02*
X143910133Y-57932580D01*
X144338704Y-57265914D02*
X144338704Y-57789723D01*
X144291085Y-57884961D01*
X144195847Y-57932580D01*
X144052990Y-57932580D01*
X143957752Y-57884961D01*
X143910133Y-57837342D01*
X143433942Y-57932580D02*
X143433942Y-56932580D01*
X143433942Y-57313533D02*
X143338704Y-57265914D01*
X143148228Y-57265914D01*
X143052990Y-57313533D01*
X143005371Y-57361152D01*
X142957752Y-57456390D01*
X142957752Y-57742104D01*
X143005371Y-57837342D01*
X143052990Y-57884961D01*
X143148228Y-57932580D01*
X143338704Y-57932580D01*
X143433942Y-57884961D01*
X142148228Y-57884961D02*
X142243466Y-57932580D01*
X142433942Y-57932580D01*
X142529180Y-57884961D01*
X142576800Y-57789723D01*
X142576800Y-57408771D01*
X142529180Y-57313533D01*
X142433942Y-57265914D01*
X142243466Y-57265914D01*
X142148228Y-57313533D01*
X142100609Y-57408771D01*
X142100609Y-57504009D01*
X142576800Y-57599247D01*
X141624419Y-57884961D02*
X141624419Y-57932580D01*
X141672038Y-58027819D01*
X141719657Y-58075438D01*
X140529180Y-57265914D02*
X140291085Y-57932580D01*
X140052990Y-57265914D01*
X139148228Y-57932580D02*
X139719657Y-57932580D01*
X139433942Y-57932580D02*
X139433942Y-56932580D01*
X139529180Y-57075438D01*
X139624419Y-57170676D01*
X139719657Y-57218295D01*
X138719657Y-57837342D02*
X138672038Y-57884961D01*
X138719657Y-57932580D01*
X138767276Y-57884961D01*
X138719657Y-57837342D01*
X138719657Y-57932580D01*
X137719657Y-57932580D02*
X138291085Y-57932580D01*
X138005371Y-57932580D02*
X138005371Y-56932580D01*
X138100609Y-57075438D01*
X138195847Y-57170676D01*
X138291085Y-57218295D01*
D11*
%TO.C,J10*%
X157870200Y-60766000D02*
X152670200Y-60766000D01*
X157870200Y-55626000D02*
X157870200Y-60766000D01*
X152670200Y-53026000D02*
X152670200Y-60766000D01*
X157870200Y-55626000D02*
X155270200Y-55626000D01*
X155270200Y-55626000D02*
X155270200Y-53026000D01*
X155270200Y-53026000D02*
X152670200Y-53026000D01*
X157870200Y-54356000D02*
X157870200Y-53026000D01*
X157870200Y-53026000D02*
X156540200Y-53026000D01*
D10*
X152091923Y-54621180D02*
X152091923Y-55335466D01*
X152139542Y-55478323D01*
X152234780Y-55573561D01*
X152377638Y-55621180D01*
X152472876Y-55621180D01*
X151091923Y-55621180D02*
X151663352Y-55621180D01*
X151377638Y-55621180D02*
X151377638Y-54621180D01*
X151472876Y-54764038D01*
X151568114Y-54859276D01*
X151663352Y-54906895D01*
X150472876Y-54621180D02*
X150377638Y-54621180D01*
X150282400Y-54668800D01*
X150234780Y-54716419D01*
X150187161Y-54811657D01*
X150139542Y-55002133D01*
X150139542Y-55240228D01*
X150187161Y-55430704D01*
X150234780Y-55525942D01*
X150282400Y-55573561D01*
X150377638Y-55621180D01*
X150472876Y-55621180D01*
X150568114Y-55573561D01*
X150615733Y-55525942D01*
X150663352Y-55430704D01*
X150710971Y-55240228D01*
X150710971Y-55002133D01*
X150663352Y-54811657D01*
X150615733Y-54716419D01*
X150568114Y-54668800D01*
X150472876Y-54621180D01*
%TD*%
M02*
