%TF.GenerationSoftware,KiCad,Pcbnew,(5.1.10)-1*%
%TF.CreationDate,2022-01-02T17:44:00+01:00*%
%TF.ProjectId,3DESPWroverB,33444553-5057-4726-9f76-6572422e6b69,rev?*%
%TF.SameCoordinates,Original*%
%TF.FileFunction,Copper,L1,Top*%
%TF.FilePolarity,Positive*%
%FSLAX46Y46*%
G04 Gerber Fmt 4.6, Leading zero omitted, Abs format (unit mm)*
G04 Created by KiCad (PCBNEW (5.1.10)-1) date 2022-01-02 17:44:00*
%MOMM*%
%LPD*%
G01*
G04 APERTURE LIST*
%TA.AperFunction,ComponentPad*%
%ADD10C,1.381000*%
%TD*%
%TA.AperFunction,SMDPad,CuDef*%
%ADD11R,4.000000X3.000000*%
%TD*%
%TA.AperFunction,SMDPad,CuDef*%
%ADD12R,3.000000X4.000000*%
%TD*%
%TA.AperFunction,SMDPad,CuDef*%
%ADD13R,3.000000X2.000000*%
%TD*%
%TA.AperFunction,SMDPad,CuDef*%
%ADD14R,2.000000X3.000000*%
%TD*%
%TA.AperFunction,ComponentPad*%
%ADD15R,1.700000X1.700000*%
%TD*%
%TA.AperFunction,ComponentPad*%
%ADD16O,1.700000X1.700000*%
%TD*%
%TA.AperFunction,ViaPad*%
%ADD17C,1.200000*%
%TD*%
%TA.AperFunction,Conductor*%
%ADD18C,1.250000*%
%TD*%
%TA.AperFunction,Conductor*%
%ADD19C,0.312500*%
%TD*%
%TA.AperFunction,Conductor*%
%ADD20C,0.254000*%
%TD*%
%TA.AperFunction,Conductor*%
%ADD21C,0.100000*%
%TD*%
G04 APERTURE END LIST*
D10*
%TO.P,J1,14*%
%TO.N,VCC*%
X163525200Y-65506600D03*
%TO.P,J1,13*%
X160985200Y-64236600D03*
%TO.P,J1,12*%
%TO.N,/D16*%
X163525200Y-62966600D03*
%TO.P,J1,11*%
%TO.N,/D15*%
X160985200Y-61696600D03*
%TO.P,J1,10*%
%TO.N,/D14*%
X163525200Y-60426600D03*
%TO.P,J1,9*%
%TO.N,/D13*%
X160985200Y-59156600D03*
%TO.P,J1,8*%
%TO.N,/D12*%
X163525200Y-57886600D03*
%TO.P,J1,7*%
%TO.N,/D11*%
X160985200Y-56616600D03*
%TO.P,J1,6*%
%TO.N,/D10*%
X163525200Y-55346600D03*
%TO.P,J1,5*%
%TO.N,/D9*%
X160985200Y-54076600D03*
%TO.P,J1,4*%
%TO.N,/D8*%
X163525200Y-52806600D03*
%TO.P,J1,3*%
%TO.N,/D7*%
X160985200Y-51536600D03*
%TO.P,J1,2*%
%TO.N,GND*%
X163525200Y-50266600D03*
%TO.P,J1,1*%
X160985200Y-48996600D03*
%TD*%
D11*
%TO.P,J2,1*%
%TO.N,VCC*%
X163703000Y-74295000D03*
%TD*%
D12*
%TO.P,J3,1*%
%TO.N,VCC*%
X168529000Y-45466000D03*
%TD*%
D11*
%TO.P,J4,1*%
%TO.N,VCC*%
X139700000Y-40640000D03*
%TD*%
D12*
%TO.P,J5,1*%
%TO.N,VCC*%
X134874000Y-69469000D03*
%TD*%
%TO.P,J6,1*%
%TO.N,GND*%
X168529000Y-69469000D03*
%TD*%
D11*
%TO.P,J7,1*%
%TO.N,GND*%
X139700000Y-74295000D03*
%TD*%
%TO.P,J8,1*%
%TO.N,GND*%
X163703000Y-40640000D03*
%TD*%
D12*
%TO.P,J9,1*%
%TO.N,GND*%
X134874000Y-45466000D03*
%TD*%
D13*
%TO.P,J11,1*%
%TO.N,/D9*%
X168605200Y-54457600D03*
%TD*%
%TO.P,J12,1*%
%TO.N,/D10*%
X168579800Y-60452000D03*
%TD*%
D14*
%TO.P,J13,1*%
%TO.N,/D7*%
X148691600Y-40563800D03*
%TD*%
%TO.P,J14,1*%
%TO.N,/D8*%
X154686000Y-40563800D03*
%TD*%
%TO.P,J15,1*%
%TO.N,/D13*%
X154711400Y-74320400D03*
%TD*%
%TO.P,J16,1*%
%TO.N,/D14*%
X148666200Y-74320400D03*
%TD*%
D13*
%TO.P,J17,1*%
%TO.N,/D15*%
X134747000Y-60452000D03*
%TD*%
%TO.P,J18,1*%
%TO.N,/D16*%
X134747000Y-54483000D03*
%TD*%
D15*
%TO.P,J10,1*%
%TO.N,VCC*%
X156540200Y-54356000D03*
D16*
%TO.P,J10,2*%
%TO.N,GND*%
X154000200Y-54356000D03*
%TO.P,J10,3*%
%TO.N,/D11*%
X156540200Y-56896000D03*
%TO.P,J10,4*%
%TO.N,/D12*%
X154000200Y-56896000D03*
%TO.P,J10,5*%
%TO.N,VCC*%
X156540200Y-59436000D03*
%TO.P,J10,6*%
%TO.N,GND*%
X154000200Y-59436000D03*
%TD*%
D17*
%TO.N,VCC*%
X167233600Y-72771000D03*
X168148000Y-74650600D03*
X160223200Y-74295000D03*
X167513000Y-48920400D03*
X169062400Y-49657000D03*
X143256000Y-40030400D03*
X143306800Y-41935400D03*
X136499600Y-40640000D03*
X168097200Y-51358800D03*
X134289800Y-66192400D03*
X135661400Y-65481200D03*
X134823200Y-63906400D03*
%TO.N,GND*%
X168529000Y-65811400D03*
X163677600Y-69545200D03*
X161493200Y-69570600D03*
X160528000Y-40614600D03*
X160528000Y-44399200D03*
X158191200Y-44399200D03*
X159283400Y-69570600D03*
X162433000Y-44399200D03*
X142900400Y-74295000D03*
X149072600Y-70078600D03*
X151104600Y-70078600D03*
X153314400Y-70053200D03*
%TD*%
D18*
%TO.N,VCC*%
X163703000Y-74295000D02*
X165709600Y-74295000D01*
X166674800Y-74650600D02*
X168148000Y-74650600D01*
X166357300Y-74333100D02*
X166674800Y-74650600D01*
X166357300Y-73647300D02*
X166357300Y-74333100D01*
X165709600Y-74295000D02*
X166357300Y-73647300D01*
X166357300Y-73647300D02*
X167233600Y-72771000D01*
X163703000Y-74295000D02*
X160223200Y-74295000D01*
X168529000Y-47904400D02*
X167513000Y-48920400D01*
X168529000Y-45466000D02*
X168529000Y-47904400D01*
X169062400Y-48816000D02*
X169062400Y-49657000D01*
X168529000Y-48282600D02*
X169062400Y-48816000D01*
X168529000Y-47904400D02*
X168529000Y-48282600D01*
X142646400Y-40640000D02*
X143256000Y-40030400D01*
X139700000Y-40640000D02*
X142646400Y-40640000D01*
X142646400Y-41275000D02*
X143306800Y-41935400D01*
X142646400Y-40640000D02*
X142646400Y-41275000D01*
X139700000Y-40640000D02*
X136499600Y-40640000D01*
X169062400Y-50393600D02*
X168097200Y-51358800D01*
X169062400Y-49657000D02*
X169062400Y-50393600D01*
X134874000Y-66776600D02*
X134289800Y-66192400D01*
X134874000Y-69469000D02*
X134874000Y-66776600D01*
X134874000Y-66268600D02*
X135661400Y-65481200D01*
X134874000Y-66776600D02*
X134874000Y-66268600D01*
X135661400Y-64744600D02*
X134823200Y-63906400D01*
X135661400Y-65481200D02*
X135661400Y-64744600D01*
D19*
%TO.N,/D16*%
X135178800Y-54914800D02*
X134747000Y-54483000D01*
X137316910Y-59880658D02*
X135178800Y-57742548D01*
X138483327Y-71439129D02*
X137316910Y-70272712D01*
X158468073Y-71439129D02*
X138483327Y-71439129D01*
X164968422Y-70704580D02*
X159202621Y-70704581D01*
X135178800Y-57742548D02*
X135178800Y-54914800D01*
X165135219Y-70537783D02*
X164968422Y-70704580D01*
X137316910Y-70272712D02*
X137316910Y-59880658D01*
X159202621Y-70704581D02*
X158468073Y-71439129D01*
X165135219Y-63433619D02*
X165135219Y-70537783D01*
X164668200Y-62966600D02*
X165135219Y-63433619D01*
X163525200Y-62966600D02*
X164668200Y-62966600D01*
%TO.N,/D15*%
X160985200Y-61696600D02*
X164790690Y-61696600D01*
X164790690Y-61696600D02*
X164790690Y-61717490D01*
X136804400Y-62509400D02*
X134747000Y-60452000D01*
X158680361Y-71951639D02*
X138271039Y-71951639D01*
X159414910Y-71217090D02*
X158680361Y-71951639D01*
X138271039Y-71951639D02*
X136804400Y-70485000D01*
X165180710Y-71217090D02*
X159414910Y-71217090D01*
X136804400Y-70485000D02*
X136804400Y-62509400D01*
X165647729Y-66759423D02*
X165647729Y-70761873D01*
X165698529Y-66708623D02*
X165647729Y-66759423D01*
X165698529Y-62091929D02*
X165698529Y-66708623D01*
X165635927Y-70761873D02*
X165180710Y-71217090D01*
X165303200Y-61696600D02*
X165698529Y-62091929D01*
X165647729Y-70761873D02*
X165635927Y-70761873D01*
X164790690Y-61696600D02*
X165303200Y-61696600D01*
%TO.N,/D14*%
X158904451Y-72464149D02*
X150522451Y-72464149D01*
X159639000Y-71729600D02*
X158904451Y-72464149D01*
X165404800Y-71729600D02*
X159639000Y-71729600D01*
X166160239Y-66971711D02*
X166160239Y-70974161D01*
X166211039Y-66920911D02*
X166160239Y-66971711D01*
X166160239Y-70974161D02*
X165404800Y-71729600D01*
X166211039Y-61359839D02*
X166211039Y-66920911D01*
X150522451Y-72464149D02*
X148666200Y-74320400D01*
X165277800Y-60426600D02*
X166211039Y-61359839D01*
X163525200Y-60426600D02*
X165277800Y-60426600D01*
%TO.N,/D13*%
X158470600Y-74320400D02*
X154711400Y-74320400D01*
X160426400Y-72364600D02*
X158470600Y-74320400D01*
X165506400Y-72364600D02*
X160426400Y-72364600D01*
X166672749Y-71198251D02*
X165506400Y-72364600D01*
X166672749Y-67183999D02*
X166672749Y-71198251D01*
X166723549Y-67133199D02*
X166672749Y-67183999D01*
X166723549Y-59586349D02*
X166723549Y-67133199D01*
X166293800Y-59156600D02*
X166723549Y-59586349D01*
X160985200Y-59156600D02*
X166293800Y-59156600D01*
%TO.N,/D12*%
X155206451Y-58102251D02*
X154000200Y-56896000D01*
X163309549Y-58102251D02*
X155206451Y-58102251D01*
X163525200Y-57886600D02*
X163309549Y-58102251D01*
%TO.N,/D11*%
X156819600Y-56616600D02*
X156540200Y-56896000D01*
X160985200Y-56616600D02*
X156819600Y-56616600D01*
%TO.N,/D10*%
X163525200Y-55346600D02*
X166166800Y-55346600D01*
X168579800Y-57759600D02*
X168579800Y-60452000D01*
X166166800Y-55346600D02*
X168579800Y-57759600D01*
%TO.N,/D9*%
X168224200Y-54076600D02*
X168605200Y-54457600D01*
X160985200Y-54076600D02*
X168224200Y-54076600D01*
%TO.N,/D8*%
X163525200Y-52806600D02*
X165989000Y-52806600D01*
X165989000Y-52806600D02*
X166344600Y-52451000D01*
X166344600Y-52451000D02*
X166344600Y-44424600D01*
X166344600Y-44424600D02*
X164617400Y-42697400D01*
X156819600Y-42697400D02*
X154686000Y-40563800D01*
X164617400Y-42697400D02*
X156819600Y-42697400D01*
%TO.N,/D7*%
X160985200Y-51536600D02*
X163855400Y-51536600D01*
X163855400Y-51536600D02*
X164439600Y-52120800D01*
X164439600Y-52120800D02*
X165832090Y-50728310D01*
X165832090Y-44648690D02*
X164393310Y-43209910D01*
X165832090Y-50728310D02*
X165832090Y-44648690D01*
X164393310Y-43209910D02*
X156316110Y-43209910D01*
X156316110Y-43209910D02*
X155752800Y-42646600D01*
X155752800Y-42646600D02*
X153111200Y-42646600D01*
X151028400Y-40563800D02*
X148691600Y-40563800D01*
X153111200Y-42646600D02*
X151028400Y-40563800D01*
D18*
%TO.N,GND*%
X168529000Y-69469000D02*
X168529000Y-65811400D01*
X160553400Y-40640000D02*
X160528000Y-40614600D01*
X163703000Y-40640000D02*
X160553400Y-40640000D01*
X139700000Y-74295000D02*
X142900400Y-74295000D01*
%TD*%
D20*
%TO.N,GND*%
X137423290Y-72222886D02*
X137345506Y-72264463D01*
X137248815Y-72343815D01*
X137169463Y-72440506D01*
X137110498Y-72550820D01*
X137074188Y-72670518D01*
X137061928Y-72795000D01*
X137065000Y-74009250D01*
X137223750Y-74168000D01*
X139573000Y-74168000D01*
X139573000Y-74148000D01*
X139827000Y-74148000D01*
X139827000Y-74168000D01*
X142176250Y-74168000D01*
X142335000Y-74009250D01*
X142338072Y-72795000D01*
X142332940Y-72742889D01*
X147035762Y-72742889D01*
X147028128Y-72820400D01*
X147028128Y-75820400D01*
X147040388Y-75944882D01*
X147076698Y-76064580D01*
X147135663Y-76174894D01*
X147215015Y-76271585D01*
X147311706Y-76350937D01*
X147422020Y-76409902D01*
X147541718Y-76446212D01*
X147666200Y-76458472D01*
X149666200Y-76458472D01*
X149790682Y-76446212D01*
X149910380Y-76409902D01*
X150020694Y-76350937D01*
X150117385Y-76271585D01*
X150196737Y-76174894D01*
X150255702Y-76064580D01*
X150292012Y-75944882D01*
X150304272Y-75820400D01*
X150304272Y-73801325D01*
X150850198Y-73255399D01*
X153073328Y-73255399D01*
X153073328Y-75820400D01*
X153085588Y-75944882D01*
X153121898Y-76064580D01*
X153180863Y-76174894D01*
X153260215Y-76271585D01*
X153356906Y-76350937D01*
X153467220Y-76409902D01*
X153586918Y-76446212D01*
X153711400Y-76458472D01*
X155711400Y-76458472D01*
X155835882Y-76446212D01*
X155955580Y-76409902D01*
X156065894Y-76350937D01*
X156162585Y-76271585D01*
X156241937Y-76174894D01*
X156300902Y-76064580D01*
X156337212Y-75944882D01*
X156349472Y-75820400D01*
X156349472Y-75111650D01*
X158431744Y-75111650D01*
X158470600Y-75115477D01*
X158509456Y-75111650D01*
X158509467Y-75111650D01*
X158625712Y-75100201D01*
X158774863Y-75054956D01*
X158912322Y-74981483D01*
X159032805Y-74882605D01*
X159057583Y-74852413D01*
X159080302Y-74829694D01*
X159170480Y-74998405D01*
X159314587Y-75174000D01*
X157423965Y-75174000D01*
X157392286Y-75170880D01*
X157360607Y-75174000D01*
X157265844Y-75183333D01*
X157144261Y-75220215D01*
X157032210Y-75280108D01*
X156933996Y-75360710D01*
X156853394Y-75458924D01*
X156793501Y-75570975D01*
X156756619Y-75692558D01*
X156744166Y-75819000D01*
X156747286Y-75850678D01*
X156747287Y-76799000D01*
X146608715Y-76799000D01*
X146608715Y-75850678D01*
X146611835Y-75819000D01*
X146599382Y-75692558D01*
X146562500Y-75570975D01*
X146502607Y-75458924D01*
X146422005Y-75360710D01*
X146323791Y-75280108D01*
X146211740Y-75220215D01*
X146090157Y-75183333D01*
X145995394Y-75174000D01*
X145963715Y-75170880D01*
X145932036Y-75174000D01*
X142336501Y-75174000D01*
X142335000Y-74580750D01*
X142176250Y-74422000D01*
X139827000Y-74422000D01*
X139827000Y-74442000D01*
X139573000Y-74442000D01*
X139573000Y-74422000D01*
X137223750Y-74422000D01*
X137065000Y-74580750D01*
X137063499Y-75174000D01*
X136357200Y-75174000D01*
X136357200Y-72107072D01*
X136374000Y-72107072D01*
X136498482Y-72094812D01*
X136618180Y-72058502D01*
X136728494Y-71999537D01*
X136825185Y-71920185D01*
X136904537Y-71823494D01*
X136946114Y-71745710D01*
X137423290Y-72222886D01*
%TA.AperFunction,Conductor*%
D21*
G36*
X137423290Y-72222886D02*
G01*
X137345506Y-72264463D01*
X137248815Y-72343815D01*
X137169463Y-72440506D01*
X137110498Y-72550820D01*
X137074188Y-72670518D01*
X137061928Y-72795000D01*
X137065000Y-74009250D01*
X137223750Y-74168000D01*
X139573000Y-74168000D01*
X139573000Y-74148000D01*
X139827000Y-74148000D01*
X139827000Y-74168000D01*
X142176250Y-74168000D01*
X142335000Y-74009250D01*
X142338072Y-72795000D01*
X142332940Y-72742889D01*
X147035762Y-72742889D01*
X147028128Y-72820400D01*
X147028128Y-75820400D01*
X147040388Y-75944882D01*
X147076698Y-76064580D01*
X147135663Y-76174894D01*
X147215015Y-76271585D01*
X147311706Y-76350937D01*
X147422020Y-76409902D01*
X147541718Y-76446212D01*
X147666200Y-76458472D01*
X149666200Y-76458472D01*
X149790682Y-76446212D01*
X149910380Y-76409902D01*
X150020694Y-76350937D01*
X150117385Y-76271585D01*
X150196737Y-76174894D01*
X150255702Y-76064580D01*
X150292012Y-75944882D01*
X150304272Y-75820400D01*
X150304272Y-73801325D01*
X150850198Y-73255399D01*
X153073328Y-73255399D01*
X153073328Y-75820400D01*
X153085588Y-75944882D01*
X153121898Y-76064580D01*
X153180863Y-76174894D01*
X153260215Y-76271585D01*
X153356906Y-76350937D01*
X153467220Y-76409902D01*
X153586918Y-76446212D01*
X153711400Y-76458472D01*
X155711400Y-76458472D01*
X155835882Y-76446212D01*
X155955580Y-76409902D01*
X156065894Y-76350937D01*
X156162585Y-76271585D01*
X156241937Y-76174894D01*
X156300902Y-76064580D01*
X156337212Y-75944882D01*
X156349472Y-75820400D01*
X156349472Y-75111650D01*
X158431744Y-75111650D01*
X158470600Y-75115477D01*
X158509456Y-75111650D01*
X158509467Y-75111650D01*
X158625712Y-75100201D01*
X158774863Y-75054956D01*
X158912322Y-74981483D01*
X159032805Y-74882605D01*
X159057583Y-74852413D01*
X159080302Y-74829694D01*
X159170480Y-74998405D01*
X159314587Y-75174000D01*
X157423965Y-75174000D01*
X157392286Y-75170880D01*
X157360607Y-75174000D01*
X157265844Y-75183333D01*
X157144261Y-75220215D01*
X157032210Y-75280108D01*
X156933996Y-75360710D01*
X156853394Y-75458924D01*
X156793501Y-75570975D01*
X156756619Y-75692558D01*
X156744166Y-75819000D01*
X156747286Y-75850678D01*
X156747287Y-76799000D01*
X146608715Y-76799000D01*
X146608715Y-75850678D01*
X146611835Y-75819000D01*
X146599382Y-75692558D01*
X146562500Y-75570975D01*
X146502607Y-75458924D01*
X146422005Y-75360710D01*
X146323791Y-75280108D01*
X146211740Y-75220215D01*
X146090157Y-75183333D01*
X145995394Y-75174000D01*
X145963715Y-75170880D01*
X145932036Y-75174000D01*
X142336501Y-75174000D01*
X142335000Y-74580750D01*
X142176250Y-74422000D01*
X139827000Y-74422000D01*
X139827000Y-74442000D01*
X139573000Y-74442000D01*
X139573000Y-74422000D01*
X137223750Y-74422000D01*
X137065000Y-74580750D01*
X137063499Y-75174000D01*
X136357200Y-75174000D01*
X136357200Y-72107072D01*
X136374000Y-72107072D01*
X136498482Y-72094812D01*
X136618180Y-72058502D01*
X136728494Y-71999537D01*
X136825185Y-71920185D01*
X136904537Y-71823494D01*
X136946114Y-71745710D01*
X137423290Y-72222886D01*
G37*
%TD.AperFunction*%
D20*
X169417333Y-51856157D02*
X169454215Y-51977740D01*
X169514108Y-52089791D01*
X169594710Y-52188005D01*
X169692924Y-52268607D01*
X169804975Y-52328500D01*
X169926558Y-52365382D01*
X170021321Y-52374715D01*
X170053000Y-52377835D01*
X170084679Y-52374715D01*
X171033000Y-52374715D01*
X171033001Y-62513287D01*
X170109688Y-62513288D01*
X170109679Y-62513287D01*
X170084679Y-62513287D01*
X170053000Y-62510167D01*
X170021321Y-62513287D01*
X169926558Y-62522620D01*
X169804975Y-62559502D01*
X169692924Y-62619395D01*
X169594710Y-62699997D01*
X169514108Y-62798211D01*
X169454215Y-62910262D01*
X169417333Y-63031845D01*
X169404880Y-63158287D01*
X169408000Y-63189964D01*
X169408001Y-66832499D01*
X168814750Y-66834000D01*
X168656000Y-66992750D01*
X168656000Y-69342000D01*
X168676000Y-69342000D01*
X168676000Y-69596000D01*
X168656000Y-69596000D01*
X168656000Y-71945250D01*
X168814750Y-72104000D01*
X169408000Y-72105501D01*
X169408001Y-74588714D01*
X169389768Y-74403597D01*
X169317720Y-74166086D01*
X169200720Y-73947195D01*
X169043265Y-73755335D01*
X168851405Y-73597880D01*
X168632514Y-73480880D01*
X168395003Y-73408832D01*
X168325052Y-73401942D01*
X168403319Y-73255515D01*
X168475367Y-73018004D01*
X168499695Y-72771001D01*
X168475367Y-72523998D01*
X168403319Y-72286487D01*
X168286319Y-72067596D01*
X168283315Y-72063935D01*
X168402000Y-71945250D01*
X168402000Y-69596000D01*
X168382000Y-69596000D01*
X168382000Y-69342000D01*
X168402000Y-69342000D01*
X168402000Y-66992750D01*
X168243250Y-66834000D01*
X167514799Y-66832157D01*
X167514799Y-62090072D01*
X170079800Y-62090072D01*
X170204282Y-62077812D01*
X170323980Y-62041502D01*
X170434294Y-61982537D01*
X170530985Y-61903185D01*
X170610337Y-61806494D01*
X170669302Y-61696180D01*
X170705612Y-61576482D01*
X170717872Y-61452000D01*
X170717872Y-59452000D01*
X170705612Y-59327518D01*
X170669302Y-59207820D01*
X170610337Y-59097506D01*
X170530985Y-59000815D01*
X170434294Y-58921463D01*
X170323980Y-58862498D01*
X170204282Y-58826188D01*
X170079800Y-58813928D01*
X169371050Y-58813928D01*
X169371050Y-57798456D01*
X169374877Y-57759599D01*
X169371050Y-57720743D01*
X169371050Y-57720733D01*
X169359601Y-57604488D01*
X169314356Y-57455337D01*
X169267511Y-57367695D01*
X169240883Y-57317877D01*
X169166781Y-57227584D01*
X169166778Y-57227581D01*
X169142005Y-57197395D01*
X169111820Y-57172623D01*
X168034869Y-56095672D01*
X170105200Y-56095672D01*
X170229682Y-56083412D01*
X170349380Y-56047102D01*
X170459694Y-55988137D01*
X170556385Y-55908785D01*
X170635737Y-55812094D01*
X170694702Y-55701780D01*
X170731012Y-55582082D01*
X170743272Y-55457600D01*
X170743272Y-53457600D01*
X170731012Y-53333118D01*
X170694702Y-53213420D01*
X170635737Y-53103106D01*
X170556385Y-53006415D01*
X170459694Y-52927063D01*
X170349380Y-52868098D01*
X170229682Y-52831788D01*
X170105200Y-52819528D01*
X167105200Y-52819528D01*
X167041450Y-52825807D01*
X167079156Y-52755263D01*
X167124401Y-52606112D01*
X167135850Y-52489867D01*
X167135850Y-52489857D01*
X167139677Y-52451001D01*
X167135850Y-52412144D01*
X167135850Y-52173540D01*
X167201935Y-52254065D01*
X167393795Y-52411520D01*
X167612687Y-52528520D01*
X167850197Y-52600567D01*
X168097200Y-52624895D01*
X168344203Y-52600567D01*
X168581713Y-52528520D01*
X168800605Y-52411520D01*
X168944389Y-52293519D01*
X169414143Y-51823766D01*
X169417333Y-51856157D01*
%TA.AperFunction,Conductor*%
D21*
G36*
X169417333Y-51856157D02*
G01*
X169454215Y-51977740D01*
X169514108Y-52089791D01*
X169594710Y-52188005D01*
X169692924Y-52268607D01*
X169804975Y-52328500D01*
X169926558Y-52365382D01*
X170021321Y-52374715D01*
X170053000Y-52377835D01*
X170084679Y-52374715D01*
X171033000Y-52374715D01*
X171033001Y-62513287D01*
X170109688Y-62513288D01*
X170109679Y-62513287D01*
X170084679Y-62513287D01*
X170053000Y-62510167D01*
X170021321Y-62513287D01*
X169926558Y-62522620D01*
X169804975Y-62559502D01*
X169692924Y-62619395D01*
X169594710Y-62699997D01*
X169514108Y-62798211D01*
X169454215Y-62910262D01*
X169417333Y-63031845D01*
X169404880Y-63158287D01*
X169408000Y-63189964D01*
X169408001Y-66832499D01*
X168814750Y-66834000D01*
X168656000Y-66992750D01*
X168656000Y-69342000D01*
X168676000Y-69342000D01*
X168676000Y-69596000D01*
X168656000Y-69596000D01*
X168656000Y-71945250D01*
X168814750Y-72104000D01*
X169408000Y-72105501D01*
X169408001Y-74588714D01*
X169389768Y-74403597D01*
X169317720Y-74166086D01*
X169200720Y-73947195D01*
X169043265Y-73755335D01*
X168851405Y-73597880D01*
X168632514Y-73480880D01*
X168395003Y-73408832D01*
X168325052Y-73401942D01*
X168403319Y-73255515D01*
X168475367Y-73018004D01*
X168499695Y-72771001D01*
X168475367Y-72523998D01*
X168403319Y-72286487D01*
X168286319Y-72067596D01*
X168283315Y-72063935D01*
X168402000Y-71945250D01*
X168402000Y-69596000D01*
X168382000Y-69596000D01*
X168382000Y-69342000D01*
X168402000Y-69342000D01*
X168402000Y-66992750D01*
X168243250Y-66834000D01*
X167514799Y-66832157D01*
X167514799Y-62090072D01*
X170079800Y-62090072D01*
X170204282Y-62077812D01*
X170323980Y-62041502D01*
X170434294Y-61982537D01*
X170530985Y-61903185D01*
X170610337Y-61806494D01*
X170669302Y-61696180D01*
X170705612Y-61576482D01*
X170717872Y-61452000D01*
X170717872Y-59452000D01*
X170705612Y-59327518D01*
X170669302Y-59207820D01*
X170610337Y-59097506D01*
X170530985Y-59000815D01*
X170434294Y-58921463D01*
X170323980Y-58862498D01*
X170204282Y-58826188D01*
X170079800Y-58813928D01*
X169371050Y-58813928D01*
X169371050Y-57798456D01*
X169374877Y-57759599D01*
X169371050Y-57720743D01*
X169371050Y-57720733D01*
X169359601Y-57604488D01*
X169314356Y-57455337D01*
X169267511Y-57367695D01*
X169240883Y-57317877D01*
X169166781Y-57227584D01*
X169166778Y-57227581D01*
X169142005Y-57197395D01*
X169111820Y-57172623D01*
X168034869Y-56095672D01*
X170105200Y-56095672D01*
X170229682Y-56083412D01*
X170349380Y-56047102D01*
X170459694Y-55988137D01*
X170556385Y-55908785D01*
X170635737Y-55812094D01*
X170694702Y-55701780D01*
X170731012Y-55582082D01*
X170743272Y-55457600D01*
X170743272Y-53457600D01*
X170731012Y-53333118D01*
X170694702Y-53213420D01*
X170635737Y-53103106D01*
X170556385Y-53006415D01*
X170459694Y-52927063D01*
X170349380Y-52868098D01*
X170229682Y-52831788D01*
X170105200Y-52819528D01*
X167105200Y-52819528D01*
X167041450Y-52825807D01*
X167079156Y-52755263D01*
X167124401Y-52606112D01*
X167135850Y-52489867D01*
X167135850Y-52489857D01*
X167139677Y-52451001D01*
X167135850Y-52412144D01*
X167135850Y-52173540D01*
X167201935Y-52254065D01*
X167393795Y-52411520D01*
X167612687Y-52528520D01*
X167850197Y-52600567D01*
X168097200Y-52624895D01*
X168344203Y-52600567D01*
X168581713Y-52528520D01*
X168800605Y-52411520D01*
X168944389Y-52293519D01*
X169414143Y-51823766D01*
X169417333Y-51856157D01*
G37*
%TD.AperFunction*%
D20*
X156747287Y-39037312D02*
X156744166Y-39069001D01*
X156756619Y-39195443D01*
X156793501Y-39317026D01*
X156853394Y-39429077D01*
X156933996Y-39527291D01*
X157032210Y-39607893D01*
X157144261Y-39667786D01*
X157265844Y-39704668D01*
X157360607Y-39714001D01*
X157392286Y-39717121D01*
X157423965Y-39714001D01*
X161066380Y-39714001D01*
X161068000Y-40354250D01*
X161226750Y-40513000D01*
X163576000Y-40513000D01*
X163576000Y-40493000D01*
X163830000Y-40493000D01*
X163830000Y-40513000D01*
X163850000Y-40513000D01*
X163850000Y-40767000D01*
X163830000Y-40767000D01*
X163830000Y-40787000D01*
X163576000Y-40787000D01*
X163576000Y-40767000D01*
X161226750Y-40767000D01*
X161068000Y-40925750D01*
X161065520Y-41906150D01*
X157147347Y-41906150D01*
X156324072Y-41082875D01*
X156324072Y-39063800D01*
X156311812Y-38939318D01*
X156275502Y-38819620D01*
X156216537Y-38709306D01*
X156137185Y-38612615D01*
X156040494Y-38533263D01*
X155930180Y-38474298D01*
X155810482Y-38437988D01*
X155686000Y-38425728D01*
X153686000Y-38425728D01*
X153561518Y-38437988D01*
X153441820Y-38474298D01*
X153331506Y-38533263D01*
X153234815Y-38612615D01*
X153155463Y-38709306D01*
X153096498Y-38819620D01*
X153060188Y-38939318D01*
X153047928Y-39063800D01*
X153047928Y-41464331D01*
X151615383Y-40031787D01*
X151590605Y-40001595D01*
X151470122Y-39902717D01*
X151332663Y-39829244D01*
X151183512Y-39783999D01*
X151067267Y-39772550D01*
X151067256Y-39772550D01*
X151028400Y-39768723D01*
X150989544Y-39772550D01*
X150329672Y-39772550D01*
X150329672Y-39063800D01*
X150317412Y-38939318D01*
X150281102Y-38819620D01*
X150222137Y-38709306D01*
X150142785Y-38612615D01*
X150046094Y-38533263D01*
X149935780Y-38474298D01*
X149816082Y-38437988D01*
X149691600Y-38425728D01*
X147691600Y-38425728D01*
X147567118Y-38437988D01*
X147447420Y-38474298D01*
X147337106Y-38533263D01*
X147240415Y-38612615D01*
X147161063Y-38709306D01*
X147102098Y-38819620D01*
X147065788Y-38939318D01*
X147053528Y-39063800D01*
X147053528Y-42063800D01*
X147065788Y-42188282D01*
X147102098Y-42307980D01*
X147161063Y-42418294D01*
X147240415Y-42514985D01*
X147337106Y-42594337D01*
X147447420Y-42653302D01*
X147567118Y-42689612D01*
X147691600Y-42701872D01*
X149691600Y-42701872D01*
X149816082Y-42689612D01*
X149935780Y-42653302D01*
X150046094Y-42594337D01*
X150142785Y-42514985D01*
X150222137Y-42418294D01*
X150281102Y-42307980D01*
X150317412Y-42188282D01*
X150329672Y-42063800D01*
X150329672Y-41355050D01*
X150700654Y-41355050D01*
X152524222Y-43178619D01*
X152548995Y-43208805D01*
X152579181Y-43233578D01*
X152579184Y-43233581D01*
X152634529Y-43279001D01*
X152669478Y-43307683D01*
X152806937Y-43381156D01*
X152956088Y-43426401D01*
X153072333Y-43437850D01*
X153072343Y-43437850D01*
X153111199Y-43441677D01*
X153150056Y-43437850D01*
X155425054Y-43437850D01*
X155729127Y-43741923D01*
X155753905Y-43772115D01*
X155784095Y-43796891D01*
X155874388Y-43870993D01*
X156011847Y-43944466D01*
X156160998Y-43989711D01*
X156316110Y-44004988D01*
X156354977Y-44001160D01*
X164065564Y-44001160D01*
X165040841Y-44976438D01*
X165040840Y-50400563D01*
X164797625Y-50643779D01*
X164844059Y-50452621D01*
X164855008Y-50191751D01*
X164814854Y-49933756D01*
X164725139Y-49688553D01*
X164672479Y-49590033D01*
X164439680Y-49531725D01*
X163704805Y-50266600D01*
X163718948Y-50280743D01*
X163539343Y-50460348D01*
X163525200Y-50446205D01*
X163511058Y-50460348D01*
X163331453Y-50280743D01*
X163345595Y-50266600D01*
X162610720Y-49531725D01*
X162377921Y-49590033D01*
X162267973Y-49826857D01*
X162206341Y-50080579D01*
X162195392Y-50341449D01*
X162235546Y-50599444D01*
X162288930Y-50745350D01*
X162050669Y-50745350D01*
X162014783Y-50691643D01*
X161830157Y-50507017D01*
X161613060Y-50361957D01*
X161377648Y-50264446D01*
X161563247Y-50196539D01*
X161661767Y-50143879D01*
X161720075Y-49911080D01*
X160985200Y-49176205D01*
X160250325Y-49911080D01*
X160308633Y-50143879D01*
X160545457Y-50253827D01*
X160591429Y-50264994D01*
X160357340Y-50361957D01*
X160140243Y-50507017D01*
X159955617Y-50691643D01*
X159810557Y-50908740D01*
X159710638Y-51149966D01*
X159659700Y-51406050D01*
X159659700Y-51667150D01*
X159710638Y-51923234D01*
X159810557Y-52164460D01*
X159955617Y-52381557D01*
X160140243Y-52566183D01*
X160357340Y-52711243D01*
X160587552Y-52806600D01*
X160357340Y-52901957D01*
X160140243Y-53047017D01*
X159955617Y-53231643D01*
X159810557Y-53448740D01*
X159710638Y-53689966D01*
X159659700Y-53946050D01*
X159659700Y-54207150D01*
X159710638Y-54463234D01*
X159810557Y-54704460D01*
X159955617Y-54921557D01*
X160140243Y-55106183D01*
X160357340Y-55251243D01*
X160587552Y-55346600D01*
X160357340Y-55441957D01*
X160140243Y-55587017D01*
X159955617Y-55771643D01*
X159919731Y-55825350D01*
X157569657Y-55825350D01*
X157561820Y-55817513D01*
X157634380Y-55795502D01*
X157744694Y-55736537D01*
X157841385Y-55657185D01*
X157920737Y-55560494D01*
X157979702Y-55450180D01*
X158016012Y-55330482D01*
X158028272Y-55206000D01*
X158028272Y-53506000D01*
X158016012Y-53381518D01*
X157979702Y-53261820D01*
X157920737Y-53151506D01*
X157841385Y-53054815D01*
X157744694Y-52975463D01*
X157634380Y-52916498D01*
X157514682Y-52880188D01*
X157390200Y-52867928D01*
X155690200Y-52867928D01*
X155565718Y-52880188D01*
X155446020Y-52916498D01*
X155335706Y-52975463D01*
X155239015Y-53054815D01*
X155159663Y-53151506D01*
X155100698Y-53261820D01*
X155077702Y-53337626D01*
X154881555Y-53160822D01*
X154631452Y-53011843D01*
X154357091Y-52914519D01*
X154127200Y-53035186D01*
X154127200Y-54229000D01*
X154147200Y-54229000D01*
X154147200Y-54483000D01*
X154127200Y-54483000D01*
X154127200Y-54503000D01*
X153873200Y-54503000D01*
X153873200Y-54483000D01*
X152680045Y-54483000D01*
X152558724Y-54712890D01*
X152603375Y-54860099D01*
X152728559Y-55122920D01*
X152902612Y-55356269D01*
X153118845Y-55551178D01*
X153235734Y-55620805D01*
X153053568Y-55742525D01*
X152846725Y-55949368D01*
X152684210Y-56192589D01*
X152572268Y-56462842D01*
X152515200Y-56749740D01*
X152515200Y-57042260D01*
X152572268Y-57329158D01*
X152684210Y-57599411D01*
X152846725Y-57842632D01*
X153053568Y-58049475D01*
X153235734Y-58171195D01*
X153118845Y-58240822D01*
X152902612Y-58435731D01*
X152728559Y-58669080D01*
X152603375Y-58931901D01*
X152558724Y-59079110D01*
X152680045Y-59309000D01*
X153873200Y-59309000D01*
X153873200Y-59289000D01*
X154127200Y-59289000D01*
X154127200Y-59309000D01*
X154147200Y-59309000D01*
X154147200Y-59563000D01*
X154127200Y-59563000D01*
X154127200Y-60756814D01*
X154357091Y-60877481D01*
X154631452Y-60780157D01*
X154881555Y-60631178D01*
X155097788Y-60436269D01*
X155269100Y-60206594D01*
X155386725Y-60382632D01*
X155593568Y-60589475D01*
X155836789Y-60751990D01*
X156107042Y-60863932D01*
X156393940Y-60921000D01*
X156686460Y-60921000D01*
X156973358Y-60863932D01*
X157243611Y-60751990D01*
X157486832Y-60589475D01*
X157693675Y-60382632D01*
X157856190Y-60139411D01*
X157968132Y-59869158D01*
X158025200Y-59582260D01*
X158025200Y-59289740D01*
X157968132Y-59002842D01*
X157922842Y-58893501D01*
X159686065Y-58893501D01*
X159659700Y-59026050D01*
X159659700Y-59287150D01*
X159710638Y-59543234D01*
X159810557Y-59784460D01*
X159955617Y-60001557D01*
X160140243Y-60186183D01*
X160357340Y-60331243D01*
X160587552Y-60426600D01*
X160357340Y-60521957D01*
X160140243Y-60667017D01*
X159955617Y-60851643D01*
X159810557Y-61068740D01*
X159710638Y-61309966D01*
X159659700Y-61566050D01*
X159659700Y-61827150D01*
X159710638Y-62083234D01*
X159810557Y-62324460D01*
X159955617Y-62541557D01*
X160140243Y-62726183D01*
X160357340Y-62871243D01*
X160587552Y-62966600D01*
X160357340Y-63061957D01*
X160140243Y-63207017D01*
X159955617Y-63391643D01*
X159810557Y-63608740D01*
X159710638Y-63849966D01*
X159659700Y-64106050D01*
X159659700Y-64367150D01*
X159710638Y-64623234D01*
X159810557Y-64864460D01*
X159955617Y-65081557D01*
X160140243Y-65266183D01*
X160357340Y-65411243D01*
X160598566Y-65511162D01*
X160854650Y-65562100D01*
X161115750Y-65562100D01*
X161371834Y-65511162D01*
X161613060Y-65411243D01*
X161830157Y-65266183D01*
X162014783Y-65081557D01*
X162159843Y-64864460D01*
X162259762Y-64623234D01*
X162310700Y-64367150D01*
X162310700Y-64106050D01*
X162259762Y-63849966D01*
X162159843Y-63608740D01*
X162014783Y-63391643D01*
X161830157Y-63207017D01*
X161613060Y-63061957D01*
X161382848Y-62966600D01*
X161613060Y-62871243D01*
X161830157Y-62726183D01*
X162014783Y-62541557D01*
X162050669Y-62487850D01*
X162288794Y-62487850D01*
X162250638Y-62579966D01*
X162199700Y-62836050D01*
X162199700Y-63097150D01*
X162250638Y-63353234D01*
X162350557Y-63594460D01*
X162495617Y-63811557D01*
X162680243Y-63996183D01*
X162897340Y-64141243D01*
X163127552Y-64236600D01*
X162897340Y-64331957D01*
X162680243Y-64477017D01*
X162495617Y-64661643D01*
X162350557Y-64878740D01*
X162250638Y-65119966D01*
X162199700Y-65376050D01*
X162199700Y-65576972D01*
X162136482Y-65550786D01*
X161864073Y-65496600D01*
X161586327Y-65496600D01*
X161313918Y-65550786D01*
X161057315Y-65657075D01*
X160826378Y-65811382D01*
X160629982Y-66007778D01*
X160475675Y-66238715D01*
X160369386Y-66495318D01*
X160315200Y-66767727D01*
X160315200Y-67045473D01*
X160369386Y-67317882D01*
X160475675Y-67574485D01*
X160629982Y-67805422D01*
X160826378Y-68001818D01*
X161057315Y-68156125D01*
X161313918Y-68262414D01*
X161586327Y-68316600D01*
X161864073Y-68316600D01*
X162136482Y-68262414D01*
X162393085Y-68156125D01*
X162624022Y-68001818D01*
X162820418Y-67805422D01*
X162974725Y-67574485D01*
X163081014Y-67317882D01*
X163135200Y-67045473D01*
X163135200Y-66779768D01*
X163138566Y-66781162D01*
X163394650Y-66832100D01*
X163655750Y-66832100D01*
X163911834Y-66781162D01*
X164153060Y-66681243D01*
X164343969Y-66553681D01*
X164343970Y-69913330D01*
X159241497Y-69913332D01*
X159202621Y-69909503D01*
X159047509Y-69924780D01*
X158898358Y-69970025D01*
X158760899Y-70043498D01*
X158670606Y-70117600D01*
X158670602Y-70117604D01*
X158640416Y-70142377D01*
X158615643Y-70172563D01*
X158140327Y-70647879D01*
X147591744Y-70647879D01*
X148271729Y-70203622D01*
X149081601Y-69458083D01*
X149757716Y-68589410D01*
X150281630Y-67621301D01*
X150639054Y-66580162D01*
X150820237Y-65494392D01*
X150820237Y-64393610D01*
X150639054Y-63307840D01*
X150281630Y-62266701D01*
X150261769Y-62230000D01*
X151762207Y-62230000D01*
X151765400Y-62262419D01*
X151765401Y-67531571D01*
X151762207Y-67564000D01*
X151774950Y-67693383D01*
X151812690Y-67817793D01*
X151873975Y-67932450D01*
X151956452Y-68032948D01*
X152056950Y-68115425D01*
X152171607Y-68176710D01*
X152296017Y-68214450D01*
X152392981Y-68224000D01*
X152425400Y-68227193D01*
X152457819Y-68224000D01*
X157726981Y-68224000D01*
X157759400Y-68227193D01*
X157791819Y-68224000D01*
X157888783Y-68214450D01*
X158013193Y-68176710D01*
X158127850Y-68115425D01*
X158228348Y-68032948D01*
X158310825Y-67932450D01*
X158372110Y-67817793D01*
X158409850Y-67693383D01*
X158422593Y-67564000D01*
X158419400Y-67531581D01*
X158419400Y-62262419D01*
X158422593Y-62230000D01*
X158409850Y-62100617D01*
X158372110Y-61976207D01*
X158310825Y-61861550D01*
X158228348Y-61761052D01*
X158127850Y-61678575D01*
X158013193Y-61617290D01*
X157888783Y-61579550D01*
X157791819Y-61570000D01*
X157759400Y-61566807D01*
X157726981Y-61570000D01*
X152457819Y-61570000D01*
X152425400Y-61566807D01*
X152392981Y-61570000D01*
X152296017Y-61579550D01*
X152171607Y-61617290D01*
X152056950Y-61678575D01*
X151956452Y-61761052D01*
X151873975Y-61861550D01*
X151812690Y-61976207D01*
X151774950Y-62100617D01*
X151762207Y-62230000D01*
X150261769Y-62230000D01*
X149757716Y-61298592D01*
X149081601Y-60429919D01*
X148389603Y-59792890D01*
X152558724Y-59792890D01*
X152603375Y-59940099D01*
X152728559Y-60202920D01*
X152902612Y-60436269D01*
X153118845Y-60631178D01*
X153368948Y-60780157D01*
X153643309Y-60877481D01*
X153873200Y-60756814D01*
X153873200Y-59563000D01*
X152680045Y-59563000D01*
X152558724Y-59792890D01*
X148389603Y-59792890D01*
X148271729Y-59684380D01*
X147350190Y-59082308D01*
X146342123Y-58640129D01*
X145275024Y-58369903D01*
X144178001Y-58279001D01*
X143080978Y-58369903D01*
X142013879Y-58640129D01*
X141005812Y-59082308D01*
X140084273Y-59684380D01*
X139274401Y-60429919D01*
X138598286Y-61298592D01*
X138108160Y-62204266D01*
X138108160Y-59919514D01*
X138111987Y-59880657D01*
X138108160Y-59841801D01*
X138108160Y-59841791D01*
X138096711Y-59725546D01*
X138051466Y-59576395D01*
X137977993Y-59438936D01*
X137879115Y-59318453D01*
X137848929Y-59293680D01*
X135970050Y-57414802D01*
X135970050Y-56121072D01*
X136247000Y-56121072D01*
X136371482Y-56108812D01*
X136491180Y-56072502D01*
X136601494Y-56013537D01*
X136698185Y-55934185D01*
X136777537Y-55837494D01*
X136836502Y-55727180D01*
X136872812Y-55607482D01*
X136885072Y-55483000D01*
X136885072Y-53483000D01*
X136872812Y-53358518D01*
X136836502Y-53238820D01*
X136777537Y-53128506D01*
X136698185Y-53031815D01*
X136601494Y-52952463D01*
X136491180Y-52893498D01*
X136371482Y-52857188D01*
X136247000Y-52844928D01*
X133247000Y-52844928D01*
X133122518Y-52857188D01*
X133002820Y-52893498D01*
X132892506Y-52952463D01*
X132795815Y-53031815D01*
X132716463Y-53128506D01*
X132657498Y-53238820D01*
X132621188Y-53358518D01*
X132608928Y-53483000D01*
X132608928Y-55483000D01*
X132621188Y-55607482D01*
X132657498Y-55727180D01*
X132716463Y-55837494D01*
X132795815Y-55934185D01*
X132892506Y-56013537D01*
X133002820Y-56072502D01*
X133122518Y-56108812D01*
X133247000Y-56121072D01*
X134387551Y-56121072D01*
X134387550Y-57703691D01*
X134383723Y-57742548D01*
X134387550Y-57781404D01*
X134387550Y-57781414D01*
X134398999Y-57897659D01*
X134444244Y-58046810D01*
X134517717Y-58184269D01*
X134616595Y-58304753D01*
X134646787Y-58329531D01*
X135131184Y-58813928D01*
X133247000Y-58813928D01*
X133122518Y-58826188D01*
X133002820Y-58862498D01*
X132892506Y-58921463D01*
X132795815Y-59000815D01*
X132716463Y-59097506D01*
X132657498Y-59207820D01*
X132621188Y-59327518D01*
X132608928Y-59452000D01*
X132608928Y-61452000D01*
X132621188Y-61576482D01*
X132657498Y-61696180D01*
X132716463Y-61806494D01*
X132795815Y-61903185D01*
X132892506Y-61982537D01*
X133002820Y-62041502D01*
X133122518Y-62077812D01*
X133247000Y-62090072D01*
X135266075Y-62090072D01*
X136013151Y-62837148D01*
X136013151Y-63314443D01*
X135670389Y-62971681D01*
X135526605Y-62853680D01*
X135307713Y-62736680D01*
X135070203Y-62664633D01*
X134823200Y-62640305D01*
X134576197Y-62664633D01*
X134338687Y-62736680D01*
X134119795Y-62853680D01*
X133931499Y-63008210D01*
X133901786Y-62910261D01*
X133841893Y-62798210D01*
X133761291Y-62699996D01*
X133663077Y-62619394D01*
X133551026Y-62559501D01*
X133429443Y-62522619D01*
X133334680Y-62513286D01*
X133303001Y-62510166D01*
X133271322Y-62513286D01*
X132323001Y-62513286D01*
X132323001Y-52374715D01*
X133271322Y-52374715D01*
X133303001Y-52377835D01*
X133334680Y-52374715D01*
X133429443Y-52365382D01*
X133551026Y-52328500D01*
X133663077Y-52268607D01*
X133761291Y-52188005D01*
X133841893Y-52089791D01*
X133901786Y-51977740D01*
X133938668Y-51856157D01*
X133951121Y-51729715D01*
X133948001Y-51698036D01*
X133948001Y-49393610D01*
X137535765Y-49393610D01*
X137535765Y-50494392D01*
X137716948Y-51580162D01*
X138074372Y-52621301D01*
X138598286Y-53589410D01*
X139274401Y-54458083D01*
X140084273Y-55203622D01*
X141005812Y-55805694D01*
X142013879Y-56247873D01*
X143080978Y-56518099D01*
X144178001Y-56609001D01*
X145275024Y-56518099D01*
X146342123Y-56247873D01*
X147350190Y-55805694D01*
X148271729Y-55203622D01*
X149081601Y-54458083D01*
X149438833Y-53999110D01*
X152558724Y-53999110D01*
X152680045Y-54229000D01*
X153873200Y-54229000D01*
X153873200Y-53035186D01*
X153643309Y-52914519D01*
X153368948Y-53011843D01*
X153118845Y-53160822D01*
X152902612Y-53355731D01*
X152728559Y-53589080D01*
X152603375Y-53851901D01*
X152558724Y-53999110D01*
X149438833Y-53999110D01*
X149757716Y-53589410D01*
X150281630Y-52621301D01*
X150639054Y-51580162D01*
X150820237Y-50494392D01*
X150820237Y-49393610D01*
X150639054Y-48307840D01*
X150281630Y-47266701D01*
X149856972Y-46482000D01*
X151762207Y-46482000D01*
X151765400Y-46514419D01*
X151765401Y-51529571D01*
X151762207Y-51562000D01*
X151774950Y-51691383D01*
X151812690Y-51815793D01*
X151873975Y-51930450D01*
X151956452Y-52030948D01*
X152056950Y-52113425D01*
X152171607Y-52174710D01*
X152296017Y-52212450D01*
X152392981Y-52222000D01*
X152425400Y-52225193D01*
X152457819Y-52222000D01*
X157726981Y-52222000D01*
X157759400Y-52225193D01*
X157791819Y-52222000D01*
X157888783Y-52212450D01*
X158013193Y-52174710D01*
X158127850Y-52113425D01*
X158228348Y-52030948D01*
X158310825Y-51930450D01*
X158372110Y-51815793D01*
X158409850Y-51691383D01*
X158422593Y-51562000D01*
X158419400Y-51529581D01*
X158419400Y-49071449D01*
X159655392Y-49071449D01*
X159695546Y-49329444D01*
X159785261Y-49574647D01*
X159837921Y-49673167D01*
X160070720Y-49731475D01*
X160805595Y-48996600D01*
X161164805Y-48996600D01*
X161899680Y-49731475D01*
X162132479Y-49673167D01*
X162242427Y-49436343D01*
X162262885Y-49352120D01*
X162790325Y-49352120D01*
X163525200Y-50086995D01*
X164260075Y-49352120D01*
X164201767Y-49119321D01*
X163964943Y-49009373D01*
X163711221Y-48947741D01*
X163450351Y-48936792D01*
X163192356Y-48976946D01*
X162947153Y-49066661D01*
X162848633Y-49119321D01*
X162790325Y-49352120D01*
X162262885Y-49352120D01*
X162304059Y-49182621D01*
X162315008Y-48921751D01*
X162274854Y-48663756D01*
X162185139Y-48418553D01*
X162132479Y-48320033D01*
X161899680Y-48261725D01*
X161164805Y-48996600D01*
X160805595Y-48996600D01*
X160070720Y-48261725D01*
X159837921Y-48320033D01*
X159727973Y-48556857D01*
X159666341Y-48810579D01*
X159655392Y-49071449D01*
X158419400Y-49071449D01*
X158419400Y-48082120D01*
X160250325Y-48082120D01*
X160985200Y-48816995D01*
X161720075Y-48082120D01*
X161661767Y-47849321D01*
X161424943Y-47739373D01*
X161171221Y-47677741D01*
X160910351Y-47666792D01*
X160652356Y-47706946D01*
X160407153Y-47796661D01*
X160308633Y-47849321D01*
X160250325Y-48082120D01*
X158419400Y-48082120D01*
X158419400Y-46514419D01*
X158422593Y-46482000D01*
X158409850Y-46352617D01*
X158372110Y-46228207D01*
X158310825Y-46113550D01*
X158228348Y-46013052D01*
X158127850Y-45930575D01*
X158013193Y-45869290D01*
X157888783Y-45831550D01*
X157791819Y-45822000D01*
X157759400Y-45818807D01*
X157726981Y-45822000D01*
X152457819Y-45822000D01*
X152425400Y-45818807D01*
X152392981Y-45822000D01*
X152296017Y-45831550D01*
X152171607Y-45869290D01*
X152056950Y-45930575D01*
X151956452Y-46013052D01*
X151873975Y-46113550D01*
X151812690Y-46228207D01*
X151774950Y-46352617D01*
X151762207Y-46482000D01*
X149856972Y-46482000D01*
X149757716Y-46298592D01*
X149081601Y-45429919D01*
X148271729Y-44684380D01*
X147350190Y-44082308D01*
X146342123Y-43640129D01*
X145275024Y-43369903D01*
X144178001Y-43279001D01*
X143080978Y-43369903D01*
X142013879Y-43640129D01*
X141005812Y-44082308D01*
X140084273Y-44684380D01*
X139274401Y-45429919D01*
X138598286Y-46298592D01*
X138074372Y-47266701D01*
X137716948Y-48307840D01*
X137535765Y-49393610D01*
X133948001Y-49393610D01*
X133948001Y-48102620D01*
X134588250Y-48101000D01*
X134747000Y-47942250D01*
X134747000Y-45593000D01*
X135001000Y-45593000D01*
X135001000Y-47942250D01*
X135159750Y-48101000D01*
X136374000Y-48104072D01*
X136498482Y-48091812D01*
X136618180Y-48055502D01*
X136728494Y-47996537D01*
X136825185Y-47917185D01*
X136904537Y-47820494D01*
X136963502Y-47710180D01*
X136999812Y-47590482D01*
X137012072Y-47466000D01*
X137009000Y-45751750D01*
X136850250Y-45593000D01*
X135001000Y-45593000D01*
X134747000Y-45593000D01*
X134727000Y-45593000D01*
X134727000Y-45339000D01*
X134747000Y-45339000D01*
X134747000Y-42989750D01*
X135001000Y-42989750D01*
X135001000Y-45339000D01*
X136850250Y-45339000D01*
X137009000Y-45180250D01*
X137012072Y-43466000D01*
X136999812Y-43341518D01*
X136963502Y-43221820D01*
X136904537Y-43111506D01*
X136825185Y-43014815D01*
X136728494Y-42935463D01*
X136618180Y-42876498D01*
X136498482Y-42840188D01*
X136374000Y-42827928D01*
X135159750Y-42831000D01*
X135001000Y-42989750D01*
X134747000Y-42989750D01*
X134588250Y-42831000D01*
X133948001Y-42829380D01*
X133948001Y-39714001D01*
X135641785Y-39714001D01*
X135604335Y-39744735D01*
X135446880Y-39936595D01*
X135329880Y-40155486D01*
X135257832Y-40392997D01*
X135233504Y-40640000D01*
X135257832Y-40887003D01*
X135329880Y-41124514D01*
X135446880Y-41343405D01*
X135604335Y-41535265D01*
X135796195Y-41692720D01*
X136015086Y-41809720D01*
X136252597Y-41881768D01*
X136437707Y-41900000D01*
X137061928Y-41900000D01*
X137061928Y-42140000D01*
X137074188Y-42264482D01*
X137110498Y-42384180D01*
X137169463Y-42494494D01*
X137248815Y-42591185D01*
X137345506Y-42670537D01*
X137455820Y-42729502D01*
X137575518Y-42765812D01*
X137700000Y-42778072D01*
X141700000Y-42778072D01*
X141824482Y-42765812D01*
X141944180Y-42729502D01*
X142054494Y-42670537D01*
X142151185Y-42591185D01*
X142164479Y-42574987D01*
X142459611Y-42870119D01*
X142603396Y-42988120D01*
X142822286Y-43105120D01*
X143059797Y-43177168D01*
X143306800Y-43201496D01*
X143553803Y-43177168D01*
X143791314Y-43105120D01*
X144010205Y-42988120D01*
X144202065Y-42830665D01*
X144359520Y-42638805D01*
X144476520Y-42419914D01*
X144548568Y-42182403D01*
X144572896Y-41935400D01*
X144548568Y-41688397D01*
X144476520Y-41450886D01*
X144359520Y-41231996D01*
X144241519Y-41088211D01*
X144110808Y-40957500D01*
X144190719Y-40877589D01*
X144308720Y-40733804D01*
X144425720Y-40514914D01*
X144497768Y-40277403D01*
X144522096Y-40030400D01*
X144497768Y-39783397D01*
X144476717Y-39714001D01*
X145932037Y-39714001D01*
X145963716Y-39717121D01*
X145995395Y-39714001D01*
X146090158Y-39704668D01*
X146211741Y-39667786D01*
X146323792Y-39607893D01*
X146422006Y-39527291D01*
X146502608Y-39429077D01*
X146562501Y-39317026D01*
X146599383Y-39195443D01*
X146611836Y-39069001D01*
X146608716Y-39037322D01*
X146608716Y-38089001D01*
X156747286Y-38089001D01*
X156747287Y-39037312D01*
%TA.AperFunction,Conductor*%
D21*
G36*
X156747287Y-39037312D02*
G01*
X156744166Y-39069001D01*
X156756619Y-39195443D01*
X156793501Y-39317026D01*
X156853394Y-39429077D01*
X156933996Y-39527291D01*
X157032210Y-39607893D01*
X157144261Y-39667786D01*
X157265844Y-39704668D01*
X157360607Y-39714001D01*
X157392286Y-39717121D01*
X157423965Y-39714001D01*
X161066380Y-39714001D01*
X161068000Y-40354250D01*
X161226750Y-40513000D01*
X163576000Y-40513000D01*
X163576000Y-40493000D01*
X163830000Y-40493000D01*
X163830000Y-40513000D01*
X163850000Y-40513000D01*
X163850000Y-40767000D01*
X163830000Y-40767000D01*
X163830000Y-40787000D01*
X163576000Y-40787000D01*
X163576000Y-40767000D01*
X161226750Y-40767000D01*
X161068000Y-40925750D01*
X161065520Y-41906150D01*
X157147347Y-41906150D01*
X156324072Y-41082875D01*
X156324072Y-39063800D01*
X156311812Y-38939318D01*
X156275502Y-38819620D01*
X156216537Y-38709306D01*
X156137185Y-38612615D01*
X156040494Y-38533263D01*
X155930180Y-38474298D01*
X155810482Y-38437988D01*
X155686000Y-38425728D01*
X153686000Y-38425728D01*
X153561518Y-38437988D01*
X153441820Y-38474298D01*
X153331506Y-38533263D01*
X153234815Y-38612615D01*
X153155463Y-38709306D01*
X153096498Y-38819620D01*
X153060188Y-38939318D01*
X153047928Y-39063800D01*
X153047928Y-41464331D01*
X151615383Y-40031787D01*
X151590605Y-40001595D01*
X151470122Y-39902717D01*
X151332663Y-39829244D01*
X151183512Y-39783999D01*
X151067267Y-39772550D01*
X151067256Y-39772550D01*
X151028400Y-39768723D01*
X150989544Y-39772550D01*
X150329672Y-39772550D01*
X150329672Y-39063800D01*
X150317412Y-38939318D01*
X150281102Y-38819620D01*
X150222137Y-38709306D01*
X150142785Y-38612615D01*
X150046094Y-38533263D01*
X149935780Y-38474298D01*
X149816082Y-38437988D01*
X149691600Y-38425728D01*
X147691600Y-38425728D01*
X147567118Y-38437988D01*
X147447420Y-38474298D01*
X147337106Y-38533263D01*
X147240415Y-38612615D01*
X147161063Y-38709306D01*
X147102098Y-38819620D01*
X147065788Y-38939318D01*
X147053528Y-39063800D01*
X147053528Y-42063800D01*
X147065788Y-42188282D01*
X147102098Y-42307980D01*
X147161063Y-42418294D01*
X147240415Y-42514985D01*
X147337106Y-42594337D01*
X147447420Y-42653302D01*
X147567118Y-42689612D01*
X147691600Y-42701872D01*
X149691600Y-42701872D01*
X149816082Y-42689612D01*
X149935780Y-42653302D01*
X150046094Y-42594337D01*
X150142785Y-42514985D01*
X150222137Y-42418294D01*
X150281102Y-42307980D01*
X150317412Y-42188282D01*
X150329672Y-42063800D01*
X150329672Y-41355050D01*
X150700654Y-41355050D01*
X152524222Y-43178619D01*
X152548995Y-43208805D01*
X152579181Y-43233578D01*
X152579184Y-43233581D01*
X152634529Y-43279001D01*
X152669478Y-43307683D01*
X152806937Y-43381156D01*
X152956088Y-43426401D01*
X153072333Y-43437850D01*
X153072343Y-43437850D01*
X153111199Y-43441677D01*
X153150056Y-43437850D01*
X155425054Y-43437850D01*
X155729127Y-43741923D01*
X155753905Y-43772115D01*
X155784095Y-43796891D01*
X155874388Y-43870993D01*
X156011847Y-43944466D01*
X156160998Y-43989711D01*
X156316110Y-44004988D01*
X156354977Y-44001160D01*
X164065564Y-44001160D01*
X165040841Y-44976438D01*
X165040840Y-50400563D01*
X164797625Y-50643779D01*
X164844059Y-50452621D01*
X164855008Y-50191751D01*
X164814854Y-49933756D01*
X164725139Y-49688553D01*
X164672479Y-49590033D01*
X164439680Y-49531725D01*
X163704805Y-50266600D01*
X163718948Y-50280743D01*
X163539343Y-50460348D01*
X163525200Y-50446205D01*
X163511058Y-50460348D01*
X163331453Y-50280743D01*
X163345595Y-50266600D01*
X162610720Y-49531725D01*
X162377921Y-49590033D01*
X162267973Y-49826857D01*
X162206341Y-50080579D01*
X162195392Y-50341449D01*
X162235546Y-50599444D01*
X162288930Y-50745350D01*
X162050669Y-50745350D01*
X162014783Y-50691643D01*
X161830157Y-50507017D01*
X161613060Y-50361957D01*
X161377648Y-50264446D01*
X161563247Y-50196539D01*
X161661767Y-50143879D01*
X161720075Y-49911080D01*
X160985200Y-49176205D01*
X160250325Y-49911080D01*
X160308633Y-50143879D01*
X160545457Y-50253827D01*
X160591429Y-50264994D01*
X160357340Y-50361957D01*
X160140243Y-50507017D01*
X159955617Y-50691643D01*
X159810557Y-50908740D01*
X159710638Y-51149966D01*
X159659700Y-51406050D01*
X159659700Y-51667150D01*
X159710638Y-51923234D01*
X159810557Y-52164460D01*
X159955617Y-52381557D01*
X160140243Y-52566183D01*
X160357340Y-52711243D01*
X160587552Y-52806600D01*
X160357340Y-52901957D01*
X160140243Y-53047017D01*
X159955617Y-53231643D01*
X159810557Y-53448740D01*
X159710638Y-53689966D01*
X159659700Y-53946050D01*
X159659700Y-54207150D01*
X159710638Y-54463234D01*
X159810557Y-54704460D01*
X159955617Y-54921557D01*
X160140243Y-55106183D01*
X160357340Y-55251243D01*
X160587552Y-55346600D01*
X160357340Y-55441957D01*
X160140243Y-55587017D01*
X159955617Y-55771643D01*
X159919731Y-55825350D01*
X157569657Y-55825350D01*
X157561820Y-55817513D01*
X157634380Y-55795502D01*
X157744694Y-55736537D01*
X157841385Y-55657185D01*
X157920737Y-55560494D01*
X157979702Y-55450180D01*
X158016012Y-55330482D01*
X158028272Y-55206000D01*
X158028272Y-53506000D01*
X158016012Y-53381518D01*
X157979702Y-53261820D01*
X157920737Y-53151506D01*
X157841385Y-53054815D01*
X157744694Y-52975463D01*
X157634380Y-52916498D01*
X157514682Y-52880188D01*
X157390200Y-52867928D01*
X155690200Y-52867928D01*
X155565718Y-52880188D01*
X155446020Y-52916498D01*
X155335706Y-52975463D01*
X155239015Y-53054815D01*
X155159663Y-53151506D01*
X155100698Y-53261820D01*
X155077702Y-53337626D01*
X154881555Y-53160822D01*
X154631452Y-53011843D01*
X154357091Y-52914519D01*
X154127200Y-53035186D01*
X154127200Y-54229000D01*
X154147200Y-54229000D01*
X154147200Y-54483000D01*
X154127200Y-54483000D01*
X154127200Y-54503000D01*
X153873200Y-54503000D01*
X153873200Y-54483000D01*
X152680045Y-54483000D01*
X152558724Y-54712890D01*
X152603375Y-54860099D01*
X152728559Y-55122920D01*
X152902612Y-55356269D01*
X153118845Y-55551178D01*
X153235734Y-55620805D01*
X153053568Y-55742525D01*
X152846725Y-55949368D01*
X152684210Y-56192589D01*
X152572268Y-56462842D01*
X152515200Y-56749740D01*
X152515200Y-57042260D01*
X152572268Y-57329158D01*
X152684210Y-57599411D01*
X152846725Y-57842632D01*
X153053568Y-58049475D01*
X153235734Y-58171195D01*
X153118845Y-58240822D01*
X152902612Y-58435731D01*
X152728559Y-58669080D01*
X152603375Y-58931901D01*
X152558724Y-59079110D01*
X152680045Y-59309000D01*
X153873200Y-59309000D01*
X153873200Y-59289000D01*
X154127200Y-59289000D01*
X154127200Y-59309000D01*
X154147200Y-59309000D01*
X154147200Y-59563000D01*
X154127200Y-59563000D01*
X154127200Y-60756814D01*
X154357091Y-60877481D01*
X154631452Y-60780157D01*
X154881555Y-60631178D01*
X155097788Y-60436269D01*
X155269100Y-60206594D01*
X155386725Y-60382632D01*
X155593568Y-60589475D01*
X155836789Y-60751990D01*
X156107042Y-60863932D01*
X156393940Y-60921000D01*
X156686460Y-60921000D01*
X156973358Y-60863932D01*
X157243611Y-60751990D01*
X157486832Y-60589475D01*
X157693675Y-60382632D01*
X157856190Y-60139411D01*
X157968132Y-59869158D01*
X158025200Y-59582260D01*
X158025200Y-59289740D01*
X157968132Y-59002842D01*
X157922842Y-58893501D01*
X159686065Y-58893501D01*
X159659700Y-59026050D01*
X159659700Y-59287150D01*
X159710638Y-59543234D01*
X159810557Y-59784460D01*
X159955617Y-60001557D01*
X160140243Y-60186183D01*
X160357340Y-60331243D01*
X160587552Y-60426600D01*
X160357340Y-60521957D01*
X160140243Y-60667017D01*
X159955617Y-60851643D01*
X159810557Y-61068740D01*
X159710638Y-61309966D01*
X159659700Y-61566050D01*
X159659700Y-61827150D01*
X159710638Y-62083234D01*
X159810557Y-62324460D01*
X159955617Y-62541557D01*
X160140243Y-62726183D01*
X160357340Y-62871243D01*
X160587552Y-62966600D01*
X160357340Y-63061957D01*
X160140243Y-63207017D01*
X159955617Y-63391643D01*
X159810557Y-63608740D01*
X159710638Y-63849966D01*
X159659700Y-64106050D01*
X159659700Y-64367150D01*
X159710638Y-64623234D01*
X159810557Y-64864460D01*
X159955617Y-65081557D01*
X160140243Y-65266183D01*
X160357340Y-65411243D01*
X160598566Y-65511162D01*
X160854650Y-65562100D01*
X161115750Y-65562100D01*
X161371834Y-65511162D01*
X161613060Y-65411243D01*
X161830157Y-65266183D01*
X162014783Y-65081557D01*
X162159843Y-64864460D01*
X162259762Y-64623234D01*
X162310700Y-64367150D01*
X162310700Y-64106050D01*
X162259762Y-63849966D01*
X162159843Y-63608740D01*
X162014783Y-63391643D01*
X161830157Y-63207017D01*
X161613060Y-63061957D01*
X161382848Y-62966600D01*
X161613060Y-62871243D01*
X161830157Y-62726183D01*
X162014783Y-62541557D01*
X162050669Y-62487850D01*
X162288794Y-62487850D01*
X162250638Y-62579966D01*
X162199700Y-62836050D01*
X162199700Y-63097150D01*
X162250638Y-63353234D01*
X162350557Y-63594460D01*
X162495617Y-63811557D01*
X162680243Y-63996183D01*
X162897340Y-64141243D01*
X163127552Y-64236600D01*
X162897340Y-64331957D01*
X162680243Y-64477017D01*
X162495617Y-64661643D01*
X162350557Y-64878740D01*
X162250638Y-65119966D01*
X162199700Y-65376050D01*
X162199700Y-65576972D01*
X162136482Y-65550786D01*
X161864073Y-65496600D01*
X161586327Y-65496600D01*
X161313918Y-65550786D01*
X161057315Y-65657075D01*
X160826378Y-65811382D01*
X160629982Y-66007778D01*
X160475675Y-66238715D01*
X160369386Y-66495318D01*
X160315200Y-66767727D01*
X160315200Y-67045473D01*
X160369386Y-67317882D01*
X160475675Y-67574485D01*
X160629982Y-67805422D01*
X160826378Y-68001818D01*
X161057315Y-68156125D01*
X161313918Y-68262414D01*
X161586327Y-68316600D01*
X161864073Y-68316600D01*
X162136482Y-68262414D01*
X162393085Y-68156125D01*
X162624022Y-68001818D01*
X162820418Y-67805422D01*
X162974725Y-67574485D01*
X163081014Y-67317882D01*
X163135200Y-67045473D01*
X163135200Y-66779768D01*
X163138566Y-66781162D01*
X163394650Y-66832100D01*
X163655750Y-66832100D01*
X163911834Y-66781162D01*
X164153060Y-66681243D01*
X164343969Y-66553681D01*
X164343970Y-69913330D01*
X159241497Y-69913332D01*
X159202621Y-69909503D01*
X159047509Y-69924780D01*
X158898358Y-69970025D01*
X158760899Y-70043498D01*
X158670606Y-70117600D01*
X158670602Y-70117604D01*
X158640416Y-70142377D01*
X158615643Y-70172563D01*
X158140327Y-70647879D01*
X147591744Y-70647879D01*
X148271729Y-70203622D01*
X149081601Y-69458083D01*
X149757716Y-68589410D01*
X150281630Y-67621301D01*
X150639054Y-66580162D01*
X150820237Y-65494392D01*
X150820237Y-64393610D01*
X150639054Y-63307840D01*
X150281630Y-62266701D01*
X150261769Y-62230000D01*
X151762207Y-62230000D01*
X151765400Y-62262419D01*
X151765401Y-67531571D01*
X151762207Y-67564000D01*
X151774950Y-67693383D01*
X151812690Y-67817793D01*
X151873975Y-67932450D01*
X151956452Y-68032948D01*
X152056950Y-68115425D01*
X152171607Y-68176710D01*
X152296017Y-68214450D01*
X152392981Y-68224000D01*
X152425400Y-68227193D01*
X152457819Y-68224000D01*
X157726981Y-68224000D01*
X157759400Y-68227193D01*
X157791819Y-68224000D01*
X157888783Y-68214450D01*
X158013193Y-68176710D01*
X158127850Y-68115425D01*
X158228348Y-68032948D01*
X158310825Y-67932450D01*
X158372110Y-67817793D01*
X158409850Y-67693383D01*
X158422593Y-67564000D01*
X158419400Y-67531581D01*
X158419400Y-62262419D01*
X158422593Y-62230000D01*
X158409850Y-62100617D01*
X158372110Y-61976207D01*
X158310825Y-61861550D01*
X158228348Y-61761052D01*
X158127850Y-61678575D01*
X158013193Y-61617290D01*
X157888783Y-61579550D01*
X157791819Y-61570000D01*
X157759400Y-61566807D01*
X157726981Y-61570000D01*
X152457819Y-61570000D01*
X152425400Y-61566807D01*
X152392981Y-61570000D01*
X152296017Y-61579550D01*
X152171607Y-61617290D01*
X152056950Y-61678575D01*
X151956452Y-61761052D01*
X151873975Y-61861550D01*
X151812690Y-61976207D01*
X151774950Y-62100617D01*
X151762207Y-62230000D01*
X150261769Y-62230000D01*
X149757716Y-61298592D01*
X149081601Y-60429919D01*
X148389603Y-59792890D01*
X152558724Y-59792890D01*
X152603375Y-59940099D01*
X152728559Y-60202920D01*
X152902612Y-60436269D01*
X153118845Y-60631178D01*
X153368948Y-60780157D01*
X153643309Y-60877481D01*
X153873200Y-60756814D01*
X153873200Y-59563000D01*
X152680045Y-59563000D01*
X152558724Y-59792890D01*
X148389603Y-59792890D01*
X148271729Y-59684380D01*
X147350190Y-59082308D01*
X146342123Y-58640129D01*
X145275024Y-58369903D01*
X144178001Y-58279001D01*
X143080978Y-58369903D01*
X142013879Y-58640129D01*
X141005812Y-59082308D01*
X140084273Y-59684380D01*
X139274401Y-60429919D01*
X138598286Y-61298592D01*
X138108160Y-62204266D01*
X138108160Y-59919514D01*
X138111987Y-59880657D01*
X138108160Y-59841801D01*
X138108160Y-59841791D01*
X138096711Y-59725546D01*
X138051466Y-59576395D01*
X137977993Y-59438936D01*
X137879115Y-59318453D01*
X137848929Y-59293680D01*
X135970050Y-57414802D01*
X135970050Y-56121072D01*
X136247000Y-56121072D01*
X136371482Y-56108812D01*
X136491180Y-56072502D01*
X136601494Y-56013537D01*
X136698185Y-55934185D01*
X136777537Y-55837494D01*
X136836502Y-55727180D01*
X136872812Y-55607482D01*
X136885072Y-55483000D01*
X136885072Y-53483000D01*
X136872812Y-53358518D01*
X136836502Y-53238820D01*
X136777537Y-53128506D01*
X136698185Y-53031815D01*
X136601494Y-52952463D01*
X136491180Y-52893498D01*
X136371482Y-52857188D01*
X136247000Y-52844928D01*
X133247000Y-52844928D01*
X133122518Y-52857188D01*
X133002820Y-52893498D01*
X132892506Y-52952463D01*
X132795815Y-53031815D01*
X132716463Y-53128506D01*
X132657498Y-53238820D01*
X132621188Y-53358518D01*
X132608928Y-53483000D01*
X132608928Y-55483000D01*
X132621188Y-55607482D01*
X132657498Y-55727180D01*
X132716463Y-55837494D01*
X132795815Y-55934185D01*
X132892506Y-56013537D01*
X133002820Y-56072502D01*
X133122518Y-56108812D01*
X133247000Y-56121072D01*
X134387551Y-56121072D01*
X134387550Y-57703691D01*
X134383723Y-57742548D01*
X134387550Y-57781404D01*
X134387550Y-57781414D01*
X134398999Y-57897659D01*
X134444244Y-58046810D01*
X134517717Y-58184269D01*
X134616595Y-58304753D01*
X134646787Y-58329531D01*
X135131184Y-58813928D01*
X133247000Y-58813928D01*
X133122518Y-58826188D01*
X133002820Y-58862498D01*
X132892506Y-58921463D01*
X132795815Y-59000815D01*
X132716463Y-59097506D01*
X132657498Y-59207820D01*
X132621188Y-59327518D01*
X132608928Y-59452000D01*
X132608928Y-61452000D01*
X132621188Y-61576482D01*
X132657498Y-61696180D01*
X132716463Y-61806494D01*
X132795815Y-61903185D01*
X132892506Y-61982537D01*
X133002820Y-62041502D01*
X133122518Y-62077812D01*
X133247000Y-62090072D01*
X135266075Y-62090072D01*
X136013151Y-62837148D01*
X136013151Y-63314443D01*
X135670389Y-62971681D01*
X135526605Y-62853680D01*
X135307713Y-62736680D01*
X135070203Y-62664633D01*
X134823200Y-62640305D01*
X134576197Y-62664633D01*
X134338687Y-62736680D01*
X134119795Y-62853680D01*
X133931499Y-63008210D01*
X133901786Y-62910261D01*
X133841893Y-62798210D01*
X133761291Y-62699996D01*
X133663077Y-62619394D01*
X133551026Y-62559501D01*
X133429443Y-62522619D01*
X133334680Y-62513286D01*
X133303001Y-62510166D01*
X133271322Y-62513286D01*
X132323001Y-62513286D01*
X132323001Y-52374715D01*
X133271322Y-52374715D01*
X133303001Y-52377835D01*
X133334680Y-52374715D01*
X133429443Y-52365382D01*
X133551026Y-52328500D01*
X133663077Y-52268607D01*
X133761291Y-52188005D01*
X133841893Y-52089791D01*
X133901786Y-51977740D01*
X133938668Y-51856157D01*
X133951121Y-51729715D01*
X133948001Y-51698036D01*
X133948001Y-49393610D01*
X137535765Y-49393610D01*
X137535765Y-50494392D01*
X137716948Y-51580162D01*
X138074372Y-52621301D01*
X138598286Y-53589410D01*
X139274401Y-54458083D01*
X140084273Y-55203622D01*
X141005812Y-55805694D01*
X142013879Y-56247873D01*
X143080978Y-56518099D01*
X144178001Y-56609001D01*
X145275024Y-56518099D01*
X146342123Y-56247873D01*
X147350190Y-55805694D01*
X148271729Y-55203622D01*
X149081601Y-54458083D01*
X149438833Y-53999110D01*
X152558724Y-53999110D01*
X152680045Y-54229000D01*
X153873200Y-54229000D01*
X153873200Y-53035186D01*
X153643309Y-52914519D01*
X153368948Y-53011843D01*
X153118845Y-53160822D01*
X152902612Y-53355731D01*
X152728559Y-53589080D01*
X152603375Y-53851901D01*
X152558724Y-53999110D01*
X149438833Y-53999110D01*
X149757716Y-53589410D01*
X150281630Y-52621301D01*
X150639054Y-51580162D01*
X150820237Y-50494392D01*
X150820237Y-49393610D01*
X150639054Y-48307840D01*
X150281630Y-47266701D01*
X149856972Y-46482000D01*
X151762207Y-46482000D01*
X151765400Y-46514419D01*
X151765401Y-51529571D01*
X151762207Y-51562000D01*
X151774950Y-51691383D01*
X151812690Y-51815793D01*
X151873975Y-51930450D01*
X151956452Y-52030948D01*
X152056950Y-52113425D01*
X152171607Y-52174710D01*
X152296017Y-52212450D01*
X152392981Y-52222000D01*
X152425400Y-52225193D01*
X152457819Y-52222000D01*
X157726981Y-52222000D01*
X157759400Y-52225193D01*
X157791819Y-52222000D01*
X157888783Y-52212450D01*
X158013193Y-52174710D01*
X158127850Y-52113425D01*
X158228348Y-52030948D01*
X158310825Y-51930450D01*
X158372110Y-51815793D01*
X158409850Y-51691383D01*
X158422593Y-51562000D01*
X158419400Y-51529581D01*
X158419400Y-49071449D01*
X159655392Y-49071449D01*
X159695546Y-49329444D01*
X159785261Y-49574647D01*
X159837921Y-49673167D01*
X160070720Y-49731475D01*
X160805595Y-48996600D01*
X161164805Y-48996600D01*
X161899680Y-49731475D01*
X162132479Y-49673167D01*
X162242427Y-49436343D01*
X162262885Y-49352120D01*
X162790325Y-49352120D01*
X163525200Y-50086995D01*
X164260075Y-49352120D01*
X164201767Y-49119321D01*
X163964943Y-49009373D01*
X163711221Y-48947741D01*
X163450351Y-48936792D01*
X163192356Y-48976946D01*
X162947153Y-49066661D01*
X162848633Y-49119321D01*
X162790325Y-49352120D01*
X162262885Y-49352120D01*
X162304059Y-49182621D01*
X162315008Y-48921751D01*
X162274854Y-48663756D01*
X162185139Y-48418553D01*
X162132479Y-48320033D01*
X161899680Y-48261725D01*
X161164805Y-48996600D01*
X160805595Y-48996600D01*
X160070720Y-48261725D01*
X159837921Y-48320033D01*
X159727973Y-48556857D01*
X159666341Y-48810579D01*
X159655392Y-49071449D01*
X158419400Y-49071449D01*
X158419400Y-48082120D01*
X160250325Y-48082120D01*
X160985200Y-48816995D01*
X161720075Y-48082120D01*
X161661767Y-47849321D01*
X161424943Y-47739373D01*
X161171221Y-47677741D01*
X160910351Y-47666792D01*
X160652356Y-47706946D01*
X160407153Y-47796661D01*
X160308633Y-47849321D01*
X160250325Y-48082120D01*
X158419400Y-48082120D01*
X158419400Y-46514419D01*
X158422593Y-46482000D01*
X158409850Y-46352617D01*
X158372110Y-46228207D01*
X158310825Y-46113550D01*
X158228348Y-46013052D01*
X158127850Y-45930575D01*
X158013193Y-45869290D01*
X157888783Y-45831550D01*
X157791819Y-45822000D01*
X157759400Y-45818807D01*
X157726981Y-45822000D01*
X152457819Y-45822000D01*
X152425400Y-45818807D01*
X152392981Y-45822000D01*
X152296017Y-45831550D01*
X152171607Y-45869290D01*
X152056950Y-45930575D01*
X151956452Y-46013052D01*
X151873975Y-46113550D01*
X151812690Y-46228207D01*
X151774950Y-46352617D01*
X151762207Y-46482000D01*
X149856972Y-46482000D01*
X149757716Y-46298592D01*
X149081601Y-45429919D01*
X148271729Y-44684380D01*
X147350190Y-44082308D01*
X146342123Y-43640129D01*
X145275024Y-43369903D01*
X144178001Y-43279001D01*
X143080978Y-43369903D01*
X142013879Y-43640129D01*
X141005812Y-44082308D01*
X140084273Y-44684380D01*
X139274401Y-45429919D01*
X138598286Y-46298592D01*
X138074372Y-47266701D01*
X137716948Y-48307840D01*
X137535765Y-49393610D01*
X133948001Y-49393610D01*
X133948001Y-48102620D01*
X134588250Y-48101000D01*
X134747000Y-47942250D01*
X134747000Y-45593000D01*
X135001000Y-45593000D01*
X135001000Y-47942250D01*
X135159750Y-48101000D01*
X136374000Y-48104072D01*
X136498482Y-48091812D01*
X136618180Y-48055502D01*
X136728494Y-47996537D01*
X136825185Y-47917185D01*
X136904537Y-47820494D01*
X136963502Y-47710180D01*
X136999812Y-47590482D01*
X137012072Y-47466000D01*
X137009000Y-45751750D01*
X136850250Y-45593000D01*
X135001000Y-45593000D01*
X134747000Y-45593000D01*
X134727000Y-45593000D01*
X134727000Y-45339000D01*
X134747000Y-45339000D01*
X134747000Y-42989750D01*
X135001000Y-42989750D01*
X135001000Y-45339000D01*
X136850250Y-45339000D01*
X137009000Y-45180250D01*
X137012072Y-43466000D01*
X136999812Y-43341518D01*
X136963502Y-43221820D01*
X136904537Y-43111506D01*
X136825185Y-43014815D01*
X136728494Y-42935463D01*
X136618180Y-42876498D01*
X136498482Y-42840188D01*
X136374000Y-42827928D01*
X135159750Y-42831000D01*
X135001000Y-42989750D01*
X134747000Y-42989750D01*
X134588250Y-42831000D01*
X133948001Y-42829380D01*
X133948001Y-39714001D01*
X135641785Y-39714001D01*
X135604335Y-39744735D01*
X135446880Y-39936595D01*
X135329880Y-40155486D01*
X135257832Y-40392997D01*
X135233504Y-40640000D01*
X135257832Y-40887003D01*
X135329880Y-41124514D01*
X135446880Y-41343405D01*
X135604335Y-41535265D01*
X135796195Y-41692720D01*
X136015086Y-41809720D01*
X136252597Y-41881768D01*
X136437707Y-41900000D01*
X137061928Y-41900000D01*
X137061928Y-42140000D01*
X137074188Y-42264482D01*
X137110498Y-42384180D01*
X137169463Y-42494494D01*
X137248815Y-42591185D01*
X137345506Y-42670537D01*
X137455820Y-42729502D01*
X137575518Y-42765812D01*
X137700000Y-42778072D01*
X141700000Y-42778072D01*
X141824482Y-42765812D01*
X141944180Y-42729502D01*
X142054494Y-42670537D01*
X142151185Y-42591185D01*
X142164479Y-42574987D01*
X142459611Y-42870119D01*
X142603396Y-42988120D01*
X142822286Y-43105120D01*
X143059797Y-43177168D01*
X143306800Y-43201496D01*
X143553803Y-43177168D01*
X143791314Y-43105120D01*
X144010205Y-42988120D01*
X144202065Y-42830665D01*
X144359520Y-42638805D01*
X144476520Y-42419914D01*
X144548568Y-42182403D01*
X144572896Y-41935400D01*
X144548568Y-41688397D01*
X144476520Y-41450886D01*
X144359520Y-41231996D01*
X144241519Y-41088211D01*
X144110808Y-40957500D01*
X144190719Y-40877589D01*
X144308720Y-40733804D01*
X144425720Y-40514914D01*
X144497768Y-40277403D01*
X144522096Y-40030400D01*
X144497768Y-39783397D01*
X144476717Y-39714001D01*
X145932037Y-39714001D01*
X145963716Y-39717121D01*
X145995395Y-39714001D01*
X146090158Y-39704668D01*
X146211741Y-39667786D01*
X146323792Y-39607893D01*
X146422006Y-39527291D01*
X146502608Y-39429077D01*
X146562501Y-39317026D01*
X146599383Y-39195443D01*
X146611836Y-39069001D01*
X146608716Y-39037322D01*
X146608716Y-38089001D01*
X156747286Y-38089001D01*
X156747287Y-39037312D01*
G37*
%TD.AperFunction*%
%TD*%
M02*
