%TF.GenerationSoftware,KiCad,Pcbnew,(5.1.10)-1*%
%TF.CreationDate,2022-01-02T17:44:00+01:00*%
%TF.ProjectId,3DESPWroverB,33444553-5057-4726-9f76-6572422e6b69,rev?*%
%TF.SameCoordinates,Original*%
%TF.FileFunction,Copper,L2,Bot*%
%TF.FilePolarity,Positive*%
%FSLAX46Y46*%
G04 Gerber Fmt 4.6, Leading zero omitted, Abs format (unit mm)*
G04 Created by KiCad (PCBNEW (5.1.10)-1) date 2022-01-02 17:44:00*
%MOMM*%
%LPD*%
G01*
G04 APERTURE LIST*
%TA.AperFunction,ComponentPad*%
%ADD10C,1.381000*%
%TD*%
%TA.AperFunction,ComponentPad*%
%ADD11R,1.700000X1.700000*%
%TD*%
%TA.AperFunction,ComponentPad*%
%ADD12O,1.700000X1.700000*%
%TD*%
%TA.AperFunction,ViaPad*%
%ADD13C,1.200000*%
%TD*%
%TA.AperFunction,Conductor*%
%ADD14C,1.250000*%
%TD*%
%TA.AperFunction,Conductor*%
%ADD15C,0.254000*%
%TD*%
%TA.AperFunction,Conductor*%
%ADD16C,0.100000*%
%TD*%
G04 APERTURE END LIST*
D10*
%TO.P,J1,14*%
%TO.N,VCC*%
X163525200Y-65506600D03*
%TO.P,J1,13*%
X160985200Y-64236600D03*
%TO.P,J1,12*%
%TO.N,/D16*%
X163525200Y-62966600D03*
%TO.P,J1,11*%
%TO.N,/D15*%
X160985200Y-61696600D03*
%TO.P,J1,10*%
%TO.N,/D14*%
X163525200Y-60426600D03*
%TO.P,J1,9*%
%TO.N,/D13*%
X160985200Y-59156600D03*
%TO.P,J1,8*%
%TO.N,/D12*%
X163525200Y-57886600D03*
%TO.P,J1,7*%
%TO.N,/D11*%
X160985200Y-56616600D03*
%TO.P,J1,6*%
%TO.N,/D10*%
X163525200Y-55346600D03*
%TO.P,J1,5*%
%TO.N,/D9*%
X160985200Y-54076600D03*
%TO.P,J1,4*%
%TO.N,/D8*%
X163525200Y-52806600D03*
%TO.P,J1,3*%
%TO.N,/D7*%
X160985200Y-51536600D03*
%TO.P,J1,2*%
%TO.N,GND*%
X163525200Y-50266600D03*
%TO.P,J1,1*%
X160985200Y-48996600D03*
%TD*%
D11*
%TO.P,J10,1*%
%TO.N,VCC*%
X156540200Y-54356000D03*
D12*
%TO.P,J10,2*%
%TO.N,GND*%
X154000200Y-54356000D03*
%TO.P,J10,3*%
%TO.N,/D11*%
X156540200Y-56896000D03*
%TO.P,J10,4*%
%TO.N,/D12*%
X154000200Y-56896000D03*
%TO.P,J10,5*%
%TO.N,VCC*%
X156540200Y-59436000D03*
%TO.P,J10,6*%
%TO.N,GND*%
X154000200Y-59436000D03*
%TD*%
D13*
%TO.N,VCC*%
X167233600Y-72771000D03*
X168148000Y-74650600D03*
X160223200Y-74295000D03*
X167513000Y-48920400D03*
X169062400Y-49657000D03*
X143256000Y-40030400D03*
X143306800Y-41935400D03*
X136499600Y-40640000D03*
X168097200Y-51358800D03*
X134289800Y-66192400D03*
X135661400Y-65481200D03*
X134823200Y-63906400D03*
%TO.N,GND*%
X168529000Y-65811400D03*
X163677600Y-69545200D03*
X161493200Y-69570600D03*
X160528000Y-40614600D03*
X160528000Y-44399200D03*
X158191200Y-44399200D03*
X159283400Y-69570600D03*
X162433000Y-44399200D03*
X142900400Y-74295000D03*
X149072600Y-70078600D03*
X151104600Y-70078600D03*
X153314400Y-70053200D03*
%TD*%
D14*
%TO.N,GND*%
X167411400Y-65811400D02*
X163677600Y-69545200D01*
X168529000Y-65811400D02*
X167411400Y-65811400D01*
X161518600Y-69545200D02*
X161493200Y-69570600D01*
X163677600Y-69545200D02*
X161518600Y-69545200D01*
X160528000Y-40614600D02*
X160528000Y-44399200D01*
X160528000Y-44399200D02*
X158191200Y-44399200D01*
X161493200Y-69570600D02*
X159283400Y-69570600D01*
X160528000Y-44399200D02*
X162433000Y-44399200D01*
X142900400Y-74295000D02*
X144856200Y-74295000D01*
X144856200Y-74295000D02*
X149072600Y-70078600D01*
X149072600Y-70078600D02*
X151104600Y-70078600D01*
X153289000Y-70078600D02*
X153314400Y-70053200D01*
X151104600Y-70078600D02*
X153289000Y-70078600D01*
%TD*%
D15*
%TO.N,VCC*%
X156747287Y-39037312D02*
X156744166Y-39069001D01*
X156756619Y-39195443D01*
X156793501Y-39317026D01*
X156853394Y-39429077D01*
X156933996Y-39527291D01*
X157032210Y-39607893D01*
X157144261Y-39667786D01*
X157265844Y-39704668D01*
X157360607Y-39714001D01*
X157392286Y-39717121D01*
X157423965Y-39714001D01*
X159639235Y-39714001D01*
X159632735Y-39719335D01*
X159475280Y-39911196D01*
X159358280Y-40130087D01*
X159286232Y-40367598D01*
X159268000Y-40552708D01*
X159268001Y-43139200D01*
X158129307Y-43139200D01*
X157944197Y-43157432D01*
X157706686Y-43229480D01*
X157487795Y-43346480D01*
X157295935Y-43503935D01*
X157138480Y-43695795D01*
X157021480Y-43914686D01*
X156949432Y-44152197D01*
X156925104Y-44399200D01*
X156949432Y-44646203D01*
X157021480Y-44883714D01*
X157138480Y-45102605D01*
X157295935Y-45294465D01*
X157487795Y-45451920D01*
X157706686Y-45568920D01*
X157944197Y-45640968D01*
X158129307Y-45659200D01*
X160466107Y-45659200D01*
X160528000Y-45665296D01*
X160589893Y-45659200D01*
X162494893Y-45659200D01*
X162680003Y-45640968D01*
X162917514Y-45568920D01*
X163136405Y-45451920D01*
X163328265Y-45294465D01*
X163485720Y-45102605D01*
X163602720Y-44883714D01*
X163674768Y-44646203D01*
X163699096Y-44399200D01*
X163674768Y-44152197D01*
X163602720Y-43914686D01*
X163485720Y-43695795D01*
X163328265Y-43503935D01*
X163136405Y-43346480D01*
X162917514Y-43229480D01*
X162680003Y-43157432D01*
X162494893Y-43139200D01*
X161788000Y-43139200D01*
X161788000Y-40552707D01*
X161769768Y-40367597D01*
X161697720Y-40130086D01*
X161580720Y-39911195D01*
X161423265Y-39719335D01*
X161416765Y-39714001D01*
X166309200Y-39714001D01*
X166309201Y-43097511D01*
X166306080Y-43129200D01*
X166318533Y-43255642D01*
X166355415Y-43377225D01*
X166415308Y-43489276D01*
X166495910Y-43587490D01*
X166594124Y-43668092D01*
X166706175Y-43727985D01*
X166827758Y-43764867D01*
X166922521Y-43774200D01*
X166954200Y-43777320D01*
X166985879Y-43774200D01*
X168852921Y-43774200D01*
X168884600Y-43777320D01*
X168916279Y-43774200D01*
X169011042Y-43764867D01*
X169132625Y-43727985D01*
X169244676Y-43668092D01*
X169342890Y-43587490D01*
X169408000Y-43508153D01*
X169408001Y-47412313D01*
X169408000Y-47412323D01*
X169408001Y-51698026D01*
X169404880Y-51729715D01*
X169417333Y-51856157D01*
X169454215Y-51977740D01*
X169514108Y-52089791D01*
X169594710Y-52188005D01*
X169692924Y-52268607D01*
X169804975Y-52328500D01*
X169926558Y-52365382D01*
X170021321Y-52374715D01*
X170053000Y-52377835D01*
X170084679Y-52374715D01*
X171033000Y-52374715D01*
X171033001Y-62513287D01*
X170109688Y-62513288D01*
X170109679Y-62513287D01*
X170084679Y-62513287D01*
X170053000Y-62510167D01*
X170021321Y-62513287D01*
X169926558Y-62522620D01*
X169804975Y-62559502D01*
X169692924Y-62619395D01*
X169594710Y-62699997D01*
X169514108Y-62798211D01*
X169454215Y-62910262D01*
X169417333Y-63031845D01*
X169404880Y-63158287D01*
X169408000Y-63189964D01*
X169408000Y-64902787D01*
X169232405Y-64758680D01*
X169013514Y-64641680D01*
X168776003Y-64569632D01*
X168590893Y-64551400D01*
X167473293Y-64551400D01*
X167411400Y-64545304D01*
X167349507Y-64551400D01*
X167164397Y-64569632D01*
X166926886Y-64641680D01*
X166707995Y-64758680D01*
X166516135Y-64916135D01*
X166476681Y-64964210D01*
X163155692Y-68285200D01*
X162021930Y-68285200D01*
X162136482Y-68262414D01*
X162393085Y-68156125D01*
X162624022Y-68001818D01*
X162820418Y-67805422D01*
X162974725Y-67574485D01*
X163081014Y-67317882D01*
X163135200Y-67045473D01*
X163135200Y-66775910D01*
X163339179Y-66825459D01*
X163600049Y-66836408D01*
X163858044Y-66796254D01*
X164103247Y-66706539D01*
X164201767Y-66653879D01*
X164260075Y-66421080D01*
X163525200Y-65686205D01*
X163511058Y-65700348D01*
X163331453Y-65520743D01*
X163345595Y-65506600D01*
X163704805Y-65506600D01*
X164439680Y-66241475D01*
X164672479Y-66183167D01*
X164782427Y-65946343D01*
X164844059Y-65692621D01*
X164855008Y-65431751D01*
X164814854Y-65173756D01*
X164725139Y-64928553D01*
X164672479Y-64830033D01*
X164439680Y-64771725D01*
X163704805Y-65506600D01*
X163345595Y-65506600D01*
X162610720Y-64771725D01*
X162377921Y-64830033D01*
X162267973Y-65066857D01*
X162206341Y-65320579D01*
X162195650Y-65575294D01*
X162136482Y-65550786D01*
X161864073Y-65496600D01*
X161586327Y-65496600D01*
X161313918Y-65550786D01*
X161057315Y-65657075D01*
X160826378Y-65811382D01*
X160629982Y-66007778D01*
X160475675Y-66238715D01*
X160369386Y-66495318D01*
X160315200Y-66767727D01*
X160315200Y-67045473D01*
X160369386Y-67317882D01*
X160475675Y-67574485D01*
X160629982Y-67805422D01*
X160826378Y-68001818D01*
X161057315Y-68156125D01*
X161313918Y-68262414D01*
X161437821Y-68287060D01*
X161271597Y-68303432D01*
X161247967Y-68310600D01*
X159221507Y-68310600D01*
X159036397Y-68328832D01*
X158798886Y-68400880D01*
X158579995Y-68517880D01*
X158388135Y-68675335D01*
X158230680Y-68867195D01*
X158113680Y-69086086D01*
X158041632Y-69323597D01*
X158017304Y-69570600D01*
X158041632Y-69817603D01*
X158113680Y-70055114D01*
X158230680Y-70274005D01*
X158388135Y-70465865D01*
X158579995Y-70623320D01*
X158798886Y-70740320D01*
X159036397Y-70812368D01*
X159221507Y-70830600D01*
X161431317Y-70830600D01*
X161493200Y-70836695D01*
X161555083Y-70830600D01*
X161555093Y-70830600D01*
X161740203Y-70812368D01*
X161763833Y-70805200D01*
X163615717Y-70805200D01*
X163677600Y-70811295D01*
X163739483Y-70805200D01*
X163739493Y-70805200D01*
X163924603Y-70786968D01*
X164162114Y-70714920D01*
X164381005Y-70597920D01*
X164572865Y-70440465D01*
X164612324Y-70392384D01*
X167933309Y-67071400D01*
X168590893Y-67071400D01*
X168776003Y-67053168D01*
X169013514Y-66981120D01*
X169232405Y-66864120D01*
X169408001Y-66720013D01*
X169408001Y-67412313D01*
X169408000Y-67412323D01*
X169408001Y-71412312D01*
X169408000Y-71412322D01*
X169408001Y-75174000D01*
X157423965Y-75174000D01*
X157392286Y-75170880D01*
X157360607Y-75174000D01*
X157265844Y-75183333D01*
X157144261Y-75220215D01*
X157032210Y-75280108D01*
X156933996Y-75360710D01*
X156853394Y-75458924D01*
X156793501Y-75570975D01*
X156756619Y-75692558D01*
X156744166Y-75819000D01*
X156747286Y-75850678D01*
X156747287Y-76799000D01*
X146608715Y-76799000D01*
X146608715Y-75850678D01*
X146611835Y-75819000D01*
X146599382Y-75692558D01*
X146562500Y-75570975D01*
X146502607Y-75458924D01*
X146422005Y-75360710D01*
X146323791Y-75280108D01*
X146211740Y-75220215D01*
X146090157Y-75183333D01*
X145995394Y-75174000D01*
X145963715Y-75170880D01*
X145932036Y-75174000D01*
X145764813Y-75174000D01*
X145790924Y-75142184D01*
X149594509Y-71338600D01*
X153227117Y-71338600D01*
X153289000Y-71344695D01*
X153350883Y-71338600D01*
X153350893Y-71338600D01*
X153536003Y-71320368D01*
X153773514Y-71248320D01*
X153992405Y-71131320D01*
X154184265Y-70973865D01*
X154223724Y-70925784D01*
X154249119Y-70900389D01*
X154367120Y-70756605D01*
X154484120Y-70537713D01*
X154556167Y-70300203D01*
X154580495Y-70053201D01*
X154556167Y-69806198D01*
X154484120Y-69568687D01*
X154367120Y-69349795D01*
X154209665Y-69157935D01*
X154017805Y-69000480D01*
X153798913Y-68883480D01*
X153561402Y-68811433D01*
X153314399Y-68787105D01*
X153067397Y-68811433D01*
X153043770Y-68818600D01*
X149579330Y-68818600D01*
X149757716Y-68589410D01*
X150281630Y-67621301D01*
X150639054Y-66580162D01*
X150820237Y-65494392D01*
X150820237Y-64393610D01*
X150639054Y-63307840D01*
X150281630Y-62266701D01*
X150261769Y-62230000D01*
X151762207Y-62230000D01*
X151765400Y-62262419D01*
X151765401Y-67531571D01*
X151762207Y-67564000D01*
X151774950Y-67693383D01*
X151812690Y-67817793D01*
X151873975Y-67932450D01*
X151956452Y-68032948D01*
X152056950Y-68115425D01*
X152171607Y-68176710D01*
X152296017Y-68214450D01*
X152392981Y-68224000D01*
X152425400Y-68227193D01*
X152457819Y-68224000D01*
X157726981Y-68224000D01*
X157759400Y-68227193D01*
X157791819Y-68224000D01*
X157888783Y-68214450D01*
X158013193Y-68176710D01*
X158127850Y-68115425D01*
X158228348Y-68032948D01*
X158310825Y-67932450D01*
X158372110Y-67817793D01*
X158409850Y-67693383D01*
X158422593Y-67564000D01*
X158419400Y-67531581D01*
X158419400Y-65151080D01*
X160250325Y-65151080D01*
X160308633Y-65383879D01*
X160545457Y-65493827D01*
X160799179Y-65555459D01*
X161060049Y-65566408D01*
X161318044Y-65526254D01*
X161563247Y-65436539D01*
X161661767Y-65383879D01*
X161720075Y-65151080D01*
X160985200Y-64416205D01*
X160250325Y-65151080D01*
X158419400Y-65151080D01*
X158419400Y-64311449D01*
X159655392Y-64311449D01*
X159695546Y-64569444D01*
X159785261Y-64814647D01*
X159837921Y-64913167D01*
X160070720Y-64971475D01*
X160805595Y-64236600D01*
X161164805Y-64236600D01*
X161899680Y-64971475D01*
X162132479Y-64913167D01*
X162242427Y-64676343D01*
X162304059Y-64422621D01*
X162315008Y-64161751D01*
X162274854Y-63903756D01*
X162185139Y-63658553D01*
X162132479Y-63560033D01*
X161899680Y-63501725D01*
X161164805Y-64236600D01*
X160805595Y-64236600D01*
X160070720Y-63501725D01*
X159837921Y-63560033D01*
X159727973Y-63796857D01*
X159666341Y-64050579D01*
X159655392Y-64311449D01*
X158419400Y-64311449D01*
X158419400Y-62262419D01*
X158422593Y-62230000D01*
X158409850Y-62100617D01*
X158372110Y-61976207D01*
X158310825Y-61861550D01*
X158228348Y-61761052D01*
X158127850Y-61678575D01*
X158013193Y-61617290D01*
X157888783Y-61579550D01*
X157791819Y-61570000D01*
X157759400Y-61566807D01*
X157726981Y-61570000D01*
X152457819Y-61570000D01*
X152425400Y-61566807D01*
X152392981Y-61570000D01*
X152296017Y-61579550D01*
X152171607Y-61617290D01*
X152056950Y-61678575D01*
X151956452Y-61761052D01*
X151873975Y-61861550D01*
X151812690Y-61976207D01*
X151774950Y-62100617D01*
X151762207Y-62230000D01*
X150261769Y-62230000D01*
X149757716Y-61298592D01*
X149081601Y-60429919D01*
X148271729Y-59684380D01*
X147350190Y-59082308D01*
X146342123Y-58640129D01*
X145275024Y-58369903D01*
X144178001Y-58279001D01*
X143080978Y-58369903D01*
X142013879Y-58640129D01*
X141005812Y-59082308D01*
X140084273Y-59684380D01*
X139274401Y-60429919D01*
X138598286Y-61298592D01*
X138074372Y-62266701D01*
X137716948Y-63307840D01*
X137535765Y-64393610D01*
X137535765Y-65494392D01*
X137716948Y-66580162D01*
X138074372Y-67621301D01*
X138598286Y-68589410D01*
X139274401Y-69458083D01*
X140084273Y-70203622D01*
X141005812Y-70805694D01*
X142013879Y-71247873D01*
X143080978Y-71518099D01*
X144178001Y-71609001D01*
X145275024Y-71518099D01*
X146046576Y-71322716D01*
X144334292Y-73035000D01*
X142838507Y-73035000D01*
X142653397Y-73053232D01*
X142415886Y-73125280D01*
X142196995Y-73242280D01*
X142005135Y-73399735D01*
X141847680Y-73591595D01*
X141730680Y-73810486D01*
X141658632Y-74047997D01*
X141634304Y-74295000D01*
X141658632Y-74542003D01*
X141730680Y-74779514D01*
X141847680Y-74998405D01*
X141991787Y-75174000D01*
X136357200Y-75174000D01*
X136357200Y-71710479D01*
X136360320Y-71678800D01*
X136347867Y-71552358D01*
X136310985Y-71430775D01*
X136251092Y-71318724D01*
X136170490Y-71220510D01*
X136072276Y-71139908D01*
X135960225Y-71080015D01*
X135838642Y-71043133D01*
X135743879Y-71033800D01*
X135712200Y-71030680D01*
X135680521Y-71033800D01*
X133948001Y-71033800D01*
X133948001Y-63189964D01*
X133951121Y-63158286D01*
X133938668Y-63031844D01*
X133901786Y-62910261D01*
X133841893Y-62798210D01*
X133761291Y-62699996D01*
X133663077Y-62619394D01*
X133551026Y-62559501D01*
X133429443Y-62522619D01*
X133334680Y-62513286D01*
X133303001Y-62510166D01*
X133271322Y-62513286D01*
X132323001Y-62513286D01*
X132323001Y-52374715D01*
X133271322Y-52374715D01*
X133303001Y-52377835D01*
X133334680Y-52374715D01*
X133429443Y-52365382D01*
X133551026Y-52328500D01*
X133663077Y-52268607D01*
X133761291Y-52188005D01*
X133841893Y-52089791D01*
X133901786Y-51977740D01*
X133938668Y-51856157D01*
X133951121Y-51729715D01*
X133948001Y-51698036D01*
X133948001Y-49393610D01*
X137535765Y-49393610D01*
X137535765Y-50494392D01*
X137716948Y-51580162D01*
X138074372Y-52621301D01*
X138598286Y-53589410D01*
X139274401Y-54458083D01*
X140084273Y-55203622D01*
X141005812Y-55805694D01*
X142013879Y-56247873D01*
X143080978Y-56518099D01*
X144178001Y-56609001D01*
X145275024Y-56518099D01*
X146342123Y-56247873D01*
X147350190Y-55805694D01*
X148271729Y-55203622D01*
X149081601Y-54458083D01*
X149274894Y-54209740D01*
X152515200Y-54209740D01*
X152515200Y-54502260D01*
X152572268Y-54789158D01*
X152684210Y-55059411D01*
X152846725Y-55302632D01*
X153053568Y-55509475D01*
X153227960Y-55626000D01*
X153053568Y-55742525D01*
X152846725Y-55949368D01*
X152684210Y-56192589D01*
X152572268Y-56462842D01*
X152515200Y-56749740D01*
X152515200Y-57042260D01*
X152572268Y-57329158D01*
X152684210Y-57599411D01*
X152846725Y-57842632D01*
X153053568Y-58049475D01*
X153227960Y-58166000D01*
X153053568Y-58282525D01*
X152846725Y-58489368D01*
X152684210Y-58732589D01*
X152572268Y-59002842D01*
X152515200Y-59289740D01*
X152515200Y-59582260D01*
X152572268Y-59869158D01*
X152684210Y-60139411D01*
X152846725Y-60382632D01*
X153053568Y-60589475D01*
X153296789Y-60751990D01*
X153567042Y-60863932D01*
X153853940Y-60921000D01*
X154146460Y-60921000D01*
X154433358Y-60863932D01*
X154703611Y-60751990D01*
X154946832Y-60589475D01*
X155153675Y-60382632D01*
X155271300Y-60206594D01*
X155442612Y-60436269D01*
X155658845Y-60631178D01*
X155908948Y-60780157D01*
X156183309Y-60877481D01*
X156413200Y-60756814D01*
X156413200Y-59563000D01*
X156667200Y-59563000D01*
X156667200Y-60756814D01*
X156897091Y-60877481D01*
X157171452Y-60780157D01*
X157421555Y-60631178D01*
X157637788Y-60436269D01*
X157811841Y-60202920D01*
X157937025Y-59940099D01*
X157981676Y-59792890D01*
X157860355Y-59563000D01*
X156667200Y-59563000D01*
X156413200Y-59563000D01*
X156393200Y-59563000D01*
X156393200Y-59309000D01*
X156413200Y-59309000D01*
X156413200Y-59289000D01*
X156667200Y-59289000D01*
X156667200Y-59309000D01*
X157860355Y-59309000D01*
X157981676Y-59079110D01*
X157937025Y-58931901D01*
X157811841Y-58669080D01*
X157637788Y-58435731D01*
X157421555Y-58240822D01*
X157304666Y-58171195D01*
X157486832Y-58049475D01*
X157693675Y-57842632D01*
X157856190Y-57599411D01*
X157968132Y-57329158D01*
X158025200Y-57042260D01*
X158025200Y-56749740D01*
X157968132Y-56462842D01*
X157856190Y-56192589D01*
X157693675Y-55949368D01*
X157561820Y-55817513D01*
X157634380Y-55795502D01*
X157744694Y-55736537D01*
X157841385Y-55657185D01*
X157920737Y-55560494D01*
X157979702Y-55450180D01*
X158016012Y-55330482D01*
X158028272Y-55206000D01*
X158025200Y-54641750D01*
X157866450Y-54483000D01*
X156667200Y-54483000D01*
X156667200Y-54503000D01*
X156413200Y-54503000D01*
X156413200Y-54483000D01*
X156393200Y-54483000D01*
X156393200Y-54229000D01*
X156413200Y-54229000D01*
X156413200Y-53029750D01*
X156667200Y-53029750D01*
X156667200Y-54229000D01*
X157866450Y-54229000D01*
X158025200Y-54070250D01*
X158028272Y-53506000D01*
X158016012Y-53381518D01*
X157979702Y-53261820D01*
X157920737Y-53151506D01*
X157841385Y-53054815D01*
X157744694Y-52975463D01*
X157634380Y-52916498D01*
X157514682Y-52880188D01*
X157390200Y-52867928D01*
X156825950Y-52871000D01*
X156667200Y-53029750D01*
X156413200Y-53029750D01*
X156254450Y-52871000D01*
X155690200Y-52867928D01*
X155565718Y-52880188D01*
X155446020Y-52916498D01*
X155335706Y-52975463D01*
X155239015Y-53054815D01*
X155159663Y-53151506D01*
X155100698Y-53261820D01*
X155078687Y-53334380D01*
X154946832Y-53202525D01*
X154703611Y-53040010D01*
X154433358Y-52928068D01*
X154146460Y-52871000D01*
X153853940Y-52871000D01*
X153567042Y-52928068D01*
X153296789Y-53040010D01*
X153053568Y-53202525D01*
X152846725Y-53409368D01*
X152684210Y-53652589D01*
X152572268Y-53922842D01*
X152515200Y-54209740D01*
X149274894Y-54209740D01*
X149757716Y-53589410D01*
X150281630Y-52621301D01*
X150639054Y-51580162D01*
X150820237Y-50494392D01*
X150820237Y-49393610D01*
X150639054Y-48307840D01*
X150281630Y-47266701D01*
X149856972Y-46482000D01*
X151762207Y-46482000D01*
X151765400Y-46514419D01*
X151765401Y-51529571D01*
X151762207Y-51562000D01*
X151774950Y-51691383D01*
X151812690Y-51815793D01*
X151873975Y-51930450D01*
X151956452Y-52030948D01*
X152056950Y-52113425D01*
X152171607Y-52174710D01*
X152296017Y-52212450D01*
X152392981Y-52222000D01*
X152425400Y-52225193D01*
X152457819Y-52222000D01*
X157726981Y-52222000D01*
X157759400Y-52225193D01*
X157791819Y-52222000D01*
X157888783Y-52212450D01*
X158013193Y-52174710D01*
X158127850Y-52113425D01*
X158228348Y-52030948D01*
X158310825Y-51930450D01*
X158372110Y-51815793D01*
X158409850Y-51691383D01*
X158422593Y-51562000D01*
X158419400Y-51529581D01*
X158419400Y-48866050D01*
X159659700Y-48866050D01*
X159659700Y-49127150D01*
X159710638Y-49383234D01*
X159810557Y-49624460D01*
X159955617Y-49841557D01*
X160140243Y-50026183D01*
X160357340Y-50171243D01*
X160587552Y-50266600D01*
X160357340Y-50361957D01*
X160140243Y-50507017D01*
X159955617Y-50691643D01*
X159810557Y-50908740D01*
X159710638Y-51149966D01*
X159659700Y-51406050D01*
X159659700Y-51667150D01*
X159710638Y-51923234D01*
X159810557Y-52164460D01*
X159955617Y-52381557D01*
X160140243Y-52566183D01*
X160357340Y-52711243D01*
X160587552Y-52806600D01*
X160357340Y-52901957D01*
X160140243Y-53047017D01*
X159955617Y-53231643D01*
X159810557Y-53448740D01*
X159710638Y-53689966D01*
X159659700Y-53946050D01*
X159659700Y-54207150D01*
X159710638Y-54463234D01*
X159810557Y-54704460D01*
X159955617Y-54921557D01*
X160140243Y-55106183D01*
X160357340Y-55251243D01*
X160587552Y-55346600D01*
X160357340Y-55441957D01*
X160140243Y-55587017D01*
X159955617Y-55771643D01*
X159810557Y-55988740D01*
X159710638Y-56229966D01*
X159659700Y-56486050D01*
X159659700Y-56747150D01*
X159710638Y-57003234D01*
X159810557Y-57244460D01*
X159955617Y-57461557D01*
X160140243Y-57646183D01*
X160357340Y-57791243D01*
X160587552Y-57886600D01*
X160357340Y-57981957D01*
X160140243Y-58127017D01*
X159955617Y-58311643D01*
X159810557Y-58528740D01*
X159710638Y-58769966D01*
X159659700Y-59026050D01*
X159659700Y-59287150D01*
X159710638Y-59543234D01*
X159810557Y-59784460D01*
X159955617Y-60001557D01*
X160140243Y-60186183D01*
X160357340Y-60331243D01*
X160587552Y-60426600D01*
X160357340Y-60521957D01*
X160140243Y-60667017D01*
X159955617Y-60851643D01*
X159810557Y-61068740D01*
X159710638Y-61309966D01*
X159659700Y-61566050D01*
X159659700Y-61827150D01*
X159710638Y-62083234D01*
X159810557Y-62324460D01*
X159955617Y-62541557D01*
X160140243Y-62726183D01*
X160357340Y-62871243D01*
X160592752Y-62968754D01*
X160407153Y-63036661D01*
X160308633Y-63089321D01*
X160250325Y-63322120D01*
X160985200Y-64056995D01*
X161720075Y-63322120D01*
X161661767Y-63089321D01*
X161424943Y-62979373D01*
X161378971Y-62968206D01*
X161613060Y-62871243D01*
X161830157Y-62726183D01*
X162014783Y-62541557D01*
X162159843Y-62324460D01*
X162259762Y-62083234D01*
X162310700Y-61827150D01*
X162310700Y-61566050D01*
X162259762Y-61309966D01*
X162159843Y-61068740D01*
X162014783Y-60851643D01*
X161830157Y-60667017D01*
X161613060Y-60521957D01*
X161382848Y-60426600D01*
X161613060Y-60331243D01*
X161830157Y-60186183D01*
X162014783Y-60001557D01*
X162159843Y-59784460D01*
X162259762Y-59543234D01*
X162310700Y-59287150D01*
X162310700Y-59026050D01*
X162259762Y-58769966D01*
X162159843Y-58528740D01*
X162014783Y-58311643D01*
X161830157Y-58127017D01*
X161613060Y-57981957D01*
X161382848Y-57886600D01*
X161613060Y-57791243D01*
X161830157Y-57646183D01*
X162014783Y-57461557D01*
X162159843Y-57244460D01*
X162259762Y-57003234D01*
X162310700Y-56747150D01*
X162310700Y-56486050D01*
X162259762Y-56229966D01*
X162159843Y-55988740D01*
X162014783Y-55771643D01*
X161830157Y-55587017D01*
X161613060Y-55441957D01*
X161382848Y-55346600D01*
X161613060Y-55251243D01*
X161830157Y-55106183D01*
X162014783Y-54921557D01*
X162159843Y-54704460D01*
X162259762Y-54463234D01*
X162310700Y-54207150D01*
X162310700Y-53946050D01*
X162259762Y-53689966D01*
X162159843Y-53448740D01*
X162014783Y-53231643D01*
X161830157Y-53047017D01*
X161613060Y-52901957D01*
X161382848Y-52806600D01*
X161613060Y-52711243D01*
X161830157Y-52566183D01*
X162014783Y-52381557D01*
X162159843Y-52164460D01*
X162259762Y-51923234D01*
X162310700Y-51667150D01*
X162310700Y-51406050D01*
X162259762Y-51149966D01*
X162159843Y-50908740D01*
X162014783Y-50691643D01*
X161830157Y-50507017D01*
X161613060Y-50361957D01*
X161382848Y-50266600D01*
X161613060Y-50171243D01*
X161665729Y-50136050D01*
X162199700Y-50136050D01*
X162199700Y-50397150D01*
X162250638Y-50653234D01*
X162350557Y-50894460D01*
X162495617Y-51111557D01*
X162680243Y-51296183D01*
X162897340Y-51441243D01*
X163127552Y-51536600D01*
X162897340Y-51631957D01*
X162680243Y-51777017D01*
X162495617Y-51961643D01*
X162350557Y-52178740D01*
X162250638Y-52419966D01*
X162199700Y-52676050D01*
X162199700Y-52937150D01*
X162250638Y-53193234D01*
X162350557Y-53434460D01*
X162495617Y-53651557D01*
X162680243Y-53836183D01*
X162897340Y-53981243D01*
X163127552Y-54076600D01*
X162897340Y-54171957D01*
X162680243Y-54317017D01*
X162495617Y-54501643D01*
X162350557Y-54718740D01*
X162250638Y-54959966D01*
X162199700Y-55216050D01*
X162199700Y-55477150D01*
X162250638Y-55733234D01*
X162350557Y-55974460D01*
X162495617Y-56191557D01*
X162680243Y-56376183D01*
X162897340Y-56521243D01*
X163127552Y-56616600D01*
X162897340Y-56711957D01*
X162680243Y-56857017D01*
X162495617Y-57041643D01*
X162350557Y-57258740D01*
X162250638Y-57499966D01*
X162199700Y-57756050D01*
X162199700Y-58017150D01*
X162250638Y-58273234D01*
X162350557Y-58514460D01*
X162495617Y-58731557D01*
X162680243Y-58916183D01*
X162897340Y-59061243D01*
X163127552Y-59156600D01*
X162897340Y-59251957D01*
X162680243Y-59397017D01*
X162495617Y-59581643D01*
X162350557Y-59798740D01*
X162250638Y-60039966D01*
X162199700Y-60296050D01*
X162199700Y-60557150D01*
X162250638Y-60813234D01*
X162350557Y-61054460D01*
X162495617Y-61271557D01*
X162680243Y-61456183D01*
X162897340Y-61601243D01*
X163127552Y-61696600D01*
X162897340Y-61791957D01*
X162680243Y-61937017D01*
X162495617Y-62121643D01*
X162350557Y-62338740D01*
X162250638Y-62579966D01*
X162199700Y-62836050D01*
X162199700Y-63097150D01*
X162250638Y-63353234D01*
X162350557Y-63594460D01*
X162495617Y-63811557D01*
X162680243Y-63996183D01*
X162897340Y-64141243D01*
X163132752Y-64238754D01*
X162947153Y-64306661D01*
X162848633Y-64359321D01*
X162790325Y-64592120D01*
X163525200Y-65326995D01*
X164260075Y-64592120D01*
X164201767Y-64359321D01*
X163964943Y-64249373D01*
X163918971Y-64238206D01*
X164153060Y-64141243D01*
X164370157Y-63996183D01*
X164554783Y-63811557D01*
X164699843Y-63594460D01*
X164799762Y-63353234D01*
X164850700Y-63097150D01*
X164850700Y-62836050D01*
X164799762Y-62579966D01*
X164699843Y-62338740D01*
X164554783Y-62121643D01*
X164370157Y-61937017D01*
X164153060Y-61791957D01*
X163922848Y-61696600D01*
X164153060Y-61601243D01*
X164370157Y-61456183D01*
X164554783Y-61271557D01*
X164699843Y-61054460D01*
X164799762Y-60813234D01*
X164850700Y-60557150D01*
X164850700Y-60296050D01*
X164799762Y-60039966D01*
X164699843Y-59798740D01*
X164554783Y-59581643D01*
X164370157Y-59397017D01*
X164153060Y-59251957D01*
X163922848Y-59156600D01*
X164153060Y-59061243D01*
X164370157Y-58916183D01*
X164554783Y-58731557D01*
X164699843Y-58514460D01*
X164799762Y-58273234D01*
X164850700Y-58017150D01*
X164850700Y-57756050D01*
X164799762Y-57499966D01*
X164699843Y-57258740D01*
X164554783Y-57041643D01*
X164370157Y-56857017D01*
X164153060Y-56711957D01*
X163922848Y-56616600D01*
X164153060Y-56521243D01*
X164370157Y-56376183D01*
X164554783Y-56191557D01*
X164699843Y-55974460D01*
X164799762Y-55733234D01*
X164850700Y-55477150D01*
X164850700Y-55216050D01*
X164799762Y-54959966D01*
X164699843Y-54718740D01*
X164554783Y-54501643D01*
X164370157Y-54317017D01*
X164153060Y-54171957D01*
X163922848Y-54076600D01*
X164153060Y-53981243D01*
X164370157Y-53836183D01*
X164554783Y-53651557D01*
X164699843Y-53434460D01*
X164799762Y-53193234D01*
X164850700Y-52937150D01*
X164850700Y-52676050D01*
X164799762Y-52419966D01*
X164699843Y-52178740D01*
X164554783Y-51961643D01*
X164370157Y-51777017D01*
X164153060Y-51631957D01*
X163922848Y-51536600D01*
X164153060Y-51441243D01*
X164370157Y-51296183D01*
X164554783Y-51111557D01*
X164699843Y-50894460D01*
X164799762Y-50653234D01*
X164850700Y-50397150D01*
X164850700Y-50136050D01*
X164799762Y-49879966D01*
X164699843Y-49638740D01*
X164554783Y-49421643D01*
X164370157Y-49237017D01*
X164153060Y-49091957D01*
X163911834Y-48992038D01*
X163655750Y-48941100D01*
X163394650Y-48941100D01*
X163138566Y-48992038D01*
X162897340Y-49091957D01*
X162680243Y-49237017D01*
X162495617Y-49421643D01*
X162350557Y-49638740D01*
X162250638Y-49879966D01*
X162199700Y-50136050D01*
X161665729Y-50136050D01*
X161830157Y-50026183D01*
X162014783Y-49841557D01*
X162159843Y-49624460D01*
X162259762Y-49383234D01*
X162310700Y-49127150D01*
X162310700Y-48866050D01*
X162259762Y-48609966D01*
X162159843Y-48368740D01*
X162014783Y-48151643D01*
X161830157Y-47967017D01*
X161613060Y-47821957D01*
X161371834Y-47722038D01*
X161115750Y-47671100D01*
X160854650Y-47671100D01*
X160598566Y-47722038D01*
X160357340Y-47821957D01*
X160140243Y-47967017D01*
X159955617Y-48151643D01*
X159810557Y-48368740D01*
X159710638Y-48609966D01*
X159659700Y-48866050D01*
X158419400Y-48866050D01*
X158419400Y-46514419D01*
X158422593Y-46482000D01*
X158409850Y-46352617D01*
X158372110Y-46228207D01*
X158310825Y-46113550D01*
X158228348Y-46013052D01*
X158127850Y-45930575D01*
X158013193Y-45869290D01*
X157888783Y-45831550D01*
X157791819Y-45822000D01*
X157759400Y-45818807D01*
X157726981Y-45822000D01*
X152457819Y-45822000D01*
X152425400Y-45818807D01*
X152392981Y-45822000D01*
X152296017Y-45831550D01*
X152171607Y-45869290D01*
X152056950Y-45930575D01*
X151956452Y-46013052D01*
X151873975Y-46113550D01*
X151812690Y-46228207D01*
X151774950Y-46352617D01*
X151762207Y-46482000D01*
X149856972Y-46482000D01*
X149757716Y-46298592D01*
X149081601Y-45429919D01*
X148271729Y-44684380D01*
X147350190Y-44082308D01*
X146342123Y-43640129D01*
X145275024Y-43369903D01*
X144178001Y-43279001D01*
X143080978Y-43369903D01*
X142013879Y-43640129D01*
X141005812Y-44082308D01*
X140084273Y-44684380D01*
X139274401Y-45429919D01*
X138598286Y-46298592D01*
X138074372Y-47266701D01*
X137716948Y-48307840D01*
X137535765Y-49393610D01*
X133948001Y-49393610D01*
X133948001Y-39714001D01*
X145932037Y-39714001D01*
X145963716Y-39717121D01*
X145995395Y-39714001D01*
X146090158Y-39704668D01*
X146211741Y-39667786D01*
X146323792Y-39607893D01*
X146422006Y-39527291D01*
X146502608Y-39429077D01*
X146562501Y-39317026D01*
X146599383Y-39195443D01*
X146611836Y-39069001D01*
X146608716Y-39037322D01*
X146608716Y-38089001D01*
X156747286Y-38089001D01*
X156747287Y-39037312D01*
%TA.AperFunction,Conductor*%
D16*
G36*
X156747287Y-39037312D02*
G01*
X156744166Y-39069001D01*
X156756619Y-39195443D01*
X156793501Y-39317026D01*
X156853394Y-39429077D01*
X156933996Y-39527291D01*
X157032210Y-39607893D01*
X157144261Y-39667786D01*
X157265844Y-39704668D01*
X157360607Y-39714001D01*
X157392286Y-39717121D01*
X157423965Y-39714001D01*
X159639235Y-39714001D01*
X159632735Y-39719335D01*
X159475280Y-39911196D01*
X159358280Y-40130087D01*
X159286232Y-40367598D01*
X159268000Y-40552708D01*
X159268001Y-43139200D01*
X158129307Y-43139200D01*
X157944197Y-43157432D01*
X157706686Y-43229480D01*
X157487795Y-43346480D01*
X157295935Y-43503935D01*
X157138480Y-43695795D01*
X157021480Y-43914686D01*
X156949432Y-44152197D01*
X156925104Y-44399200D01*
X156949432Y-44646203D01*
X157021480Y-44883714D01*
X157138480Y-45102605D01*
X157295935Y-45294465D01*
X157487795Y-45451920D01*
X157706686Y-45568920D01*
X157944197Y-45640968D01*
X158129307Y-45659200D01*
X160466107Y-45659200D01*
X160528000Y-45665296D01*
X160589893Y-45659200D01*
X162494893Y-45659200D01*
X162680003Y-45640968D01*
X162917514Y-45568920D01*
X163136405Y-45451920D01*
X163328265Y-45294465D01*
X163485720Y-45102605D01*
X163602720Y-44883714D01*
X163674768Y-44646203D01*
X163699096Y-44399200D01*
X163674768Y-44152197D01*
X163602720Y-43914686D01*
X163485720Y-43695795D01*
X163328265Y-43503935D01*
X163136405Y-43346480D01*
X162917514Y-43229480D01*
X162680003Y-43157432D01*
X162494893Y-43139200D01*
X161788000Y-43139200D01*
X161788000Y-40552707D01*
X161769768Y-40367597D01*
X161697720Y-40130086D01*
X161580720Y-39911195D01*
X161423265Y-39719335D01*
X161416765Y-39714001D01*
X166309200Y-39714001D01*
X166309201Y-43097511D01*
X166306080Y-43129200D01*
X166318533Y-43255642D01*
X166355415Y-43377225D01*
X166415308Y-43489276D01*
X166495910Y-43587490D01*
X166594124Y-43668092D01*
X166706175Y-43727985D01*
X166827758Y-43764867D01*
X166922521Y-43774200D01*
X166954200Y-43777320D01*
X166985879Y-43774200D01*
X168852921Y-43774200D01*
X168884600Y-43777320D01*
X168916279Y-43774200D01*
X169011042Y-43764867D01*
X169132625Y-43727985D01*
X169244676Y-43668092D01*
X169342890Y-43587490D01*
X169408000Y-43508153D01*
X169408001Y-47412313D01*
X169408000Y-47412323D01*
X169408001Y-51698026D01*
X169404880Y-51729715D01*
X169417333Y-51856157D01*
X169454215Y-51977740D01*
X169514108Y-52089791D01*
X169594710Y-52188005D01*
X169692924Y-52268607D01*
X169804975Y-52328500D01*
X169926558Y-52365382D01*
X170021321Y-52374715D01*
X170053000Y-52377835D01*
X170084679Y-52374715D01*
X171033000Y-52374715D01*
X171033001Y-62513287D01*
X170109688Y-62513288D01*
X170109679Y-62513287D01*
X170084679Y-62513287D01*
X170053000Y-62510167D01*
X170021321Y-62513287D01*
X169926558Y-62522620D01*
X169804975Y-62559502D01*
X169692924Y-62619395D01*
X169594710Y-62699997D01*
X169514108Y-62798211D01*
X169454215Y-62910262D01*
X169417333Y-63031845D01*
X169404880Y-63158287D01*
X169408000Y-63189964D01*
X169408000Y-64902787D01*
X169232405Y-64758680D01*
X169013514Y-64641680D01*
X168776003Y-64569632D01*
X168590893Y-64551400D01*
X167473293Y-64551400D01*
X167411400Y-64545304D01*
X167349507Y-64551400D01*
X167164397Y-64569632D01*
X166926886Y-64641680D01*
X166707995Y-64758680D01*
X166516135Y-64916135D01*
X166476681Y-64964210D01*
X163155692Y-68285200D01*
X162021930Y-68285200D01*
X162136482Y-68262414D01*
X162393085Y-68156125D01*
X162624022Y-68001818D01*
X162820418Y-67805422D01*
X162974725Y-67574485D01*
X163081014Y-67317882D01*
X163135200Y-67045473D01*
X163135200Y-66775910D01*
X163339179Y-66825459D01*
X163600049Y-66836408D01*
X163858044Y-66796254D01*
X164103247Y-66706539D01*
X164201767Y-66653879D01*
X164260075Y-66421080D01*
X163525200Y-65686205D01*
X163511058Y-65700348D01*
X163331453Y-65520743D01*
X163345595Y-65506600D01*
X163704805Y-65506600D01*
X164439680Y-66241475D01*
X164672479Y-66183167D01*
X164782427Y-65946343D01*
X164844059Y-65692621D01*
X164855008Y-65431751D01*
X164814854Y-65173756D01*
X164725139Y-64928553D01*
X164672479Y-64830033D01*
X164439680Y-64771725D01*
X163704805Y-65506600D01*
X163345595Y-65506600D01*
X162610720Y-64771725D01*
X162377921Y-64830033D01*
X162267973Y-65066857D01*
X162206341Y-65320579D01*
X162195650Y-65575294D01*
X162136482Y-65550786D01*
X161864073Y-65496600D01*
X161586327Y-65496600D01*
X161313918Y-65550786D01*
X161057315Y-65657075D01*
X160826378Y-65811382D01*
X160629982Y-66007778D01*
X160475675Y-66238715D01*
X160369386Y-66495318D01*
X160315200Y-66767727D01*
X160315200Y-67045473D01*
X160369386Y-67317882D01*
X160475675Y-67574485D01*
X160629982Y-67805422D01*
X160826378Y-68001818D01*
X161057315Y-68156125D01*
X161313918Y-68262414D01*
X161437821Y-68287060D01*
X161271597Y-68303432D01*
X161247967Y-68310600D01*
X159221507Y-68310600D01*
X159036397Y-68328832D01*
X158798886Y-68400880D01*
X158579995Y-68517880D01*
X158388135Y-68675335D01*
X158230680Y-68867195D01*
X158113680Y-69086086D01*
X158041632Y-69323597D01*
X158017304Y-69570600D01*
X158041632Y-69817603D01*
X158113680Y-70055114D01*
X158230680Y-70274005D01*
X158388135Y-70465865D01*
X158579995Y-70623320D01*
X158798886Y-70740320D01*
X159036397Y-70812368D01*
X159221507Y-70830600D01*
X161431317Y-70830600D01*
X161493200Y-70836695D01*
X161555083Y-70830600D01*
X161555093Y-70830600D01*
X161740203Y-70812368D01*
X161763833Y-70805200D01*
X163615717Y-70805200D01*
X163677600Y-70811295D01*
X163739483Y-70805200D01*
X163739493Y-70805200D01*
X163924603Y-70786968D01*
X164162114Y-70714920D01*
X164381005Y-70597920D01*
X164572865Y-70440465D01*
X164612324Y-70392384D01*
X167933309Y-67071400D01*
X168590893Y-67071400D01*
X168776003Y-67053168D01*
X169013514Y-66981120D01*
X169232405Y-66864120D01*
X169408001Y-66720013D01*
X169408001Y-67412313D01*
X169408000Y-67412323D01*
X169408001Y-71412312D01*
X169408000Y-71412322D01*
X169408001Y-75174000D01*
X157423965Y-75174000D01*
X157392286Y-75170880D01*
X157360607Y-75174000D01*
X157265844Y-75183333D01*
X157144261Y-75220215D01*
X157032210Y-75280108D01*
X156933996Y-75360710D01*
X156853394Y-75458924D01*
X156793501Y-75570975D01*
X156756619Y-75692558D01*
X156744166Y-75819000D01*
X156747286Y-75850678D01*
X156747287Y-76799000D01*
X146608715Y-76799000D01*
X146608715Y-75850678D01*
X146611835Y-75819000D01*
X146599382Y-75692558D01*
X146562500Y-75570975D01*
X146502607Y-75458924D01*
X146422005Y-75360710D01*
X146323791Y-75280108D01*
X146211740Y-75220215D01*
X146090157Y-75183333D01*
X145995394Y-75174000D01*
X145963715Y-75170880D01*
X145932036Y-75174000D01*
X145764813Y-75174000D01*
X145790924Y-75142184D01*
X149594509Y-71338600D01*
X153227117Y-71338600D01*
X153289000Y-71344695D01*
X153350883Y-71338600D01*
X153350893Y-71338600D01*
X153536003Y-71320368D01*
X153773514Y-71248320D01*
X153992405Y-71131320D01*
X154184265Y-70973865D01*
X154223724Y-70925784D01*
X154249119Y-70900389D01*
X154367120Y-70756605D01*
X154484120Y-70537713D01*
X154556167Y-70300203D01*
X154580495Y-70053201D01*
X154556167Y-69806198D01*
X154484120Y-69568687D01*
X154367120Y-69349795D01*
X154209665Y-69157935D01*
X154017805Y-69000480D01*
X153798913Y-68883480D01*
X153561402Y-68811433D01*
X153314399Y-68787105D01*
X153067397Y-68811433D01*
X153043770Y-68818600D01*
X149579330Y-68818600D01*
X149757716Y-68589410D01*
X150281630Y-67621301D01*
X150639054Y-66580162D01*
X150820237Y-65494392D01*
X150820237Y-64393610D01*
X150639054Y-63307840D01*
X150281630Y-62266701D01*
X150261769Y-62230000D01*
X151762207Y-62230000D01*
X151765400Y-62262419D01*
X151765401Y-67531571D01*
X151762207Y-67564000D01*
X151774950Y-67693383D01*
X151812690Y-67817793D01*
X151873975Y-67932450D01*
X151956452Y-68032948D01*
X152056950Y-68115425D01*
X152171607Y-68176710D01*
X152296017Y-68214450D01*
X152392981Y-68224000D01*
X152425400Y-68227193D01*
X152457819Y-68224000D01*
X157726981Y-68224000D01*
X157759400Y-68227193D01*
X157791819Y-68224000D01*
X157888783Y-68214450D01*
X158013193Y-68176710D01*
X158127850Y-68115425D01*
X158228348Y-68032948D01*
X158310825Y-67932450D01*
X158372110Y-67817793D01*
X158409850Y-67693383D01*
X158422593Y-67564000D01*
X158419400Y-67531581D01*
X158419400Y-65151080D01*
X160250325Y-65151080D01*
X160308633Y-65383879D01*
X160545457Y-65493827D01*
X160799179Y-65555459D01*
X161060049Y-65566408D01*
X161318044Y-65526254D01*
X161563247Y-65436539D01*
X161661767Y-65383879D01*
X161720075Y-65151080D01*
X160985200Y-64416205D01*
X160250325Y-65151080D01*
X158419400Y-65151080D01*
X158419400Y-64311449D01*
X159655392Y-64311449D01*
X159695546Y-64569444D01*
X159785261Y-64814647D01*
X159837921Y-64913167D01*
X160070720Y-64971475D01*
X160805595Y-64236600D01*
X161164805Y-64236600D01*
X161899680Y-64971475D01*
X162132479Y-64913167D01*
X162242427Y-64676343D01*
X162304059Y-64422621D01*
X162315008Y-64161751D01*
X162274854Y-63903756D01*
X162185139Y-63658553D01*
X162132479Y-63560033D01*
X161899680Y-63501725D01*
X161164805Y-64236600D01*
X160805595Y-64236600D01*
X160070720Y-63501725D01*
X159837921Y-63560033D01*
X159727973Y-63796857D01*
X159666341Y-64050579D01*
X159655392Y-64311449D01*
X158419400Y-64311449D01*
X158419400Y-62262419D01*
X158422593Y-62230000D01*
X158409850Y-62100617D01*
X158372110Y-61976207D01*
X158310825Y-61861550D01*
X158228348Y-61761052D01*
X158127850Y-61678575D01*
X158013193Y-61617290D01*
X157888783Y-61579550D01*
X157791819Y-61570000D01*
X157759400Y-61566807D01*
X157726981Y-61570000D01*
X152457819Y-61570000D01*
X152425400Y-61566807D01*
X152392981Y-61570000D01*
X152296017Y-61579550D01*
X152171607Y-61617290D01*
X152056950Y-61678575D01*
X151956452Y-61761052D01*
X151873975Y-61861550D01*
X151812690Y-61976207D01*
X151774950Y-62100617D01*
X151762207Y-62230000D01*
X150261769Y-62230000D01*
X149757716Y-61298592D01*
X149081601Y-60429919D01*
X148271729Y-59684380D01*
X147350190Y-59082308D01*
X146342123Y-58640129D01*
X145275024Y-58369903D01*
X144178001Y-58279001D01*
X143080978Y-58369903D01*
X142013879Y-58640129D01*
X141005812Y-59082308D01*
X140084273Y-59684380D01*
X139274401Y-60429919D01*
X138598286Y-61298592D01*
X138074372Y-62266701D01*
X137716948Y-63307840D01*
X137535765Y-64393610D01*
X137535765Y-65494392D01*
X137716948Y-66580162D01*
X138074372Y-67621301D01*
X138598286Y-68589410D01*
X139274401Y-69458083D01*
X140084273Y-70203622D01*
X141005812Y-70805694D01*
X142013879Y-71247873D01*
X143080978Y-71518099D01*
X144178001Y-71609001D01*
X145275024Y-71518099D01*
X146046576Y-71322716D01*
X144334292Y-73035000D01*
X142838507Y-73035000D01*
X142653397Y-73053232D01*
X142415886Y-73125280D01*
X142196995Y-73242280D01*
X142005135Y-73399735D01*
X141847680Y-73591595D01*
X141730680Y-73810486D01*
X141658632Y-74047997D01*
X141634304Y-74295000D01*
X141658632Y-74542003D01*
X141730680Y-74779514D01*
X141847680Y-74998405D01*
X141991787Y-75174000D01*
X136357200Y-75174000D01*
X136357200Y-71710479D01*
X136360320Y-71678800D01*
X136347867Y-71552358D01*
X136310985Y-71430775D01*
X136251092Y-71318724D01*
X136170490Y-71220510D01*
X136072276Y-71139908D01*
X135960225Y-71080015D01*
X135838642Y-71043133D01*
X135743879Y-71033800D01*
X135712200Y-71030680D01*
X135680521Y-71033800D01*
X133948001Y-71033800D01*
X133948001Y-63189964D01*
X133951121Y-63158286D01*
X133938668Y-63031844D01*
X133901786Y-62910261D01*
X133841893Y-62798210D01*
X133761291Y-62699996D01*
X133663077Y-62619394D01*
X133551026Y-62559501D01*
X133429443Y-62522619D01*
X133334680Y-62513286D01*
X133303001Y-62510166D01*
X133271322Y-62513286D01*
X132323001Y-62513286D01*
X132323001Y-52374715D01*
X133271322Y-52374715D01*
X133303001Y-52377835D01*
X133334680Y-52374715D01*
X133429443Y-52365382D01*
X133551026Y-52328500D01*
X133663077Y-52268607D01*
X133761291Y-52188005D01*
X133841893Y-52089791D01*
X133901786Y-51977740D01*
X133938668Y-51856157D01*
X133951121Y-51729715D01*
X133948001Y-51698036D01*
X133948001Y-49393610D01*
X137535765Y-49393610D01*
X137535765Y-50494392D01*
X137716948Y-51580162D01*
X138074372Y-52621301D01*
X138598286Y-53589410D01*
X139274401Y-54458083D01*
X140084273Y-55203622D01*
X141005812Y-55805694D01*
X142013879Y-56247873D01*
X143080978Y-56518099D01*
X144178001Y-56609001D01*
X145275024Y-56518099D01*
X146342123Y-56247873D01*
X147350190Y-55805694D01*
X148271729Y-55203622D01*
X149081601Y-54458083D01*
X149274894Y-54209740D01*
X152515200Y-54209740D01*
X152515200Y-54502260D01*
X152572268Y-54789158D01*
X152684210Y-55059411D01*
X152846725Y-55302632D01*
X153053568Y-55509475D01*
X153227960Y-55626000D01*
X153053568Y-55742525D01*
X152846725Y-55949368D01*
X152684210Y-56192589D01*
X152572268Y-56462842D01*
X152515200Y-56749740D01*
X152515200Y-57042260D01*
X152572268Y-57329158D01*
X152684210Y-57599411D01*
X152846725Y-57842632D01*
X153053568Y-58049475D01*
X153227960Y-58166000D01*
X153053568Y-58282525D01*
X152846725Y-58489368D01*
X152684210Y-58732589D01*
X152572268Y-59002842D01*
X152515200Y-59289740D01*
X152515200Y-59582260D01*
X152572268Y-59869158D01*
X152684210Y-60139411D01*
X152846725Y-60382632D01*
X153053568Y-60589475D01*
X153296789Y-60751990D01*
X153567042Y-60863932D01*
X153853940Y-60921000D01*
X154146460Y-60921000D01*
X154433358Y-60863932D01*
X154703611Y-60751990D01*
X154946832Y-60589475D01*
X155153675Y-60382632D01*
X155271300Y-60206594D01*
X155442612Y-60436269D01*
X155658845Y-60631178D01*
X155908948Y-60780157D01*
X156183309Y-60877481D01*
X156413200Y-60756814D01*
X156413200Y-59563000D01*
X156667200Y-59563000D01*
X156667200Y-60756814D01*
X156897091Y-60877481D01*
X157171452Y-60780157D01*
X157421555Y-60631178D01*
X157637788Y-60436269D01*
X157811841Y-60202920D01*
X157937025Y-59940099D01*
X157981676Y-59792890D01*
X157860355Y-59563000D01*
X156667200Y-59563000D01*
X156413200Y-59563000D01*
X156393200Y-59563000D01*
X156393200Y-59309000D01*
X156413200Y-59309000D01*
X156413200Y-59289000D01*
X156667200Y-59289000D01*
X156667200Y-59309000D01*
X157860355Y-59309000D01*
X157981676Y-59079110D01*
X157937025Y-58931901D01*
X157811841Y-58669080D01*
X157637788Y-58435731D01*
X157421555Y-58240822D01*
X157304666Y-58171195D01*
X157486832Y-58049475D01*
X157693675Y-57842632D01*
X157856190Y-57599411D01*
X157968132Y-57329158D01*
X158025200Y-57042260D01*
X158025200Y-56749740D01*
X157968132Y-56462842D01*
X157856190Y-56192589D01*
X157693675Y-55949368D01*
X157561820Y-55817513D01*
X157634380Y-55795502D01*
X157744694Y-55736537D01*
X157841385Y-55657185D01*
X157920737Y-55560494D01*
X157979702Y-55450180D01*
X158016012Y-55330482D01*
X158028272Y-55206000D01*
X158025200Y-54641750D01*
X157866450Y-54483000D01*
X156667200Y-54483000D01*
X156667200Y-54503000D01*
X156413200Y-54503000D01*
X156413200Y-54483000D01*
X156393200Y-54483000D01*
X156393200Y-54229000D01*
X156413200Y-54229000D01*
X156413200Y-53029750D01*
X156667200Y-53029750D01*
X156667200Y-54229000D01*
X157866450Y-54229000D01*
X158025200Y-54070250D01*
X158028272Y-53506000D01*
X158016012Y-53381518D01*
X157979702Y-53261820D01*
X157920737Y-53151506D01*
X157841385Y-53054815D01*
X157744694Y-52975463D01*
X157634380Y-52916498D01*
X157514682Y-52880188D01*
X157390200Y-52867928D01*
X156825950Y-52871000D01*
X156667200Y-53029750D01*
X156413200Y-53029750D01*
X156254450Y-52871000D01*
X155690200Y-52867928D01*
X155565718Y-52880188D01*
X155446020Y-52916498D01*
X155335706Y-52975463D01*
X155239015Y-53054815D01*
X155159663Y-53151506D01*
X155100698Y-53261820D01*
X155078687Y-53334380D01*
X154946832Y-53202525D01*
X154703611Y-53040010D01*
X154433358Y-52928068D01*
X154146460Y-52871000D01*
X153853940Y-52871000D01*
X153567042Y-52928068D01*
X153296789Y-53040010D01*
X153053568Y-53202525D01*
X152846725Y-53409368D01*
X152684210Y-53652589D01*
X152572268Y-53922842D01*
X152515200Y-54209740D01*
X149274894Y-54209740D01*
X149757716Y-53589410D01*
X150281630Y-52621301D01*
X150639054Y-51580162D01*
X150820237Y-50494392D01*
X150820237Y-49393610D01*
X150639054Y-48307840D01*
X150281630Y-47266701D01*
X149856972Y-46482000D01*
X151762207Y-46482000D01*
X151765400Y-46514419D01*
X151765401Y-51529571D01*
X151762207Y-51562000D01*
X151774950Y-51691383D01*
X151812690Y-51815793D01*
X151873975Y-51930450D01*
X151956452Y-52030948D01*
X152056950Y-52113425D01*
X152171607Y-52174710D01*
X152296017Y-52212450D01*
X152392981Y-52222000D01*
X152425400Y-52225193D01*
X152457819Y-52222000D01*
X157726981Y-52222000D01*
X157759400Y-52225193D01*
X157791819Y-52222000D01*
X157888783Y-52212450D01*
X158013193Y-52174710D01*
X158127850Y-52113425D01*
X158228348Y-52030948D01*
X158310825Y-51930450D01*
X158372110Y-51815793D01*
X158409850Y-51691383D01*
X158422593Y-51562000D01*
X158419400Y-51529581D01*
X158419400Y-48866050D01*
X159659700Y-48866050D01*
X159659700Y-49127150D01*
X159710638Y-49383234D01*
X159810557Y-49624460D01*
X159955617Y-49841557D01*
X160140243Y-50026183D01*
X160357340Y-50171243D01*
X160587552Y-50266600D01*
X160357340Y-50361957D01*
X160140243Y-50507017D01*
X159955617Y-50691643D01*
X159810557Y-50908740D01*
X159710638Y-51149966D01*
X159659700Y-51406050D01*
X159659700Y-51667150D01*
X159710638Y-51923234D01*
X159810557Y-52164460D01*
X159955617Y-52381557D01*
X160140243Y-52566183D01*
X160357340Y-52711243D01*
X160587552Y-52806600D01*
X160357340Y-52901957D01*
X160140243Y-53047017D01*
X159955617Y-53231643D01*
X159810557Y-53448740D01*
X159710638Y-53689966D01*
X159659700Y-53946050D01*
X159659700Y-54207150D01*
X159710638Y-54463234D01*
X159810557Y-54704460D01*
X159955617Y-54921557D01*
X160140243Y-55106183D01*
X160357340Y-55251243D01*
X160587552Y-55346600D01*
X160357340Y-55441957D01*
X160140243Y-55587017D01*
X159955617Y-55771643D01*
X159810557Y-55988740D01*
X159710638Y-56229966D01*
X159659700Y-56486050D01*
X159659700Y-56747150D01*
X159710638Y-57003234D01*
X159810557Y-57244460D01*
X159955617Y-57461557D01*
X160140243Y-57646183D01*
X160357340Y-57791243D01*
X160587552Y-57886600D01*
X160357340Y-57981957D01*
X160140243Y-58127017D01*
X159955617Y-58311643D01*
X159810557Y-58528740D01*
X159710638Y-58769966D01*
X159659700Y-59026050D01*
X159659700Y-59287150D01*
X159710638Y-59543234D01*
X159810557Y-59784460D01*
X159955617Y-60001557D01*
X160140243Y-60186183D01*
X160357340Y-60331243D01*
X160587552Y-60426600D01*
X160357340Y-60521957D01*
X160140243Y-60667017D01*
X159955617Y-60851643D01*
X159810557Y-61068740D01*
X159710638Y-61309966D01*
X159659700Y-61566050D01*
X159659700Y-61827150D01*
X159710638Y-62083234D01*
X159810557Y-62324460D01*
X159955617Y-62541557D01*
X160140243Y-62726183D01*
X160357340Y-62871243D01*
X160592752Y-62968754D01*
X160407153Y-63036661D01*
X160308633Y-63089321D01*
X160250325Y-63322120D01*
X160985200Y-64056995D01*
X161720075Y-63322120D01*
X161661767Y-63089321D01*
X161424943Y-62979373D01*
X161378971Y-62968206D01*
X161613060Y-62871243D01*
X161830157Y-62726183D01*
X162014783Y-62541557D01*
X162159843Y-62324460D01*
X162259762Y-62083234D01*
X162310700Y-61827150D01*
X162310700Y-61566050D01*
X162259762Y-61309966D01*
X162159843Y-61068740D01*
X162014783Y-60851643D01*
X161830157Y-60667017D01*
X161613060Y-60521957D01*
X161382848Y-60426600D01*
X161613060Y-60331243D01*
X161830157Y-60186183D01*
X162014783Y-60001557D01*
X162159843Y-59784460D01*
X162259762Y-59543234D01*
X162310700Y-59287150D01*
X162310700Y-59026050D01*
X162259762Y-58769966D01*
X162159843Y-58528740D01*
X162014783Y-58311643D01*
X161830157Y-58127017D01*
X161613060Y-57981957D01*
X161382848Y-57886600D01*
X161613060Y-57791243D01*
X161830157Y-57646183D01*
X162014783Y-57461557D01*
X162159843Y-57244460D01*
X162259762Y-57003234D01*
X162310700Y-56747150D01*
X162310700Y-56486050D01*
X162259762Y-56229966D01*
X162159843Y-55988740D01*
X162014783Y-55771643D01*
X161830157Y-55587017D01*
X161613060Y-55441957D01*
X161382848Y-55346600D01*
X161613060Y-55251243D01*
X161830157Y-55106183D01*
X162014783Y-54921557D01*
X162159843Y-54704460D01*
X162259762Y-54463234D01*
X162310700Y-54207150D01*
X162310700Y-53946050D01*
X162259762Y-53689966D01*
X162159843Y-53448740D01*
X162014783Y-53231643D01*
X161830157Y-53047017D01*
X161613060Y-52901957D01*
X161382848Y-52806600D01*
X161613060Y-52711243D01*
X161830157Y-52566183D01*
X162014783Y-52381557D01*
X162159843Y-52164460D01*
X162259762Y-51923234D01*
X162310700Y-51667150D01*
X162310700Y-51406050D01*
X162259762Y-51149966D01*
X162159843Y-50908740D01*
X162014783Y-50691643D01*
X161830157Y-50507017D01*
X161613060Y-50361957D01*
X161382848Y-50266600D01*
X161613060Y-50171243D01*
X161665729Y-50136050D01*
X162199700Y-50136050D01*
X162199700Y-50397150D01*
X162250638Y-50653234D01*
X162350557Y-50894460D01*
X162495617Y-51111557D01*
X162680243Y-51296183D01*
X162897340Y-51441243D01*
X163127552Y-51536600D01*
X162897340Y-51631957D01*
X162680243Y-51777017D01*
X162495617Y-51961643D01*
X162350557Y-52178740D01*
X162250638Y-52419966D01*
X162199700Y-52676050D01*
X162199700Y-52937150D01*
X162250638Y-53193234D01*
X162350557Y-53434460D01*
X162495617Y-53651557D01*
X162680243Y-53836183D01*
X162897340Y-53981243D01*
X163127552Y-54076600D01*
X162897340Y-54171957D01*
X162680243Y-54317017D01*
X162495617Y-54501643D01*
X162350557Y-54718740D01*
X162250638Y-54959966D01*
X162199700Y-55216050D01*
X162199700Y-55477150D01*
X162250638Y-55733234D01*
X162350557Y-55974460D01*
X162495617Y-56191557D01*
X162680243Y-56376183D01*
X162897340Y-56521243D01*
X163127552Y-56616600D01*
X162897340Y-56711957D01*
X162680243Y-56857017D01*
X162495617Y-57041643D01*
X162350557Y-57258740D01*
X162250638Y-57499966D01*
X162199700Y-57756050D01*
X162199700Y-58017150D01*
X162250638Y-58273234D01*
X162350557Y-58514460D01*
X162495617Y-58731557D01*
X162680243Y-58916183D01*
X162897340Y-59061243D01*
X163127552Y-59156600D01*
X162897340Y-59251957D01*
X162680243Y-59397017D01*
X162495617Y-59581643D01*
X162350557Y-59798740D01*
X162250638Y-60039966D01*
X162199700Y-60296050D01*
X162199700Y-60557150D01*
X162250638Y-60813234D01*
X162350557Y-61054460D01*
X162495617Y-61271557D01*
X162680243Y-61456183D01*
X162897340Y-61601243D01*
X163127552Y-61696600D01*
X162897340Y-61791957D01*
X162680243Y-61937017D01*
X162495617Y-62121643D01*
X162350557Y-62338740D01*
X162250638Y-62579966D01*
X162199700Y-62836050D01*
X162199700Y-63097150D01*
X162250638Y-63353234D01*
X162350557Y-63594460D01*
X162495617Y-63811557D01*
X162680243Y-63996183D01*
X162897340Y-64141243D01*
X163132752Y-64238754D01*
X162947153Y-64306661D01*
X162848633Y-64359321D01*
X162790325Y-64592120D01*
X163525200Y-65326995D01*
X164260075Y-64592120D01*
X164201767Y-64359321D01*
X163964943Y-64249373D01*
X163918971Y-64238206D01*
X164153060Y-64141243D01*
X164370157Y-63996183D01*
X164554783Y-63811557D01*
X164699843Y-63594460D01*
X164799762Y-63353234D01*
X164850700Y-63097150D01*
X164850700Y-62836050D01*
X164799762Y-62579966D01*
X164699843Y-62338740D01*
X164554783Y-62121643D01*
X164370157Y-61937017D01*
X164153060Y-61791957D01*
X163922848Y-61696600D01*
X164153060Y-61601243D01*
X164370157Y-61456183D01*
X164554783Y-61271557D01*
X164699843Y-61054460D01*
X164799762Y-60813234D01*
X164850700Y-60557150D01*
X164850700Y-60296050D01*
X164799762Y-60039966D01*
X164699843Y-59798740D01*
X164554783Y-59581643D01*
X164370157Y-59397017D01*
X164153060Y-59251957D01*
X163922848Y-59156600D01*
X164153060Y-59061243D01*
X164370157Y-58916183D01*
X164554783Y-58731557D01*
X164699843Y-58514460D01*
X164799762Y-58273234D01*
X164850700Y-58017150D01*
X164850700Y-57756050D01*
X164799762Y-57499966D01*
X164699843Y-57258740D01*
X164554783Y-57041643D01*
X164370157Y-56857017D01*
X164153060Y-56711957D01*
X163922848Y-56616600D01*
X164153060Y-56521243D01*
X164370157Y-56376183D01*
X164554783Y-56191557D01*
X164699843Y-55974460D01*
X164799762Y-55733234D01*
X164850700Y-55477150D01*
X164850700Y-55216050D01*
X164799762Y-54959966D01*
X164699843Y-54718740D01*
X164554783Y-54501643D01*
X164370157Y-54317017D01*
X164153060Y-54171957D01*
X163922848Y-54076600D01*
X164153060Y-53981243D01*
X164370157Y-53836183D01*
X164554783Y-53651557D01*
X164699843Y-53434460D01*
X164799762Y-53193234D01*
X164850700Y-52937150D01*
X164850700Y-52676050D01*
X164799762Y-52419966D01*
X164699843Y-52178740D01*
X164554783Y-51961643D01*
X164370157Y-51777017D01*
X164153060Y-51631957D01*
X163922848Y-51536600D01*
X164153060Y-51441243D01*
X164370157Y-51296183D01*
X164554783Y-51111557D01*
X164699843Y-50894460D01*
X164799762Y-50653234D01*
X164850700Y-50397150D01*
X164850700Y-50136050D01*
X164799762Y-49879966D01*
X164699843Y-49638740D01*
X164554783Y-49421643D01*
X164370157Y-49237017D01*
X164153060Y-49091957D01*
X163911834Y-48992038D01*
X163655750Y-48941100D01*
X163394650Y-48941100D01*
X163138566Y-48992038D01*
X162897340Y-49091957D01*
X162680243Y-49237017D01*
X162495617Y-49421643D01*
X162350557Y-49638740D01*
X162250638Y-49879966D01*
X162199700Y-50136050D01*
X161665729Y-50136050D01*
X161830157Y-50026183D01*
X162014783Y-49841557D01*
X162159843Y-49624460D01*
X162259762Y-49383234D01*
X162310700Y-49127150D01*
X162310700Y-48866050D01*
X162259762Y-48609966D01*
X162159843Y-48368740D01*
X162014783Y-48151643D01*
X161830157Y-47967017D01*
X161613060Y-47821957D01*
X161371834Y-47722038D01*
X161115750Y-47671100D01*
X160854650Y-47671100D01*
X160598566Y-47722038D01*
X160357340Y-47821957D01*
X160140243Y-47967017D01*
X159955617Y-48151643D01*
X159810557Y-48368740D01*
X159710638Y-48609966D01*
X159659700Y-48866050D01*
X158419400Y-48866050D01*
X158419400Y-46514419D01*
X158422593Y-46482000D01*
X158409850Y-46352617D01*
X158372110Y-46228207D01*
X158310825Y-46113550D01*
X158228348Y-46013052D01*
X158127850Y-45930575D01*
X158013193Y-45869290D01*
X157888783Y-45831550D01*
X157791819Y-45822000D01*
X157759400Y-45818807D01*
X157726981Y-45822000D01*
X152457819Y-45822000D01*
X152425400Y-45818807D01*
X152392981Y-45822000D01*
X152296017Y-45831550D01*
X152171607Y-45869290D01*
X152056950Y-45930575D01*
X151956452Y-46013052D01*
X151873975Y-46113550D01*
X151812690Y-46228207D01*
X151774950Y-46352617D01*
X151762207Y-46482000D01*
X149856972Y-46482000D01*
X149757716Y-46298592D01*
X149081601Y-45429919D01*
X148271729Y-44684380D01*
X147350190Y-44082308D01*
X146342123Y-43640129D01*
X145275024Y-43369903D01*
X144178001Y-43279001D01*
X143080978Y-43369903D01*
X142013879Y-43640129D01*
X141005812Y-44082308D01*
X140084273Y-44684380D01*
X139274401Y-45429919D01*
X138598286Y-46298592D01*
X138074372Y-47266701D01*
X137716948Y-48307840D01*
X137535765Y-49393610D01*
X133948001Y-49393610D01*
X133948001Y-39714001D01*
X145932037Y-39714001D01*
X145963716Y-39717121D01*
X145995395Y-39714001D01*
X146090158Y-39704668D01*
X146211741Y-39667786D01*
X146323792Y-39607893D01*
X146422006Y-39527291D01*
X146502608Y-39429077D01*
X146562501Y-39317026D01*
X146599383Y-39195443D01*
X146611836Y-39069001D01*
X146608716Y-39037322D01*
X146608716Y-38089001D01*
X156747286Y-38089001D01*
X156747287Y-39037312D01*
G37*
%TD.AperFunction*%
%TD*%
M02*
