%TF.GenerationSoftware,KiCad,Pcbnew,(5.1.10)-1*%
%TF.CreationDate,2022-01-02T17:44:00+01:00*%
%TF.ProjectId,3DESPWroverB,33444553-5057-4726-9f76-6572422e6b69,rev?*%
%TF.SameCoordinates,Original*%
%TF.FileFunction,Legend,Top*%
%TF.FilePolarity,Positive*%
%FSLAX46Y46*%
G04 Gerber Fmt 4.6, Leading zero omitted, Abs format (unit mm)*
G04 Created by KiCad (PCBNEW (5.1.10)-1) date 2022-01-02 17:44:00*
%MOMM*%
%LPD*%
G01*
G04 APERTURE LIST*
%ADD10C,0.100000*%
%ADD11C,0.254000*%
%ADD12C,0.150000*%
G04 APERTURE END LIST*
D10*
%TO.C,J1*%
X163255200Y-67151600D02*
X164855200Y-67151600D01*
X164855200Y-67151600D02*
X164855200Y-47351600D01*
X164855200Y-47351600D02*
X159655200Y-47351600D01*
X159655200Y-47351600D02*
X159655200Y-67151600D01*
X159655200Y-67151600D02*
X160255200Y-67151600D01*
D11*
X161559723Y-57939933D02*
X162466866Y-57939933D01*
X162648295Y-58000409D01*
X162769247Y-58121361D01*
X162829723Y-58302790D01*
X162829723Y-58423742D01*
X162829723Y-56669933D02*
X162829723Y-57395647D01*
X162829723Y-57032790D02*
X161559723Y-57032790D01*
X161741152Y-57153742D01*
X161862104Y-57274695D01*
X161922580Y-57395647D01*
%TO.C,J2*%
D12*
X163369666Y-71207380D02*
X163369666Y-71921666D01*
X163322047Y-72064523D01*
X163226809Y-72159761D01*
X163083952Y-72207380D01*
X162988714Y-72207380D01*
X163798238Y-71302619D02*
X163845857Y-71255000D01*
X163941095Y-71207380D01*
X164179190Y-71207380D01*
X164274428Y-71255000D01*
X164322047Y-71302619D01*
X164369666Y-71397857D01*
X164369666Y-71493095D01*
X164322047Y-71635952D01*
X163750619Y-72207380D01*
X164369666Y-72207380D01*
%TO.C,J3*%
X165441380Y-45799333D02*
X166155666Y-45799333D01*
X166298523Y-45846952D01*
X166393761Y-45942190D01*
X166441380Y-46085047D01*
X166441380Y-46180285D01*
X165441380Y-45418380D02*
X165441380Y-44799333D01*
X165822333Y-45132666D01*
X165822333Y-44989809D01*
X165869952Y-44894571D01*
X165917571Y-44846952D01*
X166012809Y-44799333D01*
X166250904Y-44799333D01*
X166346142Y-44846952D01*
X166393761Y-44894571D01*
X166441380Y-44989809D01*
X166441380Y-45275523D01*
X166393761Y-45370761D01*
X166346142Y-45418380D01*
%TO.C,J4*%
X139366666Y-42708580D02*
X139366666Y-43422866D01*
X139319047Y-43565723D01*
X139223809Y-43660961D01*
X139080952Y-43708580D01*
X138985714Y-43708580D01*
X140271428Y-43041914D02*
X140271428Y-43708580D01*
X140033333Y-42660961D02*
X139795238Y-43375247D01*
X140414285Y-43375247D01*
%TO.C,J5*%
X136840980Y-69954733D02*
X137555266Y-69954733D01*
X137698123Y-70002352D01*
X137793361Y-70097590D01*
X137840980Y-70240447D01*
X137840980Y-70335685D01*
X136840980Y-69002352D02*
X136840980Y-69478542D01*
X137317171Y-69526161D01*
X137269552Y-69478542D01*
X137221933Y-69383304D01*
X137221933Y-69145209D01*
X137269552Y-69049971D01*
X137317171Y-69002352D01*
X137412409Y-68954733D01*
X137650504Y-68954733D01*
X137745742Y-69002352D01*
X137793361Y-69049971D01*
X137840980Y-69145209D01*
X137840980Y-69383304D01*
X137793361Y-69478542D01*
X137745742Y-69526161D01*
%TO.C,J6*%
X165441380Y-69802333D02*
X166155666Y-69802333D01*
X166298523Y-69849952D01*
X166393761Y-69945190D01*
X166441380Y-70088047D01*
X166441380Y-70183285D01*
X165441380Y-68897571D02*
X165441380Y-69088047D01*
X165489000Y-69183285D01*
X165536619Y-69230904D01*
X165679476Y-69326142D01*
X165869952Y-69373761D01*
X166250904Y-69373761D01*
X166346142Y-69326142D01*
X166393761Y-69278523D01*
X166441380Y-69183285D01*
X166441380Y-68992809D01*
X166393761Y-68897571D01*
X166346142Y-68849952D01*
X166250904Y-68802333D01*
X166012809Y-68802333D01*
X165917571Y-68849952D01*
X165869952Y-68897571D01*
X165822333Y-68992809D01*
X165822333Y-69183285D01*
X165869952Y-69278523D01*
X165917571Y-69326142D01*
X166012809Y-69373761D01*
%TO.C,J7*%
X139366666Y-71207380D02*
X139366666Y-71921666D01*
X139319047Y-72064523D01*
X139223809Y-72159761D01*
X139080952Y-72207380D01*
X138985714Y-72207380D01*
X139747619Y-71207380D02*
X140414285Y-71207380D01*
X139985714Y-72207380D01*
%TO.C,J8*%
X164131666Y-42657780D02*
X164131666Y-43372066D01*
X164084047Y-43514923D01*
X163988809Y-43610161D01*
X163845952Y-43657780D01*
X163750714Y-43657780D01*
X164750714Y-43086352D02*
X164655476Y-43038733D01*
X164607857Y-42991114D01*
X164560238Y-42895876D01*
X164560238Y-42848257D01*
X164607857Y-42753019D01*
X164655476Y-42705400D01*
X164750714Y-42657780D01*
X164941190Y-42657780D01*
X165036428Y-42705400D01*
X165084047Y-42753019D01*
X165131666Y-42848257D01*
X165131666Y-42895876D01*
X165084047Y-42991114D01*
X165036428Y-43038733D01*
X164941190Y-43086352D01*
X164750714Y-43086352D01*
X164655476Y-43133971D01*
X164607857Y-43181590D01*
X164560238Y-43276828D01*
X164560238Y-43467304D01*
X164607857Y-43562542D01*
X164655476Y-43610161D01*
X164750714Y-43657780D01*
X164941190Y-43657780D01*
X165036428Y-43610161D01*
X165084047Y-43562542D01*
X165131666Y-43467304D01*
X165131666Y-43276828D01*
X165084047Y-43181590D01*
X165036428Y-43133971D01*
X164941190Y-43086352D01*
%TO.C,J9*%
X136917180Y-45875533D02*
X137631466Y-45875533D01*
X137774323Y-45923152D01*
X137869561Y-46018390D01*
X137917180Y-46161247D01*
X137917180Y-46256485D01*
X137917180Y-45351723D02*
X137917180Y-45161247D01*
X137869561Y-45066009D01*
X137821942Y-45018390D01*
X137679085Y-44923152D01*
X137488609Y-44875533D01*
X137107657Y-44875533D01*
X137012419Y-44923152D01*
X136964800Y-44970771D01*
X136917180Y-45066009D01*
X136917180Y-45256485D01*
X136964800Y-45351723D01*
X137012419Y-45399342D01*
X137107657Y-45446961D01*
X137345752Y-45446961D01*
X137440990Y-45399342D01*
X137488609Y-45351723D01*
X137536228Y-45256485D01*
X137536228Y-45066009D01*
X137488609Y-44970771D01*
X137440990Y-44923152D01*
X137345752Y-44875533D01*
%TO.C,J11*%
X165517580Y-55267123D02*
X166231866Y-55267123D01*
X166374723Y-55314742D01*
X166469961Y-55409980D01*
X166517580Y-55552838D01*
X166517580Y-55648076D01*
X166517580Y-54267123D02*
X166517580Y-54838552D01*
X166517580Y-54552838D02*
X165517580Y-54552838D01*
X165660438Y-54648076D01*
X165755676Y-54743314D01*
X165803295Y-54838552D01*
X166517580Y-53314742D02*
X166517580Y-53886171D01*
X166517580Y-53600457D02*
X165517580Y-53600457D01*
X165660438Y-53695695D01*
X165755676Y-53790933D01*
X165803295Y-53886171D01*
%TO.C,J12*%
X165492180Y-61261523D02*
X166206466Y-61261523D01*
X166349323Y-61309142D01*
X166444561Y-61404380D01*
X166492180Y-61547238D01*
X166492180Y-61642476D01*
X166492180Y-60261523D02*
X166492180Y-60832952D01*
X166492180Y-60547238D02*
X165492180Y-60547238D01*
X165635038Y-60642476D01*
X165730276Y-60737714D01*
X165777895Y-60832952D01*
X165587419Y-59880571D02*
X165539800Y-59832952D01*
X165492180Y-59737714D01*
X165492180Y-59499619D01*
X165539800Y-59404380D01*
X165587419Y-59356761D01*
X165682657Y-59309142D01*
X165777895Y-59309142D01*
X165920752Y-59356761D01*
X166492180Y-59928190D01*
X166492180Y-59309142D01*
%TO.C,J13*%
X147882076Y-42556180D02*
X147882076Y-43270466D01*
X147834457Y-43413323D01*
X147739219Y-43508561D01*
X147596361Y-43556180D01*
X147501123Y-43556180D01*
X148882076Y-43556180D02*
X148310647Y-43556180D01*
X148596361Y-43556180D02*
X148596361Y-42556180D01*
X148501123Y-42699038D01*
X148405885Y-42794276D01*
X148310647Y-42841895D01*
X149215409Y-42556180D02*
X149834457Y-42556180D01*
X149501123Y-42937133D01*
X149643980Y-42937133D01*
X149739219Y-42984752D01*
X149786838Y-43032371D01*
X149834457Y-43127609D01*
X149834457Y-43365704D01*
X149786838Y-43460942D01*
X149739219Y-43508561D01*
X149643980Y-43556180D01*
X149358266Y-43556180D01*
X149263028Y-43508561D01*
X149215409Y-43460942D01*
%TO.C,J14*%
X153876476Y-42556180D02*
X153876476Y-43270466D01*
X153828857Y-43413323D01*
X153733619Y-43508561D01*
X153590761Y-43556180D01*
X153495523Y-43556180D01*
X154876476Y-43556180D02*
X154305047Y-43556180D01*
X154590761Y-43556180D02*
X154590761Y-42556180D01*
X154495523Y-42699038D01*
X154400285Y-42794276D01*
X154305047Y-42841895D01*
X155733619Y-42889514D02*
X155733619Y-43556180D01*
X155495523Y-42508561D02*
X155257428Y-43222847D01*
X155876476Y-43222847D01*
%TO.C,J15*%
X153825676Y-71359780D02*
X153825676Y-72074066D01*
X153778057Y-72216923D01*
X153682819Y-72312161D01*
X153539961Y-72359780D01*
X153444723Y-72359780D01*
X154825676Y-72359780D02*
X154254247Y-72359780D01*
X154539961Y-72359780D02*
X154539961Y-71359780D01*
X154444723Y-71502638D01*
X154349485Y-71597876D01*
X154254247Y-71645495D01*
X155730438Y-71359780D02*
X155254247Y-71359780D01*
X155206628Y-71835971D01*
X155254247Y-71788352D01*
X155349485Y-71740733D01*
X155587580Y-71740733D01*
X155682819Y-71788352D01*
X155730438Y-71835971D01*
X155778057Y-71931209D01*
X155778057Y-72169304D01*
X155730438Y-72264542D01*
X155682819Y-72312161D01*
X155587580Y-72359780D01*
X155349485Y-72359780D01*
X155254247Y-72312161D01*
X155206628Y-72264542D01*
%TO.C,J16*%
X147805876Y-71435980D02*
X147805876Y-72150266D01*
X147758257Y-72293123D01*
X147663019Y-72388361D01*
X147520161Y-72435980D01*
X147424923Y-72435980D01*
X148805876Y-72435980D02*
X148234447Y-72435980D01*
X148520161Y-72435980D02*
X148520161Y-71435980D01*
X148424923Y-71578838D01*
X148329685Y-71674076D01*
X148234447Y-71721695D01*
X149663019Y-71435980D02*
X149472542Y-71435980D01*
X149377304Y-71483600D01*
X149329685Y-71531219D01*
X149234447Y-71674076D01*
X149186828Y-71864552D01*
X149186828Y-72245504D01*
X149234447Y-72340742D01*
X149282066Y-72388361D01*
X149377304Y-72435980D01*
X149567780Y-72435980D01*
X149663019Y-72388361D01*
X149710638Y-72340742D01*
X149758257Y-72245504D01*
X149758257Y-72007409D01*
X149710638Y-71912171D01*
X149663019Y-71864552D01*
X149567780Y-71816933D01*
X149377304Y-71816933D01*
X149282066Y-71864552D01*
X149234447Y-71912171D01*
X149186828Y-72007409D01*
%TO.C,J17*%
X136790180Y-61236123D02*
X137504466Y-61236123D01*
X137647323Y-61283742D01*
X137742561Y-61378980D01*
X137790180Y-61521838D01*
X137790180Y-61617076D01*
X137790180Y-60236123D02*
X137790180Y-60807552D01*
X137790180Y-60521838D02*
X136790180Y-60521838D01*
X136933038Y-60617076D01*
X137028276Y-60712314D01*
X137075895Y-60807552D01*
X136790180Y-59902790D02*
X136790180Y-59236123D01*
X137790180Y-59664695D01*
%TO.C,J18*%
X136917180Y-55267123D02*
X137631466Y-55267123D01*
X137774323Y-55314742D01*
X137869561Y-55409980D01*
X137917180Y-55552838D01*
X137917180Y-55648076D01*
X137917180Y-54267123D02*
X137917180Y-54838552D01*
X137917180Y-54552838D02*
X136917180Y-54552838D01*
X137060038Y-54648076D01*
X137155276Y-54743314D01*
X137202895Y-54838552D01*
X137345752Y-53695695D02*
X137298133Y-53790933D01*
X137250514Y-53838552D01*
X137155276Y-53886171D01*
X137107657Y-53886171D01*
X137012419Y-53838552D01*
X136964800Y-53790933D01*
X136917180Y-53695695D01*
X136917180Y-53505219D01*
X136964800Y-53409980D01*
X137012419Y-53362361D01*
X137107657Y-53314742D01*
X137155276Y-53314742D01*
X137250514Y-53362361D01*
X137298133Y-53409980D01*
X137345752Y-53505219D01*
X137345752Y-53695695D01*
X137393371Y-53790933D01*
X137440990Y-53838552D01*
X137536228Y-53886171D01*
X137726704Y-53886171D01*
X137821942Y-53838552D01*
X137869561Y-53790933D01*
X137917180Y-53695695D01*
X137917180Y-53505219D01*
X137869561Y-53409980D01*
X137821942Y-53362361D01*
X137726704Y-53314742D01*
X137536228Y-53314742D01*
X137440990Y-53362361D01*
X137393371Y-53409980D01*
X137345752Y-53505219D01*
%TD*%
M02*
