%TF.GenerationSoftware,KiCad,Pcbnew,(5.1.10)-1*%
%TF.CreationDate,2022-01-02T17:44:00+01:00*%
%TF.ProjectId,3DESPWroverB,33444553-5057-4726-9f76-6572422e6b69,rev?*%
%TF.SameCoordinates,Original*%
%TF.FileFunction,Profile,NP*%
%FSLAX46Y46*%
G04 Gerber Fmt 4.6, Leading zero omitted, Abs format (unit mm)*
G04 Created by KiCad (PCBNEW (5.1.10)-1) date 2022-01-02 17:44:00*
%MOMM*%
%LPD*%
G01*
G04 APERTURE LIST*
%TA.AperFunction,Profile*%
%ADD10C,0.050000*%
%TD*%
%TA.AperFunction,Profile*%
%ADD11C,0.020000*%
%TD*%
G04 APERTURE END LIST*
D10*
X157759400Y-62230000D02*
X152425400Y-62230000D01*
X152425400Y-67564000D02*
X157759400Y-67564000D01*
X157759400Y-67564000D02*
X157759400Y-62230000D01*
X152425400Y-62230000D02*
X152425400Y-67564000D01*
X157759400Y-46482000D02*
X152425400Y-46482000D01*
X157759400Y-51562000D02*
X157759400Y-46482000D01*
X152425400Y-51562000D02*
X157759400Y-51562000D01*
X152425400Y-46482000D02*
X152425400Y-51562000D01*
D11*
X133781800Y-71678800D02*
X133781800Y-75615800D01*
X135712200Y-71678800D02*
X135712200Y-75615800D01*
X133781800Y-71678800D02*
X135712200Y-71678800D01*
X135712200Y-75615800D02*
X133781800Y-75615800D01*
X168884600Y-43129200D02*
X166954200Y-43129200D01*
X168884600Y-39192200D02*
X168884600Y-43129200D01*
X166954200Y-39192200D02*
X168884600Y-39192200D01*
X166954200Y-39192200D02*
X166954200Y-43129200D01*
X170053000Y-67444001D02*
X170053000Y-71444000D01*
X170053000Y-43444001D02*
X170053000Y-47444001D01*
X161678000Y-39069001D02*
X165678000Y-39069001D01*
X137678001Y-39069001D02*
X141678001Y-39069001D01*
X133303001Y-47444001D02*
X133303001Y-43444001D01*
X133303001Y-71444000D02*
X133303001Y-67444001D01*
X137678001Y-75819000D02*
X141678001Y-75819000D01*
X161678000Y-75819000D02*
X165678000Y-75819000D01*
X145963716Y-37444001D02*
X157392286Y-37444001D01*
X145963716Y-39069001D02*
X145963716Y-37444001D01*
X133303001Y-43444001D02*
X133303001Y-39069001D01*
X133303001Y-39069001D02*
X137678001Y-39069001D01*
X133303001Y-51729715D02*
X133303001Y-47444001D01*
X157392286Y-39069001D02*
X161678000Y-39069001D01*
X131678001Y-63158286D02*
X131678001Y-51729715D01*
X131678001Y-51729715D02*
X133303001Y-51729715D01*
X141678001Y-39069001D02*
X145963716Y-39069001D01*
X157392286Y-37444001D02*
X157392286Y-39069001D01*
X133303001Y-67444001D02*
X133303001Y-63158286D01*
X170053000Y-51729715D02*
X171678000Y-51729715D01*
X137678001Y-75819000D02*
X133303001Y-75819000D01*
X145963715Y-75819000D02*
X141678001Y-75819000D01*
X157392286Y-77444000D02*
X145963715Y-77444000D01*
X161678000Y-75819000D02*
X157392286Y-75819000D01*
X171678000Y-51729715D02*
X171678000Y-63158286D01*
X171678000Y-63158286D02*
X170078000Y-63158287D01*
X170053000Y-47444001D02*
X170053000Y-51729715D01*
X170053000Y-39069001D02*
X170053000Y-43444001D01*
X170053000Y-75819000D02*
X165678000Y-75819000D01*
X170053000Y-63158287D02*
X170053000Y-67444001D01*
X165678000Y-39069001D02*
X170053000Y-39069001D01*
X145963715Y-77444000D02*
X145963715Y-75819000D01*
X170053000Y-71444000D02*
X170053000Y-75819000D01*
X133303001Y-63158286D02*
X131678001Y-63158286D01*
X157392286Y-75819000D02*
X157392286Y-77444000D01*
X170078000Y-63158287D02*
X170053000Y-63158287D01*
X133303001Y-75819000D02*
X133303001Y-71444000D01*
X150178001Y-49944001D02*
G75*
G03*
X150178001Y-49944001I-6000000J0D01*
G01*
X150178001Y-64944001D02*
G75*
G03*
X150178001Y-64944001I-6000000J0D01*
G01*
M02*
