M48
; DRILL file {KiCad (5.1.10)-1} date 01/02/22 17:44:04
; FORMAT={-:-/ absolute / metric / decimal}
; #@! TF.CreationDate,2022-01-02T17:44:04+01:00
; #@! TF.GenerationSoftware,Kicad,Pcbnew,(5.1.10)-1
; #@! TF.FileFunction,Plated,1,2,PTH
FMAT,2
METRIC
T1C0.400
T2C0.850
T3C1.000
%
G90
G05
T1
X134.29Y-66.192
X134.823Y-63.906
X135.661Y-65.481
X136.5Y-40.64
X142.9Y-74.295
X143.256Y-40.03
X143.307Y-41.935
X149.073Y-70.079
X151.105Y-70.079
X153.314Y-70.053
X158.191Y-44.399
X159.283Y-69.571
X160.223Y-74.295
X160.528Y-40.615
X160.528Y-44.399
X161.493Y-69.571
X162.433Y-44.399
X163.678Y-69.545
X167.234Y-72.771
X167.513Y-48.92
X168.097Y-51.359
X168.148Y-74.651
X168.529Y-65.811
X169.062Y-49.657
T2
X160.985Y-48.997
X160.985Y-51.537
X160.985Y-54.077
X160.985Y-56.617
X160.985Y-59.157
X160.985Y-61.697
X160.985Y-64.237
X163.525Y-50.267
X163.525Y-52.807
X163.525Y-55.347
X163.525Y-57.887
X163.525Y-60.427
X163.525Y-62.967
X163.525Y-65.507
T3
X154.0Y-54.356
X154.0Y-56.896
X154.0Y-59.436
X156.54Y-54.356
X156.54Y-56.896
X156.54Y-59.436
T0
M30
